<?xml version="1.0" encoding="utf-8"?>
<svg xmlns="http://www.w3.org/2000/svg" xmlns:xlink="http://www.w3.org/1999/xlink" width="1920" height="1080" viewBox="0 0 7680 4320">
<defs>
  <clipPath id="clip430">
    <rect x="0" y="0" width="7680" height="4320"/>
  </clipPath>
</defs>
<path clip-path="url(#clip430)" d="M0 4320 L7680 4320 L7680 0 L0 0  Z" fill="#ffffff" fill-rule="evenodd" fill-opacity="1"/>
<defs>
  <clipPath id="clip431">
    <rect x="1536" y="0" width="5377" height="4320"/>
  </clipPath>
</defs>
<path clip-path="url(#clip430)" d="M333.227 4128.8 L7632.76 4128.8 L7632.76 114.022 L333.227 114.022  Z" fill="#ffffff" fill-rule="evenodd" fill-opacity="1"/>
<defs>
  <clipPath id="clip432">
    <rect x="333" y="114" width="7301" height="4016"/>
  </clipPath>
</defs>
<polyline clip-path="url(#clip432)" style="stroke:#000000; stroke-linecap:round; stroke-linejoin:round; stroke-width:2; stroke-opacity:0.1; fill:none" points="539.817,4128.8 539.817,114.022 "/>
<polyline clip-path="url(#clip432)" style="stroke:#000000; stroke-linecap:round; stroke-linejoin:round; stroke-width:2; stroke-opacity:0.1; fill:none" points="1917.09,4128.8 1917.09,114.022 "/>
<polyline clip-path="url(#clip432)" style="stroke:#000000; stroke-linecap:round; stroke-linejoin:round; stroke-width:2; stroke-opacity:0.1; fill:none" points="3294.36,4128.8 3294.36,114.022 "/>
<polyline clip-path="url(#clip432)" style="stroke:#000000; stroke-linecap:round; stroke-linejoin:round; stroke-width:2; stroke-opacity:0.1; fill:none" points="4671.63,4128.8 4671.63,114.022 "/>
<polyline clip-path="url(#clip432)" style="stroke:#000000; stroke-linecap:round; stroke-linejoin:round; stroke-width:2; stroke-opacity:0.1; fill:none" points="6048.9,4128.8 6048.9,114.022 "/>
<polyline clip-path="url(#clip432)" style="stroke:#000000; stroke-linecap:round; stroke-linejoin:round; stroke-width:2; stroke-opacity:0.1; fill:none" points="7426.17,4128.8 7426.17,114.022 "/>
<polyline clip-path="url(#clip432)" style="stroke:#000000; stroke-linecap:round; stroke-linejoin:round; stroke-width:2; stroke-opacity:0.1; fill:none" points="333.227,4004.73 7632.76,4004.73 "/>
<polyline clip-path="url(#clip432)" style="stroke:#000000; stroke-linecap:round; stroke-linejoin:round; stroke-width:2; stroke-opacity:0.1; fill:none" points="333.227,3024.57 7632.76,3024.57 "/>
<polyline clip-path="url(#clip432)" style="stroke:#000000; stroke-linecap:round; stroke-linejoin:round; stroke-width:2; stroke-opacity:0.1; fill:none" points="333.227,2044.41 7632.76,2044.41 "/>
<polyline clip-path="url(#clip432)" style="stroke:#000000; stroke-linecap:round; stroke-linejoin:round; stroke-width:2; stroke-opacity:0.1; fill:none" points="333.227,1064.25 7632.76,1064.25 "/>
<polyline clip-path="url(#clip430)" style="stroke:#000000; stroke-linecap:round; stroke-linejoin:round; stroke-width:4; stroke-opacity:1; fill:none" points="333.227,4128.8 7632.76,4128.8 "/>
<polyline clip-path="url(#clip430)" style="stroke:#000000; stroke-linecap:round; stroke-linejoin:round; stroke-width:4; stroke-opacity:1; fill:none" points="539.817,4128.8 539.817,4109.91 "/>
<polyline clip-path="url(#clip430)" style="stroke:#000000; stroke-linecap:round; stroke-linejoin:round; stroke-width:4; stroke-opacity:1; fill:none" points="1917.09,4128.8 1917.09,4109.91 "/>
<polyline clip-path="url(#clip430)" style="stroke:#000000; stroke-linecap:round; stroke-linejoin:round; stroke-width:4; stroke-opacity:1; fill:none" points="3294.36,4128.8 3294.36,4109.91 "/>
<polyline clip-path="url(#clip430)" style="stroke:#000000; stroke-linecap:round; stroke-linejoin:round; stroke-width:4; stroke-opacity:1; fill:none" points="4671.63,4128.8 4671.63,4109.91 "/>
<polyline clip-path="url(#clip430)" style="stroke:#000000; stroke-linecap:round; stroke-linejoin:round; stroke-width:4; stroke-opacity:1; fill:none" points="6048.9,4128.8 6048.9,4109.91 "/>
<polyline clip-path="url(#clip430)" style="stroke:#000000; stroke-linecap:round; stroke-linejoin:round; stroke-width:4; stroke-opacity:1; fill:none" points="7426.17,4128.8 7426.17,4109.91 "/>
<path clip-path="url(#clip430)" d="M539.817 4201.96 Q536.206 4201.96 534.378 4205.53 Q532.572 4209.07 532.572 4216.2 Q532.572 4223.31 534.378 4226.87 Q536.206 4230.41 539.817 4230.41 Q543.452 4230.41 545.257 4226.87 Q547.086 4223.31 547.086 4216.2 Q547.086 4209.07 545.257 4205.53 Q543.452 4201.96 539.817 4201.96 M539.817 4198.26 Q545.628 4198.26 548.683 4202.87 Q551.762 4207.45 551.762 4216.2 Q551.762 4224.93 548.683 4229.53 Q545.628 4234.12 539.817 4234.12 Q534.007 4234.12 530.929 4229.53 Q527.873 4224.93 527.873 4216.2 Q527.873 4207.45 530.929 4202.87 Q534.007 4198.26 539.817 4198.26 Z" fill="#000000" fill-rule="nonzero" fill-opacity="1" /><path clip-path="url(#clip430)" d="M1907.47 4229.51 L1915.11 4229.51 L1915.11 4203.14 L1906.8 4204.81 L1906.8 4200.55 L1915.06 4198.88 L1919.74 4198.88 L1919.74 4229.51 L1927.38 4229.51 L1927.38 4233.44 L1907.47 4233.44 L1907.47 4229.51 Z" fill="#000000" fill-rule="nonzero" fill-opacity="1" /><path clip-path="url(#clip430)" d="M3289.01 4229.51 L3305.33 4229.51 L3305.33 4233.44 L3283.38 4233.44 L3283.38 4229.51 Q3286.05 4226.76 3290.63 4222.13 Q3295.24 4217.47 3296.42 4216.13 Q3298.66 4213.61 3299.54 4211.87 Q3300.44 4210.11 3300.44 4208.42 Q3300.44 4205.67 3298.5 4203.93 Q3296.58 4202.2 3293.48 4202.2 Q3291.28 4202.2 3288.82 4202.96 Q3286.39 4203.72 3283.62 4205.27 L3283.62 4200.55 Q3286.44 4199.42 3288.89 4198.84 Q3291.35 4198.26 3293.38 4198.26 Q3298.75 4198.26 3301.95 4200.95 Q3305.14 4203.63 3305.14 4208.12 Q3305.14 4210.25 3304.33 4212.17 Q3303.55 4214.07 3301.44 4216.66 Q3300.86 4217.33 3297.76 4220.55 Q3294.66 4223.75 3289.01 4229.51 Z" fill="#000000" fill-rule="nonzero" fill-opacity="1" /><path clip-path="url(#clip430)" d="M4675.87 4214.81 Q4679.23 4215.53 4681.11 4217.8 Q4683 4220.07 4683 4223.4 Q4683 4228.51 4679.49 4231.32 Q4675.97 4234.12 4669.49 4234.12 Q4667.31 4234.12 4664.99 4233.68 Q4662.7 4233.26 4660.25 4232.4 L4660.25 4227.89 Q4662.19 4229.02 4664.51 4229.6 Q4666.82 4230.18 4669.35 4230.18 Q4673.74 4230.18 4676.04 4228.44 Q4678.35 4226.71 4678.35 4223.4 Q4678.35 4220.34 4676.2 4218.63 Q4674.07 4216.89 4670.25 4216.89 L4666.22 4216.89 L4666.22 4213.05 L4670.43 4213.05 Q4673.88 4213.05 4675.71 4211.69 Q4677.54 4210.3 4677.54 4207.7 Q4677.54 4205.04 4675.64 4203.63 Q4673.77 4202.2 4670.25 4202.2 Q4668.33 4202.2 4666.13 4202.61 Q4663.93 4203.03 4661.29 4203.91 L4661.29 4199.74 Q4663.95 4199 4666.27 4198.63 Q4668.61 4198.26 4670.67 4198.26 Q4675.99 4198.26 4679.09 4200.69 Q4682.19 4203.1 4682.19 4207.22 Q4682.19 4210.09 4680.55 4212.08 Q4678.91 4214.05 4675.87 4214.81 Z" fill="#000000" fill-rule="nonzero" fill-opacity="1" /><path clip-path="url(#clip430)" d="M6051.91 4202.96 L6040.1 4221.41 L6051.91 4221.41 L6051.91 4202.96 M6050.68 4198.88 L6056.56 4198.88 L6056.56 4221.41 L6061.49 4221.41 L6061.49 4225.3 L6056.56 4225.3 L6056.56 4233.44 L6051.91 4233.44 L6051.91 4225.3 L6036.3 4225.3 L6036.3 4220.78 L6050.68 4198.88 Z" fill="#000000" fill-rule="nonzero" fill-opacity="1" /><path clip-path="url(#clip430)" d="M7416.44 4198.88 L7434.8 4198.88 L7434.8 4202.82 L7420.73 4202.82 L7420.73 4211.29 Q7421.74 4210.94 7422.76 4210.78 Q7423.78 4210.6 7424.8 4210.6 Q7430.59 4210.6 7433.97 4213.77 Q7437.35 4216.94 7437.35 4222.36 Q7437.35 4227.94 7433.87 4231.04 Q7430.4 4234.12 7424.08 4234.12 Q7421.91 4234.12 7419.64 4233.75 Q7417.39 4233.38 7414.98 4232.63 L7414.98 4227.94 Q7417.07 4229.07 7419.29 4229.63 Q7421.51 4230.18 7423.99 4230.18 Q7427.99 4230.18 7430.33 4228.07 Q7432.67 4225.97 7432.67 4222.36 Q7432.67 4218.75 7430.33 4216.64 Q7427.99 4214.53 7423.99 4214.53 Q7422.11 4214.53 7420.24 4214.95 Q7418.39 4215.37 7416.44 4216.25 L7416.44 4198.88 Z" fill="#000000" fill-rule="nonzero" fill-opacity="1" /><path clip-path="url(#clip430)" d="M3812.53 4305.35 L3852.73 4305.35 L3852.73 4310.76 L3835.86 4310.76 L3835.86 4352.87 L3829.4 4352.87 L3829.4 4310.76 L3812.53 4310.76 L3812.53 4305.35 Z" fill="#000000" fill-rule="nonzero" fill-opacity="1" /><path clip-path="url(#clip430)" d="M3856.68 4317.22 L3862.54 4317.22 L3862.54 4352.87 L3856.68 4352.87 L3856.68 4317.22 M3856.68 4303.34 L3862.54 4303.34 L3862.54 4310.76 L3856.68 4310.76 L3856.68 4303.34 Z" fill="#000000" fill-rule="nonzero" fill-opacity="1" /><path clip-path="url(#clip430)" d="M3905.28 4333.58 L3905.28 4336.45 L3878.36 4336.45 Q3878.74 4342.49 3881.98 4345.68 Q3885.26 4348.83 3891.09 4348.83 Q3894.46 4348.83 3897.61 4348 Q3900.79 4347.17 3903.91 4345.52 L3903.91 4351.05 Q3900.76 4352.39 3897.45 4353.09 Q3894.14 4353.79 3890.74 4353.79 Q3882.21 4353.79 3877.21 4348.83 Q3872.24 4343.86 3872.24 4335.39 Q3872.24 4326.64 3876.95 4321.52 Q3881.7 4316.36 3889.72 4316.36 Q3896.91 4316.36 3901.08 4321.01 Q3905.28 4325.62 3905.28 4333.58 M3899.43 4331.86 Q3899.36 4327.06 3896.72 4324.19 Q3894.11 4321.33 3889.78 4321.33 Q3884.88 4321.33 3881.92 4324.1 Q3878.99 4326.86 3878.55 4331.89 L3899.43 4331.86 Z" fill="#000000" fill-rule="nonzero" fill-opacity="1" /><path clip-path="url(#clip430)" d="M3942.65 4324.06 Q3944.84 4320.12 3947.9 4318.24 Q3950.96 4316.36 3955.09 4316.36 Q3960.66 4316.36 3963.69 4320.28 Q3966.71 4324.16 3966.71 4331.35 L3966.71 4352.87 L3960.82 4352.87 L3960.82 4331.54 Q3960.82 4326.42 3959.01 4323.94 Q3957.19 4321.45 3953.47 4321.45 Q3948.92 4321.45 3946.28 4324.48 Q3943.64 4327.5 3943.64 4332.72 L3943.64 4352.87 L3937.75 4352.87 L3937.75 4331.54 Q3937.75 4326.39 3935.93 4323.94 Q3934.12 4321.45 3930.33 4321.45 Q3925.84 4321.45 3923.2 4324.51 Q3920.56 4327.53 3920.56 4332.72 L3920.56 4352.87 L3914.67 4352.87 L3914.67 4317.22 L3920.56 4317.22 L3920.56 4322.76 Q3922.56 4319.48 3925.37 4317.92 Q3928.17 4316.36 3932.02 4316.36 Q3935.9 4316.36 3938.61 4318.33 Q3941.34 4320.31 3942.65 4324.06 Z" fill="#000000" fill-rule="nonzero" fill-opacity="1" /><path clip-path="url(#clip430)" d="M3984.06 4347.52 L3984.06 4366.43 L3978.17 4366.43 L3978.17 4317.22 L3984.06 4317.22 L3984.06 4322.63 Q3985.9 4319.45 3988.7 4317.92 Q3991.54 4316.36 3995.45 4316.36 Q4001.95 4316.36 4005.99 4321.52 Q4010.06 4326.67 4010.06 4335.08 Q4010.06 4343.48 4005.99 4348.64 Q4001.95 4353.79 3995.45 4353.79 Q3991.54 4353.79 3988.7 4352.26 Q3985.9 4350.7 3984.06 4347.52 M4003.98 4335.08 Q4003.98 4328.62 4001.31 4324.96 Q3998.67 4321.26 3994.02 4321.26 Q3989.37 4321.26 3986.7 4324.96 Q3984.06 4328.62 3984.06 4335.08 Q3984.06 4341.54 3986.7 4345.23 Q3989.37 4348.89 3994.02 4348.89 Q3998.67 4348.89 4001.31 4345.23 Q4003.98 4341.54 4003.98 4335.08 Z" fill="#000000" fill-rule="nonzero" fill-opacity="1" /><path clip-path="url(#clip430)" d="M4033.58 4321.33 Q4028.87 4321.33 4026.14 4325.02 Q4023.4 4328.68 4023.4 4335.08 Q4023.4 4341.47 4026.1 4345.17 Q4028.84 4348.83 4033.58 4348.83 Q4038.26 4348.83 4041 4345.13 Q4043.74 4341.44 4043.74 4335.08 Q4043.74 4328.74 4041 4325.05 Q4038.26 4321.33 4033.58 4321.33 M4033.58 4316.36 Q4041.22 4316.36 4045.58 4321.33 Q4049.94 4326.29 4049.94 4335.08 Q4049.94 4343.83 4045.58 4348.83 Q4041.22 4353.79 4033.58 4353.79 Q4025.91 4353.79 4021.55 4348.83 Q4017.22 4343.83 4017.22 4335.08 Q4017.22 4326.29 4021.55 4321.33 Q4025.91 4316.36 4033.58 4316.36 Z" fill="#000000" fill-rule="nonzero" fill-opacity="1" /><path clip-path="url(#clip430)" d="M4094.44 4303.41 Q4090.17 4310.73 4088.11 4317.89 Q4086.04 4325.05 4086.04 4332.4 Q4086.04 4339.76 4088.11 4346.98 Q4090.21 4354.17 4094.44 4361.46 L4089.35 4361.46 Q4084.57 4353.98 4082.19 4346.76 Q4079.83 4339.53 4079.83 4332.4 Q4079.83 4325.31 4082.19 4318.11 Q4084.54 4310.92 4089.35 4303.41 L4094.44 4303.41 Z" fill="#000000" fill-rule="nonzero" fill-opacity="1" /><path clip-path="url(#clip430)" d="M4128.53 4318.27 L4128.53 4323.81 Q4126.04 4322.54 4123.37 4321.9 Q4120.7 4321.26 4117.83 4321.26 Q4113.47 4321.26 4111.28 4322.6 Q4109.11 4323.94 4109.11 4326.61 Q4109.11 4328.65 4110.67 4329.82 Q4112.23 4330.97 4116.94 4332.02 L4118.95 4332.47 Q4125.19 4333.8 4127.8 4336.25 Q4130.44 4338.67 4130.44 4343.03 Q4130.44 4348 4126.49 4350.9 Q4122.58 4353.79 4115.7 4353.79 Q4112.84 4353.79 4109.72 4353.22 Q4106.63 4352.68 4103.19 4351.56 L4103.19 4345.52 Q4106.44 4347.2 4109.59 4348.06 Q4112.74 4348.89 4115.83 4348.89 Q4119.97 4348.89 4122.19 4347.49 Q4124.42 4346.06 4124.42 4343.48 Q4124.42 4341.09 4122.8 4339.82 Q4121.21 4338.55 4115.76 4337.37 L4113.73 4336.89 Q4108.28 4335.75 4105.87 4333.39 Q4103.45 4331 4103.45 4326.86 Q4103.45 4321.84 4107.01 4319.1 Q4110.58 4316.36 4117.13 4316.36 Q4120.38 4316.36 4123.24 4316.84 Q4126.11 4317.32 4128.53 4318.27 Z" fill="#000000" fill-rule="nonzero" fill-opacity="1" /><path clip-path="url(#clip430)" d="M4138.84 4303.41 L4143.93 4303.41 Q4148.71 4310.92 4151.06 4318.11 Q4153.45 4325.31 4153.45 4332.4 Q4153.45 4339.53 4151.06 4346.76 Q4148.71 4353.98 4143.93 4361.46 L4138.84 4361.46 Q4143.07 4354.17 4145.14 4346.98 Q4147.24 4339.76 4147.24 4332.4 Q4147.24 4325.05 4145.14 4317.89 Q4143.07 4310.73 4138.84 4303.41 Z" fill="#000000" fill-rule="nonzero" fill-opacity="1" /><polyline clip-path="url(#clip430)" style="stroke:#000000; stroke-linecap:round; stroke-linejoin:round; stroke-width:4; stroke-opacity:1; fill:none" points="333.227,4128.8 333.227,114.022 "/>
<polyline clip-path="url(#clip430)" style="stroke:#000000; stroke-linecap:round; stroke-linejoin:round; stroke-width:4; stroke-opacity:1; fill:none" points="333.227,4004.73 352.125,4004.73 "/>
<polyline clip-path="url(#clip430)" style="stroke:#000000; stroke-linecap:round; stroke-linejoin:round; stroke-width:4; stroke-opacity:1; fill:none" points="333.227,3024.57 352.125,3024.57 "/>
<polyline clip-path="url(#clip430)" style="stroke:#000000; stroke-linecap:round; stroke-linejoin:round; stroke-width:4; stroke-opacity:1; fill:none" points="333.227,2044.41 352.125,2044.41 "/>
<polyline clip-path="url(#clip430)" style="stroke:#000000; stroke-linecap:round; stroke-linejoin:round; stroke-width:4; stroke-opacity:1; fill:none" points="333.227,1064.25 352.125,1064.25 "/>
<path clip-path="url(#clip430)" d="M80.4352 4005.18 L110.111 4005.18 L110.111 4009.12 L80.4352 4009.12 L80.4352 4005.18 Z" fill="#000000" fill-rule="nonzero" fill-opacity="1" /><path clip-path="url(#clip430)" d="M130.203 3990.53 Q126.592 3990.53 124.764 3994.1 Q122.958 3997.64 122.958 4004.77 Q122.958 4011.87 124.764 4015.44 Q126.592 4018.98 130.203 4018.98 Q133.838 4018.98 135.643 4015.44 Q137.472 4011.87 137.472 4004.77 Q137.472 3997.64 135.643 3994.1 Q133.838 3990.53 130.203 3990.53 M130.203 3986.83 Q136.014 3986.83 139.069 3991.43 Q142.148 3996.02 142.148 4004.77 Q142.148 4013.49 139.069 4018.1 Q136.014 4022.68 130.203 4022.68 Q124.393 4022.68 121.315 4018.1 Q118.259 4013.49 118.259 4004.77 Q118.259 3996.02 121.315 3991.43 Q124.393 3986.83 130.203 3986.83 Z" fill="#000000" fill-rule="nonzero" fill-opacity="1" /><path clip-path="url(#clip430)" d="M150.365 4016.13 L155.25 4016.13 L155.25 4022.01 L150.365 4022.01 L150.365 4016.13 Z" fill="#000000" fill-rule="nonzero" fill-opacity="1" /><path clip-path="url(#clip430)" d="M175.435 3990.53 Q171.824 3990.53 169.995 3994.1 Q168.189 3997.64 168.189 4004.77 Q168.189 4011.87 169.995 4015.44 Q171.824 4018.98 175.435 4018.98 Q179.069 4018.98 180.874 4015.44 Q182.703 4011.87 182.703 4004.77 Q182.703 3997.64 180.874 3994.1 Q179.069 3990.53 175.435 3990.53 M175.435 3986.83 Q181.245 3986.83 184.3 3991.43 Q187.379 3996.02 187.379 4004.77 Q187.379 4013.49 184.3 4018.1 Q181.245 4022.68 175.435 4022.68 Q169.624 4022.68 166.546 4018.1 Q163.49 4013.49 163.49 4004.77 Q163.49 3996.02 166.546 3991.43 Q169.624 3986.83 175.435 3986.83 Z" fill="#000000" fill-rule="nonzero" fill-opacity="1" /><path clip-path="url(#clip430)" d="M208.444 3991.53 L196.638 4009.98 L208.444 4009.98 L208.444 3991.53 M207.217 3987.45 L213.096 3987.45 L213.096 4009.98 L218.027 4009.98 L218.027 4013.86 L213.096 4013.86 L213.096 4022.01 L208.444 4022.01 L208.444 4013.86 L192.842 4013.86 L192.842 4009.35 L207.217 3987.45 Z" fill="#000000" fill-rule="nonzero" fill-opacity="1" /><path clip-path="url(#clip430)" d="M82.5185 3025.02 L112.194 3025.02 L112.194 3028.96 L82.5185 3028.96 L82.5185 3025.02 Z" fill="#000000" fill-rule="nonzero" fill-opacity="1" /><path clip-path="url(#clip430)" d="M132.287 3010.37 Q128.676 3010.37 126.847 3013.93 Q125.041 3017.48 125.041 3024.6 Q125.041 3031.71 126.847 3035.28 Q128.676 3038.82 132.287 3038.82 Q135.921 3038.82 137.727 3035.28 Q139.555 3031.71 139.555 3024.6 Q139.555 3017.48 137.727 3013.93 Q135.921 3010.37 132.287 3010.37 M132.287 3006.67 Q138.097 3006.67 141.152 3011.27 Q144.231 3015.86 144.231 3024.6 Q144.231 3033.33 141.152 3037.94 Q138.097 3042.52 132.287 3042.52 Q126.477 3042.52 123.398 3037.94 Q120.342 3033.33 120.342 3024.6 Q120.342 3015.86 123.398 3011.27 Q126.477 3006.67 132.287 3006.67 Z" fill="#000000" fill-rule="nonzero" fill-opacity="1" /><path clip-path="url(#clip430)" d="M152.449 3035.97 L157.333 3035.97 L157.333 3041.85 L152.449 3041.85 L152.449 3035.97 Z" fill="#000000" fill-rule="nonzero" fill-opacity="1" /><path clip-path="url(#clip430)" d="M177.518 3010.37 Q173.907 3010.37 172.078 3013.93 Q170.273 3017.48 170.273 3024.6 Q170.273 3031.71 172.078 3035.28 Q173.907 3038.82 177.518 3038.82 Q181.152 3038.82 182.958 3035.28 Q184.786 3031.71 184.786 3024.6 Q184.786 3017.48 182.958 3013.93 Q181.152 3010.37 177.518 3010.37 M177.518 3006.67 Q183.328 3006.67 186.384 3011.27 Q189.462 3015.86 189.462 3024.6 Q189.462 3033.33 186.384 3037.94 Q183.328 3042.52 177.518 3042.52 Q171.708 3042.52 168.629 3037.94 Q165.574 3033.33 165.574 3024.6 Q165.574 3015.86 168.629 3011.27 Q171.708 3006.67 177.518 3006.67 Z" fill="#000000" fill-rule="nonzero" fill-opacity="1" /><path clip-path="url(#clip430)" d="M201.708 3037.92 L218.027 3037.92 L218.027 3041.85 L196.083 3041.85 L196.083 3037.92 Q198.745 3035.16 203.328 3030.53 Q207.934 3025.88 209.115 3024.54 Q211.36 3022.01 212.24 3020.28 Q213.143 3018.52 213.143 3016.83 Q213.143 3014.07 211.198 3012.34 Q209.277 3010.6 206.175 3010.6 Q203.976 3010.6 201.522 3011.36 Q199.092 3012.13 196.314 3013.68 L196.314 3008.96 Q199.138 3007.82 201.592 3007.24 Q204.046 3006.67 206.083 3006.67 Q211.453 3006.67 214.647 3009.35 Q217.842 3012.04 217.842 3016.53 Q217.842 3018.66 217.032 3020.58 Q216.245 3022.48 214.138 3025.07 Q213.559 3025.74 210.458 3028.96 Q207.356 3032.15 201.708 3037.92 Z" fill="#000000" fill-rule="nonzero" fill-opacity="1" /><path clip-path="url(#clip430)" d="M130.69 2030.21 Q127.078 2030.21 125.25 2033.77 Q123.444 2037.31 123.444 2044.44 Q123.444 2051.55 125.25 2055.11 Q127.078 2058.66 130.69 2058.66 Q134.324 2058.66 136.129 2055.11 Q137.958 2051.55 137.958 2044.44 Q137.958 2037.31 136.129 2033.77 Q134.324 2030.21 130.69 2030.21 M130.69 2026.5 Q136.5 2026.5 139.555 2031.11 Q142.634 2035.69 142.634 2044.44 Q142.634 2053.17 139.555 2057.78 Q136.5 2062.36 130.69 2062.36 Q124.879 2062.36 121.801 2057.78 Q118.745 2053.17 118.745 2044.44 Q118.745 2035.69 121.801 2031.11 Q124.879 2026.5 130.69 2026.5 Z" fill="#000000" fill-rule="nonzero" fill-opacity="1" /><path clip-path="url(#clip430)" d="M150.851 2055.81 L155.736 2055.81 L155.736 2061.69 L150.851 2061.69 L150.851 2055.81 Z" fill="#000000" fill-rule="nonzero" fill-opacity="1" /><path clip-path="url(#clip430)" d="M175.921 2030.21 Q172.31 2030.21 170.481 2033.77 Q168.675 2037.31 168.675 2044.44 Q168.675 2051.55 170.481 2055.11 Q172.31 2058.66 175.921 2058.66 Q179.555 2058.66 181.361 2055.11 Q183.189 2051.55 183.189 2044.44 Q183.189 2037.31 181.361 2033.77 Q179.555 2030.21 175.921 2030.21 M175.921 2026.5 Q181.731 2026.5 184.786 2031.11 Q187.865 2035.69 187.865 2044.44 Q187.865 2053.17 184.786 2057.78 Q181.731 2062.36 175.921 2062.36 Q170.111 2062.36 167.032 2057.78 Q163.976 2053.17 163.976 2044.44 Q163.976 2035.69 167.032 2031.11 Q170.111 2026.5 175.921 2026.5 Z" fill="#000000" fill-rule="nonzero" fill-opacity="1" /><path clip-path="url(#clip430)" d="M206.083 2030.21 Q202.472 2030.21 200.643 2033.77 Q198.837 2037.31 198.837 2044.44 Q198.837 2051.55 200.643 2055.11 Q202.472 2058.66 206.083 2058.66 Q209.717 2058.66 211.522 2055.11 Q213.351 2051.55 213.351 2044.44 Q213.351 2037.31 211.522 2033.77 Q209.717 2030.21 206.083 2030.21 M206.083 2026.5 Q211.893 2026.5 214.948 2031.11 Q218.027 2035.69 218.027 2044.44 Q218.027 2053.17 214.948 2057.78 Q211.893 2062.36 206.083 2062.36 Q200.272 2062.36 197.194 2057.78 Q194.138 2053.17 194.138 2044.44 Q194.138 2035.69 197.194 2031.11 Q200.272 2026.5 206.083 2026.5 Z" fill="#000000" fill-rule="nonzero" fill-opacity="1" /><path clip-path="url(#clip430)" d="M132.287 1050.04 Q128.676 1050.04 126.847 1053.61 Q125.041 1057.15 125.041 1064.28 Q125.041 1071.39 126.847 1074.95 Q128.676 1078.49 132.287 1078.49 Q135.921 1078.49 137.727 1074.95 Q139.555 1071.39 139.555 1064.28 Q139.555 1057.15 137.727 1053.61 Q135.921 1050.04 132.287 1050.04 M132.287 1046.34 Q138.097 1046.34 141.152 1050.95 Q144.231 1055.53 144.231 1064.28 Q144.231 1073.01 141.152 1077.61 Q138.097 1082.2 132.287 1082.2 Q126.477 1082.2 123.398 1077.61 Q120.342 1073.01 120.342 1064.28 Q120.342 1055.53 123.398 1050.95 Q126.477 1046.34 132.287 1046.34 Z" fill="#000000" fill-rule="nonzero" fill-opacity="1" /><path clip-path="url(#clip430)" d="M152.449 1075.65 L157.333 1075.65 L157.333 1081.53 L152.449 1081.53 L152.449 1075.65 Z" fill="#000000" fill-rule="nonzero" fill-opacity="1" /><path clip-path="url(#clip430)" d="M177.518 1050.04 Q173.907 1050.04 172.078 1053.61 Q170.273 1057.15 170.273 1064.28 Q170.273 1071.39 172.078 1074.95 Q173.907 1078.49 177.518 1078.49 Q181.152 1078.49 182.958 1074.95 Q184.786 1071.39 184.786 1064.28 Q184.786 1057.15 182.958 1053.61 Q181.152 1050.04 177.518 1050.04 M177.518 1046.34 Q183.328 1046.34 186.384 1050.95 Q189.462 1055.53 189.462 1064.28 Q189.462 1073.01 186.384 1077.61 Q183.328 1082.2 177.518 1082.2 Q171.708 1082.2 168.629 1077.61 Q165.574 1073.01 165.574 1064.28 Q165.574 1055.53 168.629 1050.95 Q171.708 1046.34 177.518 1046.34 Z" fill="#000000" fill-rule="nonzero" fill-opacity="1" /><path clip-path="url(#clip430)" d="M201.708 1077.59 L218.027 1077.59 L218.027 1081.53 L196.083 1081.53 L196.083 1077.59 Q198.745 1074.84 203.328 1070.21 Q207.934 1065.55 209.115 1064.21 Q211.36 1061.69 212.24 1059.95 Q213.143 1058.19 213.143 1056.5 Q213.143 1053.75 211.198 1052.01 Q209.277 1050.28 206.175 1050.28 Q203.976 1050.28 201.522 1051.04 Q199.092 1051.8 196.314 1053.36 L196.314 1048.63 Q199.138 1047.5 201.592 1046.92 Q204.046 1046.34 206.083 1046.34 Q211.453 1046.34 214.647 1049.03 Q217.842 1051.71 217.842 1056.2 Q217.842 1058.33 217.032 1060.25 Q216.245 1062.15 214.138 1064.74 Q213.559 1065.42 210.458 1068.63 Q207.356 1071.83 201.708 1077.59 Z" fill="#000000" fill-rule="nonzero" fill-opacity="1" /><path clip-path="url(#clip430)" d="M-91.2573 2439.68 L-54.3044 2439.68 L-54.3044 2431.92 Q-54.3044 2422.08 -58.7604 2417.53 Q-63.2164 2412.95 -72.8286 2412.95 Q-82.3771 2412.95 -86.8013 2417.53 Q-91.2573 2422.08 -91.2573 2431.92 L-91.2573 2439.68 M-96.5408 2446.11 L-96.5408 2432.9 Q-96.5408 2419.09 -90.7799 2412.63 Q-85.0507 2406.17 -72.8286 2406.17 Q-60.5428 2406.17 -54.7818 2412.66 Q-49.0208 2419.15 -49.0208 2432.9 L-49.0208 2446.11 L-96.5408 2446.11 Z" fill="#000000" fill-rule="nonzero" fill-opacity="1" /><path clip-path="url(#clip430)" d="M-68.3089 2365.68 L-65.4444 2365.68 L-65.4444 2392.61 Q-59.3969 2392.23 -56.2141 2388.98 Q-53.0631 2385.7 -53.0631 2379.88 Q-53.0631 2376.5 -53.8906 2373.35 Q-54.7181 2370.17 -56.3732 2367.05 L-50.8351 2367.05 Q-49.4983 2370.2 -48.798 2373.51 Q-48.0978 2376.82 -48.0978 2380.23 Q-48.0978 2388.76 -53.0631 2393.75 Q-58.0283 2398.72 -66.4947 2398.72 Q-75.2476 2398.72 -80.3719 2394.01 Q-85.5282 2389.27 -85.5282 2381.25 Q-85.5282 2374.05 -80.8812 2369.88 Q-76.2661 2365.68 -68.3089 2365.68 M-70.0277 2371.54 Q-74.8338 2371.6 -77.6984 2374.24 Q-80.5629 2376.85 -80.5629 2381.18 Q-80.5629 2386.08 -77.7938 2389.04 Q-75.0248 2391.97 -69.9958 2392.42 L-70.0277 2371.54 Z" fill="#000000" fill-rule="nonzero" fill-opacity="1" /><path clip-path="url(#clip430)" d="M-83.6185 2333.34 L-78.0803 2333.34 Q-79.3534 2335.83 -79.99 2338.5 Q-80.6266 2341.17 -80.6266 2344.04 Q-80.6266 2348.4 -79.2898 2350.59 Q-77.953 2352.76 -75.2794 2352.76 Q-73.2424 2352.76 -72.0647 2351.2 Q-70.9189 2349.64 -69.8685 2344.93 L-69.4229 2342.92 Q-68.0861 2336.69 -65.6353 2334.08 Q-63.2164 2331.43 -58.8559 2331.43 Q-53.8906 2331.43 -50.9942 2335.38 Q-48.0978 2339.3 -48.0978 2346.17 Q-48.0978 2349.04 -48.6707 2352.15 Q-49.2118 2355.24 -50.3258 2358.68 L-56.3732 2358.68 Q-54.6863 2355.43 -53.827 2352.28 Q-52.9994 2349.13 -52.9994 2346.04 Q-52.9994 2341.91 -54.3999 2339.68 Q-55.8321 2337.45 -58.4103 2337.45 Q-60.7974 2337.45 -62.0705 2339.07 Q-63.3437 2340.66 -64.5213 2346.11 L-64.9988 2348.14 Q-66.1446 2353.59 -68.4999 2356.01 Q-70.887 2358.42 -75.0248 2358.42 Q-80.0537 2358.42 -82.7909 2354.86 Q-85.5282 2351.3 -85.5282 2344.74 Q-85.5282 2341.49 -85.0507 2338.63 Q-84.5733 2335.76 -83.6185 2333.34 Z" fill="#000000" fill-rule="nonzero" fill-opacity="1" /><path clip-path="url(#clip430)" d="M-54.368 2316.44 L-35.4619 2316.44 L-35.4619 2322.33 L-84.6688 2322.33 L-84.6688 2316.44 L-79.2579 2316.44 Q-82.4408 2314.6 -83.9686 2311.8 Q-85.5282 2308.96 -85.5282 2305.05 Q-85.5282 2298.56 -80.3719 2294.51 Q-75.2157 2290.44 -66.813 2290.44 Q-58.4103 2290.44 -53.254 2294.51 Q-48.0978 2298.56 -48.0978 2305.05 Q-48.0978 2308.96 -49.6256 2311.8 Q-51.1852 2314.6 -54.368 2316.44 M-66.813 2296.52 Q-73.2742 2296.52 -76.9345 2299.19 Q-80.6266 2301.83 -80.6266 2306.48 Q-80.6266 2311.13 -76.9345 2313.8 Q-73.2742 2316.44 -66.813 2316.44 Q-60.3518 2316.44 -56.6597 2313.8 Q-52.9994 2311.13 -52.9994 2306.48 Q-52.9994 2301.83 -56.6597 2299.19 Q-60.3518 2296.52 -66.813 2296.52 Z" fill="#000000" fill-rule="nonzero" fill-opacity="1" /><path clip-path="url(#clip430)" d="M-98.546 2280.73 L-98.546 2274.87 L-49.0208 2274.87 L-49.0208 2280.73 L-98.546 2280.73 Z" fill="#000000" fill-rule="nonzero" fill-opacity="1" /><path clip-path="url(#clip430)" d="M-66.9403 2246.42 Q-66.9403 2253.52 -65.3171 2256.26 Q-63.6938 2258.99 -59.7789 2258.99 Q-56.6597 2258.99 -54.8136 2256.96 Q-52.9994 2254.89 -52.9994 2251.35 Q-52.9994 2246.48 -56.4369 2243.56 Q-59.9062 2240.6 -65.6353 2240.6 L-66.9403 2240.6 L-66.9403 2246.42 M-69.3593 2234.74 L-49.0208 2234.74 L-49.0208 2240.6 L-54.4317 2240.6 Q-51.1852 2242.6 -49.6256 2245.59 Q-48.0978 2248.58 -48.0978 2252.91 Q-48.0978 2258.39 -51.1534 2261.63 Q-54.2407 2264.85 -59.3969 2264.85 Q-65.4125 2264.85 -68.4681 2260.84 Q-71.5236 2256.8 -71.5236 2248.81 L-71.5236 2240.6 L-72.0965 2240.6 Q-76.1388 2240.6 -78.3349 2243.27 Q-80.5629 2245.91 -80.5629 2250.72 Q-80.5629 2253.77 -79.8309 2256.67 Q-79.0988 2259.57 -77.6347 2262.24 L-83.0455 2262.24 Q-84.2869 2259.02 -84.8916 2256 Q-85.5282 2252.98 -85.5282 2250.11 Q-85.5282 2242.38 -81.5178 2238.56 Q-77.5074 2234.74 -69.3593 2234.74 Z" fill="#000000" fill-rule="nonzero" fill-opacity="1" /><path clip-path="url(#clip430)" d="M-84.6688 2225.22 L-84.6688 2197.4 L-79.3216 2197.4 L-53.6996 2219.43 L-53.6996 2197.4 L-49.0208 2197.4 L-49.0208 2226.02 L-54.368 2226.02 L-79.99 2203.99 L-79.99 2225.22 L-84.6688 2225.22 Z" fill="#000000" fill-rule="nonzero" fill-opacity="1" /><path clip-path="url(#clip430)" d="M-66.9403 2172.26 Q-66.9403 2179.36 -65.3171 2182.09 Q-63.6938 2184.83 -59.7789 2184.83 Q-56.6597 2184.83 -54.8136 2182.79 Q-52.9994 2180.73 -52.9994 2177.19 Q-52.9994 2172.32 -56.4369 2169.39 Q-59.9062 2166.43 -65.6353 2166.43 L-66.9403 2166.43 L-66.9403 2172.26 M-69.3593 2160.58 L-49.0208 2160.58 L-49.0208 2166.43 L-54.4317 2166.43 Q-51.1852 2168.44 -49.6256 2171.43 Q-48.0978 2174.42 -48.0978 2178.75 Q-48.0978 2184.23 -51.1534 2187.47 Q-54.2407 2190.69 -59.3969 2190.69 Q-65.4125 2190.69 -68.4681 2186.68 Q-71.5236 2182.64 -71.5236 2174.65 L-71.5236 2166.43 L-72.0965 2166.43 Q-76.1388 2166.43 -78.3349 2169.11 Q-80.5629 2171.75 -80.5629 2176.56 Q-80.5629 2179.61 -79.8309 2182.51 Q-79.0988 2185.4 -77.6347 2188.08 L-83.0455 2188.08 Q-84.2869 2184.86 -84.8916 2181.84 Q-85.5282 2178.82 -85.5282 2175.95 Q-85.5282 2168.22 -81.5178 2164.4 Q-77.5074 2160.58 -69.3593 2160.58 Z" fill="#000000" fill-rule="nonzero" fill-opacity="1" /><path clip-path="url(#clip430)" d="M-77.8257 2120.76 Q-81.7724 2118.56 -83.6503 2115.51 Q-85.5282 2112.45 -85.5282 2108.32 Q-85.5282 2102.75 -81.6133 2099.72 Q-77.7302 2096.7 -70.5369 2096.7 L-49.0208 2096.7 L-49.0208 2102.59 L-70.346 2102.59 Q-75.4704 2102.59 -77.953 2104.4 Q-80.4356 2106.22 -80.4356 2109.94 Q-80.4356 2114.49 -77.4119 2117.13 Q-74.3882 2119.77 -69.1683 2119.77 L-49.0208 2119.77 L-49.0208 2125.66 L-70.346 2125.66 Q-75.5022 2125.66 -77.953 2127.48 Q-80.4356 2129.29 -80.4356 2133.08 Q-80.4356 2137.57 -77.3801 2140.21 Q-74.3564 2142.85 -69.1683 2142.85 L-49.0208 2142.85 L-49.0208 2148.74 L-84.6688 2148.74 L-84.6688 2142.85 L-79.1306 2142.85 Q-82.409 2140.84 -83.9686 2138.04 Q-85.5282 2135.24 -85.5282 2131.39 Q-85.5282 2127.51 -83.5548 2124.8 Q-81.5814 2122.07 -77.8257 2120.76 Z" fill="#000000" fill-rule="nonzero" fill-opacity="1" /><path clip-path="url(#clip430)" d="M-84.6688 2085.02 L-84.6688 2079.16 L-49.0208 2079.16 L-49.0208 2085.02 L-84.6688 2085.02 M-98.546 2085.02 L-98.546 2079.16 L-91.13 2079.16 L-91.13 2085.02 L-98.546 2085.02 Z" fill="#000000" fill-rule="nonzero" fill-opacity="1" /><path clip-path="url(#clip430)" d="M-68.3089 2036.42 L-65.4444 2036.42 L-65.4444 2063.34 Q-59.3969 2062.96 -56.2141 2059.71 Q-53.0631 2056.44 -53.0631 2050.61 Q-53.0631 2047.24 -53.8906 2044.09 Q-54.7181 2040.9 -56.3732 2037.78 L-50.8351 2037.78 Q-49.4983 2040.94 -48.798 2044.25 Q-48.0978 2047.56 -48.0978 2050.96 Q-48.0978 2059.49 -53.0631 2064.49 Q-58.0283 2069.45 -66.4947 2069.45 Q-75.2476 2069.45 -80.3719 2064.74 Q-85.5282 2060 -85.5282 2051.98 Q-85.5282 2044.79 -80.8812 2040.62 Q-76.2661 2036.42 -68.3089 2036.42 M-70.0277 2042.27 Q-74.8338 2042.34 -77.6984 2044.98 Q-80.5629 2047.59 -80.5629 2051.92 Q-80.5629 2056.82 -77.7938 2059.78 Q-75.0248 2062.71 -69.9958 2063.15 L-70.0277 2042.27 Z" fill="#000000" fill-rule="nonzero" fill-opacity="1" /><path clip-path="url(#clip430)" d="M-70.5369 1997.17 L-49.0208 1997.17 L-49.0208 2003.03 L-70.346 2003.03 Q-75.4067 2003.03 -77.9212 2005 Q-80.4356 2006.97 -80.4356 2010.92 Q-80.4356 2015.66 -77.4119 2018.4 Q-74.3882 2021.14 -69.1683 2021.14 L-49.0208 2021.14 L-49.0208 2027.03 L-84.6688 2027.03 L-84.6688 2021.14 L-79.1306 2021.14 Q-82.3453 2019.04 -83.9367 2016.2 Q-85.5282 2013.34 -85.5282 2009.62 Q-85.5282 2003.47 -81.7087 2000.32 Q-77.9212 1997.17 -70.5369 1997.17 Z" fill="#000000" fill-rule="nonzero" fill-opacity="1" /><path clip-path="url(#clip430)" d="M-94.7903 1979.7 L-84.6688 1979.7 L-84.6688 1967.63 L-80.1173 1967.63 L-80.1173 1979.7 L-60.7656 1979.7 Q-56.4051 1979.7 -55.1637 1978.52 Q-53.9224 1977.31 -53.9224 1973.65 L-53.9224 1967.63 L-49.0208 1967.63 L-49.0208 1973.65 Q-49.0208 1980.43 -51.5353 1983.01 Q-54.0816 1985.59 -60.7656 1985.59 L-80.1173 1985.59 L-80.1173 1989.88 L-84.6688 1989.88 L-84.6688 1985.59 L-94.7903 1985.59 L-94.7903 1979.7 Z" fill="#000000" fill-rule="nonzero" fill-opacity="1" /><path clip-path="url(#clip430)" d="M-80.5629 1946.12 Q-80.5629 1950.83 -76.8708 1953.57 Q-73.2105 1956.3 -66.813 1956.3 Q-60.4155 1956.3 -56.7233 1953.6 Q-53.0631 1950.86 -53.0631 1946.12 Q-53.0631 1941.44 -56.7552 1938.7 Q-60.4473 1935.96 -66.813 1935.96 Q-73.1469 1935.96 -76.839 1938.7 Q-80.5629 1941.44 -80.5629 1946.12 M-85.5282 1946.12 Q-85.5282 1938.48 -80.5629 1934.12 Q-75.5977 1929.76 -66.813 1929.76 Q-58.0601 1929.76 -53.0631 1934.12 Q-48.0978 1938.48 -48.0978 1946.12 Q-48.0978 1953.79 -53.0631 1958.15 Q-58.0601 1962.48 -66.813 1962.48 Q-75.5977 1962.48 -80.5629 1958.15 Q-85.5282 1953.79 -85.5282 1946.12 Z" fill="#000000" fill-rule="nonzero" fill-opacity="1" /><path clip-path="url(#clip430)" d="M-98.4824 1885.26 Q-91.1618 1889.53 -84.0004 1891.6 Q-76.839 1893.66 -69.4866 1893.66 Q-62.1342 1893.66 -54.9091 1891.6 Q-47.7159 1889.49 -40.4271 1885.26 L-40.4271 1890.35 Q-47.9068 1895.13 -55.1319 1897.52 Q-62.357 1899.87 -69.4866 1899.87 Q-76.5844 1899.87 -83.7776 1897.52 Q-90.9708 1895.16 -98.4824 1890.35 L-98.4824 1885.26 Z" fill="#000000" fill-rule="nonzero" fill-opacity="1" /><path clip-path="url(#clip430)" d="M-77.8257 1846.14 Q-81.7724 1843.95 -83.6503 1840.89 Q-85.5282 1837.84 -85.5282 1833.7 Q-85.5282 1828.13 -81.6133 1825.11 Q-77.7302 1822.08 -70.5369 1822.08 L-49.0208 1822.08 L-49.0208 1827.97 L-70.346 1827.97 Q-75.4704 1827.97 -77.953 1829.78 Q-80.4356 1831.6 -80.4356 1835.32 Q-80.4356 1839.87 -77.4119 1842.52 Q-74.3882 1845.16 -69.1683 1845.16 L-49.0208 1845.16 L-49.0208 1851.05 L-70.346 1851.05 Q-75.5022 1851.05 -77.953 1852.86 Q-80.4356 1854.67 -80.4356 1858.46 Q-80.4356 1862.95 -77.3801 1865.59 Q-74.3564 1868.23 -69.1683 1868.23 L-49.0208 1868.23 L-49.0208 1874.12 L-84.6688 1874.12 L-84.6688 1868.23 L-79.1306 1868.23 Q-82.409 1866.23 -83.9686 1863.43 Q-85.5282 1860.63 -85.5282 1856.78 Q-85.5282 1852.89 -83.5548 1850.19 Q-81.5814 1847.45 -77.8257 1846.14 Z" fill="#000000" fill-rule="nonzero" fill-opacity="1" /><path clip-path="url(#clip430)" d="M-98.4824 1811.32 L-98.4824 1806.23 Q-90.9708 1801.46 -83.7776 1799.1 Q-76.5844 1796.71 -69.4866 1796.71 Q-62.357 1796.71 -55.1319 1799.1 Q-47.9068 1801.46 -40.4271 1806.23 L-40.4271 1811.32 Q-47.7159 1807.09 -54.9091 1805.02 Q-62.1342 1802.92 -69.4866 1802.92 Q-76.839 1802.92 -84.0004 1805.02 Q-91.1618 1807.09 -98.4824 1811.32 Z" fill="#000000" fill-rule="nonzero" fill-opacity="1" /><path clip-path="url(#clip430)" d="M3184.64 18.8205 L3184.64 65.8515 L3194.52 65.8515 Q3207.04 65.8515 3212.83 60.1802 Q3218.67 54.509 3218.67 42.2752 Q3218.67 30.1225 3212.83 24.4918 Q3207.04 18.8205 3194.52 18.8205 L3184.64 18.8205 M3176.46 12.096 L3193.27 12.096 Q3210.85 12.096 3219.07 19.4281 Q3227.3 26.7198 3227.3 42.2752 Q3227.3 57.9117 3219.03 65.2439 Q3210.77 72.576 3193.27 72.576 L3176.46 72.576 L3176.46 12.096 Z" fill="#000000" fill-rule="nonzero" fill-opacity="1" /><path clip-path="url(#clip430)" d="M3278.82 48.0275 L3278.82 51.6733 L3244.55 51.6733 Q3245.04 59.3701 3249.17 63.421 Q3253.34 67.4314 3260.76 67.4314 Q3265.05 67.4314 3269.06 66.3781 Q3273.11 65.3249 3277.08 63.2184 L3277.08 70.267 Q3273.07 71.9684 3268.86 72.8596 Q3264.64 73.7508 3260.31 73.7508 Q3249.45 73.7508 3243.09 67.4314 Q3236.77 61.1119 3236.77 50.3365 Q3236.77 39.1965 3242.77 32.6746 Q3248.81 26.1121 3259.01 26.1121 Q3268.17 26.1121 3273.48 32.0264 Q3278.82 37.9003 3278.82 48.0275 M3271.37 45.84 Q3271.29 39.7232 3267.93 36.0774 Q3264.6 32.4315 3259.09 32.4315 Q3252.86 32.4315 3249.09 35.9558 Q3245.36 39.4801 3244.8 45.8805 L3271.37 45.84 Z" fill="#000000" fill-rule="nonzero" fill-opacity="1" /><path clip-path="url(#clip430)" d="M3319.98 28.5427 L3319.98 35.5912 Q3316.82 33.9709 3313.42 33.1607 Q3310.01 32.3505 3306.37 32.3505 Q3300.82 32.3505 3298.02 34.0519 Q3295.27 35.7533 3295.27 39.156 Q3295.27 41.7486 3297.25 43.2475 Q3299.24 44.7058 3305.23 46.0426 L3307.79 46.6097 Q3315.73 48.3111 3319.05 51.4303 Q3322.41 54.509 3322.41 60.0587 Q3322.41 66.3781 3317.39 70.0644 Q3312.4 73.7508 3303.65 73.7508 Q3300.01 73.7508 3296.04 73.0216 Q3292.11 72.3329 3287.73 70.9151 L3287.73 63.2184 Q3291.87 65.3654 3295.88 66.4591 Q3299.89 67.5124 3303.82 67.5124 Q3309.08 67.5124 3311.92 65.73 Q3314.75 63.9071 3314.75 60.6258 Q3314.75 57.5877 3312.69 55.9673 Q3310.66 54.3469 3303.74 52.8481 L3301.14 52.2405 Q3294.22 50.7821 3291.14 47.7845 Q3288.06 44.7463 3288.06 39.4801 Q3288.06 33.0797 3292.6 29.5959 Q3297.13 26.1121 3305.48 26.1121 Q3309.61 26.1121 3313.26 26.7198 Q3316.9 27.3274 3319.98 28.5427 Z" fill="#000000" fill-rule="nonzero" fill-opacity="1" /><path clip-path="url(#clip430)" d="M3341.49 65.7705 L3341.49 89.8329 L3334 89.8329 L3334 27.2059 L3341.49 27.2059 L3341.49 34.0924 Q3343.84 30.0415 3347.4 28.0971 Q3351.01 26.1121 3355.99 26.1121 Q3364.26 26.1121 3369.4 32.6746 Q3374.59 39.2371 3374.59 49.9314 Q3374.59 60.6258 3369.4 67.1883 Q3364.26 73.7508 3355.99 73.7508 Q3351.01 73.7508 3347.4 71.8063 Q3343.84 69.8214 3341.49 65.7705 M3366.85 49.9314 Q3366.85 41.7081 3363.45 37.0496 Q3360.08 32.3505 3354.17 32.3505 Q3348.26 32.3505 3344.85 37.0496 Q3341.49 41.7081 3341.49 49.9314 Q3341.49 58.1548 3344.85 62.8538 Q3348.26 67.5124 3354.17 67.5124 Q3360.08 67.5124 3363.45 62.8538 Q3366.85 58.1548 3366.85 49.9314 Z" fill="#000000" fill-rule="nonzero" fill-opacity="1" /><path clip-path="url(#clip430)" d="M3386.94 9.54393 L3394.4 9.54393 L3394.4 72.576 L3386.94 72.576 L3386.94 9.54393 Z" fill="#000000" fill-rule="nonzero" fill-opacity="1" /><path clip-path="url(#clip430)" d="M3430.61 49.7694 Q3421.58 49.7694 3418.09 51.8354 Q3414.61 53.9013 3414.61 58.8839 Q3414.61 62.8538 3417.2 65.2034 Q3419.83 67.5124 3424.33 67.5124 Q3430.53 67.5124 3434.26 63.1374 Q3438.02 58.7219 3438.02 51.4303 L3438.02 49.7694 L3430.61 49.7694 M3445.48 46.6907 L3445.48 72.576 L3438.02 72.576 L3438.02 65.6895 Q3435.47 69.8214 3431.66 71.8063 Q3427.86 73.7508 3422.35 73.7508 Q3415.38 73.7508 3411.25 69.8619 Q3407.16 65.9325 3407.16 59.3701 Q3407.16 51.7138 3412.26 47.825 Q3417.4 43.9361 3427.57 43.9361 L3438.02 43.9361 L3438.02 43.2069 Q3438.02 38.0623 3434.62 35.2672 Q3431.26 32.4315 3425.14 32.4315 Q3421.25 32.4315 3417.57 33.3632 Q3413.88 34.295 3410.48 36.1584 L3410.48 29.2718 Q3414.57 27.692 3418.42 26.9223 Q3422.27 26.1121 3425.91 26.1121 Q3435.75 26.1121 3440.62 31.2163 Q3445.48 36.3204 3445.48 46.6907 Z" fill="#000000" fill-rule="nonzero" fill-opacity="1" /><path clip-path="url(#clip430)" d="M3457.59 27.2059 L3492.99 27.2059 L3492.99 34.0114 L3464.96 66.6212 L3492.99 66.6212 L3492.99 72.576 L3456.58 72.576 L3456.58 65.7705 L3484.61 33.1607 L3457.59 33.1607 L3457.59 27.2059 Z" fill="#000000" fill-rule="nonzero" fill-opacity="1" /><path clip-path="url(#clip430)" d="M3525 49.7694 Q3515.96 49.7694 3512.48 51.8354 Q3509 53.9013 3509 58.8839 Q3509 62.8538 3511.59 65.2034 Q3514.22 67.5124 3518.72 67.5124 Q3524.92 67.5124 3528.64 63.1374 Q3532.41 58.7219 3532.41 51.4303 L3532.41 49.7694 L3525 49.7694 M3539.86 46.6907 L3539.86 72.576 L3532.41 72.576 L3532.41 65.6895 Q3529.86 69.8214 3526.05 71.8063 Q3522.24 73.7508 3516.73 73.7508 Q3509.76 73.7508 3505.63 69.8619 Q3501.54 65.9325 3501.54 59.3701 Q3501.54 51.7138 3506.65 47.825 Q3511.79 43.9361 3521.96 43.9361 L3532.41 43.9361 L3532.41 43.2069 Q3532.41 38.0623 3529.01 35.2672 Q3525.64 32.4315 3519.53 32.4315 Q3515.64 32.4315 3511.95 33.3632 Q3508.27 34.295 3504.86 36.1584 L3504.86 29.2718 Q3508.95 27.692 3512.8 26.9223 Q3516.65 26.1121 3520.3 26.1121 Q3530.14 26.1121 3535 31.2163 Q3539.86 36.3204 3539.86 46.6907 Z" fill="#000000" fill-rule="nonzero" fill-opacity="1" /><path clip-path="url(#clip430)" d="M3590.54 35.9153 Q3593.33 30.8922 3597.22 28.5022 Q3601.11 26.1121 3606.38 26.1121 Q3613.47 26.1121 3617.32 31.0947 Q3621.16 36.0368 3621.16 45.1919 L3621.16 72.576 L3613.67 72.576 L3613.67 45.4349 Q3613.67 38.913 3611.36 35.7533 Q3609.05 32.5936 3604.31 32.5936 Q3598.52 32.5936 3595.16 36.4419 Q3591.8 40.2903 3591.8 46.9338 L3591.8 72.576 L3584.3 72.576 L3584.3 45.4349 Q3584.3 38.8725 3581.99 35.7533 Q3579.68 32.5936 3574.86 32.5936 Q3569.15 32.5936 3565.79 36.4824 Q3562.43 40.3308 3562.43 46.9338 L3562.43 72.576 L3554.93 72.576 L3554.93 27.2059 L3562.43 27.2059 L3562.43 34.2544 Q3564.98 30.082 3568.54 28.0971 Q3572.11 26.1121 3577.01 26.1121 Q3581.95 26.1121 3585.4 28.6237 Q3588.88 31.1352 3590.54 35.9153 Z" fill="#000000" fill-rule="nonzero" fill-opacity="1" /><path clip-path="url(#clip430)" d="M3636.03 27.2059 L3643.49 27.2059 L3643.49 72.576 L3636.03 72.576 L3636.03 27.2059 M3636.03 9.54393 L3643.49 9.54393 L3643.49 18.9825 L3636.03 18.9825 L3636.03 9.54393 Z" fill="#000000" fill-rule="nonzero" fill-opacity="1" /><path clip-path="url(#clip430)" d="M3697.89 48.0275 L3697.89 51.6733 L3663.62 51.6733 Q3664.1 59.3701 3668.24 63.421 Q3672.41 67.4314 3679.82 67.4314 Q3684.12 67.4314 3688.13 66.3781 Q3692.18 65.3249 3696.15 63.2184 L3696.15 70.267 Q3692.14 71.9684 3687.92 72.8596 Q3683.71 73.7508 3679.38 73.7508 Q3668.52 73.7508 3662.16 67.4314 Q3655.84 61.1119 3655.84 50.3365 Q3655.84 39.1965 3661.84 32.6746 Q3667.87 26.1121 3678.08 26.1121 Q3687.23 26.1121 3692.54 32.0264 Q3697.89 37.9003 3697.89 48.0275 M3690.44 45.84 Q3690.35 39.7232 3686.99 36.0774 Q3683.67 32.4315 3678.16 32.4315 Q3671.92 32.4315 3668.16 35.9558 Q3664.43 39.4801 3663.86 45.8805 L3690.44 45.84 Z" fill="#000000" fill-rule="nonzero" fill-opacity="1" /><path clip-path="url(#clip430)" d="M3747.84 45.1919 L3747.84 72.576 L3740.38 72.576 L3740.38 45.4349 Q3740.38 38.994 3737.87 35.7938 Q3735.36 32.5936 3730.34 32.5936 Q3724.3 32.5936 3720.82 36.4419 Q3717.33 40.2903 3717.33 46.9338 L3717.33 72.576 L3709.84 72.576 L3709.84 27.2059 L3717.33 27.2059 L3717.33 34.2544 Q3720.01 30.163 3723.61 28.1376 Q3727.26 26.1121 3732 26.1121 Q3739.82 26.1121 3743.83 30.9732 Q3747.84 35.7938 3747.84 45.1919 Z" fill="#000000" fill-rule="nonzero" fill-opacity="1" /><path clip-path="url(#clip430)" d="M3770.08 14.324 L3770.08 27.2059 L3785.43 27.2059 L3785.43 32.9987 L3770.08 32.9987 L3770.08 57.6282 Q3770.08 63.1779 3771.57 64.7578 Q3773.11 66.3376 3777.77 66.3376 L3785.43 66.3376 L3785.43 72.576 L3777.77 72.576 Q3769.14 72.576 3765.86 69.3758 Q3762.58 66.1351 3762.58 57.6282 L3762.58 32.9987 L3757.11 32.9987 L3757.11 27.2059 L3762.58 27.2059 L3762.58 14.324 L3770.08 14.324 Z" fill="#000000" fill-rule="nonzero" fill-opacity="1" /><path clip-path="url(#clip430)" d="M3812.81 32.4315 Q3806.82 32.4315 3803.33 37.1306 Q3799.85 41.7891 3799.85 49.9314 Q3799.85 58.0738 3803.29 62.7728 Q3806.78 67.4314 3812.81 67.4314 Q3818.77 67.4314 3822.25 62.7323 Q3825.74 58.0333 3825.74 49.9314 Q3825.74 41.8701 3822.25 37.1711 Q3818.77 32.4315 3812.81 32.4315 M3812.81 26.1121 Q3822.54 26.1121 3828.08 32.4315 Q3833.63 38.7509 3833.63 49.9314 Q3833.63 61.0714 3828.08 67.4314 Q3822.54 73.7508 3812.81 73.7508 Q3803.05 73.7508 3797.5 67.4314 Q3791.99 61.0714 3791.99 49.9314 Q3791.99 38.7509 3797.5 32.4315 Q3803.05 26.1121 3812.81 26.1121 Z" fill="#000000" fill-rule="nonzero" fill-opacity="1" /><path clip-path="url(#clip430)" d="M3874.91 28.5427 L3874.91 35.5912 Q3871.75 33.9709 3868.35 33.1607 Q3864.95 32.3505 3861.3 32.3505 Q3855.75 32.3505 3852.96 34.0519 Q3850.2 35.7533 3850.2 39.156 Q3850.2 41.7486 3852.19 43.2475 Q3854.17 44.7058 3860.17 46.0426 L3862.72 46.6097 Q3870.66 48.3111 3873.98 51.4303 Q3877.34 54.509 3877.34 60.0587 Q3877.34 66.3781 3872.32 70.0644 Q3867.34 73.7508 3858.59 73.7508 Q3854.94 73.7508 3850.97 73.0216 Q3847.04 72.3329 3842.67 70.9151 L3842.67 63.2184 Q3846.8 65.3654 3850.81 66.4591 Q3854.82 67.5124 3858.75 67.5124 Q3864.02 67.5124 3866.85 65.73 Q3869.69 63.9071 3869.69 60.6258 Q3869.69 57.5877 3867.62 55.9673 Q3865.6 54.3469 3858.67 52.8481 L3856.08 52.2405 Q3849.15 50.7821 3846.07 47.7845 Q3842.99 44.7463 3842.99 39.4801 Q3842.99 33.0797 3847.53 29.5959 Q3852.07 26.1121 3860.41 26.1121 Q3864.54 26.1121 3868.19 26.7198 Q3871.83 27.3274 3874.91 28.5427 Z" fill="#000000" fill-rule="nonzero" fill-opacity="1" /><path clip-path="url(#clip430)" d="M3944.59 44.2197 Q3947.22 45.1109 3949.69 48.0275 Q3952.2 50.9442 3954.72 56.0483 L3963.02 72.576 L3954.23 72.576 L3946.49 57.061 Q3943.5 50.9847 3940.66 48.9997 Q3937.86 47.0148 3933 47.0148 L3924.09 47.0148 L3924.09 72.576 L3915.91 72.576 L3915.91 12.096 L3934.38 12.096 Q3944.75 12.096 3949.86 16.4305 Q3954.96 20.7649 3954.96 29.5149 Q3954.96 35.2267 3952.29 38.994 Q3949.65 42.7613 3944.59 44.2197 M3924.09 18.8205 L3924.09 40.2903 L3934.38 40.2903 Q3940.29 40.2903 3943.29 37.5762 Q3946.33 34.8216 3946.33 29.5149 Q3946.33 24.2082 3943.29 21.5346 Q3940.29 18.8205 3934.38 18.8205 L3924.09 18.8205 Z" fill="#000000" fill-rule="nonzero" fill-opacity="1" /><path clip-path="url(#clip430)" d="M4008.31 48.0275 L4008.31 51.6733 L3974.04 51.6733 Q3974.53 59.3701 3978.66 63.421 Q3982.83 67.4314 3990.24 67.4314 Q3994.54 67.4314 3998.55 66.3781 Q4002.6 65.3249 4006.57 63.2184 L4006.57 70.267 Q4002.56 71.9684 3998.34 72.8596 Q3994.13 73.7508 3989.8 73.7508 Q3978.94 73.7508 3972.58 67.4314 Q3966.26 61.1119 3966.26 50.3365 Q3966.26 39.1965 3972.26 32.6746 Q3978.29 26.1121 3988.5 26.1121 Q3997.66 26.1121 4002.96 32.0264 Q4008.31 37.9003 4008.31 48.0275 M4000.86 45.84 Q4000.77 39.7232 3997.41 36.0774 Q3994.09 32.4315 3988.58 32.4315 Q3982.34 32.4315 3978.58 35.9558 Q3974.85 39.4801 3974.28 45.8805 L4000.86 45.84 Z" fill="#000000" fill-rule="nonzero" fill-opacity="1" /><path clip-path="url(#clip430)" d="M4020.54 9.54393 L4028 9.54393 L4028 72.576 L4020.54 72.576 L4020.54 9.54393 Z" fill="#000000" fill-rule="nonzero" fill-opacity="1" /><path clip-path="url(#clip430)" d="M4064.21 49.7694 Q4055.18 49.7694 4051.69 51.8354 Q4048.21 53.9013 4048.21 58.8839 Q4048.21 62.8538 4050.8 65.2034 Q4053.44 67.5124 4057.93 67.5124 Q4064.13 67.5124 4067.86 63.1374 Q4071.63 58.7219 4071.63 51.4303 L4071.63 49.7694 L4064.21 49.7694 M4079.08 46.6907 L4079.08 72.576 L4071.63 72.576 L4071.63 65.6895 Q4069.07 69.8214 4065.27 71.8063 Q4061.46 73.7508 4055.95 73.7508 Q4048.98 73.7508 4044.85 69.8619 Q4040.76 65.9325 4040.76 59.3701 Q4040.76 51.7138 4045.86 47.825 Q4051.01 43.9361 4061.17 43.9361 L4071.63 43.9361 L4071.63 43.2069 Q4071.63 38.0623 4068.22 35.2672 Q4064.86 32.4315 4058.74 32.4315 Q4054.85 32.4315 4051.17 33.3632 Q4047.48 34.295 4044.08 36.1584 L4044.08 29.2718 Q4048.17 27.692 4052.02 26.9223 Q4055.87 26.1121 4059.51 26.1121 Q4069.36 26.1121 4074.22 31.2163 Q4079.08 36.3204 4079.08 46.6907 Z" fill="#000000" fill-rule="nonzero" fill-opacity="1" /><path clip-path="url(#clip430)" d="M4101.8 14.324 L4101.8 27.2059 L4117.16 27.2059 L4117.16 32.9987 L4101.8 32.9987 L4101.8 57.6282 Q4101.8 63.1779 4103.3 64.7578 Q4104.84 66.3376 4109.5 66.3376 L4117.16 66.3376 L4117.16 72.576 L4109.5 72.576 Q4100.87 72.576 4097.59 69.3758 Q4094.31 66.1351 4094.31 57.6282 L4094.31 32.9987 L4088.84 32.9987 L4088.84 27.2059 L4094.31 27.2059 L4094.31 14.324 L4101.8 14.324 Z" fill="#000000" fill-rule="nonzero" fill-opacity="1" /><path clip-path="url(#clip430)" d="M4126.96 27.2059 L4134.41 27.2059 L4134.41 72.576 L4126.96 72.576 L4126.96 27.2059 M4126.96 9.54393 L4134.41 9.54393 L4134.41 18.9825 L4126.96 18.9825 L4126.96 9.54393 Z" fill="#000000" fill-rule="nonzero" fill-opacity="1" /><path clip-path="url(#clip430)" d="M4144.66 27.2059 L4152.56 27.2059 L4166.74 65.2844 L4180.92 27.2059 L4188.82 27.2059 L4171.8 72.576 L4161.68 72.576 L4144.66 27.2059 Z" fill="#000000" fill-rule="nonzero" fill-opacity="1" /><path clip-path="url(#clip430)" d="M4216.69 32.4315 Q4210.69 32.4315 4207.21 37.1306 Q4203.73 41.7891 4203.73 49.9314 Q4203.73 58.0738 4207.17 62.7728 Q4210.65 67.4314 4216.69 67.4314 Q4222.64 67.4314 4226.13 62.7323 Q4229.61 58.0333 4229.61 49.9314 Q4229.61 41.8701 4226.13 37.1711 Q4222.64 32.4315 4216.69 32.4315 M4216.69 26.1121 Q4226.41 26.1121 4231.96 32.4315 Q4237.51 38.7509 4237.51 49.9314 Q4237.51 61.0714 4231.96 67.4314 Q4226.41 73.7508 4216.69 73.7508 Q4206.93 73.7508 4201.38 67.4314 Q4195.87 61.0714 4195.87 49.9314 Q4195.87 38.7509 4201.38 32.4315 Q4206.93 26.1121 4216.69 26.1121 Z" fill="#000000" fill-rule="nonzero" fill-opacity="1" /><path clip-path="url(#clip430)" d="M4278.79 28.5427 L4278.79 35.5912 Q4275.63 33.9709 4272.23 33.1607 Q4268.82 32.3505 4265.18 32.3505 Q4259.63 32.3505 4256.83 34.0519 Q4254.08 35.7533 4254.08 39.156 Q4254.08 41.7486 4256.06 43.2475 Q4258.05 44.7058 4264.04 46.0426 L4266.6 46.6097 Q4274.54 48.3111 4277.86 51.4303 Q4281.22 54.509 4281.22 60.0587 Q4281.22 66.3781 4276.2 70.0644 Q4271.21 73.7508 4262.46 73.7508 Q4258.82 73.7508 4254.85 73.0216 Q4250.92 72.3329 4246.54 70.9151 L4246.54 63.2184 Q4250.68 65.3654 4254.69 66.4591 Q4258.7 67.5124 4262.63 67.5124 Q4267.89 67.5124 4270.73 65.73 Q4273.56 63.9071 4273.56 60.6258 Q4273.56 57.5877 4271.5 55.9673 Q4269.47 54.3469 4262.54 52.8481 L4259.95 52.2405 Q4253.02 50.7821 4249.95 47.7845 Q4246.87 44.7463 4246.87 39.4801 Q4246.87 33.0797 4251.4 29.5959 Q4255.94 26.1121 4264.29 26.1121 Q4268.42 26.1121 4272.06 26.7198 Q4275.71 27.3274 4278.79 28.5427 Z" fill="#000000" fill-rule="nonzero" fill-opacity="1" /><path clip-path="url(#clip430)" d="M4349.31 34.0924 L4349.31 9.54393 L4356.77 9.54393 L4356.77 72.576 L4349.31 72.576 L4349.31 65.7705 Q4346.97 69.8214 4343.36 71.8063 Q4339.8 73.7508 4334.77 73.7508 Q4326.55 73.7508 4321.36 67.1883 Q4316.22 60.6258 4316.22 49.9314 Q4316.22 39.2371 4321.36 32.6746 Q4326.55 26.1121 4334.77 26.1121 Q4339.8 26.1121 4343.36 28.0971 Q4346.97 30.0415 4349.31 34.0924 M4323.92 49.9314 Q4323.92 58.1548 4327.28 62.8538 Q4330.68 67.5124 4336.59 67.5124 Q4342.51 67.5124 4345.91 62.8538 Q4349.31 58.1548 4349.31 49.9314 Q4349.31 41.7081 4345.91 37.0496 Q4342.51 32.3505 4336.59 32.3505 Q4330.68 32.3505 4327.28 37.0496 Q4323.92 41.7081 4323.92 49.9314 Z" fill="#000000" fill-rule="nonzero" fill-opacity="1" /><path clip-path="url(#clip430)" d="M4410.93 48.0275 L4410.93 51.6733 L4376.66 51.6733 Q4377.14 59.3701 4381.28 63.421 Q4385.45 67.4314 4392.86 67.4314 Q4397.16 67.4314 4401.17 66.3781 Q4405.22 65.3249 4409.19 63.2184 L4409.19 70.267 Q4405.18 71.9684 4400.96 72.8596 Q4396.75 73.7508 4392.42 73.7508 Q4381.56 73.7508 4375.2 67.4314 Q4368.88 61.1119 4368.88 50.3365 Q4368.88 39.1965 4374.88 32.6746 Q4380.91 26.1121 4391.12 26.1121 Q4400.28 26.1121 4405.58 32.0264 Q4410.93 37.9003 4410.93 48.0275 M4403.48 45.84 Q4403.39 39.7232 4400.03 36.0774 Q4396.71 32.4315 4391.2 32.4315 Q4384.96 32.4315 4381.2 35.9558 Q4377.47 39.4801 4376.9 45.8805 L4403.48 45.84 Z" fill="#000000" fill-rule="nonzero" fill-opacity="1" /><path clip-path="url(#clip430)" d="M4449.53 9.54393 L4456.99 9.54393 L4456.99 72.576 L4449.53 72.576 L4449.53 9.54393 Z" fill="#000000" fill-rule="nonzero" fill-opacity="1" /><path clip-path="url(#clip430)" d="M4490.16 32.4315 Q4484.17 32.4315 4480.69 37.1306 Q4477.2 41.7891 4477.2 49.9314 Q4477.2 58.0738 4480.65 62.7728 Q4484.13 67.4314 4490.16 67.4314 Q4496.12 67.4314 4499.6 62.7323 Q4503.09 58.0333 4503.09 49.9314 Q4503.09 41.8701 4499.6 37.1711 Q4496.12 32.4315 4490.16 32.4315 M4490.16 26.1121 Q4499.89 26.1121 4505.44 32.4315 Q4510.99 38.7509 4510.99 49.9314 Q4510.99 61.0714 4505.44 67.4314 Q4499.89 73.7508 4490.16 73.7508 Q4480.4 73.7508 4474.85 67.4314 Q4469.34 61.0714 4469.34 49.9314 Q4469.34 38.7509 4474.85 32.4315 Q4480.4 26.1121 4490.16 26.1121 Z" fill="#000000" fill-rule="nonzero" fill-opacity="1" /><path clip-path="url(#clip430)" d="M4552.27 28.5427 L4552.27 35.5912 Q4549.11 33.9709 4545.7 33.1607 Q4542.3 32.3505 4538.65 32.3505 Q4533.1 32.3505 4530.31 34.0519 Q4527.55 35.7533 4527.55 39.156 Q4527.55 41.7486 4529.54 43.2475 Q4531.52 44.7058 4537.52 46.0426 L4540.07 46.6097 Q4548.01 48.3111 4551.33 51.4303 Q4554.7 54.509 4554.7 60.0587 Q4554.7 66.3781 4549.67 70.0644 Q4544.69 73.7508 4535.94 73.7508 Q4532.29 73.7508 4528.32 73.0216 Q4524.39 72.3329 4520.02 70.9151 L4520.02 63.2184 Q4524.15 65.3654 4528.16 66.4591 Q4532.17 67.5124 4536.1 67.5124 Q4541.37 67.5124 4544.2 65.73 Q4547.04 63.9071 4547.04 60.6258 Q4547.04 57.5877 4544.97 55.9673 Q4542.95 54.3469 4536.02 52.8481 L4533.43 52.2405 Q4526.5 50.7821 4523.42 47.7845 Q4520.34 44.7463 4520.34 39.4801 Q4520.34 33.0797 4524.88 29.5959 Q4529.42 26.1121 4537.76 26.1121 Q4541.89 26.1121 4545.54 26.7198 Q4549.19 27.3274 4552.27 28.5427 Z" fill="#000000" fill-rule="nonzero" fill-opacity="1" /><path clip-path="url(#clip430)" d="M4601.44 18.8205 L4601.44 41.5461 L4611.73 41.5461 Q4617.44 41.5461 4620.56 38.5889 Q4623.68 35.6318 4623.68 30.163 Q4623.68 24.7348 4620.56 21.7777 Q4617.44 18.8205 4611.73 18.8205 L4601.44 18.8205 M4593.26 12.096 L4611.73 12.096 Q4621.9 12.096 4627.09 16.714 Q4632.31 21.2916 4632.31 30.163 Q4632.31 39.1155 4627.09 43.6931 Q4621.9 48.2706 4611.73 48.2706 L4601.44 48.2706 L4601.44 72.576 L4593.26 72.576 L4593.26 12.096 Z" fill="#000000" fill-rule="nonzero" fill-opacity="1" /><path clip-path="url(#clip430)" d="M4641.14 27.2059 L4648.6 27.2059 L4648.6 72.576 L4641.14 72.576 L4641.14 27.2059 M4641.14 9.54393 L4648.6 9.54393 L4648.6 18.9825 L4641.14 18.9825 L4641.14 9.54393 Z" fill="#000000" fill-rule="nonzero" fill-opacity="1" /><path clip-path="url(#clip430)" d="M4693.11 28.5427 L4693.11 35.5912 Q4689.96 33.9709 4686.55 33.1607 Q4683.15 32.3505 4679.5 32.3505 Q4673.95 32.3505 4671.16 34.0519 Q4668.4 35.7533 4668.4 39.156 Q4668.4 41.7486 4670.39 43.2475 Q4672.37 44.7058 4678.37 46.0426 L4680.92 46.6097 Q4688.86 48.3111 4692.18 51.4303 Q4695.55 54.509 4695.55 60.0587 Q4695.55 66.3781 4690.52 70.0644 Q4685.54 73.7508 4676.79 73.7508 Q4673.14 73.7508 4669.17 73.0216 Q4665.24 72.3329 4660.87 70.9151 L4660.87 63.2184 Q4665 65.3654 4669.01 66.4591 Q4673.02 67.5124 4676.95 67.5124 Q4682.22 67.5124 4685.05 65.73 Q4687.89 63.9071 4687.89 60.6258 Q4687.89 57.5877 4685.82 55.9673 Q4683.8 54.3469 4676.87 52.8481 L4674.28 52.2405 Q4667.35 50.7821 4664.27 47.7845 Q4661.19 44.7463 4661.19 39.4801 Q4661.19 33.0797 4665.73 29.5959 Q4670.27 26.1121 4678.61 26.1121 Q4682.74 26.1121 4686.39 26.7198 Q4690.04 27.3274 4693.11 28.5427 Z" fill="#000000" fill-rule="nonzero" fill-opacity="1" /><path clip-path="url(#clip430)" d="M4725 32.4315 Q4719 32.4315 4715.52 37.1306 Q4712.03 41.7891 4712.03 49.9314 Q4712.03 58.0738 4715.48 62.7728 Q4718.96 67.4314 4725 67.4314 Q4730.95 67.4314 4734.43 62.7323 Q4737.92 58.0333 4737.92 49.9314 Q4737.92 41.8701 4734.43 37.1711 Q4730.95 32.4315 4725 32.4315 M4725 26.1121 Q4734.72 26.1121 4740.27 32.4315 Q4745.82 38.7509 4745.82 49.9314 Q4745.82 61.0714 4740.27 67.4314 Q4734.72 73.7508 4725 73.7508 Q4715.23 73.7508 4709.68 67.4314 Q4704.17 61.0714 4704.17 49.9314 Q4704.17 38.7509 4709.68 32.4315 Q4715.23 26.1121 4725 26.1121 Z" fill="#000000" fill-rule="nonzero" fill-opacity="1" /><path clip-path="url(#clip430)" d="M4787.1 28.5427 L4787.1 35.5912 Q4783.94 33.9709 4780.53 33.1607 Q4777.13 32.3505 4773.48 32.3505 Q4767.94 32.3505 4765.14 34.0519 Q4762.39 35.7533 4762.39 39.156 Q4762.39 41.7486 4764.37 43.2475 Q4766.36 44.7058 4772.35 46.0426 L4774.9 46.6097 Q4782.84 48.3111 4786.16 51.4303 Q4789.53 54.509 4789.53 60.0587 Q4789.53 66.3781 4784.5 70.0644 Q4779.52 73.7508 4770.77 73.7508 Q4767.12 73.7508 4763.16 73.0216 Q4759.23 72.3329 4754.85 70.9151 L4754.85 63.2184 Q4758.98 65.3654 4762.99 66.4591 Q4767 67.5124 4770.93 67.5124 Q4776.2 67.5124 4779.03 65.73 Q4781.87 63.9071 4781.87 60.6258 Q4781.87 57.5877 4779.8 55.9673 Q4777.78 54.3469 4770.85 52.8481 L4768.26 52.2405 Q4761.33 50.7821 4758.25 47.7845 Q4755.17 44.7463 4755.17 39.4801 Q4755.17 33.0797 4759.71 29.5959 Q4764.25 26.1121 4772.59 26.1121 Q4776.73 26.1121 4780.37 26.7198 Q4784.02 27.3274 4787.1 28.5427 Z" fill="#000000" fill-rule="nonzero" fill-opacity="1" /><polyline clip-path="url(#clip432)" style="stroke:#009af9; stroke-linecap:round; stroke-linejoin:round; stroke-width:8; stroke-opacity:1; fill:none" points="539.817,2044.41 539.955,2044.41 541.332,2044.41 552.26,2044.41 572.566,2044.42 596.973,2044.5 630.001,2044.91 662.704,2046 697.363,2048.28 735.134,2052.55 775.838,2059.8 821.334,2071.95 868.074,2089.83 916.114,2114.81 969.696,2150.99 1018.73,2190.88 1069.69,2236.81 1125.97,2288.65 1175.59,2330.61 1229.97,2365.95 1281.39,2381.92 1329.73,2374.9 1377.13,2342.16 1422.18,2284.41 1466.98,2200.63 1513.44,2088.2 1561.18,1951.59 1609.65,1802.41 1655.92,1665.15 1698.32,1559.04 1739.29,1488.32 1778.66,1461.23 1817.17,1481.66 1855.78,1553 1895.67,1679.56 1935.37,1851.86 1973.29,2047.14 2009.88,2247.86 2045.26,2435.84 2080.06,2597.52 2115,2720.57 2151.13,2792.74 2188.58,2799.1 2222.93,2741.9 2256,2634.37 2288,2490.11 2319.7,2319.79 2351.87,2132.65 2386.34,1932.27 2428.39,1710.3 2459.77,1573.18 2491.71,1465.61 2521.62,1396.93 2551.83,1359.76 2582.83,1354.73 2619.41,1390.3 2649.32,1451.31 2678.41,1536.68 2706.2,1640.49 2733.95,1763.08 2762.34,1903.88 2794.11,2072.38 2824.55,2234.95 2851.55,2371.22 2878.15,2490.7 2904.02,2587.02 2930.42,2660.9 2958.78,2710.43 2988.59,2729.2 3013.55,2720.37 3038.47,2691.43 3062.47,2646.35 3086.94,2584.19 3112.79,2501.33 3143.08,2381.79 3166.92,2271 3191.1,2145.15 3214.03,2016.33 3237.32,1880.94 3261.42,1743.42 3289.3,1598.93 3312.74,1499.01 3335.46,1427.25 3357.19,1384.59 3378.81,1367.22 3400.81,1372.28 3424.79,1397.89 3448.1,1435.52 3469.13,1474.75 3489.78,1515.22 3509.91,1556.24 3530.31,1601.57 3551.68,1657.7 3575.46,1737.61 3596.08,1826.94 3616.26,1934.46 3635.71,2055.31 3655.15,2187.97 3674.92,2326.72 3696.05,2467.23 3718.01,2590.42 3737.4,2669.95 3756.44,2716.16 3774.77,2730.47 3793.07,2719 3811.71,2688.18 3831.56,2644.94 3851.53,2602.38 3869.68,2572.56 3887.47,2555.15 3904.75,2548.66 3922.06,2547.86 3939.75,2545.03 3958.67,2528.64 3977.84,2486.19 3995.43,2416.82 4012.74,2317.72 4029.65,2194.03 4046.64,2050.36 4063.98,1895.01 4082.37,1736.17 4101.75,1593.15 4119.29,1497.63 4136.39,1441.35 4152.91,1421.26 4169.32,1429.29 4185.88,1456.35 4203.2,1492.41 4221.87,1525.18 4238.94,1538.87 4255.36,1532.52 4271.27,1508.88 4287.08,1473.63 4303.01,1435.03 4319.61,1403.21 4337.98,1392.47 4355.59,1417.82 4372.05,1478.25 4388.32,1571.96 4404.42,1691.81 4420.77,1831.26 4437.82,1982.22 4457.09,2142.19 4476.24,2274.77 4493.21,2363.12 4510.17,2423.5 4526.7,2459.56 4543.56,2480.51 4561.22,2494.56 4580.84,2511.27 4598.46,2533.6 4615.78,2564.08 4632.78,2600.42 4649.99,2639.4 4667.57,2675.86 4685.34,2703.46 4702.74,2716.81 4720.12,2713.52 4737.97,2690.98 4756.64,2645.62 4774.74,2580.34 4792.1,2498.61 4809.29,2401.15 4826.66,2289.23 4845.05,2162.13 4865.47,2021.04 4883.07,1909.13 4900.58,1814.81 4917.58,1743.93 4934.79,1693.59 4952.15,1661.1 4969.15,1640.05 4985.64,1621.73 5002.01,1598.34 5018.55,1564.61 5035.24,1519.28 5051.38,1467.7 5067.12,1416.16 5082.71,1371.2 5098.58,1339.15 5115.45,1326.81 5132.89,1341.33 5148.56,1377.71 5164.21,1433.04 5179.67,1502 5195.77,1583.98 5213.93,1683.41 5231.16,1780.64 5246.86,1869.57 5262.57,1957.34 5278.36,2042.52 5295.56,2129.26 5313.33,2208.59 5328.64,2266.26 5344.09,2313.76 5359.26,2351.36 5375.41,2385.44 5395.89,2428.77 5410.58,2465.97 5426.11,2514.21 5440.72,2567.73 5456.15,2629.08 5472.6,2692.3 5487.72,2739.76 5502.15,2768.58 5516.3,2776.91 5530.54,2764.14 5545.6,2729.6 5561.14,2676.57 5575.24,2619.22 5589.22,2558.75 5603,2498.88 5617.27,2437.94 5633.07,2370.68 5648.41,2303.04 5662.24,2238.05 5676.03,2169 5689.69,2097.81 5704.13,2023.1 5722.57,1935.92 5736.36,1881.43 5750.51,1836.72 5763.93,1803.28 5777.83,1773.55 5792.93,1739.86 5808.68,1695.01 5821.91,1645.6 5835.37,1584.23 5848.44,1517.36 5862.14,1446.33 5877.65,1375.75 5891.63,1330.67 5904.74,1309.94 5917.58,1311.17 5930.36,1331.32 5943.78,1367.4 5959.09,1418.06 5972.3,1462.53 5985.28,1502.52 5997.9,1537.09 6010.72,1569.8 6024.23,1605.98 6040.78,1660.08 6053.66,1713.49 6066.91,1779.08 6079.57,1849.06 6092.7,1923.87 6106.84,1999.73 6122.94,2072.07 6135.64,2115.95 6148.88,2151.08 6161.57,2179.27 6174.95,2210.17 6190.13,2255.41 6204.26,2312.79 6217.27,2378.96 6230.23,2453.72 6243.19,2530.58 6256.91,2605.64 6274.19,2678.72 6287.38,2713.08 6300.94,2728.99 6313.87,2729.08 6327.32,2718.75 6341.94,2701.49 6357.31,2681.16 6370.52,2662.58 6384.08,2640.54 6397.48,2612.96 6411.78,2574.41 6428.95,2514.94 6443.57,2455.62 6458.08,2393.59 6472.42,2333.66 6487.29,2275.78 6503.45,2217.88 6520.44,2158.83 6535.82,2102.47 6551.53,2039.07 6567.18,1969.95 6583.47,1894.36 6600.75,1814.14 6619.15,1731.53 6635.74,1659.05 6651.88,1588.87 6667.64,1521.02 6683.82,1456.01 6702.25,1397.24 6718.23,1368.3 6733.32,1363.79 6748.08,1379.26 6763.27,1409.31 6780.56,1449.64 6795.16,1480.84 6809.56,1506.37 6823.63,1528.42 6838.39,1554.06 6855.39,1594.89 6869.56,1641.78 6883.82,1699.65 6897.82,1762.33 6912.76,1829.2 6931.33,1905.06 6945.34,1956.48 6960.22,2009.79 6974.63,2065.7 6990.6,2137.56 7007.85,2227.32 7022.62,2309.4 7038.04,2392.67 7053.52,2467.22 7070.71,2535.56 7088.67,2591.83 7105.17,2632.85 7122.29,2665.36 7139.49,2684.9 7156.8,2687.03 7173.8,2671.2 7191.58,2641.13 7209.64,2606.74 7225.44,2580.2 7241.25,2557.45 7257.18,2533.03 7274.96,2494.36 7290.11,2446.63 7305.24,2386.03 7320.31,2318.27 7337.04,2242.6 7353.09,2174.74 7367.79,2115.81 7382.78,2054.2 7398.45,1982.63 7416.49,1888.72 7426.17,1835.13 "/>
<polyline clip-path="url(#clip432)" style="stroke:#e26f46; stroke-linecap:round; stroke-linejoin:round; stroke-width:8; stroke-opacity:1; fill:none" points="539.817,2044.41 539.955,2044.41 541.332,2044.41 552.26,2044.41 572.566,2044.42 596.973,2044.5 630.001,2044.97 662.704,2046.31 697.363,2049.41 735.134,2055.7 775.838,2067.07 821.334,2086.99 868.074,2117.25 916.114,2160.27 969.696,2223.1 1018.73,2292.96 1069.69,2374.45 1125.97,2467.81 1175.59,2544.51 1229.97,2610.77 1281.39,2643.49 1329.73,2635.98 1377.13,2583.21 1422.18,2485.55 1466.98,2340.42 1513.44,2142.36 1561.18,1898.37 1609.65,1628.14 1655.92,1375.31 1698.32,1175.4 1739.29,1036.82 1778.66,975.887 1817.17,1001.22 1855.78,1120.65 1895.67,1343.94 1935.37,1656.08 1973.29,2016.34 2009.88,2392.27 2045.26,2749.4 2080.06,3061.15 2115,3302.87 2151.13,3449.57 2188.58,3470.36 2222.93,3366.44 2256,3162.59 2288,2885.14 2319.7,2555.73 2351.87,2193.9 2386.34,1809.12 2428.39,1390.69 2459.77,1140.5 2491.71,953.354 2521.62,843.217 2551.83,793.917 2582.83,802.565 2619.41,880.671 2649.32,992.761 2678.41,1139.67 2706.2,1313.27 2733.95,1517.32 2762.34,1754.98 2794.11,2048.35 2824.55,2344.15 2851.55,2604.24 2878.15,2843.44 2904.02,3045.6 2930.42,3207.79 2958.78,3320.97 2988.59,3364.71 3013.55,3342.14 3038.47,3270.27 3062.47,3161.07 3086.94,3017.07 3112.79,2837.58 3143.08,2601.37 3166.92,2401.15 3191.1,2188.44 3214.03,1980.19 3237.32,1765.13 3261.42,1544.18 3289.3,1300.51 3312.74,1116.38 3335.46,966.031 3357.19,856.101 3378.81,785.253 3400.81,755.413 3424.79,770.765 3448.1,828.841 3469.13,911.37 3489.78,1013.99 3509.91,1129.39 3530.31,1258.23 3551.68,1404.38 3575.46,1581.13 3596.08,1748.39 3616.26,1926.36 3635.71,2111.1 3655.15,2306.15 3674.92,2509.52 3696.05,2722.62 3718.01,2925.41 3737.4,3076.81 3756.44,3191.16 3774.77,3264.25 3793.07,3299.98 3811.71,3300.94 3831.56,3269.83 3851.53,3215.41 3869.68,3154.92 3887.47,3092 3904.75,3030.52 3922.06,2968.22 3939.75,2900.08 3958.67,2814.89 3977.84,2706.09 3995.43,2579.06 4012.74,2424.97 4029.65,2247.21 4046.64,2046.7 4063.98,1828.89 4082.37,1598.03 4101.75,1373.58 4119.29,1202.03 4136.39,1072.92 4152.91,987.481 4169.32,938.953 4185.88,920.218 4203.2,922.585 4221.87,936.107 4238.94,946.961 4255.36,949.571 4271.27,943.638 4287.08,932.949 4303.01,924.631 4319.61,929.185 4337.98,963.837 4355.59,1037.89 4372.05,1148.67 4388.32,1296.91 4404.42,1475 4420.77,1677.32 4437.82,1896.5 4457.09,2134.77 4476.24,2344.4 4493.21,2499.26 4510.17,2624.06 4526.7,2721.09 4543.56,2802.75 4561.22,2878.79 4580.84,2961.32 4598.46,3037.62 4615.78,3112.94 4632.78,3181.6 4649.99,3238.09 4667.57,3274.34 4685.34,3282.98 4702.74,3261.92 4720.12,3213.04 4737.97,3137.99 4756.64,3037.65 4774.74,2923.2 4792.1,2798.79 4809.29,2661.18 4826.66,2506.32 4845.05,2325.45 4865.47,2109.08 4883.07,1917.84 4900.58,1734.37 4917.58,1572.89 4934.79,1434.02 4952.15,1322.71 4969.15,1239.3 4985.64,1175.98 5002.01,1121.41 5018.55,1066.09 5035.24,1004.6 5051.38,939.43 5067.12,875.443 5082.71,820.09 5098.58,782.557 5115.45,774.48 5132.89,808.594 5148.56,877.261 5164.21,977.301 5179.67,1098.94 5195.77,1239.38 5213.93,1402.39 5231.16,1553.37 5246.86,1685.72 5262.57,1814.98 5278.36,1945.22 5295.56,2091.49 5313.33,2248.3 5328.64,2385.38 5344.09,2520.24 5359.26,2643.4 5375.41,2759.11 5395.89,2879.06 5410.58,2948.62 5426.11,3012.15 5440.72,3067.55 5456.15,3125.45 5472.6,3187.48 5487.72,3241.2 5502.15,3283.02 5516.3,3307.42 5530.54,3308.27 5545.6,3277.81 5561.14,3210.99 5575.24,3122.46 5589.22,3014.81 5603,2897.15 5617.27,2771.65 5633.07,2636.24 5648.41,2512.74 5662.24,2407.89 5676.03,2306.57 5689.69,2205.4 5704.13,2093.78 5722.57,1940.94 5736.36,1820.09 5750.51,1693.98 5763.93,1576.87 5777.83,1462.63 5792.93,1350.66 5808.68,1248.75 5821.91,1173.79 5835.37,1105.08 5848.44,1043.22 5862.14,981.749 5877.65,916.381 5891.63,863.866 5904.74,824.174 5917.58,798.612 5930.36,790.079 5943.78,802.241 5959.09,843.798 5972.3,901.904 5985.28,975.611 5997.9,1059.03 6010.72,1151.22 6024.23,1252.3 6040.78,1376.92 6053.66,1472.72 6066.91,1570.18 6079.57,1663.17 6092.7,1760.78 6106.84,1868.63 6122.94,1996.14 6135.64,2100.36 6148.88,2211.97 6161.57,2320.64 6174.95,2435.59 6190.13,2563.93 6204.26,2678.88 6217.27,2778.63 6230.23,2870.38 6243.19,2953.17 6256.91,3030.26 6274.19,3111.54 6287.38,3162.01 6300.94,3203.9 6313.87,3234.39 6327.32,3255.49 6341.94,3264.19 6357.31,3254.08 6370.52,3227.05 6384.08,3180.27 6397.48,3115.72 6411.78,3029.61 6428.95,2910.69 6443.57,2804.13 6458.08,2700.16 6472.42,2602.3 6487.29,2505.33 6503.45,2400.36 6520.44,2281.97 6535.82,2161.55 6551.53,2023.99 6567.18,1875.99 6583.47,1718.93 6600.75,1560.22 6619.15,1409.9 6635.74,1293.1 6651.88,1193.56 6667.64,1105.6 6683.82,1022.44 6702.25,938.81 6718.23,881.988 6733.32,847.819 6748.08,836.415 6763.27,848.043 6780.56,886.814 6795.16,936.006 6809.56,995.243 6823.63,1061 6838.39,1137.24 6855.39,1234.22 6869.56,1322.36 6883.82,1416.93 6897.82,1514.2 6912.76,1621.56 6931.33,1759.99 6945.34,1869.61 6960.22,1993.26 6974.63,2121.22 6990.6,2270.83 7007.85,2435.14 7022.62,2570.23 7038.04,2698.17 7053.52,2809.08 7070.71,2912 7088.67,3002.38 7105.17,3075.35 7122.29,3141.8 7139.49,3194.1 7156.8,3223.63 7173.8,3223.89 7191.58,3193.86 7209.64,3139.08 7225.44,3079.13 7241.25,3012.87 7257.18,2940.46 7274.96,2849.65 7290.11,2760.91 7305.24,2660.99 7320.31,2551.95 7337.04,2422.89 7353.09,2293.55 7367.79,2170.2 7382.78,2038.58 7398.45,1894.47 7416.49,1724.28 7426.17,1634.54 "/>
<polyline clip-path="url(#clip432)" style="stroke:#3da44d; stroke-linecap:round; stroke-linejoin:round; stroke-width:8; stroke-opacity:1; fill:none" points="539.817,2044.41 539.955,2044.41 541.332,2044.41 552.26,2044.41 572.566,2044.42 596.973,2044.5 630.001,2044.97 662.704,2046.36 697.363,2049.66 735.134,2056.71 775.838,2070.22 821.334,2095.09 868.074,2133.9 916.114,2189.69 969.696,2271.56 1018.73,2363.17 1069.69,2470.98 1125.97,2595.96 1175.59,2699.88 1229.97,2791.08 1281.39,2838.58 1329.73,2833.53 1377.13,2769.05 1422.18,2644.65 1466.98,2456.28 1513.44,2195.86 1561.18,1871.64 1609.65,1508.92 1655.92,1165.58 1698.32,889.705 1739.29,693.103 1778.66,599.095 1817.17,620.748 1855.78,770.168 1895.67,1062.34 1935.37,1479.47 1973.29,1967.76 2009.88,2483.15 2045.26,2978.11 2080.06,3415.25 2115,3759.43 2151.13,3974.52 2188.58,4015.18 2222.93,3879.23 2256,3600.43 2288,3215.31 2319.7,2754.77 2351.87,2247.47 2386.34,1708.78 2428.39,1128.03 2459.77,787.179 2491.71,540.062 2521.62,403.351 2551.83,352.814 2582.83,380.933 2619.41,499.534 2649.32,652.503 2678.41,842.999 2706.2,1062.04 2733.95,1317.45 2762.34,1617.42 2794.11,1996.34 2824.55,2391.39 2851.55,2751.34 2878.15,3094.17 2904.02,3394.1 2930.42,3643.19 2958.78,3823.86 2988.59,3899.02 3013.55,3867.4 3038.47,3755.29 3062.47,3582.66 3086.94,3356.92 3112.79,3083.04 3143.08,2740.29 3166.92,2467.51 3191.1,2194.45 3214.03,1939.99 3237.32,1684.51 3261.42,1422 3289.3,1121.56 3312.74,877.714 3335.46,659.029 3357.19,478.254 3378.81,338.868 3400.81,250.788 3424.79,227.648 3448.1,283.045 3469.13,396.635 3489.78,559.625 3509.91,757.067 3530.31,983.694 3551.68,1236.3 3575.46,1521.25 3596.08,1763.26 3616.26,1992.58 3635.71,2206.98 3655.15,2417.07 3674.92,2629.02 3696.05,2855.08 3718.01,3087.31 3737.4,3284.71 3756.44,3463.3 3774.77,3612.02 3793.07,3728.81 3811.71,3806.99 3831.56,3838.38 3851.53,3813.28 3869.68,3742.88 3887.47,3634.85 3904.75,3499.57 3922.06,3341.52 3939.75,3164.35 3958.67,2964.92 3977.84,2757.9 3995.43,2566.21 4012.74,2376.28 4029.65,2188.51 4046.64,1996.42 4063.98,1795.86 4082.37,1578.82 4101.75,1348.38 4119.29,1143.18 4136.39,951.963 4152.91,781.709 4169.32,632.435 4185.88,506.798 4203.2,406.5 4221.87,337.078 4238.94,309.57 4255.36,314.836 4271.27,348.041 4287.08,406.368 4303.01,488.506 4319.61,596.43 4337.98,739.28 4355.59,896.306 4372.05,1057.96 4388.32,1229.3 4404.42,1407.25 4420.77,1594.26 4437.82,1793.24 4457.09,2020.09 4476.24,2245.49 4493.21,2443.99 4510.17,2640.35 4526.7,2828.52 4543.56,3015.37 4561.22,3201.83 4580.84,3391.22 4598.46,3537.83 4615.78,3652.72 4632.78,3731.23 4649.99,3771.96 4667.57,3771.93 4685.34,3731.22 4702.74,3657.05 4720.12,3556.15 4737.97,3432.81 4756.64,3289.64 4774.74,3141.71 4792.1,2991.96 4809.29,2834.51 4826.66,2662.85 4845.05,2464.42 4865.47,2222.98 4883.07,1999.59 4900.58,1769.49 4917.58,1545.86 4934.79,1327.11 4952.15,1121.93 4969.15,941.165 4985.64,788.057 5002.01,659.082 5018.55,552.309 5035.24,468.892 5051.38,411.996 5067.12,380.132 5082.71,372.688 5098.58,390.632 5115.45,437.825 5132.89,515.151 5148.56,606.201 5164.21,713.622 5179.67,832.257 5195.77,966.027 5213.93,1127.55 5231.16,1291.72 5246.86,1452.46 5262.57,1625.86 5278.36,1813.48 5295.56,2031.99 5313.33,2267.89 5328.64,2473.01 5344.09,2674.55 5359.26,2860.7 5375.41,3040.54 5395.89,3235.71 5410.58,3352.26 5426.11,3455.16 5440.72,3534.23 5456.15,3599.92 5472.6,3649.79 5487.72,3676.03 5502.15,3681.99 5516.3,3668.51 5530.54,3635.22 5545.6,3579.32 5561.14,3501.62 5575.24,3416.45 5589.22,3320.77 5603,3217.25 5617.27,3101.23 5633.07,2961.47 5648.41,2812.62 5662.24,2665.59 5676.03,2506.16 5689.69,2336.31 5704.13,2146.91 5722.57,1897.96 5736.36,1713.53 5750.51,1531.79 5763.93,1370.36 5777.83,1216.6 5792.93,1065.85 5808.68,925.331 5821.91,819.091 5835.37,721.251 5848.44,636.336 5862.14,559.388 5877.65,490.242 5891.63,447.329 5904.74,425.795 5917.58,422.794 5930.36,436.758 5943.78,467.473 5959.09,518.894 5972.3,574.306 5985.28,636.966 5997.9,705.671 6010.72,784.518 6024.23,879.936 6040.78,1017.94 6053.66,1143.23 6066.91,1288.24 6079.57,1439.96 6092.7,1607 6106.84,1792.23 6122.94,2002.29 6135.64,2162.93 6148.88,2323.75 6161.57,2471.18 6174.95,2620.63 6190.13,2784.14 6204.26,2931.19 6217.27,3061.08 6230.23,3182.69 6243.19,3293.17 6256.91,3394.43 6274.19,3494.73 6287.38,3549.94 6300.94,3588.98 6313.87,3612.02 6327.32,3624.17 6341.94,3626.04 6357.31,3615.62 6370.52,3594.66 6384.08,3558.52 6397.48,3505.31 6411.78,3427.07 6428.95,3304.19 6443.57,3177.75 6458.08,3037.35 6472.42,2888.44 6487.29,2726.6 6503.45,2544.06 6520.44,2344.26 6535.82,2156.36 6551.53,1959.37 6567.18,1762.37 6583.47,1563.44 6600.75,1367 6619.15,1179.9 6635.74,1030.73 6651.88,900.454 6667.64,784.756 6683.82,677.648 6702.25,574.339 6718.23,507.052 6733.32,466.981 6748.08,451.202 6763.27,457.513 6780.56,487.957 6795.16,529.385 6809.56,583.319 6823.63,650.017 6838.39,737.961 6855.39,866.015 6869.56,995.224 6883.82,1143.11 6897.82,1300.6 6912.76,1475.44 6931.33,1694.03 6945.34,1856.99 6960.22,2028.85 6974.63,2195.77 6990.6,2382.11 7007.85,2582.23 7022.62,2747.47 7038.04,2907.72 7053.52,3051.83 7070.71,3191.14 7088.67,3316.72 7105.17,3417.68 7122.29,3507.91 7139.49,3579.04 7156.8,3623.43 7173.8,3635.26 7191.58,3614.1 7209.64,3563.05 7225.44,3499.02 7241.25,3418.58 7257.18,3319.16 7274.96,3182.18 7290.11,3042.52 7305.24,2884.75 7320.31,2715.79 7337.04,2522.98 7353.09,2339.28 7367.79,2173.31 7382.78,2004.52 7398.45,1826.05 7416.49,1618.14 7426.17,1507.72 "/>
<path clip-path="url(#clip430)" d="M6429.44 455.208 L7389.44 455.208 L7389.44 247.848 L6429.44 247.848  Z" fill="#ffffff" fill-rule="evenodd" fill-opacity="1"/>
<polyline clip-path="url(#clip430)" style="stroke:#000000; stroke-linecap:round; stroke-linejoin:round; stroke-width:4; stroke-opacity:1; fill:none" points="6429.44,455.208 7389.44,455.208 7389.44,247.848 6429.44,247.848 6429.44,455.208 "/>
<polyline clip-path="url(#clip430)" style="stroke:#009af9; stroke-linecap:round; stroke-linejoin:round; stroke-width:8; stroke-opacity:1; fill:none" points="6510.55,299.688 6997.18,299.688 "/>
<path clip-path="url(#clip430)" d="M7082.96 286.251 L7082.96 299.237 L7088.84 299.237 Q7092.11 299.237 7093.89 297.547 Q7095.67 295.857 7095.67 292.732 Q7095.67 289.63 7093.89 287.941 Q7092.11 286.251 7088.84 286.251 L7082.96 286.251 M7078.29 282.408 L7088.84 282.408 Q7094.65 282.408 7097.62 285.047 Q7100.6 287.663 7100.6 292.732 Q7100.6 297.848 7097.62 300.464 Q7094.65 303.079 7088.84 303.079 L7082.96 303.079 L7082.96 316.968 L7078.29 316.968 L7078.29 282.408 Z" fill="#000000" fill-rule="nonzero" fill-opacity="1" /><path clip-path="url(#clip430)" d="M7105.65 291.042 L7109.91 291.042 L7109.91 316.968 L7105.65 316.968 L7105.65 291.042 M7105.65 280.95 L7109.91 280.95 L7109.91 286.343 L7105.65 286.343 L7105.65 280.95 Z" fill="#000000" fill-rule="nonzero" fill-opacity="1" /><path clip-path="url(#clip430)" d="M7135.35 291.806 L7135.35 295.834 Q7133.54 294.908 7131.6 294.445 Q7129.65 293.982 7127.57 293.982 Q7124.4 293.982 7122.8 294.954 Q7121.23 295.927 7121.23 297.871 Q7121.23 299.353 7122.36 300.209 Q7123.5 301.042 7126.92 301.806 L7128.38 302.13 Q7132.92 303.103 7134.81 304.885 Q7136.74 306.644 7136.74 309.815 Q7136.74 313.427 7133.87 315.533 Q7131.02 317.64 7126.02 317.64 Q7123.94 317.64 7121.67 317.223 Q7119.42 316.829 7116.92 316.019 L7116.92 311.621 Q7119.28 312.848 7121.57 313.473 Q7123.87 314.075 7126.11 314.075 Q7129.12 314.075 7130.74 313.056 Q7132.36 312.015 7132.36 310.14 Q7132.36 308.403 7131.18 307.478 Q7130.02 306.552 7126.06 305.695 L7124.58 305.348 Q7120.63 304.515 7118.87 302.802 Q7117.11 301.066 7117.11 298.056 Q7117.11 294.399 7119.7 292.408 Q7122.29 290.417 7127.06 290.417 Q7129.42 290.417 7131.5 290.765 Q7133.59 291.112 7135.35 291.806 Z" fill="#000000" fill-rule="nonzero" fill-opacity="1" /><path clip-path="url(#clip430)" d="M7153.56 294.029 Q7150.14 294.029 7148.15 296.714 Q7146.16 299.376 7146.16 304.028 Q7146.16 308.681 7148.12 311.366 Q7150.12 314.028 7153.56 314.028 Q7156.97 314.028 7158.96 311.343 Q7160.95 308.658 7160.95 304.028 Q7160.95 299.422 7158.96 296.737 Q7156.97 294.029 7153.56 294.029 M7153.56 290.417 Q7159.12 290.417 7162.29 294.029 Q7165.46 297.64 7165.46 304.028 Q7165.46 310.394 7162.29 314.028 Q7159.12 317.64 7153.56 317.64 Q7147.99 317.64 7144.81 314.028 Q7141.67 310.394 7141.67 304.028 Q7141.67 297.64 7144.81 294.029 Q7147.99 290.417 7153.56 290.417 Z" fill="#000000" fill-rule="nonzero" fill-opacity="1" /><path clip-path="url(#clip430)" d="M7189 313.033 L7196.64 313.033 L7196.64 286.667 L7188.33 288.334 L7188.33 284.075 L7196.6 282.408 L7201.27 282.408 L7201.27 313.033 L7208.91 313.033 L7208.91 316.968 L7189 316.968 L7189 313.033 Z" fill="#000000" fill-rule="nonzero" fill-opacity="1" /><path clip-path="url(#clip430)" d="M7243.05 280.996 Q7239.95 286.32 7238.45 291.529 Q7236.94 296.737 7236.94 302.084 Q7236.94 307.431 7238.45 312.686 Q7239.98 317.917 7243.05 323.218 L7239.35 323.218 Q7235.88 317.778 7234.14 312.524 Q7232.43 307.269 7232.43 302.084 Q7232.43 296.922 7234.14 291.691 Q7235.86 286.459 7239.35 280.996 L7243.05 280.996 Z" fill="#000000" fill-rule="nonzero" fill-opacity="1" /><path clip-path="url(#clip430)" d="M7272.87 291.042 L7263.49 303.658 L7273.36 316.968 L7268.33 316.968 L7260.79 306.783 L7253.24 316.968 L7248.22 316.968 L7258.29 303.403 L7249.07 291.042 L7254.1 291.042 L7260.97 300.278 L7267.85 291.042 L7272.87 291.042 Z" fill="#000000" fill-rule="nonzero" fill-opacity="1" /><path clip-path="url(#clip430)" d="M7278.52 314.422 L7283.24 314.422 L7283.24 300.278 L7278.08 301.228 L7278.08 298.542 L7283.4 297.64 L7286.57 297.64 L7286.57 314.422 L7291.32 314.422 L7291.32 316.968 L7278.52 316.968 L7278.52 314.422 Z" fill="#000000" fill-rule="nonzero" fill-opacity="1" /><path clip-path="url(#clip430)" d="M7297.71 280.996 L7301.41 280.996 Q7304.88 286.459 7306.6 291.691 Q7308.33 296.922 7308.33 302.084 Q7308.33 307.269 7306.6 312.524 Q7304.88 317.778 7301.41 323.218 L7297.71 323.218 Q7300.79 317.917 7302.29 312.686 Q7303.82 307.431 7303.82 302.084 Q7303.82 296.737 7302.29 291.529 Q7300.79 286.32 7297.71 280.996 Z" fill="#000000" fill-rule="nonzero" fill-opacity="1" /><polyline clip-path="url(#clip430)" style="stroke:#e26f46; stroke-linecap:round; stroke-linejoin:round; stroke-width:8; stroke-opacity:1; fill:none" points="6510.55,351.528 6997.18,351.528 "/>
<path clip-path="url(#clip430)" d="M7082.96 338.091 L7082.96 351.077 L7088.84 351.077 Q7092.11 351.077 7093.89 349.387 Q7095.67 347.697 7095.67 344.572 Q7095.67 341.47 7093.89 339.781 Q7092.11 338.091 7088.84 338.091 L7082.96 338.091 M7078.29 334.248 L7088.84 334.248 Q7094.65 334.248 7097.62 336.887 Q7100.6 339.503 7100.6 344.572 Q7100.6 349.688 7097.62 352.304 Q7094.65 354.919 7088.84 354.919 L7082.96 354.919 L7082.96 368.808 L7078.29 368.808 L7078.29 334.248 Z" fill="#000000" fill-rule="nonzero" fill-opacity="1" /><path clip-path="url(#clip430)" d="M7105.65 342.882 L7109.91 342.882 L7109.91 368.808 L7105.65 368.808 L7105.65 342.882 M7105.65 332.79 L7109.91 332.79 L7109.91 338.183 L7105.65 338.183 L7105.65 332.79 Z" fill="#000000" fill-rule="nonzero" fill-opacity="1" /><path clip-path="url(#clip430)" d="M7135.35 343.646 L7135.35 347.674 Q7133.54 346.748 7131.6 346.285 Q7129.65 345.822 7127.57 345.822 Q7124.4 345.822 7122.8 346.794 Q7121.23 347.767 7121.23 349.711 Q7121.23 351.193 7122.36 352.049 Q7123.5 352.882 7126.92 353.646 L7128.38 353.97 Q7132.92 354.943 7134.81 356.725 Q7136.74 358.484 7136.74 361.655 Q7136.74 365.267 7133.87 367.373 Q7131.02 369.48 7126.02 369.48 Q7123.94 369.48 7121.67 369.063 Q7119.42 368.669 7116.92 367.859 L7116.92 363.461 Q7119.28 364.688 7121.57 365.313 Q7123.87 365.915 7126.11 365.915 Q7129.12 365.915 7130.74 364.896 Q7132.36 363.855 7132.36 361.98 Q7132.36 360.243 7131.18 359.318 Q7130.02 358.392 7126.06 357.535 L7124.58 357.188 Q7120.63 356.355 7118.87 354.642 Q7117.11 352.906 7117.11 349.896 Q7117.11 346.239 7119.7 344.248 Q7122.29 342.257 7127.06 342.257 Q7129.42 342.257 7131.5 342.605 Q7133.59 342.952 7135.35 343.646 Z" fill="#000000" fill-rule="nonzero" fill-opacity="1" /><path clip-path="url(#clip430)" d="M7153.56 345.869 Q7150.14 345.869 7148.15 348.554 Q7146.16 351.216 7146.16 355.868 Q7146.16 360.521 7148.12 363.206 Q7150.12 365.868 7153.56 365.868 Q7156.97 365.868 7158.96 363.183 Q7160.95 360.498 7160.95 355.868 Q7160.95 351.262 7158.96 348.577 Q7156.97 345.869 7153.56 345.869 M7153.56 342.257 Q7159.12 342.257 7162.29 345.869 Q7165.46 349.48 7165.46 355.868 Q7165.46 362.234 7162.29 365.868 Q7159.12 369.48 7153.56 369.48 Q7147.99 369.48 7144.81 365.868 Q7141.67 362.234 7141.67 355.868 Q7141.67 349.48 7144.81 345.869 Q7147.99 342.257 7153.56 342.257 Z" fill="#000000" fill-rule="nonzero" fill-opacity="1" /><path clip-path="url(#clip430)" d="M7192.22 364.873 L7208.54 364.873 L7208.54 368.808 L7186.6 368.808 L7186.6 364.873 Q7189.26 362.118 7193.84 357.489 Q7198.45 352.836 7199.63 351.493 Q7201.87 348.97 7202.75 347.234 Q7203.66 345.475 7203.66 343.785 Q7203.66 341.031 7201.71 339.294 Q7199.79 337.558 7196.69 337.558 Q7194.49 337.558 7192.04 338.322 Q7189.61 339.086 7186.83 340.637 L7186.83 335.915 Q7189.65 334.781 7192.11 334.202 Q7194.56 333.623 7196.6 333.623 Q7201.97 333.623 7205.16 336.308 Q7208.36 338.994 7208.36 343.484 Q7208.36 345.614 7207.55 347.535 Q7206.76 349.433 7204.65 352.026 Q7204.07 352.697 7200.97 355.915 Q7197.87 359.109 7192.22 364.873 Z" fill="#000000" fill-rule="nonzero" fill-opacity="1" /><path clip-path="url(#clip430)" d="M7243.05 332.836 Q7239.95 338.16 7238.45 343.369 Q7236.94 348.577 7236.94 353.924 Q7236.94 359.271 7238.45 364.526 Q7239.98 369.757 7243.05 375.058 L7239.35 375.058 Q7235.88 369.618 7234.14 364.364 Q7232.43 359.109 7232.43 353.924 Q7232.43 348.762 7234.14 343.531 Q7235.86 338.299 7239.35 332.836 L7243.05 332.836 Z" fill="#000000" fill-rule="nonzero" fill-opacity="1" /><path clip-path="url(#clip430)" d="M7272.87 342.882 L7263.49 355.498 L7273.36 368.808 L7268.33 368.808 L7260.79 358.623 L7253.24 368.808 L7248.22 368.808 L7258.29 355.243 L7249.07 342.882 L7254.1 342.882 L7260.97 352.118 L7267.85 342.882 L7272.87 342.882 Z" fill="#000000" fill-rule="nonzero" fill-opacity="1" /><path clip-path="url(#clip430)" d="M7281.11 366.169 L7290.93 366.169 L7290.93 368.808 L7277.08 368.808 L7277.08 366.262 Q7277.87 365.544 7279.33 364.248 Q7287.29 357.188 7287.29 355.012 Q7287.29 353.484 7286.09 352.558 Q7284.88 351.609 7282.92 351.609 Q7281.71 351.609 7280.3 352.026 Q7278.89 352.419 7277.22 353.23 L7277.22 350.382 Q7279 349.734 7280.53 349.41 Q7282.08 349.086 7283.4 349.086 Q7286.76 349.086 7288.77 350.614 Q7290.79 352.142 7290.79 354.642 Q7290.79 357.859 7283.12 364.433 Q7281.83 365.544 7281.11 366.169 Z" fill="#000000" fill-rule="nonzero" fill-opacity="1" /><path clip-path="url(#clip430)" d="M7297.71 332.836 L7301.41 332.836 Q7304.88 338.299 7306.6 343.531 Q7308.33 348.762 7308.33 353.924 Q7308.33 359.109 7306.6 364.364 Q7304.88 369.618 7301.41 375.058 L7297.71 375.058 Q7300.79 369.757 7302.29 364.526 Q7303.82 359.271 7303.82 353.924 Q7303.82 348.577 7302.29 343.369 Q7300.79 338.16 7297.71 332.836 Z" fill="#000000" fill-rule="nonzero" fill-opacity="1" /><polyline clip-path="url(#clip430)" style="stroke:#3da44d; stroke-linecap:round; stroke-linejoin:round; stroke-width:8; stroke-opacity:1; fill:none" points="6510.55,403.368 6997.18,403.368 "/>
<path clip-path="url(#clip430)" d="M7082.96 389.931 L7082.96 402.917 L7088.84 402.917 Q7092.11 402.917 7093.89 401.227 Q7095.67 399.537 7095.67 396.412 Q7095.67 393.31 7093.89 391.621 Q7092.11 389.931 7088.84 389.931 L7082.96 389.931 M7078.29 386.088 L7088.84 386.088 Q7094.65 386.088 7097.62 388.727 Q7100.6 391.343 7100.6 396.412 Q7100.6 401.528 7097.62 404.144 Q7094.65 406.759 7088.84 406.759 L7082.96 406.759 L7082.96 420.648 L7078.29 420.648 L7078.29 386.088 Z" fill="#000000" fill-rule="nonzero" fill-opacity="1" /><path clip-path="url(#clip430)" d="M7105.65 394.722 L7109.91 394.722 L7109.91 420.648 L7105.65 420.648 L7105.65 394.722 M7105.65 384.63 L7109.91 384.63 L7109.91 390.023 L7105.65 390.023 L7105.65 384.63 Z" fill="#000000" fill-rule="nonzero" fill-opacity="1" /><path clip-path="url(#clip430)" d="M7135.35 395.486 L7135.35 399.514 Q7133.54 398.588 7131.6 398.125 Q7129.65 397.662 7127.57 397.662 Q7124.4 397.662 7122.8 398.634 Q7121.23 399.607 7121.23 401.551 Q7121.23 403.033 7122.36 403.889 Q7123.5 404.722 7126.92 405.486 L7128.38 405.81 Q7132.92 406.783 7134.81 408.565 Q7136.74 410.324 7136.74 413.495 Q7136.74 417.107 7133.87 419.213 Q7131.02 421.32 7126.02 421.32 Q7123.94 421.32 7121.67 420.903 Q7119.42 420.509 7116.92 419.699 L7116.92 415.301 Q7119.28 416.528 7121.57 417.153 Q7123.87 417.755 7126.11 417.755 Q7129.12 417.755 7130.74 416.736 Q7132.36 415.695 7132.36 413.82 Q7132.36 412.083 7131.18 411.158 Q7130.02 410.232 7126.06 409.375 L7124.58 409.028 Q7120.63 408.195 7118.87 406.482 Q7117.11 404.746 7117.11 401.736 Q7117.11 398.079 7119.7 396.088 Q7122.29 394.097 7127.06 394.097 Q7129.42 394.097 7131.5 394.445 Q7133.59 394.792 7135.35 395.486 Z" fill="#000000" fill-rule="nonzero" fill-opacity="1" /><path clip-path="url(#clip430)" d="M7153.56 397.709 Q7150.14 397.709 7148.15 400.394 Q7146.16 403.056 7146.16 407.708 Q7146.16 412.361 7148.12 415.046 Q7150.12 417.708 7153.56 417.708 Q7156.97 417.708 7158.96 415.023 Q7160.95 412.338 7160.95 407.708 Q7160.95 403.102 7158.96 400.417 Q7156.97 397.709 7153.56 397.709 M7153.56 394.097 Q7159.12 394.097 7162.29 397.709 Q7165.46 401.32 7165.46 407.708 Q7165.46 414.074 7162.29 417.708 Q7159.12 421.32 7153.56 421.32 Q7147.99 421.32 7144.81 417.708 Q7141.67 414.074 7141.67 407.708 Q7141.67 401.32 7144.81 397.709 Q7147.99 394.097 7153.56 394.097 Z" fill="#000000" fill-rule="nonzero" fill-opacity="1" /><path clip-path="url(#clip430)" d="M7202.36 402.014 Q7205.72 402.732 7207.59 405 Q7209.49 407.269 7209.49 410.602 Q7209.49 415.718 7205.97 418.519 Q7202.45 421.32 7195.97 421.32 Q7193.8 421.32 7191.48 420.88 Q7189.19 420.463 7186.74 419.607 L7186.74 415.093 Q7188.68 416.227 7191 416.806 Q7193.31 417.384 7195.83 417.384 Q7200.23 417.384 7202.52 415.648 Q7204.84 413.912 7204.84 410.602 Q7204.84 407.546 7202.68 405.833 Q7200.56 404.097 7196.74 404.097 L7192.71 404.097 L7192.71 400.255 L7196.92 400.255 Q7200.37 400.255 7202.2 398.889 Q7204.03 397.5 7204.03 394.908 Q7204.03 392.246 7202.13 390.834 Q7200.25 389.398 7196.74 389.398 Q7194.81 389.398 7192.62 389.815 Q7190.42 390.232 7187.78 391.111 L7187.78 386.945 Q7190.44 386.204 7192.75 385.834 Q7195.09 385.463 7197.15 385.463 Q7202.48 385.463 7205.58 387.894 Q7208.68 390.301 7208.68 394.422 Q7208.68 397.292 7207.04 399.283 Q7205.39 401.25 7202.36 402.014 Z" fill="#000000" fill-rule="nonzero" fill-opacity="1" /><path clip-path="url(#clip430)" d="M7243.05 384.676 Q7239.95 390 7238.45 395.209 Q7236.94 400.417 7236.94 405.764 Q7236.94 411.111 7238.45 416.366 Q7239.98 421.597 7243.05 426.898 L7239.35 426.898 Q7235.88 421.458 7234.14 416.204 Q7232.43 410.949 7232.43 405.764 Q7232.43 400.602 7234.14 395.371 Q7235.86 390.139 7239.35 384.676 L7243.05 384.676 Z" fill="#000000" fill-rule="nonzero" fill-opacity="1" /><path clip-path="url(#clip430)" d="M7272.87 394.722 L7263.49 407.338 L7273.36 420.648 L7268.33 420.648 L7260.79 410.463 L7253.24 420.648 L7248.22 420.648 L7258.29 407.083 L7249.07 394.722 L7254.1 394.722 L7260.97 403.958 L7267.85 394.722 L7272.87 394.722 Z" fill="#000000" fill-rule="nonzero" fill-opacity="1" /><path clip-path="url(#clip430)" d="M7287.04 410.185 Q7289.17 410.602 7290.32 411.875 Q7291.5 413.125 7291.5 415.023 Q7291.5 417.894 7289.3 419.445 Q7287.11 420.995 7283.01 420.995 Q7281.69 420.995 7280.23 420.741 Q7278.8 420.509 7277.18 420.046 L7277.18 417.245 Q7278.38 417.87 7279.74 418.171 Q7281.13 418.472 7282.68 418.472 Q7285.21 418.472 7286.6 417.57 Q7287.99 416.644 7287.99 415.023 Q7287.99 413.31 7286.69 412.431 Q7285.42 411.551 7282.92 411.551 L7280.93 411.551 L7280.93 409.051 L7283.1 409.051 Q7285.28 409.051 7286.39 408.333 Q7287.52 407.593 7287.52 406.204 Q7287.52 404.861 7286.36 404.167 Q7285.21 403.449 7283.01 403.449 Q7282.08 403.449 7280.9 403.658 Q7279.72 403.866 7277.85 404.398 L7277.85 401.736 Q7279.54 401.343 7281.02 401.134 Q7282.5 400.926 7283.77 400.926 Q7287.11 400.926 7289.05 402.292 Q7291.02 403.658 7291.02 405.949 Q7291.02 407.546 7289.98 408.658 Q7288.93 409.769 7287.04 410.185 Z" fill="#000000" fill-rule="nonzero" fill-opacity="1" /><path clip-path="url(#clip430)" d="M7297.71 384.676 L7301.41 384.676 Q7304.88 390.139 7306.6 395.371 Q7308.33 400.602 7308.33 405.764 Q7308.33 410.949 7306.6 416.204 Q7304.88 421.458 7301.41 426.898 L7297.71 426.898 Q7300.79 421.597 7302.29 416.366 Q7303.82 411.111 7303.82 405.764 Q7303.82 400.417 7302.29 395.209 Q7300.79 390 7297.71 384.676 Z" fill="#000000" fill-rule="nonzero" fill-opacity="1" /></svg>
