<?xml version="1.0" encoding="utf-8"?>
<svg xmlns="http://www.w3.org/2000/svg" xmlns:xlink="http://www.w3.org/1999/xlink" width="1920" height="1080" viewBox="0 0 7680 4320">
<defs>
  <clipPath id="clip490">
    <rect x="0" y="0" width="7680" height="4320"/>
  </clipPath>
</defs>
<path clip-path="url(#clip490)" d="M0 4320 L7680 4320 L7680 0 L0 0  Z" fill="#ffffff" fill-rule="evenodd" fill-opacity="1"/>
<defs>
  <clipPath id="clip491">
    <rect x="1536" y="0" width="5377" height="4320"/>
  </clipPath>
</defs>
<path clip-path="url(#clip490)" d="M303.065 4128.8 L7632.76 4128.8 L7632.76 114.022 L303.065 114.022  Z" fill="#ffffff" fill-rule="evenodd" fill-opacity="1"/>
<defs>
  <clipPath id="clip492">
    <rect x="303" y="114" width="7331" height="4016"/>
  </clipPath>
</defs>
<polyline clip-path="url(#clip492)" style="stroke:#000000; stroke-linecap:round; stroke-linejoin:round; stroke-width:2; stroke-opacity:0.1; fill:none" points="529.581,4128.8 529.581,114.022 "/>
<polyline clip-path="url(#clip492)" style="stroke:#000000; stroke-linecap:round; stroke-linejoin:round; stroke-width:2; stroke-opacity:0.1; fill:none" points="2319.04,4128.8 2319.04,114.022 "/>
<polyline clip-path="url(#clip492)" style="stroke:#000000; stroke-linecap:round; stroke-linejoin:round; stroke-width:2; stroke-opacity:0.1; fill:none" points="4108.5,4128.8 4108.5,114.022 "/>
<polyline clip-path="url(#clip492)" style="stroke:#000000; stroke-linecap:round; stroke-linejoin:round; stroke-width:2; stroke-opacity:0.1; fill:none" points="5897.96,4128.8 5897.96,114.022 "/>
<polyline clip-path="url(#clip492)" style="stroke:#000000; stroke-linecap:round; stroke-linejoin:round; stroke-width:2; stroke-opacity:0.1; fill:none" points="303.065,4011.95 7632.76,4011.95 "/>
<polyline clip-path="url(#clip492)" style="stroke:#000000; stroke-linecap:round; stroke-linejoin:round; stroke-width:2; stroke-opacity:0.1; fill:none" points="303.065,3119.39 7632.76,3119.39 "/>
<polyline clip-path="url(#clip492)" style="stroke:#000000; stroke-linecap:round; stroke-linejoin:round; stroke-width:2; stroke-opacity:0.1; fill:none" points="303.065,2226.84 7632.76,2226.84 "/>
<polyline clip-path="url(#clip492)" style="stroke:#000000; stroke-linecap:round; stroke-linejoin:round; stroke-width:2; stroke-opacity:0.1; fill:none" points="303.065,1334.29 7632.76,1334.29 "/>
<polyline clip-path="url(#clip492)" style="stroke:#000000; stroke-linecap:round; stroke-linejoin:round; stroke-width:2; stroke-opacity:0.1; fill:none" points="303.065,441.734 7632.76,441.734 "/>
<polyline clip-path="url(#clip490)" style="stroke:#000000; stroke-linecap:round; stroke-linejoin:round; stroke-width:4; stroke-opacity:1; fill:none" points="303.065,4128.8 7632.76,4128.8 "/>
<polyline clip-path="url(#clip490)" style="stroke:#000000; stroke-linecap:round; stroke-linejoin:round; stroke-width:4; stroke-opacity:1; fill:none" points="529.581,4128.8 529.581,4109.91 "/>
<polyline clip-path="url(#clip490)" style="stroke:#000000; stroke-linecap:round; stroke-linejoin:round; stroke-width:4; stroke-opacity:1; fill:none" points="2319.04,4128.8 2319.04,4109.91 "/>
<polyline clip-path="url(#clip490)" style="stroke:#000000; stroke-linecap:round; stroke-linejoin:round; stroke-width:4; stroke-opacity:1; fill:none" points="4108.5,4128.8 4108.5,4109.91 "/>
<polyline clip-path="url(#clip490)" style="stroke:#000000; stroke-linecap:round; stroke-linejoin:round; stroke-width:4; stroke-opacity:1; fill:none" points="5897.96,4128.8 5897.96,4109.91 "/>
<path clip-path="url(#clip490)" d="M460.785 4216.62 L490.461 4216.62 L490.461 4220.55 L460.785 4220.55 L460.785 4216.62 Z" fill="#000000" fill-rule="nonzero" fill-opacity="1" /><path clip-path="url(#clip490)" d="M510.554 4201.96 Q506.943 4201.96 505.114 4205.53 Q503.308 4209.07 503.308 4216.2 Q503.308 4223.31 505.114 4226.87 Q506.943 4230.41 510.554 4230.41 Q514.188 4230.41 515.994 4226.87 Q517.822 4223.31 517.822 4216.2 Q517.822 4209.07 515.994 4205.53 Q514.188 4201.96 510.554 4201.96 M510.554 4198.26 Q516.364 4198.26 519.419 4202.87 Q522.498 4207.45 522.498 4216.2 Q522.498 4224.93 519.419 4229.53 Q516.364 4234.12 510.554 4234.12 Q504.744 4234.12 501.665 4229.53 Q498.609 4224.93 498.609 4216.2 Q498.609 4207.45 501.665 4202.87 Q504.744 4198.26 510.554 4198.26 Z" fill="#000000" fill-rule="nonzero" fill-opacity="1" /><path clip-path="url(#clip490)" d="M530.716 4227.57 L535.6 4227.57 L535.6 4233.44 L530.716 4233.44 L530.716 4227.57 Z" fill="#000000" fill-rule="nonzero" fill-opacity="1" /><path clip-path="url(#clip490)" d="M555.785 4201.96 Q552.174 4201.96 550.345 4205.53 Q548.54 4209.07 548.54 4216.2 Q548.54 4223.31 550.345 4226.87 Q552.174 4230.41 555.785 4230.41 Q559.419 4230.41 561.225 4226.87 Q563.053 4223.31 563.053 4216.2 Q563.053 4209.07 561.225 4205.53 Q559.419 4201.96 555.785 4201.96 M555.785 4198.26 Q561.595 4198.26 564.651 4202.87 Q567.729 4207.45 567.729 4216.2 Q567.729 4224.93 564.651 4229.53 Q561.595 4234.12 555.785 4234.12 Q549.975 4234.12 546.896 4229.53 Q543.841 4224.93 543.841 4216.2 Q543.841 4207.45 546.896 4202.87 Q549.975 4198.26 555.785 4198.26 Z" fill="#000000" fill-rule="nonzero" fill-opacity="1" /><path clip-path="url(#clip490)" d="M588.794 4202.96 L576.989 4221.41 L588.794 4221.41 L588.794 4202.96 M587.567 4198.88 L593.447 4198.88 L593.447 4221.41 L598.377 4221.41 L598.377 4225.3 L593.447 4225.3 L593.447 4233.44 L588.794 4233.44 L588.794 4225.3 L573.192 4225.3 L573.192 4220.78 L587.567 4198.88 Z" fill="#000000" fill-rule="nonzero" fill-opacity="1" /><path clip-path="url(#clip490)" d="M2251.29 4216.62 L2280.96 4216.62 L2280.96 4220.55 L2251.29 4220.55 L2251.29 4216.62 Z" fill="#000000" fill-rule="nonzero" fill-opacity="1" /><path clip-path="url(#clip490)" d="M2301.05 4201.96 Q2297.44 4201.96 2295.61 4205.53 Q2293.81 4209.07 2293.81 4216.2 Q2293.81 4223.31 2295.61 4226.87 Q2297.44 4230.41 2301.05 4230.41 Q2304.69 4230.41 2306.49 4226.87 Q2308.32 4223.31 2308.32 4216.2 Q2308.32 4209.07 2306.49 4205.53 Q2304.69 4201.96 2301.05 4201.96 M2301.05 4198.26 Q2306.86 4198.26 2309.92 4202.87 Q2313 4207.45 2313 4216.2 Q2313 4224.93 2309.92 4229.53 Q2306.86 4234.12 2301.05 4234.12 Q2295.24 4234.12 2292.16 4229.53 Q2289.11 4224.93 2289.11 4216.2 Q2289.11 4207.45 2292.16 4202.87 Q2295.24 4198.26 2301.05 4198.26 Z" fill="#000000" fill-rule="nonzero" fill-opacity="1" /><path clip-path="url(#clip490)" d="M2321.22 4227.57 L2326.1 4227.57 L2326.1 4233.44 L2321.22 4233.44 L2321.22 4227.57 Z" fill="#000000" fill-rule="nonzero" fill-opacity="1" /><path clip-path="url(#clip490)" d="M2346.28 4201.96 Q2342.67 4201.96 2340.84 4205.53 Q2339.04 4209.07 2339.04 4216.2 Q2339.04 4223.31 2340.84 4226.87 Q2342.67 4230.41 2346.28 4230.41 Q2349.92 4230.41 2351.72 4226.87 Q2353.55 4223.31 2353.55 4216.2 Q2353.55 4209.07 2351.72 4205.53 Q2349.92 4201.96 2346.28 4201.96 M2346.28 4198.26 Q2352.09 4198.26 2355.15 4202.87 Q2358.23 4207.45 2358.23 4216.2 Q2358.23 4224.93 2355.15 4229.53 Q2352.09 4234.12 2346.28 4234.12 Q2340.47 4234.12 2337.4 4229.53 Q2334.34 4224.93 2334.34 4216.2 Q2334.34 4207.45 2337.4 4202.87 Q2340.47 4198.26 2346.28 4198.26 Z" fill="#000000" fill-rule="nonzero" fill-opacity="1" /><path clip-path="url(#clip490)" d="M2370.47 4229.51 L2386.79 4229.51 L2386.79 4233.44 L2364.85 4233.44 L2364.85 4229.51 Q2367.51 4226.76 2372.09 4222.13 Q2376.7 4217.47 2377.88 4216.13 Q2380.13 4213.61 2381.01 4211.87 Q2381.91 4210.11 2381.91 4208.42 Q2381.91 4205.67 2379.96 4203.93 Q2378.04 4202.2 2374.94 4202.2 Q2372.74 4202.2 2370.29 4202.96 Q2367.86 4203.72 2365.08 4205.27 L2365.08 4200.55 Q2367.9 4199.42 2370.36 4198.84 Q2372.81 4198.26 2374.85 4198.26 Q2380.22 4198.26 2383.41 4200.95 Q2386.61 4203.63 2386.61 4208.12 Q2386.61 4210.25 2385.8 4212.17 Q2385.01 4214.07 2382.9 4216.66 Q2382.33 4217.33 2379.22 4220.55 Q2376.12 4223.75 2370.47 4229.51 Z" fill="#000000" fill-rule="nonzero" fill-opacity="1" /><path clip-path="url(#clip490)" d="M4070.8 4201.96 Q4067.19 4201.96 4065.36 4205.53 Q4063.56 4209.07 4063.56 4216.2 Q4063.56 4223.31 4065.36 4226.87 Q4067.19 4230.41 4070.8 4230.41 Q4074.43 4230.41 4076.24 4226.87 Q4078.07 4223.31 4078.07 4216.2 Q4078.07 4209.07 4076.24 4205.53 Q4074.43 4201.96 4070.8 4201.96 M4070.8 4198.26 Q4076.61 4198.26 4079.67 4202.87 Q4082.74 4207.45 4082.74 4216.2 Q4082.74 4224.93 4079.67 4229.53 Q4076.61 4234.12 4070.8 4234.12 Q4064.99 4234.12 4061.91 4229.53 Q4058.86 4224.93 4058.86 4216.2 Q4058.86 4207.45 4061.91 4202.87 Q4064.99 4198.26 4070.8 4198.26 Z" fill="#000000" fill-rule="nonzero" fill-opacity="1" /><path clip-path="url(#clip490)" d="M4090.96 4227.57 L4095.85 4227.57 L4095.85 4233.44 L4090.96 4233.44 L4090.96 4227.57 Z" fill="#000000" fill-rule="nonzero" fill-opacity="1" /><path clip-path="url(#clip490)" d="M4116.03 4201.96 Q4112.42 4201.96 4110.59 4205.53 Q4108.79 4209.07 4108.79 4216.2 Q4108.79 4223.31 4110.59 4226.87 Q4112.42 4230.41 4116.03 4230.41 Q4119.67 4230.41 4121.47 4226.87 Q4123.3 4223.31 4123.3 4216.2 Q4123.3 4209.07 4121.47 4205.53 Q4119.67 4201.96 4116.03 4201.96 M4116.03 4198.26 Q4121.84 4198.26 4124.9 4202.87 Q4127.98 4207.45 4127.98 4216.2 Q4127.98 4224.93 4124.9 4229.53 Q4121.84 4234.12 4116.03 4234.12 Q4110.22 4234.12 4107.14 4229.53 Q4104.09 4224.93 4104.09 4216.2 Q4104.09 4207.45 4107.14 4202.87 Q4110.22 4198.26 4116.03 4198.26 Z" fill="#000000" fill-rule="nonzero" fill-opacity="1" /><path clip-path="url(#clip490)" d="M4146.19 4201.96 Q4142.58 4201.96 4140.75 4205.53 Q4138.95 4209.07 4138.95 4216.2 Q4138.95 4223.31 4140.75 4226.87 Q4142.58 4230.41 4146.19 4230.41 Q4149.83 4230.41 4151.63 4226.87 Q4153.46 4223.31 4153.46 4216.2 Q4153.46 4209.07 4151.63 4205.53 Q4149.83 4201.96 4146.19 4201.96 M4146.19 4198.26 Q4152 4198.26 4155.06 4202.87 Q4158.14 4207.45 4158.14 4216.2 Q4158.14 4224.93 4155.06 4229.53 Q4152 4234.12 4146.19 4234.12 Q4140.38 4234.12 4137.3 4229.53 Q4134.25 4224.93 4134.25 4216.2 Q4134.25 4207.45 4137.3 4202.87 Q4140.38 4198.26 4146.19 4198.26 Z" fill="#000000" fill-rule="nonzero" fill-opacity="1" /><path clip-path="url(#clip490)" d="M5861.06 4201.96 Q5857.45 4201.96 5855.62 4205.53 Q5853.81 4209.07 5853.81 4216.2 Q5853.81 4223.31 5855.62 4226.87 Q5857.45 4230.41 5861.06 4230.41 Q5864.69 4230.41 5866.5 4226.87 Q5868.33 4223.31 5868.33 4216.2 Q5868.33 4209.07 5866.5 4205.53 Q5864.69 4201.96 5861.06 4201.96 M5861.06 4198.26 Q5866.87 4198.26 5869.92 4202.87 Q5873 4207.45 5873 4216.2 Q5873 4224.93 5869.92 4229.53 Q5866.87 4234.12 5861.06 4234.12 Q5855.25 4234.12 5852.17 4229.53 Q5849.11 4224.93 5849.11 4216.2 Q5849.11 4207.45 5852.17 4202.87 Q5855.25 4198.26 5861.06 4198.26 Z" fill="#000000" fill-rule="nonzero" fill-opacity="1" /><path clip-path="url(#clip490)" d="M5881.22 4227.57 L5886.1 4227.57 L5886.1 4233.44 L5881.22 4233.44 L5881.22 4227.57 Z" fill="#000000" fill-rule="nonzero" fill-opacity="1" /><path clip-path="url(#clip490)" d="M5906.29 4201.96 Q5902.68 4201.96 5900.85 4205.53 Q5899.04 4209.07 5899.04 4216.2 Q5899.04 4223.31 5900.85 4226.87 Q5902.68 4230.41 5906.29 4230.41 Q5909.92 4230.41 5911.73 4226.87 Q5913.56 4223.31 5913.56 4216.2 Q5913.56 4209.07 5911.73 4205.53 Q5909.92 4201.96 5906.29 4201.96 M5906.29 4198.26 Q5912.1 4198.26 5915.15 4202.87 Q5918.23 4207.45 5918.23 4216.2 Q5918.23 4224.93 5915.15 4229.53 Q5912.1 4234.12 5906.29 4234.12 Q5900.48 4234.12 5897.4 4229.53 Q5894.34 4224.93 5894.34 4216.2 Q5894.34 4207.45 5897.4 4202.87 Q5900.48 4198.26 5906.29 4198.26 Z" fill="#000000" fill-rule="nonzero" fill-opacity="1" /><path clip-path="url(#clip490)" d="M5930.48 4229.51 L5946.8 4229.51 L5946.8 4233.44 L5924.85 4233.44 L5924.85 4229.51 Q5927.52 4226.76 5932.1 4222.13 Q5936.7 4217.47 5937.89 4216.13 Q5940.13 4213.61 5941.01 4211.87 Q5941.91 4210.11 5941.91 4208.42 Q5941.91 4205.67 5939.97 4203.93 Q5938.05 4202.2 5934.95 4202.2 Q5932.75 4202.2 5930.29 4202.96 Q5927.86 4203.72 5925.08 4205.27 L5925.08 4200.55 Q5927.91 4199.42 5930.36 4198.84 Q5932.82 4198.26 5934.85 4198.26 Q5940.22 4198.26 5943.42 4200.95 Q5946.61 4203.63 5946.61 4208.12 Q5946.61 4210.25 5945.8 4212.17 Q5945.01 4214.07 5942.91 4216.66 Q5942.33 4217.33 5939.23 4220.55 Q5936.13 4223.75 5930.48 4229.51 Z" fill="#000000" fill-rule="nonzero" fill-opacity="1" /><path clip-path="url(#clip490)" d="M3606.93 4310.63 L3606.93 4347.59 L3614.69 4347.59 Q3624.53 4347.59 3629.08 4343.13 Q3633.66 4338.67 3633.66 4329.06 Q3633.66 4319.51 3629.08 4315.09 Q3624.53 4310.63 3614.69 4310.63 L3606.93 4310.63 M3600.5 4305.35 L3613.71 4305.35 Q3627.52 4305.35 3633.98 4311.11 Q3640.44 4316.84 3640.44 4329.06 Q3640.44 4341.35 3633.95 4347.11 Q3627.46 4352.87 3613.71 4352.87 L3600.5 4352.87 L3600.5 4305.35 Z" fill="#000000" fill-rule="nonzero" fill-opacity="1" /><path clip-path="url(#clip490)" d="M3680.93 4333.58 L3680.93 4336.45 L3654 4336.45 Q3654.38 4342.49 3657.63 4345.68 Q3660.91 4348.83 3666.73 4348.83 Q3670.11 4348.83 3673.26 4348 Q3676.44 4347.17 3679.56 4345.52 L3679.56 4351.05 Q3676.41 4352.39 3673.1 4353.09 Q3669.79 4353.79 3666.38 4353.79 Q3657.85 4353.79 3652.86 4348.83 Q3647.89 4343.86 3647.89 4335.39 Q3647.89 4326.64 3652.6 4321.52 Q3657.34 4316.36 3665.36 4316.36 Q3672.56 4316.36 3676.73 4321.01 Q3680.93 4325.62 3680.93 4333.58 M3675.07 4331.86 Q3675.01 4327.06 3672.37 4324.19 Q3669.76 4321.33 3665.43 4321.33 Q3660.53 4321.33 3657.57 4324.1 Q3654.64 4326.86 3654.19 4331.89 L3675.07 4331.86 Z" fill="#000000" fill-rule="nonzero" fill-opacity="1" /><path clip-path="url(#clip490)" d="M3713.27 4318.27 L3713.27 4323.81 Q3710.78 4322.54 3708.11 4321.9 Q3705.44 4321.26 3702.57 4321.26 Q3698.21 4321.26 3696.02 4322.6 Q3693.85 4323.94 3693.85 4326.61 Q3693.85 4328.65 3695.41 4329.82 Q3696.97 4330.97 3701.68 4332.02 L3703.69 4332.47 Q3709.92 4333.8 3712.53 4336.25 Q3715.18 4338.67 3715.18 4343.03 Q3715.18 4348 3711.23 4350.9 Q3707.31 4353.79 3700.44 4353.79 Q3697.57 4353.79 3694.46 4353.22 Q3691.37 4352.68 3687.93 4351.56 L3687.93 4345.52 Q3691.18 4347.2 3694.33 4348.06 Q3697.48 4348.89 3700.57 4348.89 Q3704.7 4348.89 3706.93 4347.49 Q3709.16 4346.06 3709.16 4343.48 Q3709.16 4341.09 3707.54 4339.82 Q3705.95 4338.55 3700.5 4337.37 L3698.47 4336.89 Q3693.02 4335.75 3690.6 4333.39 Q3688.19 4331 3688.19 4326.86 Q3688.19 4321.84 3691.75 4319.1 Q3695.32 4316.36 3701.87 4316.36 Q3705.12 4316.36 3707.98 4316.84 Q3710.85 4317.32 3713.27 4318.27 Z" fill="#000000" fill-rule="nonzero" fill-opacity="1" /><path clip-path="url(#clip490)" d="M3730.17 4347.52 L3730.17 4366.43 L3724.28 4366.43 L3724.28 4317.22 L3730.17 4317.22 L3730.17 4322.63 Q3732.01 4319.45 3734.81 4317.92 Q3737.65 4316.36 3741.56 4316.36 Q3748.05 4316.36 3752.1 4321.52 Q3756.17 4326.67 3756.17 4335.08 Q3756.17 4343.48 3752.1 4348.64 Q3748.05 4353.79 3741.56 4353.79 Q3737.65 4353.79 3734.81 4352.26 Q3732.01 4350.7 3730.17 4347.52 M3750.09 4335.08 Q3750.09 4328.62 3747.42 4324.96 Q3744.78 4321.26 3740.13 4321.26 Q3735.48 4321.26 3732.81 4324.96 Q3730.17 4328.62 3730.17 4335.08 Q3730.17 4341.54 3732.81 4345.23 Q3735.48 4348.89 3740.13 4348.89 Q3744.78 4348.89 3747.42 4345.23 Q3750.09 4341.54 3750.09 4335.08 Z" fill="#000000" fill-rule="nonzero" fill-opacity="1" /><path clip-path="url(#clip490)" d="M3765.88 4303.34 L3771.74 4303.34 L3771.74 4352.87 L3765.88 4352.87 L3765.88 4303.34 Z" fill="#000000" fill-rule="nonzero" fill-opacity="1" /><path clip-path="url(#clip490)" d="M3800.19 4334.95 Q3793.09 4334.95 3790.36 4336.57 Q3787.62 4338.2 3787.62 4342.11 Q3787.62 4345.23 3789.65 4347.08 Q3791.72 4348.89 3795.26 4348.89 Q3800.13 4348.89 3803.05 4345.45 Q3806.01 4341.98 3806.01 4336.25 L3806.01 4334.95 L3800.19 4334.95 M3811.87 4332.53 L3811.87 4352.87 L3806.01 4352.87 L3806.01 4347.46 Q3804.01 4350.7 3801.02 4352.26 Q3798.03 4353.79 3793.7 4353.79 Q3788.22 4353.79 3784.98 4350.74 Q3781.76 4347.65 3781.76 4342.49 Q3781.76 4336.48 3785.77 4333.42 Q3789.81 4330.37 3797.8 4330.37 L3806.01 4330.37 L3806.01 4329.79 Q3806.01 4325.75 3803.34 4323.55 Q3800.7 4321.33 3795.89 4321.33 Q3792.84 4321.33 3789.94 4322.06 Q3787.04 4322.79 3784.37 4324.25 L3784.37 4318.84 Q3787.59 4317.6 3790.61 4317 Q3793.63 4316.36 3796.5 4316.36 Q3804.23 4316.36 3808.05 4320.37 Q3811.87 4324.38 3811.87 4332.53 Z" fill="#000000" fill-rule="nonzero" fill-opacity="1" /><path clip-path="url(#clip490)" d="M3821.39 4317.22 L3849.21 4317.22 L3849.21 4322.57 L3827.18 4348.19 L3849.21 4348.19 L3849.21 4352.87 L3820.59 4352.87 L3820.59 4347.52 L3842.62 4321.9 L3821.39 4321.9 L3821.39 4317.22 Z" fill="#000000" fill-rule="nonzero" fill-opacity="1" /><path clip-path="url(#clip490)" d="M3874.35 4334.95 Q3867.25 4334.95 3864.52 4336.57 Q3861.78 4338.2 3861.78 4342.11 Q3861.78 4345.23 3863.82 4347.08 Q3865.88 4348.89 3869.42 4348.89 Q3874.29 4348.89 3877.22 4345.45 Q3880.18 4341.98 3880.18 4336.25 L3880.18 4334.95 L3874.35 4334.95 M3886.03 4332.53 L3886.03 4352.87 L3880.18 4352.87 L3880.18 4347.46 Q3878.17 4350.7 3875.18 4352.26 Q3872.19 4353.79 3867.86 4353.79 Q3862.38 4353.79 3859.14 4350.74 Q3855.92 4347.65 3855.92 4342.49 Q3855.92 4336.48 3859.93 4333.42 Q3863.97 4330.37 3871.96 4330.37 L3880.18 4330.37 L3880.18 4329.79 Q3880.18 4325.75 3877.5 4323.55 Q3874.86 4321.33 3870.05 4321.33 Q3867 4321.33 3864.1 4322.06 Q3861.21 4322.79 3858.53 4324.25 L3858.53 4318.84 Q3861.75 4317.6 3864.77 4317 Q3867.79 4316.36 3870.66 4316.36 Q3878.39 4316.36 3882.21 4320.37 Q3886.03 4324.38 3886.03 4332.53 Z" fill="#000000" fill-rule="nonzero" fill-opacity="1" /><path clip-path="url(#clip490)" d="M3925.85 4324.06 Q3928.05 4320.12 3931.1 4318.24 Q3934.16 4316.36 3938.29 4316.36 Q3943.86 4316.36 3946.89 4320.28 Q3949.91 4324.16 3949.91 4331.35 L3949.91 4352.87 L3944.02 4352.87 L3944.02 4331.54 Q3944.02 4326.42 3942.21 4323.94 Q3940.39 4321.45 3936.67 4321.45 Q3932.12 4321.45 3929.48 4324.48 Q3926.84 4327.5 3926.84 4332.72 L3926.84 4352.87 L3920.95 4352.87 L3920.95 4331.54 Q3920.95 4326.39 3919.13 4323.94 Q3917.32 4321.45 3913.53 4321.45 Q3909.04 4321.45 3906.4 4324.51 Q3903.76 4327.53 3903.76 4332.72 L3903.76 4352.87 L3897.87 4352.87 L3897.87 4317.22 L3903.76 4317.22 L3903.76 4322.76 Q3905.77 4319.48 3908.57 4317.92 Q3911.37 4316.36 3915.22 4316.36 Q3919.1 4316.36 3921.81 4318.33 Q3924.54 4320.31 3925.85 4324.06 Z" fill="#000000" fill-rule="nonzero" fill-opacity="1" /><path clip-path="url(#clip490)" d="M3961.59 4317.22 L3967.45 4317.22 L3967.45 4352.87 L3961.59 4352.87 L3961.59 4317.22 M3961.59 4303.34 L3967.45 4303.34 L3967.45 4310.76 L3961.59 4310.76 L3961.59 4303.34 Z" fill="#000000" fill-rule="nonzero" fill-opacity="1" /><path clip-path="url(#clip490)" d="M4010.19 4333.58 L4010.19 4336.45 L3983.27 4336.45 Q3983.65 4342.49 3986.9 4345.68 Q3990.17 4348.83 3996 4348.83 Q3999.37 4348.83 4002.52 4348 Q4005.71 4347.17 4008.83 4345.52 L4008.83 4351.05 Q4005.68 4352.39 4002.36 4353.09 Q3999.05 4353.79 3995.65 4353.79 Q3987.12 4353.79 3982.12 4348.83 Q3977.16 4343.86 3977.16 4335.39 Q3977.16 4326.64 3981.87 4321.52 Q3986.61 4316.36 3994.63 4316.36 Q4001.82 4316.36 4005.99 4321.01 Q4010.19 4325.62 4010.19 4333.58 M4004.34 4331.86 Q4004.27 4327.06 4001.63 4324.19 Q3999.02 4321.33 3994.69 4321.33 Q3989.79 4321.33 3986.83 4324.1 Q3983.9 4326.86 3983.46 4331.89 L4004.34 4331.86 Z" fill="#000000" fill-rule="nonzero" fill-opacity="1" /><path clip-path="url(#clip490)" d="M4049.44 4331.35 L4049.44 4352.87 L4043.58 4352.87 L4043.58 4331.54 Q4043.58 4326.48 4041.61 4323.97 Q4039.64 4321.45 4035.69 4321.45 Q4030.95 4321.45 4028.21 4324.48 Q4025.47 4327.5 4025.47 4332.72 L4025.47 4352.87 L4019.58 4352.87 L4019.58 4317.22 L4025.47 4317.22 L4025.47 4322.76 Q4027.57 4319.54 4030.41 4317.95 Q4033.27 4316.36 4036.99 4316.36 Q4043.14 4316.36 4046.29 4320.18 Q4049.44 4323.97 4049.44 4331.35 Z" fill="#000000" fill-rule="nonzero" fill-opacity="1" /><path clip-path="url(#clip490)" d="M4066.91 4307.1 L4066.91 4317.22 L4078.98 4317.22 L4078.98 4321.77 L4066.91 4321.77 L4066.91 4341.12 Q4066.91 4345.48 4068.09 4346.73 Q4069.3 4347.97 4072.96 4347.97 L4078.98 4347.97 L4078.98 4352.87 L4072.96 4352.87 Q4066.18 4352.87 4063.6 4350.35 Q4061.02 4347.81 4061.02 4341.12 L4061.02 4321.77 L4056.73 4321.77 L4056.73 4317.22 L4061.02 4317.22 L4061.02 4307.1 L4066.91 4307.1 Z" fill="#000000" fill-rule="nonzero" fill-opacity="1" /><path clip-path="url(#clip490)" d="M4100.49 4321.33 Q4095.78 4321.33 4093.04 4325.02 Q4090.31 4328.68 4090.31 4335.08 Q4090.31 4341.47 4093.01 4345.17 Q4095.75 4348.83 4100.49 4348.83 Q4105.17 4348.83 4107.91 4345.13 Q4110.65 4341.44 4110.65 4335.08 Q4110.65 4328.74 4107.91 4325.05 Q4105.17 4321.33 4100.49 4321.33 M4100.49 4316.36 Q4108.13 4316.36 4112.49 4321.33 Q4116.85 4326.29 4116.85 4335.08 Q4116.85 4343.83 4112.49 4348.83 Q4108.13 4353.79 4100.49 4353.79 Q4092.82 4353.79 4088.46 4348.83 Q4084.13 4343.83 4084.13 4335.08 Q4084.13 4326.29 4088.46 4321.33 Q4092.82 4316.36 4100.49 4316.36 Z" fill="#000000" fill-rule="nonzero" fill-opacity="1" /><path clip-path="url(#clip490)" d="M4176.91 4317.22 L4164.02 4334.57 L4177.58 4352.87 L4170.67 4352.87 L4160.3 4338.86 L4149.92 4352.87 L4143.02 4352.87 L4156.86 4334.22 L4144.19 4317.22 L4151.1 4317.22 L4160.55 4329.92 L4170.01 4317.22 L4176.91 4317.22 Z" fill="#000000" fill-rule="nonzero" fill-opacity="1" /><path clip-path="url(#clip490)" d="M4196.39 4338.48 Q4199.32 4339.06 4200.91 4340.81 Q4202.53 4342.52 4202.53 4345.13 Q4202.53 4349.08 4199.51 4351.21 Q4196.49 4353.35 4190.85 4353.35 Q4189.04 4353.35 4187.03 4353 Q4185.06 4352.68 4182.83 4352.04 L4182.83 4348.19 Q4184.49 4349.05 4186.37 4349.46 Q4188.28 4349.88 4190.41 4349.88 Q4193.88 4349.88 4195.79 4348.64 Q4197.7 4347.36 4197.7 4345.13 Q4197.7 4342.78 4195.91 4341.57 Q4194.16 4340.36 4190.73 4340.36 L4187.99 4340.36 L4187.99 4336.92 L4190.98 4336.92 Q4193.97 4336.92 4195.5 4335.94 Q4197.06 4334.92 4197.06 4333.01 Q4197.06 4331.16 4195.47 4330.21 Q4193.88 4329.22 4190.85 4329.22 Q4189.58 4329.22 4187.96 4329.51 Q4186.33 4329.79 4183.76 4330.53 L4183.76 4326.86 Q4186.08 4326.32 4188.12 4326.04 Q4190.15 4325.75 4191.9 4325.75 Q4196.49 4325.75 4199.16 4327.63 Q4201.87 4329.51 4201.87 4332.66 Q4201.87 4334.85 4200.43 4336.38 Q4199 4337.91 4196.39 4338.48 Z" fill="#000000" fill-rule="nonzero" fill-opacity="1" /><path clip-path="url(#clip490)" d="M4246.78 4303.41 Q4242.51 4310.73 4240.44 4317.89 Q4238.37 4325.05 4238.37 4332.4 Q4238.37 4339.76 4240.44 4346.98 Q4242.54 4354.17 4246.78 4361.46 L4241.68 4361.46 Q4236.91 4353.98 4234.52 4346.76 Q4232.17 4339.53 4232.17 4332.4 Q4232.17 4325.31 4234.52 4318.11 Q4236.88 4310.92 4241.68 4303.41 L4246.78 4303.41 Z" fill="#000000" fill-rule="nonzero" fill-opacity="1" /><path clip-path="url(#clip490)" d="M4285.89 4324.06 Q4288.09 4320.12 4291.15 4318.24 Q4294.2 4316.36 4298.34 4316.36 Q4303.91 4316.36 4306.93 4320.28 Q4309.96 4324.16 4309.96 4331.35 L4309.96 4352.87 L4304.07 4352.87 L4304.07 4331.54 Q4304.07 4326.42 4302.25 4323.94 Q4300.44 4321.45 4296.72 4321.45 Q4292.16 4321.45 4289.52 4324.48 Q4286.88 4327.5 4286.88 4332.72 L4286.88 4352.87 L4280.99 4352.87 L4280.99 4331.54 Q4280.99 4326.39 4279.18 4323.94 Q4277.36 4321.45 4273.58 4321.45 Q4269.09 4321.45 4266.45 4324.51 Q4263.8 4327.53 4263.8 4332.72 L4263.8 4352.87 L4257.92 4352.87 L4257.92 4317.22 L4263.8 4317.22 L4263.8 4322.76 Q4265.81 4319.48 4268.61 4317.92 Q4271.41 4316.36 4275.26 4316.36 Q4279.15 4316.36 4281.85 4318.33 Q4284.59 4320.31 4285.89 4324.06 Z" fill="#000000" fill-rule="nonzero" fill-opacity="1" /><path clip-path="url(#clip490)" d="M4320.71 4303.41 L4325.81 4303.41 Q4330.58 4310.92 4332.94 4318.11 Q4335.32 4325.31 4335.32 4332.4 Q4335.32 4339.53 4332.94 4346.76 Q4330.58 4353.98 4325.81 4361.46 L4320.71 4361.46 Q4324.95 4354.17 4327.02 4346.98 Q4329.12 4339.76 4329.12 4332.4 Q4329.12 4325.05 4327.02 4317.89 Q4324.95 4310.73 4320.71 4303.41 Z" fill="#000000" fill-rule="nonzero" fill-opacity="1" /><polyline clip-path="url(#clip490)" style="stroke:#000000; stroke-linecap:round; stroke-linejoin:round; stroke-width:4; stroke-opacity:1; fill:none" points="303.065,4128.8 303.065,114.022 "/>
<polyline clip-path="url(#clip490)" style="stroke:#000000; stroke-linecap:round; stroke-linejoin:round; stroke-width:4; stroke-opacity:1; fill:none" points="303.065,4011.95 321.963,4011.95 "/>
<polyline clip-path="url(#clip490)" style="stroke:#000000; stroke-linecap:round; stroke-linejoin:round; stroke-width:4; stroke-opacity:1; fill:none" points="303.065,3119.39 321.963,3119.39 "/>
<polyline clip-path="url(#clip490)" style="stroke:#000000; stroke-linecap:round; stroke-linejoin:round; stroke-width:4; stroke-opacity:1; fill:none" points="303.065,2226.84 321.963,2226.84 "/>
<polyline clip-path="url(#clip490)" style="stroke:#000000; stroke-linecap:round; stroke-linejoin:round; stroke-width:4; stroke-opacity:1; fill:none" points="303.065,1334.29 321.963,1334.29 "/>
<polyline clip-path="url(#clip490)" style="stroke:#000000; stroke-linecap:round; stroke-linejoin:round; stroke-width:4; stroke-opacity:1; fill:none" points="303.065,441.734 321.963,441.734 "/>
<path clip-path="url(#clip490)" d="M80.4352 4012.4 L110.111 4012.4 L110.111 4016.33 L80.4352 4016.33 L80.4352 4012.4 Z" fill="#000000" fill-rule="nonzero" fill-opacity="1" /><path clip-path="url(#clip490)" d="M130.203 3997.75 Q126.592 3997.75 124.764 4001.31 Q122.958 4004.85 122.958 4011.98 Q122.958 4019.09 124.764 4022.65 Q126.592 4026.2 130.203 4026.2 Q133.838 4026.2 135.643 4022.65 Q137.472 4019.09 137.472 4011.98 Q137.472 4004.85 135.643 4001.31 Q133.838 3997.75 130.203 3997.75 M130.203 3994.04 Q136.014 3994.04 139.069 3998.65 Q142.148 4003.23 142.148 4011.98 Q142.148 4020.71 139.069 4025.32 Q136.014 4029.9 130.203 4029.9 Q124.393 4029.9 121.315 4025.32 Q118.259 4020.71 118.259 4011.98 Q118.259 4003.23 121.315 3998.65 Q124.393 3994.04 130.203 3994.04 Z" fill="#000000" fill-rule="nonzero" fill-opacity="1" /><path clip-path="url(#clip490)" d="M150.365 4023.35 L155.25 4023.35 L155.25 4029.23 L150.365 4029.23 L150.365 4023.35 Z" fill="#000000" fill-rule="nonzero" fill-opacity="1" /><path clip-path="url(#clip490)" d="M178.282 3998.74 L166.476 4017.19 L178.282 4017.19 L178.282 3998.74 M177.055 3994.67 L182.935 3994.67 L182.935 4017.19 L187.865 4017.19 L187.865 4021.08 L182.935 4021.08 L182.935 4029.23 L178.282 4029.23 L178.282 4021.08 L162.68 4021.08 L162.68 4016.57 L177.055 3994.67 Z" fill="#000000" fill-rule="nonzero" fill-opacity="1" /><path clip-path="url(#clip490)" d="M82.5185 3119.85 L112.194 3119.85 L112.194 3123.78 L82.5185 3123.78 L82.5185 3119.85 Z" fill="#000000" fill-rule="nonzero" fill-opacity="1" /><path clip-path="url(#clip490)" d="M132.287 3105.19 Q128.676 3105.19 126.847 3108.76 Q125.041 3112.3 125.041 3119.43 Q125.041 3126.54 126.847 3130.1 Q128.676 3133.64 132.287 3133.64 Q135.921 3133.64 137.727 3130.1 Q139.555 3126.54 139.555 3119.43 Q139.555 3112.3 137.727 3108.76 Q135.921 3105.19 132.287 3105.19 M132.287 3101.49 Q138.097 3101.49 141.152 3106.1 Q144.231 3110.68 144.231 3119.43 Q144.231 3128.16 141.152 3132.76 Q138.097 3137.35 132.287 3137.35 Q126.477 3137.35 123.398 3132.76 Q120.342 3128.16 120.342 3119.43 Q120.342 3110.68 123.398 3106.1 Q126.477 3101.49 132.287 3101.49 Z" fill="#000000" fill-rule="nonzero" fill-opacity="1" /><path clip-path="url(#clip490)" d="M152.449 3130.79 L157.333 3130.79 L157.333 3136.67 L152.449 3136.67 L152.449 3130.79 Z" fill="#000000" fill-rule="nonzero" fill-opacity="1" /><path clip-path="url(#clip490)" d="M171.546 3132.74 L187.865 3132.74 L187.865 3136.67 L165.921 3136.67 L165.921 3132.74 Q168.583 3129.98 173.166 3125.36 Q177.773 3120.7 178.953 3119.36 Q181.199 3116.84 182.078 3115.1 Q182.981 3113.34 182.981 3111.65 Q182.981 3108.9 181.036 3107.16 Q179.115 3105.42 176.013 3105.42 Q173.814 3105.42 171.361 3106.19 Q168.93 3106.95 166.152 3108.5 L166.152 3103.78 Q168.976 3102.65 171.43 3102.07 Q173.884 3101.49 175.921 3101.49 Q181.291 3101.49 184.486 3104.17 Q187.68 3106.86 187.68 3111.35 Q187.68 3113.48 186.87 3115.4 Q186.083 3117.3 183.976 3119.89 Q183.398 3120.56 180.296 3123.78 Q177.194 3126.98 171.546 3132.74 Z" fill="#000000" fill-rule="nonzero" fill-opacity="1" /><path clip-path="url(#clip490)" d="M130.69 2212.64 Q127.078 2212.64 125.25 2216.2 Q123.444 2219.75 123.444 2226.88 Q123.444 2233.98 125.25 2237.55 Q127.078 2241.09 130.69 2241.09 Q134.324 2241.09 136.129 2237.55 Q137.958 2233.98 137.958 2226.88 Q137.958 2219.75 136.129 2216.2 Q134.324 2212.64 130.69 2212.64 M130.69 2208.94 Q136.5 2208.94 139.555 2213.54 Q142.634 2218.13 142.634 2226.88 Q142.634 2235.6 139.555 2240.21 Q136.5 2244.79 130.69 2244.79 Q124.879 2244.79 121.801 2240.21 Q118.745 2235.6 118.745 2226.88 Q118.745 2218.13 121.801 2213.54 Q124.879 2208.94 130.69 2208.94 Z" fill="#000000" fill-rule="nonzero" fill-opacity="1" /><path clip-path="url(#clip490)" d="M150.851 2238.24 L155.736 2238.24 L155.736 2244.12 L150.851 2244.12 L150.851 2238.24 Z" fill="#000000" fill-rule="nonzero" fill-opacity="1" /><path clip-path="url(#clip490)" d="M175.921 2212.64 Q172.31 2212.64 170.481 2216.2 Q168.675 2219.75 168.675 2226.88 Q168.675 2233.98 170.481 2237.55 Q172.31 2241.09 175.921 2241.09 Q179.555 2241.09 181.361 2237.55 Q183.189 2233.98 183.189 2226.88 Q183.189 2219.75 181.361 2216.2 Q179.555 2212.64 175.921 2212.64 M175.921 2208.94 Q181.731 2208.94 184.786 2213.54 Q187.865 2218.13 187.865 2226.88 Q187.865 2235.6 184.786 2240.21 Q181.731 2244.79 175.921 2244.79 Q170.111 2244.79 167.032 2240.21 Q163.976 2235.6 163.976 2226.88 Q163.976 2218.13 167.032 2213.54 Q170.111 2208.94 175.921 2208.94 Z" fill="#000000" fill-rule="nonzero" fill-opacity="1" /><path clip-path="url(#clip490)" d="M132.287 1320.09 Q128.676 1320.09 126.847 1323.65 Q125.041 1327.19 125.041 1334.32 Q125.041 1341.43 126.847 1344.99 Q128.676 1348.54 132.287 1348.54 Q135.921 1348.54 137.727 1344.99 Q139.555 1341.43 139.555 1334.32 Q139.555 1327.19 137.727 1323.65 Q135.921 1320.09 132.287 1320.09 M132.287 1316.38 Q138.097 1316.38 141.152 1320.99 Q144.231 1325.57 144.231 1334.32 Q144.231 1343.05 141.152 1347.66 Q138.097 1352.24 132.287 1352.24 Q126.477 1352.24 123.398 1347.66 Q120.342 1343.05 120.342 1334.32 Q120.342 1325.57 123.398 1320.99 Q126.477 1316.38 132.287 1316.38 Z" fill="#000000" fill-rule="nonzero" fill-opacity="1" /><path clip-path="url(#clip490)" d="M152.449 1345.69 L157.333 1345.69 L157.333 1351.57 L152.449 1351.57 L152.449 1345.69 Z" fill="#000000" fill-rule="nonzero" fill-opacity="1" /><path clip-path="url(#clip490)" d="M171.546 1347.63 L187.865 1347.63 L187.865 1351.57 L165.921 1351.57 L165.921 1347.63 Q168.583 1344.88 173.166 1340.25 Q177.773 1335.6 178.953 1334.25 Q181.199 1331.73 182.078 1329.99 Q182.981 1328.23 182.981 1326.54 Q182.981 1323.79 181.036 1322.05 Q179.115 1320.32 176.013 1320.32 Q173.814 1320.32 171.361 1321.08 Q168.93 1321.85 166.152 1323.4 L166.152 1318.67 Q168.976 1317.54 171.43 1316.96 Q173.884 1316.38 175.921 1316.38 Q181.291 1316.38 184.486 1319.07 Q187.68 1321.75 187.68 1326.24 Q187.68 1328.37 186.87 1330.29 Q186.083 1332.19 183.976 1334.79 Q183.398 1335.46 180.296 1338.67 Q177.194 1341.87 171.546 1347.63 Z" fill="#000000" fill-rule="nonzero" fill-opacity="1" /><path clip-path="url(#clip490)" d="M130.203 427.533 Q126.592 427.533 124.764 431.097 Q122.958 434.639 122.958 441.769 Q122.958 448.875 124.764 452.44 Q126.592 455.982 130.203 455.982 Q133.838 455.982 135.643 452.44 Q137.472 448.875 137.472 441.769 Q137.472 434.639 135.643 431.097 Q133.838 427.533 130.203 427.533 M130.203 423.829 Q136.014 423.829 139.069 428.435 Q142.148 433.019 142.148 441.769 Q142.148 450.496 139.069 455.102 Q136.014 459.685 130.203 459.685 Q124.393 459.685 121.315 455.102 Q118.259 450.496 118.259 441.769 Q118.259 433.019 121.315 428.435 Q124.393 423.829 130.203 423.829 Z" fill="#000000" fill-rule="nonzero" fill-opacity="1" /><path clip-path="url(#clip490)" d="M150.365 453.134 L155.25 453.134 L155.25 459.014 L150.365 459.014 L150.365 453.134 Z" fill="#000000" fill-rule="nonzero" fill-opacity="1" /><path clip-path="url(#clip490)" d="M178.282 428.528 L166.476 446.977 L178.282 446.977 L178.282 428.528 M177.055 424.454 L182.935 424.454 L182.935 446.977 L187.865 446.977 L187.865 450.866 L182.935 450.866 L182.935 459.014 L178.282 459.014 L178.282 450.866 L162.68 450.866 L162.68 446.352 L177.055 424.454 Z" fill="#000000" fill-rule="nonzero" fill-opacity="1" /><path clip-path="url(#clip490)" d="M-49.0208 2395.57 L-96.5408 2413.71 L-96.5408 2406.99 L-56.5324 2391.94 L-96.5408 2376.85 L-96.5408 2370.17 L-49.0208 2388.28 L-49.0208 2395.57 Z" fill="#000000" fill-rule="nonzero" fill-opacity="1" /><path clip-path="url(#clip490)" d="M-68.3089 2338.05 L-65.4444 2338.05 L-65.4444 2364.98 Q-59.3969 2364.6 -56.2141 2361.35 Q-53.0631 2358.07 -53.0631 2352.25 Q-53.0631 2348.88 -53.8906 2345.73 Q-54.7181 2342.54 -56.3732 2339.42 L-50.8351 2339.42 Q-49.4983 2342.57 -48.798 2345.88 Q-48.0978 2349.19 -48.0978 2352.6 Q-48.0978 2361.13 -53.0631 2366.13 Q-58.0283 2371.09 -66.4947 2371.09 Q-75.2476 2371.09 -80.3719 2366.38 Q-85.5282 2361.64 -85.5282 2353.62 Q-85.5282 2346.43 -80.8812 2342.26 Q-76.2661 2338.05 -68.3089 2338.05 M-70.0277 2343.91 Q-74.8338 2343.97 -77.6984 2346.62 Q-80.5629 2349.23 -80.5629 2353.55 Q-80.5629 2358.46 -77.7938 2361.42 Q-75.0248 2364.34 -69.9958 2364.79 L-70.0277 2343.91 Z" fill="#000000" fill-rule="nonzero" fill-opacity="1" /><path clip-path="url(#clip490)" d="M-98.546 2328.44 L-98.546 2322.59 L-49.0208 2322.59 L-49.0208 2328.44 L-98.546 2328.44 Z" fill="#000000" fill-rule="nonzero" fill-opacity="1" /><path clip-path="url(#clip490)" d="M-80.5629 2296.52 Q-80.5629 2301.23 -76.8708 2303.97 Q-73.2105 2306.7 -66.813 2306.7 Q-60.4155 2306.7 -56.7233 2304 Q-53.0631 2301.26 -53.0631 2296.52 Q-53.0631 2291.84 -56.7552 2289.1 Q-60.4473 2286.36 -66.813 2286.36 Q-73.1469 2286.36 -76.839 2289.1 Q-80.5629 2291.84 -80.5629 2296.52 M-85.5282 2296.52 Q-85.5282 2288.88 -80.5629 2284.52 Q-75.5977 2280.16 -66.813 2280.16 Q-58.0601 2280.16 -53.0631 2284.52 Q-48.0978 2288.88 -48.0978 2296.52 Q-48.0978 2304.19 -53.0631 2308.55 Q-58.0601 2312.88 -66.813 2312.88 Q-75.5977 2312.88 -80.5629 2308.55 Q-85.5282 2304.19 -85.5282 2296.52 Z" fill="#000000" fill-rule="nonzero" fill-opacity="1" /><path clip-path="url(#clip490)" d="M-83.3002 2244.8 L-77.8257 2244.8 Q-79.1943 2247.28 -79.8627 2249.79 Q-80.5629 2252.28 -80.5629 2254.82 Q-80.5629 2260.52 -76.9345 2263.67 Q-73.3378 2266.82 -66.813 2266.82 Q-60.2881 2266.82 -56.6597 2263.67 Q-53.0631 2260.52 -53.0631 2254.82 Q-53.0631 2252.28 -53.7315 2249.79 Q-54.4317 2247.28 -55.8003 2244.8 L-50.3895 2244.8 Q-49.2436 2247.25 -48.6707 2249.89 Q-48.0978 2252.5 -48.0978 2255.46 Q-48.0978 2263.51 -53.1586 2268.25 Q-58.2193 2273 -66.813 2273 Q-75.534 2273 -80.5311 2268.22 Q-85.5282 2263.42 -85.5282 2255.08 Q-85.5282 2252.37 -84.9553 2249.79 Q-84.4142 2247.22 -83.3002 2244.8 Z" fill="#000000" fill-rule="nonzero" fill-opacity="1" /><path clip-path="url(#clip490)" d="M-84.6688 2234.61 L-84.6688 2228.76 L-49.0208 2228.76 L-49.0208 2234.61 L-84.6688 2234.61 M-98.546 2234.61 L-98.546 2228.76 L-91.13 2228.76 L-91.13 2234.61 L-98.546 2234.61 Z" fill="#000000" fill-rule="nonzero" fill-opacity="1" /><path clip-path="url(#clip490)" d="M-79.2579 2193.04 L-98.546 2193.04 L-98.546 2187.19 L-49.0208 2187.19 L-49.0208 2193.04 L-54.368 2193.04 Q-51.1852 2194.89 -49.6256 2197.72 Q-48.0978 2200.52 -48.0978 2204.47 Q-48.0978 2210.93 -53.254 2215.01 Q-58.4103 2219.05 -66.813 2219.05 Q-75.2157 2219.05 -80.3719 2215.01 Q-85.5282 2210.93 -85.5282 2204.47 Q-85.5282 2200.52 -83.9686 2197.72 Q-82.4408 2194.89 -79.2579 2193.04 M-66.813 2213 Q-60.3518 2213 -56.6597 2210.36 Q-52.9994 2207.68 -52.9994 2203.04 Q-52.9994 2198.39 -56.6597 2195.72 Q-60.3518 2193.04 -66.813 2193.04 Q-73.2742 2193.04 -76.9345 2195.72 Q-80.6266 2198.39 -80.6266 2203.04 Q-80.6266 2207.68 -76.9345 2210.36 Q-73.2742 2213 -66.813 2213 Z" fill="#000000" fill-rule="nonzero" fill-opacity="1" /><path clip-path="url(#clip490)" d="M-66.9403 2158.92 Q-66.9403 2166.02 -65.3171 2168.76 Q-63.6938 2171.5 -59.7789 2171.5 Q-56.6597 2171.5 -54.8136 2169.46 Q-52.9994 2167.39 -52.9994 2163.86 Q-52.9994 2158.99 -56.4369 2156.06 Q-59.9062 2153.1 -65.6353 2153.1 L-66.9403 2153.1 L-66.9403 2158.92 M-69.3593 2147.24 L-49.0208 2147.24 L-49.0208 2153.1 L-54.4317 2153.1 Q-51.1852 2155.1 -49.6256 2158.1 Q-48.0978 2161.09 -48.0978 2165.42 Q-48.0978 2170.89 -51.1534 2174.14 Q-54.2407 2177.35 -59.3969 2177.35 Q-65.4125 2177.35 -68.4681 2173.34 Q-71.5236 2169.3 -71.5236 2161.31 L-71.5236 2153.1 L-72.0965 2153.1 Q-76.1388 2153.1 -78.3349 2155.77 Q-80.5629 2158.41 -80.5629 2163.22 Q-80.5629 2166.28 -79.8309 2169.17 Q-79.0988 2172.07 -77.6347 2174.74 L-83.0455 2174.74 Q-84.2869 2171.53 -84.8916 2168.5 Q-85.5282 2165.48 -85.5282 2162.62 Q-85.5282 2154.88 -81.5178 2151.06 Q-77.5074 2147.24 -69.3593 2147.24 Z" fill="#000000" fill-rule="nonzero" fill-opacity="1" /><path clip-path="url(#clip490)" d="M-79.2579 2111.72 L-98.546 2111.72 L-98.546 2105.87 L-49.0208 2105.87 L-49.0208 2111.72 L-54.368 2111.72 Q-51.1852 2113.57 -49.6256 2116.4 Q-48.0978 2119.2 -48.0978 2123.15 Q-48.0978 2129.61 -53.254 2133.68 Q-58.4103 2137.73 -66.813 2137.73 Q-75.2157 2137.73 -80.3719 2133.68 Q-85.5282 2129.61 -85.5282 2123.15 Q-85.5282 2119.2 -83.9686 2116.4 Q-82.4408 2113.57 -79.2579 2111.72 M-66.813 2131.68 Q-60.3518 2131.68 -56.6597 2129.04 Q-52.9994 2126.36 -52.9994 2121.72 Q-52.9994 2117.07 -56.6597 2114.4 Q-60.3518 2111.72 -66.813 2111.72 Q-73.2742 2111.72 -76.9345 2114.4 Q-80.6266 2117.07 -80.6266 2121.72 Q-80.6266 2126.36 -76.9345 2129.04 Q-73.2742 2131.68 -66.813 2131.68 Z" fill="#000000" fill-rule="nonzero" fill-opacity="1" /><path clip-path="url(#clip490)" d="M-98.546 2062.8 L-98.546 2056.94 L-91.13 2056.94 L-91.13 2062.8 L-98.546 2062.8 M-85.5282 2059.81 L-85.5282 2059.81 M-84.6688 2043.45 L-67.3222 2056.34 L-49.0208 2042.78 L-49.0208 2049.69 L-63.0254 2060.06 L-49.0208 2070.44 L-49.0208 2077.35 L-67.6724 2063.5 L-84.6688 2076.17 L-84.6688 2069.26 L-71.9692 2059.81 L-84.6688 2050.36 L-84.6688 2043.45 Z" fill="#000000" fill-rule="nonzero" fill-opacity="1" /><path clip-path="url(#clip490)" d="M-63.4073 2023.97 Q-62.8344 2021.04 -61.0839 2019.45 Q-59.3651 2017.83 -56.7552 2017.83 Q-52.8084 2017.83 -50.6759 2020.85 Q-48.5434 2023.87 -48.5434 2029.51 Q-48.5434 2031.32 -48.8935 2033.33 Q-49.2118 2035.3 -49.8484 2037.53 L-53.6996 2037.53 Q-52.8403 2035.87 -52.4265 2034 Q-52.0127 2032.09 -52.0127 2029.95 Q-52.0127 2026.48 -53.254 2024.58 Q-54.5272 2022.67 -56.7552 2022.67 Q-59.1105 2022.67 -60.32 2024.45 Q-61.5295 2026.2 -61.5295 2029.64 L-61.5295 2032.37 L-64.9669 2032.37 L-64.9669 2029.38 Q-64.9669 2026.39 -65.9536 2024.86 Q-66.9721 2023.3 -68.8818 2023.3 Q-70.7279 2023.3 -71.6828 2024.89 Q-72.6694 2026.48 -72.6694 2029.51 Q-72.6694 2030.78 -72.383 2032.4 Q-72.0965 2034.03 -71.3645 2036.61 L-75.0248 2036.61 Q-75.5658 2034.28 -75.8523 2032.25 Q-76.1388 2030.21 -76.1388 2028.46 Q-76.1388 2023.87 -74.2609 2021.2 Q-72.383 2018.5 -69.232 2018.5 Q-67.0358 2018.5 -65.508 2019.93 Q-63.9803 2021.36 -63.4073 2023.97 Z" fill="#000000" fill-rule="nonzero" fill-opacity="1" /><path clip-path="url(#clip490)" d="M-98.4824 1973.59 Q-91.1618 1977.85 -84.0004 1979.92 Q-76.839 1981.99 -69.4866 1981.99 Q-62.1342 1981.99 -54.9091 1979.92 Q-47.7159 1977.82 -40.4271 1973.59 L-40.4271 1978.68 Q-47.9068 1983.45 -55.1319 1985.84 Q-62.357 1988.2 -69.4866 1988.2 Q-76.5844 1988.2 -83.7776 1985.84 Q-90.9708 1983.48 -98.4824 1978.68 L-98.4824 1973.59 Z" fill="#000000" fill-rule="nonzero" fill-opacity="1" /><path clip-path="url(#clip490)" d="M-77.8257 1934.47 Q-81.7724 1932.27 -83.6503 1929.22 Q-85.5282 1926.16 -85.5282 1922.02 Q-85.5282 1916.45 -81.6133 1913.43 Q-77.7302 1910.41 -70.5369 1910.41 L-49.0208 1910.41 L-49.0208 1916.29 L-70.346 1916.29 Q-75.4704 1916.29 -77.953 1918.11 Q-80.4356 1919.92 -80.4356 1923.65 Q-80.4356 1928.2 -77.4119 1930.84 Q-74.3882 1933.48 -69.1683 1933.48 L-49.0208 1933.48 L-49.0208 1939.37 L-70.346 1939.37 Q-75.5022 1939.37 -77.953 1941.18 Q-80.4356 1943 -80.4356 1946.79 Q-80.4356 1951.27 -77.3801 1953.92 Q-74.3564 1956.56 -69.1683 1956.56 L-49.0208 1956.56 L-49.0208 1962.45 L-84.6688 1962.45 L-84.6688 1956.56 L-79.1306 1956.56 Q-82.409 1954.55 -83.9686 1951.75 Q-85.5282 1948.95 -85.5282 1945.1 Q-85.5282 1941.22 -83.5548 1938.51 Q-81.5814 1935.77 -77.8257 1934.47 Z" fill="#000000" fill-rule="nonzero" fill-opacity="1" /><path clip-path="url(#clip490)" d="M-96.5408 1888.32 L-96.5408 1882.91 L-42.9734 1899.46 L-42.9734 1904.87 L-96.5408 1888.32 Z" fill="#000000" fill-rule="nonzero" fill-opacity="1" /><path clip-path="url(#clip490)" d="M-83.6185 1854.04 L-78.0803 1854.04 Q-79.3534 1856.52 -79.99 1859.19 Q-80.6266 1861.87 -80.6266 1864.73 Q-80.6266 1869.09 -79.2898 1871.29 Q-77.953 1873.45 -75.2794 1873.45 Q-73.2424 1873.45 -72.0647 1871.89 Q-70.9189 1870.33 -69.8685 1865.62 L-69.4229 1863.62 Q-68.0861 1857.38 -65.6353 1854.77 Q-63.2164 1852.13 -58.8559 1852.13 Q-53.8906 1852.13 -50.9942 1856.07 Q-48.0978 1859.99 -48.0978 1866.86 Q-48.0978 1869.73 -48.6707 1872.85 Q-49.2118 1875.94 -50.3258 1879.37 L-56.3732 1879.37 Q-54.6863 1876.13 -53.827 1872.98 Q-52.9994 1869.82 -52.9994 1866.74 Q-52.9994 1862.6 -54.3999 1860.37 Q-55.8321 1858.14 -58.4103 1858.14 Q-60.7974 1858.14 -62.0705 1859.77 Q-63.3437 1861.36 -64.5213 1866.8 L-64.9988 1868.84 Q-66.1446 1874.28 -68.4999 1876.7 Q-70.887 1879.12 -75.0248 1879.12 Q-80.0537 1879.12 -82.7909 1875.55 Q-85.5282 1871.99 -85.5282 1865.43 Q-85.5282 1862.19 -85.0507 1859.32 Q-84.5733 1856.46 -83.6185 1854.04 Z" fill="#000000" fill-rule="nonzero" fill-opacity="1" /><path clip-path="url(#clip490)" d="M-98.4824 1843.73 L-98.4824 1838.63 Q-90.9708 1833.86 -83.7776 1831.5 Q-76.5844 1829.12 -69.4866 1829.12 Q-62.357 1829.12 -55.1319 1831.5 Q-47.9068 1833.86 -40.4271 1838.63 L-40.4271 1843.73 Q-47.7159 1839.49 -54.9091 1837.42 Q-62.1342 1835.32 -69.4866 1835.32 Q-76.839 1835.32 -84.0004 1837.42 Q-91.1618 1839.49 -98.4824 1843.73 Z" fill="#000000" fill-rule="nonzero" fill-opacity="1" /><path clip-path="url(#clip490)" d="M3441.64 18.8205 L3441.64 65.8515 L3451.52 65.8515 Q3464.04 65.8515 3469.83 60.1802 Q3475.66 54.509 3475.66 42.2752 Q3475.66 30.1225 3469.83 24.4918 Q3464.04 18.8205 3451.52 18.8205 L3441.64 18.8205 M3433.45 12.096 L3450.27 12.096 Q3467.85 12.096 3476.07 19.4281 Q3484.29 26.7198 3484.29 42.2752 Q3484.29 57.9117 3476.03 65.2439 Q3467.77 72.576 3450.27 72.576 L3433.45 72.576 L3433.45 12.096 Z" fill="#000000" fill-rule="nonzero" fill-opacity="1" /><path clip-path="url(#clip490)" d="M3497.01 27.2059 L3504.47 27.2059 L3504.47 72.576 L3497.01 72.576 L3497.01 27.2059 M3497.01 9.54393 L3504.47 9.54393 L3504.47 18.9825 L3497.01 18.9825 L3497.01 9.54393 Z" fill="#000000" fill-rule="nonzero" fill-opacity="1" /><path clip-path="url(#clip490)" d="M3540.68 49.7694 Q3531.65 49.7694 3528.16 51.8354 Q3524.68 53.9013 3524.68 58.8839 Q3524.68 62.8538 3527.27 65.2034 Q3529.91 67.5124 3534.4 67.5124 Q3540.6 67.5124 3544.33 63.1374 Q3548.1 58.7219 3548.1 51.4303 L3548.1 49.7694 L3540.68 49.7694 M3555.55 46.6907 L3555.55 72.576 L3548.1 72.576 L3548.1 65.6895 Q3545.54 69.8214 3541.74 71.8063 Q3537.93 73.7508 3532.42 73.7508 Q3525.45 73.7508 3521.32 69.8619 Q3517.23 65.9325 3517.23 59.3701 Q3517.23 51.7138 3522.33 47.825 Q3527.48 43.9361 3537.64 43.9361 L3548.1 43.9361 L3548.1 43.2069 Q3548.1 38.0623 3544.69 35.2672 Q3541.33 32.4315 3535.21 32.4315 Q3531.32 32.4315 3527.64 33.3632 Q3523.95 34.295 3520.55 36.1584 L3520.55 29.2718 Q3524.64 27.692 3528.49 26.9223 Q3532.34 26.1121 3535.98 26.1121 Q3545.83 26.1121 3550.69 31.2163 Q3555.55 36.3204 3555.55 46.6907 Z" fill="#000000" fill-rule="nonzero" fill-opacity="1" /><path clip-path="url(#clip490)" d="M3600.76 49.3643 Q3600.76 41.2625 3597.39 36.8065 Q3594.07 32.3505 3588.04 32.3505 Q3582.04 32.3505 3578.68 36.8065 Q3575.36 41.2625 3575.36 49.3643 Q3575.36 57.4256 3578.68 61.8816 Q3582.04 66.3376 3588.04 66.3376 Q3594.07 66.3376 3597.39 61.8816 Q3600.76 57.4256 3600.76 49.3643 M3608.21 66.9452 Q3608.21 78.5308 3603.07 84.1616 Q3597.92 89.8329 3587.31 89.8329 Q3583.38 89.8329 3579.89 89.2252 Q3576.41 88.6581 3573.13 87.4428 L3573.13 80.1917 Q3576.41 81.9741 3579.61 82.8248 Q3582.81 83.6755 3586.13 83.6755 Q3593.47 83.6755 3597.11 79.8271 Q3600.76 76.0193 3600.76 68.282 L3600.76 64.5957 Q3598.45 68.6061 3594.84 70.5911 Q3591.24 72.576 3586.21 72.576 Q3577.87 72.576 3572.77 66.2161 Q3567.66 59.8562 3567.66 49.3643 Q3567.66 38.832 3572.77 32.472 Q3577.87 26.1121 3586.21 26.1121 Q3591.24 26.1121 3594.84 28.0971 Q3598.45 30.082 3600.76 34.0924 L3600.76 27.2059 L3608.21 27.2059 L3608.21 66.9452 Z" fill="#000000" fill-rule="nonzero" fill-opacity="1" /><path clip-path="url(#clip490)" d="M3649.85 34.1734 Q3648.6 33.4443 3647.1 33.1202 Q3645.64 32.7556 3643.86 32.7556 Q3637.54 32.7556 3634.14 36.8875 Q3630.77 40.9789 3630.77 48.6757 L3630.77 72.576 L3623.28 72.576 L3623.28 27.2059 L3630.77 27.2059 L3630.77 34.2544 Q3633.12 30.1225 3636.89 28.1376 Q3640.66 26.1121 3646.05 26.1121 Q3646.82 26.1121 3647.75 26.2337 Q3648.68 26.3147 3649.81 26.5172 L3649.85 34.1734 Z" fill="#000000" fill-rule="nonzero" fill-opacity="1" /><path clip-path="url(#clip490)" d="M3678.29 49.7694 Q3669.26 49.7694 3665.77 51.8354 Q3662.29 53.9013 3662.29 58.8839 Q3662.29 62.8538 3664.88 65.2034 Q3667.52 67.5124 3672.01 67.5124 Q3678.21 67.5124 3681.94 63.1374 Q3685.7 58.7219 3685.7 51.4303 L3685.7 49.7694 L3678.29 49.7694 M3693.16 46.6907 L3693.16 72.576 L3685.7 72.576 L3685.7 65.6895 Q3683.15 69.8214 3679.34 71.8063 Q3675.54 73.7508 3670.03 73.7508 Q3663.06 73.7508 3658.93 69.8619 Q3654.84 65.9325 3654.84 59.3701 Q3654.84 51.7138 3659.94 47.825 Q3665.09 43.9361 3675.25 43.9361 L3685.7 43.9361 L3685.7 43.2069 Q3685.7 38.0623 3682.3 35.2672 Q3678.94 32.4315 3672.82 32.4315 Q3668.93 32.4315 3665.25 33.3632 Q3661.56 34.295 3658.16 36.1584 L3658.16 29.2718 Q3662.25 27.692 3666.1 26.9223 Q3669.95 26.1121 3673.59 26.1121 Q3683.44 26.1121 3688.3 31.2163 Q3693.16 36.3204 3693.16 46.6907 Z" fill="#000000" fill-rule="nonzero" fill-opacity="1" /><path clip-path="url(#clip490)" d="M3743.83 35.9153 Q3746.63 30.8922 3750.52 28.5022 Q3754.41 26.1121 3759.67 26.1121 Q3766.76 26.1121 3770.61 31.0947 Q3774.46 36.0368 3774.46 45.1919 L3774.46 72.576 L3766.97 72.576 L3766.97 45.4349 Q3766.97 38.913 3764.66 35.7533 Q3762.35 32.5936 3757.61 32.5936 Q3751.82 32.5936 3748.45 36.4419 Q3745.09 40.2903 3745.09 46.9338 L3745.09 72.576 L3737.6 72.576 L3737.6 45.4349 Q3737.6 38.8725 3735.29 35.7533 Q3732.98 32.5936 3728.16 32.5936 Q3722.45 32.5936 3719.08 36.4824 Q3715.72 40.3308 3715.72 46.9338 L3715.72 72.576 L3708.23 72.576 L3708.23 27.2059 L3715.72 27.2059 L3715.72 34.2544 Q3718.27 30.082 3721.84 28.0971 Q3725.4 26.1121 3730.3 26.1121 Q3735.25 26.1121 3738.69 28.6237 Q3742.17 31.1352 3743.83 35.9153 Z" fill="#000000" fill-rule="nonzero" fill-opacity="1" /><path clip-path="url(#clip490)" d="M3809.95 49.7694 Q3800.91 49.7694 3797.43 51.8354 Q3793.94 53.9013 3793.94 58.8839 Q3793.94 62.8538 3796.54 65.2034 Q3799.17 67.5124 3803.67 67.5124 Q3809.86 67.5124 3813.59 63.1374 Q3817.36 58.7219 3817.36 51.4303 L3817.36 49.7694 L3809.95 49.7694 M3824.81 46.6907 L3824.81 72.576 L3817.36 72.576 L3817.36 65.6895 Q3814.81 69.8214 3811 71.8063 Q3807.19 73.7508 3801.68 73.7508 Q3794.71 73.7508 3790.58 69.8619 Q3786.49 65.9325 3786.49 59.3701 Q3786.49 51.7138 3791.59 47.825 Q3796.74 43.9361 3806.91 43.9361 L3817.36 43.9361 L3817.36 43.2069 Q3817.36 38.0623 3813.96 35.2672 Q3810.59 32.4315 3804.48 32.4315 Q3800.59 32.4315 3796.9 33.3632 Q3793.22 34.295 3789.81 36.1584 L3789.81 29.2718 Q3793.9 27.692 3797.75 26.9223 Q3801.6 26.1121 3805.25 26.1121 Q3815.09 26.1121 3819.95 31.2163 Q3824.81 36.3204 3824.81 46.6907 Z" fill="#000000" fill-rule="nonzero" fill-opacity="1" /><path clip-path="url(#clip490)" d="M3896.39 34.0924 L3896.39 9.54393 L3903.85 9.54393 L3903.85 72.576 L3896.39 72.576 L3896.39 65.7705 Q3894.04 69.8214 3890.44 71.8063 Q3886.87 73.7508 3881.85 73.7508 Q3873.63 73.7508 3868.44 67.1883 Q3863.3 60.6258 3863.3 49.9314 Q3863.3 39.2371 3868.44 32.6746 Q3873.63 26.1121 3881.85 26.1121 Q3886.87 26.1121 3890.44 28.0971 Q3894.04 30.0415 3896.39 34.0924 M3870.99 49.9314 Q3870.99 58.1548 3874.35 62.8538 Q3877.76 67.5124 3883.67 67.5124 Q3889.59 67.5124 3892.99 62.8538 Q3896.39 58.1548 3896.39 49.9314 Q3896.39 41.7081 3892.99 37.0496 Q3889.59 32.3505 3883.67 32.3505 Q3877.76 32.3505 3874.35 37.0496 Q3870.99 41.7081 3870.99 49.9314 Z" fill="#000000" fill-rule="nonzero" fill-opacity="1" /><path clip-path="url(#clip490)" d="M3958.01 48.0275 L3958.01 51.6733 L3923.74 51.6733 Q3924.22 59.3701 3928.35 63.421 Q3932.53 67.4314 3939.94 67.4314 Q3944.23 67.4314 3948.24 66.3781 Q3952.29 65.3249 3956.26 63.2184 L3956.26 70.267 Q3952.25 71.9684 3948.04 72.8596 Q3943.83 73.7508 3939.49 73.7508 Q3928.64 73.7508 3922.28 67.4314 Q3915.96 61.1119 3915.96 50.3365 Q3915.96 39.1965 3921.95 32.6746 Q3927.99 26.1121 3938.2 26.1121 Q3947.35 26.1121 3952.66 32.0264 Q3958.01 37.9003 3958.01 48.0275 M3950.55 45.84 Q3950.47 39.7232 3947.11 36.0774 Q3943.79 32.4315 3938.28 32.4315 Q3932.04 32.4315 3928.27 35.9558 Q3924.55 39.4801 3923.98 45.8805 L3950.55 45.84 Z" fill="#000000" fill-rule="nonzero" fill-opacity="1" /><path clip-path="url(#clip490)" d="M3996.94 12.096 L4031.69 12.096 L4031.69 18.9825 L4005.12 18.9825 L4005.12 36.8065 L4029.1 36.8065 L4029.1 43.6931 L4005.12 43.6931 L4005.12 72.576 L3996.94 72.576 L3996.94 12.096 Z" fill="#000000" fill-rule="nonzero" fill-opacity="1" /><path clip-path="url(#clip490)" d="M4057.33 49.7694 Q4048.3 49.7694 4044.82 51.8354 Q4041.33 53.9013 4041.33 58.8839 Q4041.33 62.8538 4043.93 65.2034 Q4046.56 67.5124 4051.06 67.5124 Q4057.25 67.5124 4060.98 63.1374 Q4064.75 58.7219 4064.75 51.4303 L4064.75 49.7694 L4057.33 49.7694 M4072.2 46.6907 L4072.2 72.576 L4064.75 72.576 L4064.75 65.6895 Q4062.2 69.8214 4058.39 71.8063 Q4054.58 73.7508 4049.07 73.7508 Q4042.1 73.7508 4037.97 69.8619 Q4033.88 65.9325 4033.88 59.3701 Q4033.88 51.7138 4038.98 47.825 Q4044.13 43.9361 4054.3 43.9361 L4064.75 43.9361 L4064.75 43.2069 Q4064.75 38.0623 4061.34 35.2672 Q4057.98 32.4315 4051.87 32.4315 Q4047.98 32.4315 4044.29 33.3632 Q4040.6 34.295 4037.2 36.1584 L4037.2 29.2718 Q4041.29 27.692 4045.14 26.9223 Q4048.99 26.1121 4052.64 26.1121 Q4062.48 26.1121 4067.34 31.2163 Q4072.2 36.3204 4072.2 46.6907 Z" fill="#000000" fill-rule="nonzero" fill-opacity="1" /><path clip-path="url(#clip490)" d="M4116.48 28.5427 L4116.48 35.5912 Q4113.32 33.9709 4109.91 33.1607 Q4106.51 32.3505 4102.87 32.3505 Q4097.32 32.3505 4094.52 34.0519 Q4091.77 35.7533 4091.77 39.156 Q4091.77 41.7486 4093.75 43.2475 Q4095.74 44.7058 4101.73 46.0426 L4104.28 46.6097 Q4112.22 48.3111 4115.55 51.4303 Q4118.91 54.509 4118.91 60.0587 Q4118.91 66.3781 4113.88 70.0644 Q4108.9 73.7508 4100.15 73.7508 Q4096.51 73.7508 4092.54 73.0216 Q4088.61 72.3329 4084.23 70.9151 L4084.23 63.2184 Q4088.36 65.3654 4092.37 66.4591 Q4096.38 67.5124 4100.31 67.5124 Q4105.58 67.5124 4108.42 65.73 Q4111.25 63.9071 4111.25 60.6258 Q4111.25 57.5877 4109.19 55.9673 Q4107.16 54.3469 4100.23 52.8481 L4097.64 52.2405 Q4090.71 50.7821 4087.63 47.7845 Q4084.56 44.7463 4084.56 39.4801 Q4084.56 33.0797 4089.09 29.5959 Q4093.63 26.1121 4101.98 26.1121 Q4106.11 26.1121 4109.75 26.7198 Q4113.4 27.3274 4116.48 28.5427 Z" fill="#000000" fill-rule="nonzero" fill-opacity="1" /><path clip-path="url(#clip490)" d="M4169.58 48.0275 L4169.58 51.6733 L4135.31 51.6733 Q4135.8 59.3701 4139.93 63.421 Q4144.1 67.4314 4151.52 67.4314 Q4155.81 67.4314 4159.82 66.3781 Q4163.87 65.3249 4167.84 63.2184 L4167.84 70.267 Q4163.83 71.9684 4159.62 72.8596 Q4155.41 73.7508 4151.07 73.7508 Q4140.22 73.7508 4133.86 67.4314 Q4127.54 61.1119 4127.54 50.3365 Q4127.54 39.1965 4133.53 32.6746 Q4139.57 26.1121 4149.78 26.1121 Q4158.93 26.1121 4164.24 32.0264 Q4169.58 37.9003 4169.58 48.0275 M4162.13 45.84 Q4162.05 39.7232 4158.69 36.0774 Q4155.37 32.4315 4149.86 32.4315 Q4143.62 32.4315 4139.85 35.9558 Q4136.12 39.4801 4135.56 45.8805 L4162.13 45.84 Z" fill="#000000" fill-rule="nonzero" fill-opacity="1" /><path clip-path="url(#clip490)" d="M4226.09 9.62495 Q4220.67 18.942 4218.03 28.0566 Q4215.4 37.1711 4215.4 46.5287 Q4215.4 55.8863 4218.03 65.0818 Q4220.71 74.2369 4226.09 83.5134 L4219.61 83.5134 Q4213.54 73.9938 4210.5 64.7983 Q4207.5 55.6027 4207.5 46.5287 Q4207.5 37.4952 4210.5 28.3401 Q4213.5 19.1851 4219.61 9.62495 L4226.09 9.62495 Z" fill="#000000" fill-rule="nonzero" fill-opacity="1" /><path clip-path="url(#clip490)" d="M4249.06 18.8205 L4249.06 41.5461 L4259.35 41.5461 Q4265.06 41.5461 4268.18 38.5889 Q4271.3 35.6318 4271.3 30.163 Q4271.3 24.7348 4268.18 21.7777 Q4265.06 18.8205 4259.35 18.8205 L4249.06 18.8205 M4240.88 12.096 L4259.35 12.096 Q4269.52 12.096 4274.71 16.714 Q4279.93 21.2916 4279.93 30.163 Q4279.93 39.1155 4274.71 43.6931 Q4269.52 48.2706 4259.35 48.2706 L4249.06 48.2706 L4249.06 72.576 L4240.88 72.576 L4240.88 12.096 Z" fill="#000000" fill-rule="nonzero" fill-opacity="1" /><path clip-path="url(#clip490)" d="M4288.76 27.2059 L4296.22 27.2059 L4296.22 72.576 L4288.76 72.576 L4288.76 27.2059 M4288.76 9.54393 L4296.22 9.54393 L4296.22 18.9825 L4288.76 18.9825 L4288.76 9.54393 Z" fill="#000000" fill-rule="nonzero" fill-opacity="1" /><path clip-path="url(#clip490)" d="M4340.74 28.5427 L4340.74 35.5912 Q4337.58 33.9709 4334.17 33.1607 Q4330.77 32.3505 4327.12 32.3505 Q4321.57 32.3505 4318.78 34.0519 Q4316.02 35.7533 4316.02 39.156 Q4316.02 41.7486 4318.01 43.2475 Q4319.99 44.7058 4325.99 46.0426 L4328.54 46.6097 Q4336.48 48.3111 4339.8 51.4303 Q4343.17 54.509 4343.17 60.0587 Q4343.17 66.3781 4338.14 70.0644 Q4333.16 73.7508 4324.41 73.7508 Q4320.76 73.7508 4316.79 73.0216 Q4312.87 72.3329 4308.49 70.9151 L4308.49 63.2184 Q4312.62 65.3654 4316.63 66.4591 Q4320.64 67.5124 4324.57 67.5124 Q4329.84 67.5124 4332.67 65.73 Q4335.51 63.9071 4335.51 60.6258 Q4335.51 57.5877 4333.44 55.9673 Q4331.42 54.3469 4324.49 52.8481 L4321.9 52.2405 Q4314.97 50.7821 4311.89 47.7845 Q4308.81 44.7463 4308.81 39.4801 Q4308.81 33.0797 4313.35 29.5959 Q4317.89 26.1121 4326.23 26.1121 Q4330.37 26.1121 4334.01 26.7198 Q4337.66 27.3274 4340.74 28.5427 Z" fill="#000000" fill-rule="nonzero" fill-opacity="1" /><path clip-path="url(#clip490)" d="M4372.62 32.4315 Q4366.62 32.4315 4363.14 37.1306 Q4359.65 41.7891 4359.65 49.9314 Q4359.65 58.0738 4363.1 62.7728 Q4366.58 67.4314 4372.62 67.4314 Q4378.57 67.4314 4382.05 62.7323 Q4385.54 58.0333 4385.54 49.9314 Q4385.54 41.8701 4382.05 37.1711 Q4378.57 32.4315 4372.62 32.4315 M4372.62 26.1121 Q4382.34 26.1121 4387.89 32.4315 Q4393.44 38.7509 4393.44 49.9314 Q4393.44 61.0714 4387.89 67.4314 Q4382.34 73.7508 4372.62 73.7508 Q4362.85 73.7508 4357.3 67.4314 Q4351.79 61.0714 4351.79 49.9314 Q4351.79 38.7509 4357.3 32.4315 Q4362.85 26.1121 4372.62 26.1121 Z" fill="#000000" fill-rule="nonzero" fill-opacity="1" /><path clip-path="url(#clip490)" d="M4458.01 39.9662 Q4463.88 41.222 4467.16 45.1919 Q4470.49 49.1618 4470.49 54.9951 Q4470.49 63.9476 4464.33 68.8492 Q4458.17 73.7508 4446.83 73.7508 Q4443.02 73.7508 4438.97 72.9811 Q4434.96 72.2519 4430.67 70.7531 L4430.67 62.8538 Q4434.07 64.8388 4438.12 65.8515 Q4442.17 66.8642 4446.59 66.8642 Q4454.28 66.8642 4458.29 63.826 Q4462.34 60.7879 4462.34 54.9951 Q4462.34 49.6479 4458.58 46.6502 Q4454.85 43.612 4448.17 43.612 L4441.12 43.612 L4441.12 36.8875 L4448.49 36.8875 Q4454.53 36.8875 4457.73 34.4975 Q4460.93 32.067 4460.93 27.5299 Q4460.93 22.8714 4457.6 20.4004 Q4454.32 17.8888 4448.17 17.8888 Q4444.8 17.8888 4440.95 18.618 Q4437.11 19.3471 4432.49 20.8865 L4432.49 13.5948 Q4437.15 12.2985 4441.2 11.6504 Q4445.29 11.0023 4448.89 11.0023 Q4458.21 11.0023 4463.64 15.2557 Q4469.07 19.4686 4469.07 26.6793 Q4469.07 31.7024 4466.19 35.1862 Q4463.32 38.6294 4458.01 39.9662 Z" fill="#000000" fill-rule="nonzero" fill-opacity="1" /><path clip-path="url(#clip490)" d="M4483.77 9.62495 L4490.25 9.62495 Q4496.33 19.1851 4499.33 28.3401 Q4502.37 37.4952 4502.37 46.5287 Q4502.37 55.6027 4499.33 64.7983 Q4496.33 73.9938 4490.25 83.5134 L4483.77 83.5134 Q4489.16 74.2369 4491.79 65.0818 Q4494.47 55.8863 4494.47 46.5287 Q4494.47 37.1711 4491.79 28.0566 Q4489.16 18.942 4483.77 9.62495 Z" fill="#000000" fill-rule="nonzero" fill-opacity="1" /><polyline clip-path="url(#clip492)" style="stroke:#009af9; stroke-linecap:round; stroke-linejoin:round; stroke-width:4; stroke-opacity:1; fill:none" points="4108.5,2226.84 4108.5,2226.84 4108.5,2226.84 4108.5,2226.85 4108.48,2226.99 4108.33,2227.64 4107.46,2229.99 4104.94,2234.79 4098.91,2243.47 4086.03,2258 4061.37,2280.02 4015.97,2311.94 3945.11,2350.88 3843.26,2394.35 3693.79,2441.92 3526.55,2478.69 3329.71,2502.67 3101.54,2502.5 2911.81,2470.99 2745.31,2395.89 2658.59,2282.57 2667.82,2139.21 2785.53,1969.13 3012.65,1790.17 3356.56,1610.18 3831.99,1442.64 4423.91,1318.47 5086.12,1274.31 5712.95,1337.29 6216.61,1502.27 6575.54,1764.2 6747.17,2103.61 6707.64,2499.31 6434.85,2927.28 5901.43,3356.87 5139.89,3716.5 4248.43,3944.29 3307.49,4015.18 2403.87,3918.89 1605.79,3658.29 977.426,3243.04 584.747,2686.22 510.509,2033.15 758.71,1433.81 1267.71,920.687 1970.82,535.719 2811.61,299.618 3737.77,227.648 4721.24,336.357 5781.51,686.887 6403.79,1052.6 6854.95,1462.75 7104.54,1840.5 7196.8,2185.72 7145.46,2485.79 6928.94,2769.95 6649.66,2962.09 6301.88,3133.56 5901.99,3297.31 5435.69,3465.84 4888.04,3636.7 4196.26,3801.04 3475.02,3893.53 2817.87,3888.4 2191.98,3779.39 1644.4,3564.41 1189.65,3239.92 859.792,2799.09 722.574,2283.25 780.312,1857.36 984.99,1478.23 1300.16,1184.09 1712.28,970.866 2212.3,840.799 2838.04,789.936 3336.06,798.386 3834.57,823.359 4299.14,844.711 4765.56,856.8 5244.81,864.648 5793.32,892.507 6238.5,960.732 6637.75,1090.92 6967.79,1288.74 7222.26,1559.24 7383.07,1899.49 7425.31,2317.15 7324.18,2729.93 7116.8,3071.48 6819.23,3350.46 6458.76,3551.05 6045.02,3676.41 5583.84,3730.01 5063.62,3719.01 4621.77,3676.21 4203.12,3628.5 3811.7,3592.96 3428.14,3574.48 3041.19,3569.73 2628.47,3565.23 2204.5,3535.03 1844.11,3462.79 1518.06,3333.13 1246.55,3145.77 1033.32,2899.37 890.596,2599.22 833.284,2248.07 879.108,1892.61 1007.65,1594.22 1204.87,1344.66 1451.84,1154.28 1740.38,1018.28 2063.85,931.346 2427.95,883.819 2805.89,864.727 3155.85,856.084 3502.6,843.874 3845.42,822.75 4196.11,793.012 4562.26,760.558 4958.51,736.647 5379.23,740.736 5753.84,784.622 6102.95,872.947 6413.78,1003.5 6686.3,1174.37 6915.68,1381.27 7098.79,1623.42 7225.53,1898.58 7275.75,2149.96 7266.14,2382.03 7205.51,2592.37 7099.03,2784.12 6949.07,2959.18 6752.04,3121.97 6491.24,3279.19 6204.56,3407.34 5909.43,3506.41 5596.62,3583.96 5271.73,3640.44 4930.32,3678.25 4567.05,3699.24 4152.89,3705.49 3741.39,3699.47 3378.99,3687.32 3020.5,3668.37 2676.96,3639 2335.83,3589.71 1995.42,3505.63 1649.66,3359.17 1382,3172.05 1172.24,2937.83 1028.9,2669.29 954.549,2376.41 954.605,2079.34 1028.93,1806.56 1164.34,1586.22 1348.55,1421.29 1573.72,1306.69 1835.11,1229.83 2105.17,1173.69 2378.58,1114.67 2666.03,1036.91 2979.42,935.052 3341.7,811.053 3782.49,679.751 4190.33,598.485 4610.42,567.691 5018.69,595.352 5418.05,680.467 5792.64,814.195 6122.66,976.76 6402.19,1150 6637.65,1327.24 6832.59,1507.81 6984.88,1692.76 7088.75,1878.44 7146.93,2068.81 7160.52,2266.29 7127.76,2471 7041.6,2682.08 6900.42,2878.86 6734.2,3026.87 6538.08,3143.55 6321.49,3231.48 6077.27,3304.28 5782.39,3381.14 5482.67,3465.37 5189.21,3558.58 4872.63,3664.18 4530.09,3770.13 4131.17,3863.6 3700.49,3910.11 3326.01,3894.38 2958.06,3822.24 2618.22,3702.71 2289.89,3537.85 1933.58,3305.09 1720.79,3140.45 1532.92,2977.58 1388.57,2834.45 1268.63,2687.44 1177.58,2524.62 1129.69,2361.9 1118.81,2193.46 1143.41,2020.61 1204.19,1847.74 1306.24,1677.88 1448.1,1526.91 1603.59,1415.09 1778.28,1324.46 1967.28,1246.56 2179.09,1166.5 2434.24,1065.99 2705.99,950.51 2974.41,834.882 3265.49,719.68 3575.57,620.739 3921.37,550.054 4375.86,531.475 4712.57,574.886 5044.37,663.575 5339.09,775.93 5619.81,904.903 5895.03,1042.15 6151.57,1170.82 6345.53,1267.6 6524.15,1362.95 6679.18,1462.86 6819.66,1585.83 6945.9,1754.87 7024.25,1932.23 7063.56,2110.45 7069.04,2283.21 7043.55,2441.19 6987.47,2582.06 6893.59,2708.29 6792.43,2794.24 6678.03,2870.53 6552.6,2950.72 6408.65,3049.78 6234.45,3179.69 5982.5,3369.13 5753.75,3524.47 5489.02,3671.53 5212.02,3782.56 4907.06,3854.02 4568.9,3875.98 4185.39,3840.7 3892.11,3783.84 3598.51,3715.45 3329.35,3654.55 3056.5,3602.27 2758,3554.54 2489.51,3507.38 2252.38,3445.97 2030.37,3355.77 1828.66,3231.91 1643.8,3068.66 1460.68,2838.67 1359.88,2667.51 1288.61,2512.84 1246.54,2392.2 1224.37,2291.35 1220.95,2195.1 1239.97,2084.95 1278.24,1966.16 1344.22,1814.31 1441.36,1639.7 1584.21,1442.22 1808.54,1221.63 2039.38,1070.55 2295.7,962.415 2567.57,890.306 2863.03,836.314 3196.3,782.494 3561.06,721.356 3904.12,670.36 4263.74,643.231 4623.4,661.822 4986.58,738.54 5345.22,870.814 5686.82,1031.99 5959.15,1162.14 6196.99,1263.09 6408.21,1348.53 6603.76,1448.68 6792.37,1609.1 6915.21,1794.87 6988.37,1994.68 7017.17,2188.51 7005.65,2364.08 6950.07,2524.7 6874.44,2639.54 6775.97,2756 6654.2,2891.12 6493.65,3062.34 6259.86,3281.86 6023.97,3454.89 5753.98,3591.86 5466.45,3674.19 5147.25,3705.92 4748.17,3694.54 4450.67,3678.79 4136.91,3675.18 3832.15,3685.03 3491.97,3692.32 3126.61,3662.61 2824.94,3588.17 2532.38,3466.16 2269.27,3321.42 2014.94,3169.77 1785.68,3043.44 1601.34,2944.81 1436.61,2825.3 1306.76,2656.12 1225.71,2433.65 1204.12,2194.66 1242.75,1967.43 1335.96,1785.17 1452.85,1654.3 1599.7,1521.07 1781.21,1361.85 2031.29,1156.75 2286.26,987.969 2574.31,859.507 2882.77,791.834 3234.78,781.403 3570.15,802.711 3873.17,816.388 4181.32,808.805 4507.14,787.283 4886.72,784.666 5088.32,808.435 "/>
<path clip-path="url(#clip490)" d="M6396.51 3994.98 L7388.43 3994.98 L7388.43 3891.3 L6396.51 3891.3  Z" fill="#ffffff" fill-rule="evenodd" fill-opacity="1"/>
<polyline clip-path="url(#clip490)" style="stroke:#000000; stroke-linecap:round; stroke-linejoin:round; stroke-width:4; stroke-opacity:1; fill:none" points="6396.51,3994.98 7388.43,3994.98 7388.43,3891.3 6396.51,3891.3 6396.51,3994.98 "/>
<polyline clip-path="url(#clip490)" style="stroke:#009af9; stroke-linecap:round; stroke-linejoin:round; stroke-width:4; stroke-opacity:1; fill:none" points="6477.95,3943.14 6966.59,3943.14 "/>
<path clip-path="url(#clip490)" d="M7048.03 3925.86 L7077.27 3925.86 L7077.27 3929.79 L7065 3929.79 L7065 3960.42 L7060.3 3960.42 L7060.3 3929.79 L7048.03 3929.79 L7048.03 3925.86 Z" fill="#000000" fill-rule="nonzero" fill-opacity="1" /><path clip-path="url(#clip490)" d="M7089.66 3938.47 Q7088.94 3938.06 7088.08 3937.87 Q7087.25 3937.66 7086.23 3937.66 Q7082.62 3937.66 7080.67 3940.03 Q7078.75 3942.36 7078.75 3946.76 L7078.75 3960.42 L7074.47 3960.42 L7074.47 3934.49 L7078.75 3934.49 L7078.75 3938.52 Q7080.09 3936.16 7082.25 3935.03 Q7084.4 3933.87 7087.48 3933.87 Q7087.92 3933.87 7088.45 3933.94 Q7088.98 3933.98 7089.63 3934.1 L7089.66 3938.47 Z" fill="#000000" fill-rule="nonzero" fill-opacity="1" /><path clip-path="url(#clip490)" d="M7105.9 3947.39 Q7100.74 3947.39 7098.75 3948.57 Q7096.76 3949.75 7096.76 3952.59 Q7096.76 3954.86 7098.24 3956.21 Q7099.75 3957.53 7102.32 3957.53 Q7105.86 3957.53 7107.99 3955.03 Q7110.14 3952.5 7110.14 3948.34 L7110.14 3947.39 L7105.9 3947.39 M7114.4 3945.63 L7114.4 3960.42 L7110.14 3960.42 L7110.14 3956.48 Q7108.68 3958.84 7106.51 3959.98 Q7104.33 3961.09 7101.18 3961.09 Q7097.2 3961.09 7094.84 3958.87 Q7092.5 3956.62 7092.5 3952.87 Q7092.5 3948.5 7095.42 3946.28 Q7098.36 3944.05 7104.17 3944.05 L7110.14 3944.05 L7110.14 3943.64 Q7110.14 3940.7 7108.2 3939.1 Q7106.28 3937.48 7102.78 3937.48 Q7100.56 3937.48 7098.45 3938.01 Q7096.34 3938.54 7094.4 3939.61 L7094.4 3935.67 Q7096.74 3934.77 7098.94 3934.33 Q7101.14 3933.87 7103.22 3933.87 Q7108.84 3933.87 7111.62 3936.78 Q7114.4 3939.7 7114.4 3945.63 Z" fill="#000000" fill-rule="nonzero" fill-opacity="1" /><path clip-path="url(#clip490)" d="M7133.96 3962.83 Q7132.15 3967.46 7130.44 3968.87 Q7128.73 3970.28 7125.86 3970.28 L7122.46 3970.28 L7122.46 3966.72 L7124.96 3966.72 Q7126.72 3966.72 7127.69 3965.88 Q7128.66 3965.05 7129.84 3961.95 L7130.6 3960 L7120.12 3934.49 L7124.63 3934.49 L7132.73 3954.77 L7140.84 3934.49 L7145.35 3934.49 L7133.96 3962.83 Z" fill="#000000" fill-rule="nonzero" fill-opacity="1" /><path clip-path="url(#clip490)" d="M7173.4 3946.39 L7173.4 3948.47 L7153.82 3948.47 Q7154.1 3952.87 7156.46 3955.19 Q7158.84 3957.48 7163.08 3957.48 Q7165.53 3957.48 7167.83 3956.88 Q7170.14 3956.28 7172.41 3955.07 L7172.41 3959.1 Q7170.12 3960.07 7167.71 3960.58 Q7165.3 3961.09 7162.83 3961.09 Q7156.62 3961.09 7152.99 3957.48 Q7149.38 3953.87 7149.38 3947.71 Q7149.38 3941.34 7152.8 3937.62 Q7156.25 3933.87 7162.09 3933.87 Q7167.32 3933.87 7170.35 3937.25 Q7173.4 3940.6 7173.4 3946.39 M7169.15 3945.14 Q7169.1 3941.65 7167.18 3939.56 Q7165.28 3937.48 7162.13 3937.48 Q7158.57 3937.48 7156.41 3939.49 Q7154.28 3941.51 7153.96 3945.16 L7169.15 3945.14 Z" fill="#000000" fill-rule="nonzero" fill-opacity="1" /><path clip-path="url(#clip490)" d="M7199.05 3935.49 L7199.05 3939.47 Q7197.25 3938.47 7195.42 3937.99 Q7193.61 3937.48 7191.76 3937.48 Q7187.62 3937.48 7185.33 3940.12 Q7183.03 3942.73 7183.03 3947.48 Q7183.03 3952.22 7185.33 3954.86 Q7187.62 3957.48 7191.76 3957.48 Q7193.61 3957.48 7195.42 3956.99 Q7197.25 3956.48 7199.05 3955.49 L7199.05 3959.42 Q7197.27 3960.26 7195.35 3960.67 Q7193.45 3961.09 7191.3 3961.09 Q7185.44 3961.09 7181.99 3957.41 Q7178.54 3953.73 7178.54 3947.48 Q7178.54 3941.14 7182.02 3937.5 Q7185.51 3933.87 7191.58 3933.87 Q7193.54 3933.87 7195.42 3934.28 Q7197.29 3934.68 7199.05 3935.49 Z" fill="#000000" fill-rule="nonzero" fill-opacity="1" /><path clip-path="url(#clip490)" d="M7210.67 3927.13 L7210.67 3934.49 L7219.45 3934.49 L7219.45 3937.8 L7210.67 3937.8 L7210.67 3951.88 Q7210.67 3955.05 7211.53 3955.95 Q7212.41 3956.85 7215.07 3956.85 L7219.45 3956.85 L7219.45 3960.42 L7215.07 3960.42 Q7210.14 3960.42 7208.27 3958.59 Q7206.39 3956.74 7206.39 3951.88 L7206.39 3937.8 L7203.27 3937.8 L7203.27 3934.49 L7206.39 3934.49 L7206.39 3927.13 L7210.67 3927.13 Z" fill="#000000" fill-rule="nonzero" fill-opacity="1" /><path clip-path="url(#clip490)" d="M7235.09 3937.48 Q7231.67 3937.48 7229.68 3940.16 Q7227.69 3942.83 7227.69 3947.48 Q7227.69 3952.13 7229.65 3954.82 Q7231.65 3957.48 7235.09 3957.48 Q7238.5 3957.48 7240.49 3954.79 Q7242.48 3952.11 7242.48 3947.48 Q7242.48 3942.87 7240.49 3940.19 Q7238.5 3937.48 7235.09 3937.48 M7235.09 3933.87 Q7240.65 3933.87 7243.82 3937.48 Q7246.99 3941.09 7246.99 3947.48 Q7246.99 3953.84 7243.82 3957.48 Q7240.65 3961.09 7235.09 3961.09 Q7229.52 3961.09 7226.34 3957.48 Q7223.2 3953.84 7223.2 3947.48 Q7223.2 3941.09 7226.34 3937.48 Q7229.52 3933.87 7235.09 3933.87 Z" fill="#000000" fill-rule="nonzero" fill-opacity="1" /><path clip-path="url(#clip490)" d="M7269.08 3938.47 Q7268.36 3938.06 7267.5 3937.87 Q7266.67 3937.66 7265.65 3937.66 Q7262.04 3937.66 7260.09 3940.03 Q7258.17 3942.36 7258.17 3946.76 L7258.17 3960.42 L7253.89 3960.42 L7253.89 3934.49 L7258.17 3934.49 L7258.17 3938.52 Q7259.52 3936.16 7261.67 3935.03 Q7263.82 3933.87 7266.9 3933.87 Q7267.34 3933.87 7267.87 3933.94 Q7268.4 3933.98 7269.05 3934.1 L7269.08 3938.47 Z" fill="#000000" fill-rule="nonzero" fill-opacity="1" /><path clip-path="url(#clip490)" d="M7273.54 3934.49 L7277.8 3934.49 L7277.8 3960.42 L7273.54 3960.42 L7273.54 3934.49 M7273.54 3924.4 L7277.8 3924.4 L7277.8 3929.79 L7273.54 3929.79 L7273.54 3924.4 Z" fill="#000000" fill-rule="nonzero" fill-opacity="1" /><path clip-path="url(#clip490)" d="M7298.5 3947.39 Q7293.33 3947.39 7291.34 3948.57 Q7289.35 3949.75 7289.35 3952.59 Q7289.35 3954.86 7290.83 3956.21 Q7292.34 3957.53 7294.91 3957.53 Q7298.45 3957.53 7300.58 3955.03 Q7302.73 3952.5 7302.73 3948.34 L7302.73 3947.39 L7298.5 3947.39 M7306.99 3945.63 L7306.99 3960.42 L7302.73 3960.42 L7302.73 3956.48 Q7301.27 3958.84 7299.1 3959.98 Q7296.92 3961.09 7293.77 3961.09 Q7289.79 3961.09 7287.43 3958.87 Q7285.09 3956.62 7285.09 3952.87 Q7285.09 3948.5 7288.01 3946.28 Q7290.95 3944.05 7296.76 3944.05 L7302.73 3944.05 L7302.73 3943.64 Q7302.73 3940.7 7300.79 3939.1 Q7298.87 3937.48 7295.37 3937.48 Q7293.15 3937.48 7291.04 3938.01 Q7288.94 3938.54 7286.99 3939.61 L7286.99 3935.67 Q7289.33 3934.77 7291.53 3934.33 Q7293.73 3933.87 7295.81 3933.87 Q7301.44 3933.87 7304.21 3936.78 Q7306.99 3939.7 7306.99 3945.63 Z" fill="#000000" fill-rule="nonzero" fill-opacity="1" /></svg>
