<?xml version="1.0" encoding="utf-8"?>
<svg xmlns="http://www.w3.org/2000/svg" xmlns:xlink="http://www.w3.org/1999/xlink" width="1920" height="1080" viewBox="0 0 7680 4320">
<defs>
  <clipPath id="clip400">
    <rect x="0" y="0" width="7680" height="4320"/>
  </clipPath>
</defs>
<path clip-path="url(#clip400)" d="M0 4320 L7680 4320 L7680 0 L0 0  Z" fill="#ffffff" fill-rule="evenodd" fill-opacity="1"/>
<defs>
  <clipPath id="clip401">
    <rect x="1536" y="0" width="5377" height="4320"/>
  </clipPath>
</defs>
<path clip-path="url(#clip400)" d="M302.579 4128.8 L7632.76 4128.8 L7632.76 114.022 L302.579 114.022  Z" fill="#ffffff" fill-rule="evenodd" fill-opacity="1"/>
<defs>
  <clipPath id="clip402">
    <rect x="302" y="114" width="7331" height="4016"/>
  </clipPath>
</defs>
<polyline clip-path="url(#clip402)" style="stroke:#000000; stroke-linecap:round; stroke-linejoin:round; stroke-width:2; stroke-opacity:0.1; fill:none" points="510.037,4128.8 510.037,114.022 "/>
<polyline clip-path="url(#clip402)" style="stroke:#000000; stroke-linecap:round; stroke-linejoin:round; stroke-width:2; stroke-opacity:0.1; fill:none" points="1893.09,4128.8 1893.09,114.022 "/>
<polyline clip-path="url(#clip402)" style="stroke:#000000; stroke-linecap:round; stroke-linejoin:round; stroke-width:2; stroke-opacity:0.1; fill:none" points="3276.14,4128.8 3276.14,114.022 "/>
<polyline clip-path="url(#clip402)" style="stroke:#000000; stroke-linecap:round; stroke-linejoin:round; stroke-width:2; stroke-opacity:0.1; fill:none" points="4659.19,4128.8 4659.19,114.022 "/>
<polyline clip-path="url(#clip402)" style="stroke:#000000; stroke-linecap:round; stroke-linejoin:round; stroke-width:2; stroke-opacity:0.1; fill:none" points="6042.25,4128.8 6042.25,114.022 "/>
<polyline clip-path="url(#clip402)" style="stroke:#000000; stroke-linecap:round; stroke-linejoin:round; stroke-width:2; stroke-opacity:0.1; fill:none" points="7425.3,4128.8 7425.3,114.022 "/>
<polyline clip-path="url(#clip402)" style="stroke:#000000; stroke-linecap:round; stroke-linejoin:round; stroke-width:2; stroke-opacity:0.1; fill:none" points="302.579,4015.78 7632.76,4015.78 "/>
<polyline clip-path="url(#clip402)" style="stroke:#000000; stroke-linecap:round; stroke-linejoin:round; stroke-width:2; stroke-opacity:0.1; fill:none" points="302.579,3068.74 7632.76,3068.74 "/>
<polyline clip-path="url(#clip402)" style="stroke:#000000; stroke-linecap:round; stroke-linejoin:round; stroke-width:2; stroke-opacity:0.1; fill:none" points="302.579,2121.69 7632.76,2121.69 "/>
<polyline clip-path="url(#clip402)" style="stroke:#000000; stroke-linecap:round; stroke-linejoin:round; stroke-width:2; stroke-opacity:0.1; fill:none" points="302.579,1174.65 7632.76,1174.65 "/>
<polyline clip-path="url(#clip402)" style="stroke:#000000; stroke-linecap:round; stroke-linejoin:round; stroke-width:2; stroke-opacity:0.1; fill:none" points="302.579,227.612 7632.76,227.612 "/>
<polyline clip-path="url(#clip400)" style="stroke:#000000; stroke-linecap:round; stroke-linejoin:round; stroke-width:4; stroke-opacity:1; fill:none" points="302.579,4128.8 7632.76,4128.8 "/>
<polyline clip-path="url(#clip400)" style="stroke:#000000; stroke-linecap:round; stroke-linejoin:round; stroke-width:4; stroke-opacity:1; fill:none" points="510.037,4128.8 510.037,4109.91 "/>
<polyline clip-path="url(#clip400)" style="stroke:#000000; stroke-linecap:round; stroke-linejoin:round; stroke-width:4; stroke-opacity:1; fill:none" points="1893.09,4128.8 1893.09,4109.91 "/>
<polyline clip-path="url(#clip400)" style="stroke:#000000; stroke-linecap:round; stroke-linejoin:round; stroke-width:4; stroke-opacity:1; fill:none" points="3276.14,4128.8 3276.14,4109.91 "/>
<polyline clip-path="url(#clip400)" style="stroke:#000000; stroke-linecap:round; stroke-linejoin:round; stroke-width:4; stroke-opacity:1; fill:none" points="4659.19,4128.8 4659.19,4109.91 "/>
<polyline clip-path="url(#clip400)" style="stroke:#000000; stroke-linecap:round; stroke-linejoin:round; stroke-width:4; stroke-opacity:1; fill:none" points="6042.25,4128.8 6042.25,4109.91 "/>
<polyline clip-path="url(#clip400)" style="stroke:#000000; stroke-linecap:round; stroke-linejoin:round; stroke-width:4; stroke-opacity:1; fill:none" points="7425.3,4128.8 7425.3,4109.91 "/>
<path clip-path="url(#clip400)" d="M510.037 4201.96 Q506.426 4201.96 504.597 4205.53 Q502.792 4209.07 502.792 4216.2 Q502.792 4223.31 504.597 4226.87 Q506.426 4230.41 510.037 4230.41 Q513.671 4230.41 515.477 4226.87 Q517.305 4223.31 517.305 4216.2 Q517.305 4209.07 515.477 4205.53 Q513.671 4201.96 510.037 4201.96 M510.037 4198.26 Q515.847 4198.26 518.903 4202.87 Q521.981 4207.45 521.981 4216.2 Q521.981 4224.93 518.903 4229.53 Q515.847 4234.12 510.037 4234.12 Q504.227 4234.12 501.148 4229.53 Q498.092 4224.93 498.092 4216.2 Q498.092 4207.45 501.148 4202.87 Q504.227 4198.26 510.037 4198.26 Z" fill="#000000" fill-rule="nonzero" fill-opacity="1" /><path clip-path="url(#clip400)" d="M1883.47 4229.51 L1891.11 4229.51 L1891.11 4203.14 L1882.8 4204.81 L1882.8 4200.55 L1891.06 4198.88 L1895.74 4198.88 L1895.74 4229.51 L1903.38 4229.51 L1903.38 4233.44 L1883.47 4233.44 L1883.47 4229.51 Z" fill="#000000" fill-rule="nonzero" fill-opacity="1" /><path clip-path="url(#clip400)" d="M3270.79 4229.51 L3287.11 4229.51 L3287.11 4233.44 L3265.17 4233.44 L3265.17 4229.51 Q3267.83 4226.76 3272.41 4222.13 Q3277.02 4217.47 3278.2 4216.13 Q3280.45 4213.61 3281.33 4211.87 Q3282.23 4210.11 3282.23 4208.42 Q3282.23 4205.67 3280.28 4203.93 Q3278.36 4202.2 3275.26 4202.2 Q3273.06 4202.2 3270.61 4202.96 Q3268.18 4203.72 3265.4 4205.27 L3265.4 4200.55 Q3268.22 4199.42 3270.68 4198.84 Q3273.13 4198.26 3275.17 4198.26 Q3280.54 4198.26 3283.73 4200.95 Q3286.93 4203.63 3286.93 4208.12 Q3286.93 4210.25 3286.12 4212.17 Q3285.33 4214.07 3283.22 4216.66 Q3282.65 4217.33 3279.54 4220.55 Q3276.44 4223.75 3270.79 4229.51 Z" fill="#000000" fill-rule="nonzero" fill-opacity="1" /><path clip-path="url(#clip400)" d="M4663.44 4214.81 Q4666.8 4215.53 4668.67 4217.8 Q4670.57 4220.07 4670.57 4223.4 Q4670.57 4228.51 4667.05 4231.32 Q4663.53 4234.12 4657.05 4234.12 Q4654.88 4234.12 4652.56 4233.68 Q4650.27 4233.26 4647.82 4232.4 L4647.82 4227.89 Q4649.76 4229.02 4652.08 4229.6 Q4654.39 4230.18 4656.91 4230.18 Q4661.31 4230.18 4663.6 4228.44 Q4665.92 4226.71 4665.92 4223.4 Q4665.92 4220.34 4663.77 4218.63 Q4661.64 4216.89 4657.82 4216.89 L4653.79 4216.89 L4653.79 4213.05 L4658 4213.05 Q4661.45 4213.05 4663.28 4211.69 Q4665.11 4210.3 4665.11 4207.7 Q4665.11 4205.04 4663.21 4203.63 Q4661.33 4202.2 4657.82 4202.2 Q4655.89 4202.2 4653.7 4202.61 Q4651.5 4203.03 4648.86 4203.91 L4648.86 4199.74 Q4651.52 4199 4653.83 4198.63 Q4656.17 4198.26 4658.23 4198.26 Q4663.56 4198.26 4666.66 4200.69 Q4669.76 4203.1 4669.76 4207.22 Q4669.76 4210.09 4668.12 4212.08 Q4666.47 4214.05 4663.44 4214.81 Z" fill="#000000" fill-rule="nonzero" fill-opacity="1" /><path clip-path="url(#clip400)" d="M6045.26 4202.96 L6033.45 4221.41 L6045.26 4221.41 L6045.26 4202.96 M6044.03 4198.88 L6049.91 4198.88 L6049.91 4221.41 L6054.84 4221.41 L6054.84 4225.3 L6049.91 4225.3 L6049.91 4233.44 L6045.26 4233.44 L6045.26 4225.3 L6029.65 4225.3 L6029.65 4220.78 L6044.03 4198.88 Z" fill="#000000" fill-rule="nonzero" fill-opacity="1" /><path clip-path="url(#clip400)" d="M7415.58 4198.88 L7433.93 4198.88 L7433.93 4202.82 L7419.86 4202.82 L7419.86 4211.29 Q7420.88 4210.94 7421.9 4210.78 Q7422.91 4210.6 7423.93 4210.6 Q7429.72 4210.6 7433.1 4213.77 Q7436.48 4216.94 7436.48 4222.36 Q7436.48 4227.94 7433.01 4231.04 Q7429.53 4234.12 7423.21 4234.12 Q7421.04 4234.12 7418.77 4233.75 Q7416.52 4233.38 7414.12 4232.63 L7414.12 4227.94 Q7416.2 4229.07 7418.42 4229.63 Q7420.65 4230.18 7423.12 4230.18 Q7427.13 4230.18 7429.46 4228.07 Q7431.8 4225.97 7431.8 4222.36 Q7431.8 4218.75 7429.46 4216.64 Q7427.13 4214.53 7423.12 4214.53 Q7421.25 4214.53 7419.37 4214.95 Q7417.52 4215.37 7415.58 4216.25 L7415.58 4198.88 Z" fill="#000000" fill-rule="nonzero" fill-opacity="1" /><path clip-path="url(#clip400)" d="M3797.21 4305.35 L3837.41 4305.35 L3837.41 4310.76 L3820.54 4310.76 L3820.54 4352.87 L3814.08 4352.87 L3814.08 4310.76 L3797.21 4310.76 L3797.21 4305.35 Z" fill="#000000" fill-rule="nonzero" fill-opacity="1" /><path clip-path="url(#clip400)" d="M3841.36 4317.22 L3847.21 4317.22 L3847.21 4352.87 L3841.36 4352.87 L3841.36 4317.22 M3841.36 4303.34 L3847.21 4303.34 L3847.21 4310.76 L3841.36 4310.76 L3841.36 4303.34 Z" fill="#000000" fill-rule="nonzero" fill-opacity="1" /><path clip-path="url(#clip400)" d="M3889.96 4333.58 L3889.96 4336.45 L3863.03 4336.45 Q3863.41 4342.49 3866.66 4345.68 Q3869.94 4348.83 3875.76 4348.83 Q3879.14 4348.83 3882.29 4348 Q3885.47 4347.17 3888.59 4345.52 L3888.59 4351.05 Q3885.44 4352.39 3882.13 4353.09 Q3878.82 4353.79 3875.41 4353.79 Q3866.88 4353.79 3861.89 4348.83 Q3856.92 4343.86 3856.92 4335.39 Q3856.92 4326.64 3861.63 4321.52 Q3866.37 4316.36 3874.39 4316.36 Q3881.59 4316.36 3885.76 4321.01 Q3889.96 4325.62 3889.96 4333.58 M3884.1 4331.86 Q3884.04 4327.06 3881.4 4324.19 Q3878.79 4321.33 3874.46 4321.33 Q3869.56 4321.33 3866.6 4324.1 Q3863.67 4326.86 3863.22 4331.89 L3884.1 4331.86 Z" fill="#000000" fill-rule="nonzero" fill-opacity="1" /><path clip-path="url(#clip400)" d="M3927.32 4324.06 Q3929.52 4320.12 3932.58 4318.24 Q3935.63 4316.36 3939.77 4316.36 Q3945.34 4316.36 3948.36 4320.28 Q3951.39 4324.16 3951.39 4331.35 L3951.39 4352.87 L3945.5 4352.87 L3945.5 4331.54 Q3945.5 4326.42 3943.68 4323.94 Q3941.87 4321.45 3938.15 4321.45 Q3933.6 4321.45 3930.95 4324.48 Q3928.31 4327.5 3928.31 4332.72 L3928.31 4352.87 L3922.42 4352.87 L3922.42 4331.54 Q3922.42 4326.39 3920.61 4323.94 Q3918.79 4321.45 3915.01 4321.45 Q3910.52 4321.45 3907.88 4324.51 Q3905.24 4327.53 3905.24 4332.72 L3905.24 4352.87 L3899.35 4352.87 L3899.35 4317.22 L3905.24 4317.22 L3905.24 4322.76 Q3907.24 4319.48 3910.04 4317.92 Q3912.84 4316.36 3916.69 4316.36 Q3920.58 4316.36 3923.28 4318.33 Q3926.02 4320.31 3927.32 4324.06 Z" fill="#000000" fill-rule="nonzero" fill-opacity="1" /><path clip-path="url(#clip400)" d="M3968.73 4347.52 L3968.73 4366.43 L3962.85 4366.43 L3962.85 4317.22 L3968.73 4317.22 L3968.73 4322.63 Q3970.58 4319.45 3973.38 4317.92 Q3976.21 4316.36 3980.13 4316.36 Q3986.62 4316.36 3990.66 4321.52 Q3994.74 4326.67 3994.74 4335.08 Q3994.74 4343.48 3990.66 4348.64 Q3986.62 4353.79 3980.13 4353.79 Q3976.21 4353.79 3973.38 4352.26 Q3970.58 4350.7 3968.73 4347.52 M3988.66 4335.08 Q3988.66 4328.62 3985.98 4324.96 Q3983.34 4321.26 3978.7 4321.26 Q3974.05 4321.26 3971.38 4324.96 Q3968.73 4328.62 3968.73 4335.08 Q3968.73 4341.54 3971.38 4345.23 Q3974.05 4348.89 3978.7 4348.89 Q3983.34 4348.89 3985.98 4345.23 Q3988.66 4341.54 3988.66 4335.08 Z" fill="#000000" fill-rule="nonzero" fill-opacity="1" /><path clip-path="url(#clip400)" d="M4018.26 4321.33 Q4013.55 4321.33 4010.81 4325.02 Q4008.07 4328.68 4008.07 4335.08 Q4008.07 4341.47 4010.78 4345.17 Q4013.52 4348.83 4018.26 4348.83 Q4022.94 4348.83 4025.67 4345.13 Q4028.41 4341.44 4028.41 4335.08 Q4028.41 4328.74 4025.67 4325.05 Q4022.94 4321.33 4018.26 4321.33 M4018.26 4316.36 Q4025.9 4316.36 4030.26 4321.33 Q4034.62 4326.29 4034.62 4335.08 Q4034.62 4343.83 4030.26 4348.83 Q4025.9 4353.79 4018.26 4353.79 Q4010.59 4353.79 4006.23 4348.83 Q4001.9 4343.83 4001.9 4335.08 Q4001.9 4326.29 4006.23 4321.33 Q4010.59 4316.36 4018.26 4316.36 Z" fill="#000000" fill-rule="nonzero" fill-opacity="1" /><path clip-path="url(#clip400)" d="M4079.12 4303.41 Q4074.85 4310.73 4072.78 4317.89 Q4070.71 4325.05 4070.71 4332.4 Q4070.71 4339.76 4072.78 4346.98 Q4074.88 4354.17 4079.12 4361.46 L4074.02 4361.46 Q4069.25 4353.98 4066.86 4346.76 Q4064.51 4339.53 4064.51 4332.4 Q4064.51 4325.31 4066.86 4318.11 Q4069.22 4310.92 4074.02 4303.41 L4079.12 4303.41 Z" fill="#000000" fill-rule="nonzero" fill-opacity="1" /><path clip-path="url(#clip400)" d="M4113.2 4318.27 L4113.2 4323.81 Q4110.72 4322.54 4108.05 4321.9 Q4105.37 4321.26 4102.51 4321.26 Q4098.15 4321.26 4095.95 4322.6 Q4093.79 4323.94 4093.79 4326.61 Q4093.79 4328.65 4095.35 4329.82 Q4096.91 4330.97 4101.62 4332.02 L4103.62 4332.47 Q4109.86 4333.8 4112.47 4336.25 Q4115.11 4338.67 4115.11 4343.03 Q4115.11 4348 4111.17 4350.9 Q4107.25 4353.79 4100.38 4353.79 Q4097.51 4353.79 4094.39 4353.22 Q4091.31 4352.68 4087.87 4351.56 L4087.87 4345.52 Q4091.11 4347.2 4094.27 4348.06 Q4097.42 4348.89 4100.5 4348.89 Q4104.64 4348.89 4106.87 4347.49 Q4109.1 4346.06 4109.1 4343.48 Q4109.1 4341.09 4107.47 4339.82 Q4105.88 4338.55 4100.44 4337.37 L4098.4 4336.89 Q4092.96 4335.75 4090.54 4333.39 Q4088.12 4331 4088.12 4326.86 Q4088.12 4321.84 4091.69 4319.1 Q4095.25 4316.36 4101.81 4316.36 Q4105.06 4316.36 4107.92 4316.84 Q4110.78 4317.32 4113.2 4318.27 Z" fill="#000000" fill-rule="nonzero" fill-opacity="1" /><path clip-path="url(#clip400)" d="M4123.52 4303.41 L4128.61 4303.41 Q4133.38 4310.92 4135.74 4318.11 Q4138.13 4325.31 4138.13 4332.4 Q4138.13 4339.53 4135.74 4346.76 Q4133.38 4353.98 4128.61 4361.46 L4123.52 4361.46 Q4127.75 4354.17 4129.82 4346.98 Q4131.92 4339.76 4131.92 4332.4 Q4131.92 4325.05 4129.82 4317.89 Q4127.75 4310.73 4123.52 4303.41 Z" fill="#000000" fill-rule="nonzero" fill-opacity="1" /><polyline clip-path="url(#clip400)" style="stroke:#000000; stroke-linecap:round; stroke-linejoin:round; stroke-width:4; stroke-opacity:1; fill:none" points="302.579,4128.8 302.579,114.022 "/>
<polyline clip-path="url(#clip400)" style="stroke:#000000; stroke-linecap:round; stroke-linejoin:round; stroke-width:4; stroke-opacity:1; fill:none" points="302.579,4015.78 321.477,4015.78 "/>
<polyline clip-path="url(#clip400)" style="stroke:#000000; stroke-linecap:round; stroke-linejoin:round; stroke-width:4; stroke-opacity:1; fill:none" points="302.579,3068.74 321.477,3068.74 "/>
<polyline clip-path="url(#clip400)" style="stroke:#000000; stroke-linecap:round; stroke-linejoin:round; stroke-width:4; stroke-opacity:1; fill:none" points="302.579,2121.69 321.477,2121.69 "/>
<polyline clip-path="url(#clip400)" style="stroke:#000000; stroke-linecap:round; stroke-linejoin:round; stroke-width:4; stroke-opacity:1; fill:none" points="302.579,1174.65 321.477,1174.65 "/>
<polyline clip-path="url(#clip400)" style="stroke:#000000; stroke-linecap:round; stroke-linejoin:round; stroke-width:4; stroke-opacity:1; fill:none" points="302.579,227.612 321.477,227.612 "/>
<path clip-path="url(#clip400)" d="M80.4352 4016.23 L110.111 4016.23 L110.111 4020.16 L80.4352 4020.16 L80.4352 4016.23 Z" fill="#000000" fill-rule="nonzero" fill-opacity="1" /><path clip-path="url(#clip400)" d="M121.014 4029.12 L128.652 4029.12 L128.652 4002.76 L120.342 4004.42 L120.342 4000.16 L128.606 3998.5 L133.282 3998.5 L133.282 4029.12 L140.921 4029.12 L140.921 4033.06 L121.014 4033.06 L121.014 4029.12 Z" fill="#000000" fill-rule="nonzero" fill-opacity="1" /><path clip-path="url(#clip400)" d="M150.365 4027.18 L155.25 4027.18 L155.25 4033.06 L150.365 4033.06 L150.365 4027.18 Z" fill="#000000" fill-rule="nonzero" fill-opacity="1" /><path clip-path="url(#clip400)" d="M175.435 4001.58 Q171.824 4001.58 169.995 4005.14 Q168.189 4008.68 168.189 4015.81 Q168.189 4022.92 169.995 4026.48 Q171.824 4030.02 175.435 4030.02 Q179.069 4030.02 180.874 4026.48 Q182.703 4022.92 182.703 4015.81 Q182.703 4008.68 180.874 4005.14 Q179.069 4001.58 175.435 4001.58 M175.435 3997.87 Q181.245 3997.87 184.3 4002.48 Q187.379 4007.06 187.379 4015.81 Q187.379 4024.54 184.3 4029.14 Q181.245 4033.73 175.435 4033.73 Q169.624 4033.73 166.546 4029.14 Q163.49 4024.54 163.49 4015.81 Q163.49 4007.06 166.546 4002.48 Q169.624 3997.87 175.435 3997.87 Z" fill="#000000" fill-rule="nonzero" fill-opacity="1" /><path clip-path="url(#clip400)" d="M81.4305 3069.19 L111.106 3069.19 L111.106 3073.12 L81.4305 3073.12 L81.4305 3069.19 Z" fill="#000000" fill-rule="nonzero" fill-opacity="1" /><path clip-path="url(#clip400)" d="M131.199 3054.53 Q127.588 3054.53 125.759 3058.1 Q123.953 3061.64 123.953 3068.77 Q123.953 3075.88 125.759 3079.44 Q127.588 3082.98 131.199 3082.98 Q134.833 3082.98 136.639 3079.44 Q138.467 3075.88 138.467 3068.77 Q138.467 3061.64 136.639 3058.1 Q134.833 3054.53 131.199 3054.53 M131.199 3050.83 Q137.009 3050.83 140.064 3055.44 Q143.143 3060.02 143.143 3068.77 Q143.143 3077.5 140.064 3082.1 Q137.009 3086.69 131.199 3086.69 Q125.389 3086.69 122.31 3082.1 Q119.254 3077.5 119.254 3068.77 Q119.254 3060.02 122.31 3055.44 Q125.389 3050.83 131.199 3050.83 Z" fill="#000000" fill-rule="nonzero" fill-opacity="1" /><path clip-path="url(#clip400)" d="M151.361 3080.14 L156.245 3080.14 L156.245 3086.02 L151.361 3086.02 L151.361 3080.14 Z" fill="#000000" fill-rule="nonzero" fill-opacity="1" /><path clip-path="url(#clip400)" d="M166.476 3051.46 L184.833 3051.46 L184.833 3055.39 L170.759 3055.39 L170.759 3063.86 Q171.777 3063.52 172.796 3063.35 Q173.814 3063.17 174.833 3063.17 Q180.62 3063.17 183.999 3066.34 Q187.379 3069.51 187.379 3074.93 Q187.379 3080.51 183.907 3083.61 Q180.435 3086.69 174.115 3086.69 Q171.939 3086.69 169.671 3086.32 Q167.425 3085.95 165.018 3085.21 L165.018 3080.51 Q167.101 3081.64 169.324 3082.2 Q171.546 3082.75 174.023 3082.75 Q178.027 3082.75 180.365 3080.65 Q182.703 3078.54 182.703 3074.93 Q182.703 3071.32 180.365 3069.21 Q178.027 3067.1 174.023 3067.1 Q172.148 3067.1 170.273 3067.52 Q168.421 3067.94 166.476 3068.82 L166.476 3051.46 Z" fill="#000000" fill-rule="nonzero" fill-opacity="1" /><path clip-path="url(#clip400)" d="M130.203 2107.49 Q126.592 2107.49 124.764 2111.06 Q122.958 2114.6 122.958 2121.73 Q122.958 2128.84 124.764 2132.4 Q126.592 2135.94 130.203 2135.94 Q133.838 2135.94 135.643 2132.4 Q137.472 2128.84 137.472 2121.73 Q137.472 2114.6 135.643 2111.06 Q133.838 2107.49 130.203 2107.49 M130.203 2103.79 Q136.014 2103.79 139.069 2108.4 Q142.148 2112.98 142.148 2121.73 Q142.148 2130.46 139.069 2135.06 Q136.014 2139.65 130.203 2139.65 Q124.393 2139.65 121.315 2135.06 Q118.259 2130.46 118.259 2121.73 Q118.259 2112.98 121.315 2108.4 Q124.393 2103.79 130.203 2103.79 Z" fill="#000000" fill-rule="nonzero" fill-opacity="1" /><path clip-path="url(#clip400)" d="M150.365 2133.1 L155.25 2133.1 L155.25 2138.97 L150.365 2138.97 L150.365 2133.1 Z" fill="#000000" fill-rule="nonzero" fill-opacity="1" /><path clip-path="url(#clip400)" d="M175.435 2107.49 Q171.824 2107.49 169.995 2111.06 Q168.189 2114.6 168.189 2121.73 Q168.189 2128.84 169.995 2132.4 Q171.824 2135.94 175.435 2135.94 Q179.069 2135.94 180.874 2132.4 Q182.703 2128.84 182.703 2121.73 Q182.703 2114.6 180.874 2111.06 Q179.069 2107.49 175.435 2107.49 M175.435 2103.79 Q181.245 2103.79 184.3 2108.4 Q187.379 2112.98 187.379 2121.73 Q187.379 2130.46 184.3 2135.06 Q181.245 2139.65 175.435 2139.65 Q169.624 2139.65 166.546 2135.06 Q163.49 2130.46 163.49 2121.73 Q163.49 2112.98 166.546 2108.4 Q169.624 2103.79 175.435 2103.79 Z" fill="#000000" fill-rule="nonzero" fill-opacity="1" /><path clip-path="url(#clip400)" d="M131.199 1160.45 Q127.588 1160.45 125.759 1164.02 Q123.953 1167.56 123.953 1174.69 Q123.953 1181.79 125.759 1185.36 Q127.588 1188.9 131.199 1188.9 Q134.833 1188.9 136.639 1185.36 Q138.467 1181.79 138.467 1174.69 Q138.467 1167.56 136.639 1164.02 Q134.833 1160.45 131.199 1160.45 M131.199 1156.75 Q137.009 1156.75 140.064 1161.36 Q143.143 1165.94 143.143 1174.69 Q143.143 1183.42 140.064 1188.02 Q137.009 1192.6 131.199 1192.6 Q125.389 1192.6 122.31 1188.02 Q119.254 1183.42 119.254 1174.69 Q119.254 1165.94 122.31 1161.36 Q125.389 1156.75 131.199 1156.75 Z" fill="#000000" fill-rule="nonzero" fill-opacity="1" /><path clip-path="url(#clip400)" d="M151.361 1186.05 L156.245 1186.05 L156.245 1191.93 L151.361 1191.93 L151.361 1186.05 Z" fill="#000000" fill-rule="nonzero" fill-opacity="1" /><path clip-path="url(#clip400)" d="M166.476 1157.37 L184.833 1157.37 L184.833 1161.31 L170.759 1161.31 L170.759 1169.78 Q171.777 1169.43 172.796 1169.27 Q173.814 1169.09 174.833 1169.09 Q180.62 1169.09 183.999 1172.26 Q187.379 1175.43 187.379 1180.85 Q187.379 1186.42 183.907 1189.53 Q180.435 1192.6 174.115 1192.6 Q171.939 1192.6 169.671 1192.23 Q167.425 1191.86 165.018 1191.12 L165.018 1186.42 Q167.101 1187.56 169.324 1188.11 Q171.546 1188.67 174.023 1188.67 Q178.027 1188.67 180.365 1186.56 Q182.703 1184.46 182.703 1180.85 Q182.703 1177.23 180.365 1175.13 Q178.027 1173.02 174.023 1173.02 Q172.148 1173.02 170.273 1173.44 Q168.421 1173.85 166.476 1174.73 L166.476 1157.37 Z" fill="#000000" fill-rule="nonzero" fill-opacity="1" /><path clip-path="url(#clip400)" d="M121.014 240.957 L128.652 240.957 L128.652 214.592 L120.342 216.258 L120.342 211.999 L128.606 210.332 L133.282 210.332 L133.282 240.957 L140.921 240.957 L140.921 244.892 L121.014 244.892 L121.014 240.957 Z" fill="#000000" fill-rule="nonzero" fill-opacity="1" /><path clip-path="url(#clip400)" d="M150.365 239.013 L155.25 239.013 L155.25 244.892 L150.365 244.892 L150.365 239.013 Z" fill="#000000" fill-rule="nonzero" fill-opacity="1" /><path clip-path="url(#clip400)" d="M175.435 213.411 Q171.824 213.411 169.995 216.976 Q168.189 220.518 168.189 227.647 Q168.189 234.754 169.995 238.318 Q171.824 241.86 175.435 241.86 Q179.069 241.86 180.874 238.318 Q182.703 234.754 182.703 227.647 Q182.703 220.518 180.874 216.976 Q179.069 213.411 175.435 213.411 M175.435 209.707 Q181.245 209.707 184.3 214.314 Q187.379 218.897 187.379 227.647 Q187.379 236.374 184.3 240.98 Q181.245 245.564 175.435 245.564 Q169.624 245.564 166.546 240.98 Q163.49 236.374 163.49 227.647 Q163.49 218.897 166.546 214.314 Q169.624 209.707 175.435 209.707 Z" fill="#000000" fill-rule="nonzero" fill-opacity="1" /><path clip-path="url(#clip400)" d="M-90.207 2394.9 L-66.5584 2403.62 L-66.5584 2386.15 L-90.207 2394.9 M-96.5408 2398.53 L-96.5408 2391.24 L-49.0208 2373.13 L-49.0208 2379.81 L-61.2112 2384.14 L-61.2112 2405.56 L-49.0208 2409.89 L-49.0208 2416.67 L-96.5408 2398.53 Z" fill="#000000" fill-rule="nonzero" fill-opacity="1" /><path clip-path="url(#clip400)" d="M-83.3002 2341.94 L-77.8257 2341.94 Q-79.1943 2344.42 -79.8627 2346.93 Q-80.5629 2349.42 -80.5629 2351.96 Q-80.5629 2357.66 -76.9345 2360.81 Q-73.3378 2363.96 -66.813 2363.96 Q-60.2881 2363.96 -56.6597 2360.81 Q-53.0631 2357.66 -53.0631 2351.96 Q-53.0631 2349.42 -53.7315 2346.93 Q-54.4317 2344.42 -55.8003 2341.94 L-50.3895 2341.94 Q-49.2436 2344.39 -48.6707 2347.03 Q-48.0978 2349.64 -48.0978 2352.6 Q-48.0978 2360.65 -53.1586 2365.4 Q-58.2193 2370.14 -66.813 2370.14 Q-75.534 2370.14 -80.5311 2365.36 Q-85.5282 2360.56 -85.5282 2352.22 Q-85.5282 2349.51 -84.9553 2346.93 Q-84.4142 2344.36 -83.3002 2341.94 Z" fill="#000000" fill-rule="nonzero" fill-opacity="1" /><path clip-path="url(#clip400)" d="M-68.3089 2301.26 L-65.4444 2301.26 L-65.4444 2328.19 Q-59.3969 2327.81 -56.2141 2324.56 Q-53.0631 2321.28 -53.0631 2315.46 Q-53.0631 2312.08 -53.8906 2308.93 Q-54.7181 2305.75 -56.3732 2302.63 L-50.8351 2302.63 Q-49.4983 2305.78 -48.798 2309.09 Q-48.0978 2312.4 -48.0978 2315.81 Q-48.0978 2324.34 -53.0631 2329.33 Q-58.0283 2334.3 -66.4947 2334.3 Q-75.2476 2334.3 -80.3719 2329.59 Q-85.5282 2324.85 -85.5282 2316.82 Q-85.5282 2309.63 -80.8812 2305.46 Q-76.2661 2301.26 -68.3089 2301.26 M-70.0277 2307.12 Q-74.8338 2307.18 -77.6984 2309.82 Q-80.5629 2312.43 -80.5629 2316.76 Q-80.5629 2321.66 -77.7938 2324.62 Q-75.0248 2327.55 -69.9958 2328 L-70.0277 2307.12 Z" fill="#000000" fill-rule="nonzero" fill-opacity="1" /><path clip-path="url(#clip400)" d="M-98.546 2291.65 L-98.546 2285.79 L-49.0208 2285.79 L-49.0208 2291.65 L-98.546 2291.65 Z" fill="#000000" fill-rule="nonzero" fill-opacity="1" /><path clip-path="url(#clip400)" d="M-68.3089 2243.05 L-65.4444 2243.05 L-65.4444 2269.97 Q-59.3969 2269.59 -56.2141 2266.34 Q-53.0631 2263.07 -53.0631 2257.24 Q-53.0631 2253.87 -53.8906 2250.72 Q-54.7181 2247.53 -56.3732 2244.41 L-50.8351 2244.41 Q-49.4983 2247.57 -48.798 2250.88 Q-48.0978 2254.19 -48.0978 2257.59 Q-48.0978 2266.12 -53.0631 2271.12 Q-58.0283 2276.08 -66.4947 2276.08 Q-75.2476 2276.08 -80.3719 2271.37 Q-85.5282 2266.63 -85.5282 2258.61 Q-85.5282 2251.42 -80.8812 2247.25 Q-76.2661 2243.05 -68.3089 2243.05 M-70.0277 2248.9 Q-74.8338 2248.97 -77.6984 2251.61 Q-80.5629 2254.22 -80.5629 2258.55 Q-80.5629 2263.45 -77.7938 2266.41 Q-75.0248 2269.34 -69.9958 2269.78 L-70.0277 2248.9 Z" fill="#000000" fill-rule="nonzero" fill-opacity="1" /><path clip-path="url(#clip400)" d="M-79.1943 2212.78 Q-79.7672 2213.76 -80.0218 2214.94 Q-80.3083 2216.09 -80.3083 2217.49 Q-80.3083 2222.45 -77.0618 2225.13 Q-73.8471 2227.77 -67.7997 2227.77 L-49.0208 2227.77 L-49.0208 2233.66 L-84.6688 2233.66 L-84.6688 2227.77 L-79.1306 2227.77 Q-82.3771 2225.92 -83.9367 2222.96 Q-85.5282 2220 -85.5282 2215.77 Q-85.5282 2215.16 -85.4327 2214.43 Q-85.369 2213.7 -85.2099 2212.81 L-79.1943 2212.78 Z" fill="#000000" fill-rule="nonzero" fill-opacity="1" /><path clip-path="url(#clip400)" d="M-66.9403 2190.43 Q-66.9403 2197.53 -65.3171 2200.27 Q-63.6938 2203.01 -59.7789 2203.01 Q-56.6597 2203.01 -54.8136 2200.97 Q-52.9994 2198.9 -52.9994 2195.37 Q-52.9994 2190.5 -56.4369 2187.57 Q-59.9062 2184.61 -65.6353 2184.61 L-66.9403 2184.61 L-66.9403 2190.43 M-69.3593 2178.75 L-49.0208 2178.75 L-49.0208 2184.61 L-54.4317 2184.61 Q-51.1852 2186.61 -49.6256 2189.61 Q-48.0978 2192.6 -48.0978 2196.93 Q-48.0978 2202.4 -51.1534 2205.65 Q-54.2407 2208.86 -59.3969 2208.86 Q-65.4125 2208.86 -68.4681 2204.85 Q-71.5236 2200.81 -71.5236 2192.82 L-71.5236 2184.61 L-72.0965 2184.61 Q-76.1388 2184.61 -78.3349 2187.28 Q-80.5629 2189.92 -80.5629 2194.73 Q-80.5629 2197.79 -79.8309 2200.68 Q-79.0988 2203.58 -77.6347 2206.25 L-83.0455 2206.25 Q-84.2869 2203.04 -84.8916 2200.01 Q-85.5282 2196.99 -85.5282 2194.13 Q-85.5282 2186.39 -81.5178 2182.57 Q-77.5074 2178.75 -69.3593 2178.75 Z" fill="#000000" fill-rule="nonzero" fill-opacity="1" /><path clip-path="url(#clip400)" d="M-83.3002 2141.04 L-77.8257 2141.04 Q-79.1943 2143.52 -79.8627 2146.03 Q-80.5629 2148.52 -80.5629 2151.06 Q-80.5629 2156.76 -76.9345 2159.91 Q-73.3378 2163.06 -66.813 2163.06 Q-60.2881 2163.06 -56.6597 2159.91 Q-53.0631 2156.76 -53.0631 2151.06 Q-53.0631 2148.52 -53.7315 2146.03 Q-54.4317 2143.52 -55.8003 2141.04 L-50.3895 2141.04 Q-49.2436 2143.49 -48.6707 2146.13 Q-48.0978 2148.74 -48.0978 2151.7 Q-48.0978 2159.75 -53.1586 2164.49 Q-58.2193 2169.24 -66.813 2169.24 Q-75.534 2169.24 -80.5311 2164.46 Q-85.5282 2159.66 -85.5282 2151.32 Q-85.5282 2148.61 -84.9553 2146.03 Q-84.4142 2143.45 -83.3002 2141.04 Z" fill="#000000" fill-rule="nonzero" fill-opacity="1" /><path clip-path="url(#clip400)" d="M-84.6688 2130.85 L-84.6688 2124.99 L-49.0208 2124.99 L-49.0208 2130.85 L-84.6688 2130.85 M-98.546 2130.85 L-98.546 2124.99 L-91.13 2124.99 L-91.13 2130.85 L-98.546 2130.85 Z" fill="#000000" fill-rule="nonzero" fill-opacity="1" /><path clip-path="url(#clip400)" d="M-80.5629 2098.93 Q-80.5629 2103.64 -76.8708 2106.37 Q-73.2105 2109.11 -66.813 2109.11 Q-60.4155 2109.11 -56.7233 2106.41 Q-53.0631 2103.67 -53.0631 2098.93 Q-53.0631 2094.25 -56.7552 2091.51 Q-60.4473 2088.77 -66.813 2088.77 Q-73.1469 2088.77 -76.839 2091.51 Q-80.5629 2094.25 -80.5629 2098.93 M-85.5282 2098.93 Q-85.5282 2091.29 -80.5629 2086.93 Q-75.5977 2082.57 -66.813 2082.57 Q-58.0601 2082.57 -53.0631 2086.93 Q-48.0978 2091.29 -48.0978 2098.93 Q-48.0978 2106.6 -53.0631 2110.96 Q-58.0601 2115.29 -66.813 2115.29 Q-75.5977 2115.29 -80.5629 2110.96 Q-85.5282 2106.6 -85.5282 2098.93 M-101.156 2094.5 L-101.156 2088.17 L-89.1885 2098.54 L-89.1885 2103.41 L-101.156 2094.5 Z" fill="#000000" fill-rule="nonzero" fill-opacity="1" /><path clip-path="url(#clip400)" d="M-70.5369 2043.23 L-49.0208 2043.23 L-49.0208 2049.08 L-70.346 2049.08 Q-75.4067 2049.08 -77.9212 2051.06 Q-80.4356 2053.03 -80.4356 2056.98 Q-80.4356 2061.72 -77.4119 2064.46 Q-74.3882 2067.19 -69.1683 2067.19 L-49.0208 2067.19 L-49.0208 2073.08 L-84.6688 2073.08 L-84.6688 2067.19 L-79.1306 2067.19 Q-82.3453 2065.09 -83.9367 2062.26 Q-85.5282 2059.4 -85.5282 2055.67 Q-85.5282 2049.53 -81.7087 2046.38 Q-77.9212 2043.23 -70.5369 2043.23 Z" fill="#000000" fill-rule="nonzero" fill-opacity="1" /><path clip-path="url(#clip400)" d="M-98.4824 1996.76 Q-91.1618 2001.02 -84.0004 2003.09 Q-76.839 2005.16 -69.4866 2005.16 Q-62.1342 2005.16 -54.9091 2003.09 Q-47.7159 2000.99 -40.4271 1996.76 L-40.4271 2001.85 Q-47.9068 2006.62 -55.1319 2009.01 Q-62.357 2011.37 -69.4866 2011.37 Q-76.5844 2011.37 -83.7776 2009.01 Q-90.9708 2006.66 -98.4824 2001.85 L-98.4824 1996.76 Z" fill="#000000" fill-rule="nonzero" fill-opacity="1" /><path clip-path="url(#clip400)" d="M-77.8257 1957.64 Q-81.7724 1955.44 -83.6503 1952.39 Q-85.5282 1949.33 -85.5282 1945.19 Q-85.5282 1939.62 -81.6133 1936.6 Q-77.7302 1933.58 -70.5369 1933.58 L-49.0208 1933.58 L-49.0208 1939.47 L-70.346 1939.47 Q-75.4704 1939.47 -77.953 1941.28 Q-80.4356 1943.09 -80.4356 1946.82 Q-80.4356 1951.37 -77.4119 1954.01 Q-74.3882 1956.65 -69.1683 1956.65 L-49.0208 1956.65 L-49.0208 1962.54 L-70.346 1962.54 Q-75.5022 1962.54 -77.953 1964.36 Q-80.4356 1966.17 -80.4356 1969.96 Q-80.4356 1974.45 -77.3801 1977.09 Q-74.3564 1979.73 -69.1683 1979.73 L-49.0208 1979.73 L-49.0208 1985.62 L-84.6688 1985.62 L-84.6688 1979.73 L-79.1306 1979.73 Q-82.409 1977.72 -83.9686 1974.92 Q-85.5282 1972.12 -85.5282 1968.27 Q-85.5282 1964.39 -83.5548 1961.68 Q-81.5814 1958.94 -77.8257 1957.64 Z" fill="#000000" fill-rule="nonzero" fill-opacity="1" /><path clip-path="url(#clip400)" d="M-96.5408 1911.49 L-96.5408 1906.08 L-42.9734 1922.63 L-42.9734 1928.04 L-96.5408 1911.49 Z" fill="#000000" fill-rule="nonzero" fill-opacity="1" /><path clip-path="url(#clip400)" d="M-83.6185 1877.21 L-78.0803 1877.21 Q-79.3534 1879.69 -79.99 1882.37 Q-80.6266 1885.04 -80.6266 1887.9 Q-80.6266 1892.26 -79.2898 1894.46 Q-77.953 1896.62 -75.2794 1896.62 Q-73.2424 1896.62 -72.0647 1895.06 Q-70.9189 1893.51 -69.8685 1888.79 L-69.4229 1886.79 Q-68.0861 1880.55 -65.6353 1877.94 Q-63.2164 1875.3 -58.8559 1875.3 Q-53.8906 1875.3 -50.9942 1879.25 Q-48.0978 1883.16 -48.0978 1890.04 Q-48.0978 1892.9 -48.6707 1896.02 Q-49.2118 1899.11 -50.3258 1902.54 L-56.3732 1902.54 Q-54.6863 1899.3 -53.827 1896.15 Q-52.9994 1893 -52.9994 1889.91 Q-52.9994 1885.77 -54.3999 1883.54 Q-55.8321 1881.31 -58.4103 1881.31 Q-60.7974 1881.31 -62.0705 1882.94 Q-63.3437 1884.53 -64.5213 1889.97 L-64.9988 1892.01 Q-66.1446 1897.45 -68.4999 1899.87 Q-70.887 1902.29 -75.0248 1902.29 Q-80.0537 1902.29 -82.7909 1898.73 Q-85.5282 1895.16 -85.5282 1888.6 Q-85.5282 1885.36 -85.0507 1882.49 Q-84.5733 1879.63 -83.6185 1877.21 Z" fill="#000000" fill-rule="nonzero" fill-opacity="1" /><path clip-path="url(#clip400)" d="M-73.9108 1863.59 L-73.9108 1850.09 L-70.2823 1850.09 L-70.2823 1869.12 L-73.7834 1869.12 Q-74.7701 1868.04 -76.5525 1866.04 Q-86.2602 1855.09 -89.2521 1855.09 Q-91.3528 1855.09 -92.6259 1856.74 Q-93.9309 1858.4 -93.9309 1861.1 Q-93.9309 1862.76 -93.358 1864.7 Q-92.8169 1866.64 -91.7029 1868.93 L-95.6178 1868.93 Q-96.509 1866.48 -96.9546 1864.38 Q-97.4002 1862.25 -97.4002 1860.44 Q-97.4002 1855.82 -95.2995 1853.05 Q-93.1988 1850.28 -89.7614 1850.28 Q-85.3372 1850.28 -76.2979 1860.82 Q-74.7701 1862.6 -73.9108 1863.59 Z" fill="#000000" fill-rule="nonzero" fill-opacity="1" /><path clip-path="url(#clip400)" d="M-98.4824 1840.77 L-98.4824 1835.67 Q-90.9708 1830.9 -83.7776 1828.54 Q-76.5844 1826.16 -69.4866 1826.16 Q-62.357 1826.16 -55.1319 1828.54 Q-47.9068 1830.9 -40.4271 1835.67 L-40.4271 1840.77 Q-47.7159 1836.53 -54.9091 1834.46 Q-62.1342 1832.36 -69.4866 1832.36 Q-76.839 1832.36 -84.0004 1834.46 Q-91.1618 1836.53 -98.4824 1840.77 Z" fill="#000000" fill-rule="nonzero" fill-opacity="1" /><path clip-path="url(#clip400)" d="M3295.38 20.1573 L3284.28 50.2555 L3306.52 50.2555 L3295.38 20.1573 M3290.76 12.096 L3300.04 12.096 L3323.09 72.576 L3314.58 72.576 L3309.07 57.061 L3281.81 57.061 L3276.3 72.576 L3267.67 72.576 L3290.76 12.096 Z" fill="#000000" fill-rule="nonzero" fill-opacity="1" /><path clip-path="url(#clip400)" d="M3362.79 28.9478 L3362.79 35.9153 Q3359.63 34.1734 3356.43 33.3227 Q3353.27 32.4315 3350.03 32.4315 Q3342.77 32.4315 3338.76 37.0496 Q3334.75 41.6271 3334.75 49.9314 Q3334.75 58.2358 3338.76 62.8538 Q3342.77 67.4314 3350.03 67.4314 Q3353.27 67.4314 3356.43 66.5807 Q3359.63 65.6895 3362.79 63.9476 L3362.79 70.8341 Q3359.67 72.2924 3356.31 73.0216 Q3352.98 73.7508 3349.22 73.7508 Q3338.97 73.7508 3332.93 67.3098 Q3326.9 60.8689 3326.9 49.9314 Q3326.9 38.832 3332.97 32.472 Q3339.09 26.1121 3349.7 26.1121 Q3353.15 26.1121 3356.43 26.8413 Q3359.71 27.5299 3362.79 28.9478 Z" fill="#000000" fill-rule="nonzero" fill-opacity="1" /><path clip-path="url(#clip400)" d="M3414.56 48.0275 L3414.56 51.6733 L3380.29 51.6733 Q3380.77 59.3701 3384.9 63.421 Q3389.08 67.4314 3396.49 67.4314 Q3400.78 67.4314 3404.79 66.3781 Q3408.85 65.3249 3412.82 63.2184 L3412.82 70.267 Q3408.8 71.9684 3404.59 72.8596 Q3400.38 73.7508 3396.04 73.7508 Q3385.19 73.7508 3378.83 67.4314 Q3372.51 61.1119 3372.51 50.3365 Q3372.51 39.1965 3378.5 32.6746 Q3384.54 26.1121 3394.75 26.1121 Q3403.9 26.1121 3409.21 32.0264 Q3414.56 37.9003 3414.56 48.0275 M3407.1 45.84 Q3407.02 39.7232 3403.66 36.0774 Q3400.34 32.4315 3394.83 32.4315 Q3388.59 32.4315 3384.82 35.9558 Q3381.1 39.4801 3380.53 45.8805 L3407.1 45.84 Z" fill="#000000" fill-rule="nonzero" fill-opacity="1" /><path clip-path="url(#clip400)" d="M3426.79 9.54393 L3434.24 9.54393 L3434.24 72.576 L3426.79 72.576 L3426.79 9.54393 Z" fill="#000000" fill-rule="nonzero" fill-opacity="1" /><path clip-path="url(#clip400)" d="M3488.65 48.0275 L3488.65 51.6733 L3454.38 51.6733 Q3454.86 59.3701 3459 63.421 Q3463.17 67.4314 3470.58 67.4314 Q3474.87 67.4314 3478.89 66.3781 Q3482.94 65.3249 3486.91 63.2184 L3486.91 70.267 Q3482.9 71.9684 3478.68 72.8596 Q3474.47 73.7508 3470.14 73.7508 Q3459.28 73.7508 3452.92 67.4314 Q3446.6 61.1119 3446.6 50.3365 Q3446.6 39.1965 3452.59 32.6746 Q3458.63 26.1121 3468.84 26.1121 Q3477.99 26.1121 3483.3 32.0264 Q3488.65 37.9003 3488.65 48.0275 M3481.19 45.84 Q3481.11 39.7232 3477.75 36.0774 Q3474.43 32.4315 3468.92 32.4315 Q3462.68 32.4315 3458.91 35.9558 Q3455.19 39.4801 3454.62 45.8805 L3481.19 45.84 Z" fill="#000000" fill-rule="nonzero" fill-opacity="1" /><path clip-path="url(#clip400)" d="M3527.17 34.1734 Q3525.92 33.4443 3524.42 33.1202 Q3522.96 32.7556 3521.18 32.7556 Q3514.86 32.7556 3511.45 36.8875 Q3508.09 40.9789 3508.09 48.6757 L3508.09 72.576 L3500.6 72.576 L3500.6 27.2059 L3508.09 27.2059 L3508.09 34.2544 Q3510.44 30.1225 3514.21 28.1376 Q3517.98 26.1121 3523.36 26.1121 Q3524.13 26.1121 3525.07 26.2337 Q3526 26.3147 3527.13 26.5172 L3527.17 34.1734 Z" fill="#000000" fill-rule="nonzero" fill-opacity="1" /><path clip-path="url(#clip400)" d="M3555.61 49.7694 Q3546.58 49.7694 3543.09 51.8354 Q3539.61 53.9013 3539.61 58.8839 Q3539.61 62.8538 3542.2 65.2034 Q3544.83 67.5124 3549.33 67.5124 Q3555.53 67.5124 3559.26 63.1374 Q3563.02 58.7219 3563.02 51.4303 L3563.02 49.7694 L3555.61 49.7694 M3570.48 46.6907 L3570.48 72.576 L3563.02 72.576 L3563.02 65.6895 Q3560.47 69.8214 3556.66 71.8063 Q3552.85 73.7508 3547.35 73.7508 Q3540.38 73.7508 3536.25 69.8619 Q3532.15 65.9325 3532.15 59.3701 Q3532.15 51.7138 3537.26 47.825 Q3542.4 43.9361 3552.57 43.9361 L3563.02 43.9361 L3563.02 43.2069 Q3563.02 38.0623 3559.62 35.2672 Q3556.26 32.4315 3550.14 32.4315 Q3546.25 32.4315 3542.57 33.3632 Q3538.88 34.295 3535.48 36.1584 L3535.48 29.2718 Q3539.57 27.692 3543.42 26.9223 Q3547.26 26.1121 3550.91 26.1121 Q3560.75 26.1121 3565.62 31.2163 Q3570.48 36.3204 3570.48 46.6907 Z" fill="#000000" fill-rule="nonzero" fill-opacity="1" /><path clip-path="url(#clip400)" d="M3618.48 28.9478 L3618.48 35.9153 Q3615.32 34.1734 3612.12 33.3227 Q3608.96 32.4315 3605.72 32.4315 Q3598.47 32.4315 3594.46 37.0496 Q3590.45 41.6271 3590.45 49.9314 Q3590.45 58.2358 3594.46 62.8538 Q3598.47 67.4314 3605.72 67.4314 Q3608.96 67.4314 3612.12 66.5807 Q3615.32 65.6895 3618.48 63.9476 L3618.48 70.8341 Q3615.36 72.2924 3612 73.0216 Q3608.68 73.7508 3604.91 73.7508 Q3594.66 73.7508 3588.62 67.3098 Q3582.59 60.8689 3582.59 49.9314 Q3582.59 38.832 3588.66 32.472 Q3594.78 26.1121 3605.4 26.1121 Q3608.84 26.1121 3612.12 26.8413 Q3615.4 27.5299 3618.48 28.9478 Z" fill="#000000" fill-rule="nonzero" fill-opacity="1" /><path clip-path="url(#clip400)" d="M3631.44 27.2059 L3638.9 27.2059 L3638.9 72.576 L3631.44 72.576 L3631.44 27.2059 M3631.44 9.54393 L3638.9 9.54393 L3638.9 18.9825 L3631.44 18.9825 L3631.44 9.54393 Z" fill="#000000" fill-rule="nonzero" fill-opacity="1" /><path clip-path="url(#clip400)" d="M3672.07 32.4315 Q3666.08 32.4315 3662.59 37.1306 Q3659.11 41.7891 3659.11 49.9314 Q3659.11 58.0738 3662.55 62.7728 Q3666.04 67.4314 3672.07 67.4314 Q3678.03 67.4314 3681.51 62.7323 Q3685 58.0333 3685 49.9314 Q3685 41.8701 3681.51 37.1711 Q3678.03 32.4315 3672.07 32.4315 M3672.07 26.1121 Q3681.8 26.1121 3687.34 32.4315 Q3692.89 38.7509 3692.89 49.9314 Q3692.89 61.0714 3687.34 67.4314 Q3681.8 73.7508 3672.07 73.7508 Q3662.31 73.7508 3656.76 67.4314 Q3651.25 61.0714 3651.25 49.9314 Q3651.25 38.7509 3656.76 32.4315 Q3662.31 26.1121 3672.07 26.1121 M3677.7 6.22219 L3685.77 6.22219 L3672.56 21.4536 L3666.36 21.4536 L3677.7 6.22219 Z" fill="#000000" fill-rule="nonzero" fill-opacity="1" /><path clip-path="url(#clip400)" d="M3742.96 45.1919 L3742.96 72.576 L3735.51 72.576 L3735.51 45.4349 Q3735.51 38.994 3733 35.7938 Q3730.49 32.5936 3725.46 32.5936 Q3719.43 32.5936 3715.94 36.4419 Q3712.46 40.2903 3712.46 46.9338 L3712.46 72.576 L3704.97 72.576 L3704.97 27.2059 L3712.46 27.2059 L3712.46 34.2544 Q3715.13 30.163 3718.74 28.1376 Q3722.39 26.1121 3727.12 26.1121 Q3734.94 26.1121 3738.95 30.9732 Q3742.96 35.7938 3742.96 45.1919 Z" fill="#000000" fill-rule="nonzero" fill-opacity="1" /><path clip-path="url(#clip400)" d="M3814.06 34.0924 L3814.06 9.54393 L3821.51 9.54393 L3821.51 72.576 L3814.06 72.576 L3814.06 65.7705 Q3811.71 69.8214 3808.1 71.8063 Q3804.54 73.7508 3799.51 73.7508 Q3791.29 73.7508 3786.11 67.1883 Q3780.96 60.6258 3780.96 49.9314 Q3780.96 39.2371 3786.11 32.6746 Q3791.29 26.1121 3799.51 26.1121 Q3804.54 26.1121 3808.1 28.0971 Q3811.71 30.0415 3814.06 34.0924 M3788.66 49.9314 Q3788.66 58.1548 3792.02 62.8538 Q3795.42 67.5124 3801.34 67.5124 Q3807.25 67.5124 3810.65 62.8538 Q3814.06 58.1548 3814.06 49.9314 Q3814.06 41.7081 3810.65 37.0496 Q3807.25 32.3505 3801.34 32.3505 Q3795.42 32.3505 3792.02 37.0496 Q3788.66 41.7081 3788.66 49.9314 Z" fill="#000000" fill-rule="nonzero" fill-opacity="1" /><path clip-path="url(#clip400)" d="M3875.67 48.0275 L3875.67 51.6733 L3841.4 51.6733 Q3841.89 59.3701 3846.02 63.421 Q3850.19 67.4314 3857.6 67.4314 Q3861.9 67.4314 3865.91 66.3781 Q3869.96 65.3249 3873.93 63.2184 L3873.93 70.267 Q3869.92 71.9684 3865.71 72.8596 Q3861.49 73.7508 3857.16 73.7508 Q3846.3 73.7508 3839.94 67.4314 Q3833.62 61.1119 3833.62 50.3365 Q3833.62 39.1965 3839.62 32.6746 Q3845.65 26.1121 3855.86 26.1121 Q3865.02 26.1121 3870.32 32.0264 Q3875.67 37.9003 3875.67 48.0275 M3868.22 45.84 Q3868.14 39.7232 3864.77 36.0774 Q3861.45 32.4315 3855.94 32.4315 Q3849.71 32.4315 3845.94 35.9558 Q3842.21 39.4801 3841.64 45.8805 L3868.22 45.84 Z" fill="#000000" fill-rule="nonzero" fill-opacity="1" /><path clip-path="url(#clip400)" d="M3887.91 9.54393 L3895.36 9.54393 L3895.36 72.576 L3887.91 72.576 L3887.91 9.54393 Z" fill="#000000" fill-rule="nonzero" fill-opacity="1" /><path clip-path="url(#clip400)" d="M3973.91 14.0809 L3973.91 22.0612 Q3969.25 19.8332 3965.12 18.7395 Q3960.98 17.6457 3957.14 17.6457 Q3950.45 17.6457 3946.81 20.2383 Q3943.2 22.8309 3943.2 27.611 Q3943.2 31.6214 3945.59 33.6873 Q3948.02 35.7128 3954.75 36.9686 L3959.69 37.9813 Q3968.84 39.7232 3973.18 44.1387 Q3977.55 48.5136 3977.55 55.8863 Q3977.55 64.6767 3971.64 69.2137 Q3965.76 73.7508 3954.38 73.7508 Q3950.09 73.7508 3945.23 72.7785 Q3940.4 71.8063 3935.22 69.9024 L3935.22 61.4765 Q3940.2 64.2716 3944.98 65.6895 Q3949.76 67.1073 3954.38 67.1073 Q3961.39 67.1073 3965.2 64.3527 Q3969 61.598 3969 56.4939 Q3969 52.0379 3966.25 49.5264 Q3963.54 47.0148 3957.3 45.759 L3952.31 44.7868 Q3943.16 42.9639 3939.07 39.075 Q3934.98 35.1862 3934.98 28.2591 Q3934.98 20.2383 3940.61 15.6203 Q3946.28 11.0023 3956.2 11.0023 Q3960.46 11.0023 3964.87 11.7719 Q3969.29 12.5416 3973.91 14.0809 Z" fill="#000000" fill-rule="nonzero" fill-opacity="1" /><path clip-path="url(#clip400)" d="M3989.22 54.671 L3989.22 27.2059 L3996.67 27.2059 L3996.67 54.3874 Q3996.67 60.8284 3999.18 64.0691 Q4001.7 67.2693 4006.72 67.2693 Q4012.75 67.2693 4016.24 63.421 Q4019.76 59.5726 4019.76 52.9291 L4019.76 27.2059 L4027.22 27.2059 L4027.22 72.576 L4019.76 72.576 L4019.76 65.6084 Q4017.05 69.7404 4013.44 71.7658 Q4009.88 73.7508 4005.14 73.7508 Q3997.32 73.7508 3993.27 68.8897 Q3989.22 64.0286 3989.22 54.671 M4007.97 26.1121 L4007.97 26.1121 Z" fill="#000000" fill-rule="nonzero" fill-opacity="1" /><path clip-path="url(#clip400)" d="M4081.38 48.0275 L4081.38 51.6733 L4047.11 51.6733 Q4047.59 59.3701 4051.72 63.421 Q4055.9 67.4314 4063.31 67.4314 Q4067.6 67.4314 4071.61 66.3781 Q4075.66 65.3249 4079.63 63.2184 L4079.63 70.267 Q4075.62 71.9684 4071.41 72.8596 Q4067.2 73.7508 4062.86 73.7508 Q4052.01 73.7508 4045.65 67.4314 Q4039.33 61.1119 4039.33 50.3365 Q4039.33 39.1965 4045.32 32.6746 Q4051.36 26.1121 4061.57 26.1121 Q4070.72 26.1121 4076.03 32.0264 Q4081.38 37.9003 4081.38 48.0275 M4073.92 45.84 Q4073.84 39.7232 4070.48 36.0774 Q4067.16 32.4315 4061.65 32.4315 Q4055.41 32.4315 4051.64 35.9558 Q4047.92 39.4801 4047.35 45.8805 L4073.92 45.84 Z" fill="#000000" fill-rule="nonzero" fill-opacity="1" /><path clip-path="url(#clip400)" d="M4093.61 9.54393 L4101.06 9.54393 L4101.06 72.576 L4093.61 72.576 L4093.61 9.54393 Z" fill="#000000" fill-rule="nonzero" fill-opacity="1" /><path clip-path="url(#clip400)" d="M4134.24 32.4315 Q4128.25 32.4315 4124.76 37.1306 Q4121.28 41.7891 4121.28 49.9314 Q4121.28 58.0738 4124.72 62.7728 Q4128.2 67.4314 4134.24 67.4314 Q4140.2 67.4314 4143.68 62.7323 Q4147.16 58.0333 4147.16 49.9314 Q4147.16 41.8701 4143.68 37.1711 Q4140.2 32.4315 4134.24 32.4315 M4134.24 26.1121 Q4143.96 26.1121 4149.51 32.4315 Q4155.06 38.7509 4155.06 49.9314 Q4155.06 61.0714 4149.51 67.4314 Q4143.96 73.7508 4134.24 73.7508 Q4124.48 73.7508 4118.93 67.4314 Q4113.42 61.0714 4113.42 49.9314 Q4113.42 38.7509 4118.93 32.4315 Q4124.48 26.1121 4134.24 26.1121 Z" fill="#000000" fill-rule="nonzero" fill-opacity="1" /><path clip-path="url(#clip400)" d="M4211.69 9.62495 Q4206.27 18.942 4203.63 28.0566 Q4201 37.1711 4201 46.5287 Q4201 55.8863 4203.63 65.0818 Q4206.31 74.2369 4211.69 83.5134 L4205.21 83.5134 Q4199.14 73.9938 4196.1 64.7983 Q4193.1 55.6027 4193.1 46.5287 Q4193.1 37.4952 4196.1 28.3401 Q4199.1 19.1851 4205.21 9.62495 L4211.69 9.62495 Z" fill="#000000" fill-rule="nonzero" fill-opacity="1" /><path clip-path="url(#clip400)" d="M4226.48 12.096 L4264.72 12.096 L4264.72 18.9825 L4234.66 18.9825 L4234.66 36.8875 L4263.46 36.8875 L4263.46 43.7741 L4234.66 43.7741 L4234.66 65.6895 L4265.45 65.6895 L4265.45 72.576 L4226.48 72.576 L4226.48 12.096 Z" fill="#000000" fill-rule="nonzero" fill-opacity="1" /><path clip-path="url(#clip400)" d="M4316.29 27.2059 L4299.88 49.2833 L4317.14 72.576 L4308.35 72.576 L4295.14 54.752 L4281.94 72.576 L4273.15 72.576 L4290.77 48.8377 L4274.64 27.2059 L4283.44 27.2059 L4295.47 43.369 L4307.5 27.2059 L4316.29 27.2059 Z" fill="#000000" fill-rule="nonzero" fill-opacity="1" /><path clip-path="url(#clip400)" d="M4358.86 28.9478 L4358.86 35.9153 Q4355.7 34.1734 4352.5 33.3227 Q4349.34 32.4315 4346.1 32.4315 Q4338.85 32.4315 4334.84 37.0496 Q4330.83 41.6271 4330.83 49.9314 Q4330.83 58.2358 4334.84 62.8538 Q4338.85 67.4314 4346.1 67.4314 Q4349.34 67.4314 4352.5 66.5807 Q4355.7 65.6895 4358.86 63.9476 L4358.86 70.8341 Q4355.74 72.2924 4352.38 73.0216 Q4349.06 73.7508 4345.29 73.7508 Q4335.04 73.7508 4329.01 67.3098 Q4322.97 60.8689 4322.97 49.9314 Q4322.97 38.832 4329.05 32.472 Q4335.17 26.1121 4345.78 26.1121 Q4349.22 26.1121 4352.5 26.8413 Q4355.78 27.5299 4358.86 28.9478 Z" fill="#000000" fill-rule="nonzero" fill-opacity="1" /><path clip-path="url(#clip400)" d="M4371.83 27.2059 L4379.28 27.2059 L4379.28 72.576 L4371.83 72.576 L4371.83 27.2059 M4371.83 9.54393 L4379.28 9.54393 L4379.28 18.9825 L4371.83 18.9825 L4371.83 9.54393 Z" fill="#000000" fill-rule="nonzero" fill-opacity="1" /><path clip-path="url(#clip400)" d="M4402.25 14.324 L4402.25 27.2059 L4417.6 27.2059 L4417.6 32.9987 L4402.25 32.9987 L4402.25 57.6282 Q4402.25 63.1779 4403.75 64.7578 Q4405.29 66.3376 4409.95 66.3376 L4417.6 66.3376 L4417.6 72.576 L4409.95 72.576 Q4401.32 72.576 4398.04 69.3758 Q4394.75 66.1351 4394.75 57.6282 L4394.75 32.9987 L4389.29 32.9987 L4389.29 27.2059 L4394.75 27.2059 L4394.75 14.324 L4402.25 14.324 Z" fill="#000000" fill-rule="nonzero" fill-opacity="1" /><path clip-path="url(#clip400)" d="M4448.02 49.7694 Q4438.99 49.7694 4435.51 51.8354 Q4432.02 53.9013 4432.02 58.8839 Q4432.02 62.8538 4434.62 65.2034 Q4437.25 67.5124 4441.74 67.5124 Q4447.94 67.5124 4451.67 63.1374 Q4455.44 58.7219 4455.44 51.4303 L4455.44 49.7694 L4448.02 49.7694 M4462.89 46.6907 L4462.89 72.576 L4455.44 72.576 L4455.44 65.6895 Q4452.88 69.8214 4449.08 71.8063 Q4445.27 73.7508 4439.76 73.7508 Q4432.79 73.7508 4428.66 69.8619 Q4424.57 65.9325 4424.57 59.3701 Q4424.57 51.7138 4429.67 47.825 Q4434.82 43.9361 4444.99 43.9361 L4455.44 43.9361 L4455.44 43.2069 Q4455.44 38.0623 4452.03 35.2672 Q4448.67 32.4315 4442.55 32.4315 Q4438.67 32.4315 4434.98 33.3632 Q4431.29 34.295 4427.89 36.1584 L4427.89 29.2718 Q4431.98 27.692 4435.83 26.9223 Q4439.68 26.1121 4443.32 26.1121 Q4453.17 26.1121 4458.03 31.2163 Q4462.89 36.3204 4462.89 46.6907 Z" fill="#000000" fill-rule="nonzero" fill-opacity="1" /><path clip-path="url(#clip400)" d="M4510.89 28.9478 L4510.89 35.9153 Q4507.73 34.1734 4504.53 33.3227 Q4501.37 32.4315 4498.13 32.4315 Q4490.88 32.4315 4486.87 37.0496 Q4482.86 41.6271 4482.86 49.9314 Q4482.86 58.2358 4486.87 62.8538 Q4490.88 67.4314 4498.13 67.4314 Q4501.37 67.4314 4504.53 66.5807 Q4507.73 65.6895 4510.89 63.9476 L4510.89 70.8341 Q4507.77 72.2924 4504.41 73.0216 Q4501.09 73.7508 4497.32 73.7508 Q4487.07 73.7508 4481.04 67.3098 Q4475 60.8689 4475 49.9314 Q4475 38.832 4481.08 32.472 Q4487.2 26.1121 4497.81 26.1121 Q4501.25 26.1121 4504.53 26.8413 Q4507.82 27.5299 4510.89 28.9478 Z" fill="#000000" fill-rule="nonzero" fill-opacity="1" /><path clip-path="url(#clip400)" d="M4523.86 27.2059 L4531.31 27.2059 L4531.31 72.576 L4523.86 72.576 L4523.86 27.2059 M4523.86 9.54393 L4531.31 9.54393 L4531.31 18.9825 L4523.86 18.9825 L4523.86 9.54393 Z" fill="#000000" fill-rule="nonzero" fill-opacity="1" /><path clip-path="url(#clip400)" d="M4564.49 32.4315 Q4558.49 32.4315 4555.01 37.1306 Q4551.52 41.7891 4551.52 49.9314 Q4551.52 58.0738 4554.97 62.7728 Q4558.45 67.4314 4564.49 67.4314 Q4570.44 67.4314 4573.93 62.7323 Q4577.41 58.0333 4577.41 49.9314 Q4577.41 41.8701 4573.93 37.1711 Q4570.44 32.4315 4564.49 32.4315 M4564.49 26.1121 Q4574.21 26.1121 4579.76 32.4315 Q4585.31 38.7509 4585.31 49.9314 Q4585.31 61.0714 4579.76 67.4314 Q4574.21 73.7508 4564.49 73.7508 Q4554.72 73.7508 4549.17 67.4314 Q4543.67 61.0714 4543.67 49.9314 Q4543.67 38.7509 4549.17 32.4315 Q4554.72 26.1121 4564.49 26.1121 M4570.12 6.22219 L4578.18 6.22219 L4564.97 21.4536 L4558.78 21.4536 L4570.12 6.22219 Z" fill="#000000" fill-rule="nonzero" fill-opacity="1" /><path clip-path="url(#clip400)" d="M4635.38 45.1919 L4635.38 72.576 L4627.92 72.576 L4627.92 45.4349 Q4627.92 38.994 4625.41 35.7938 Q4622.9 32.5936 4617.88 32.5936 Q4611.84 32.5936 4608.36 36.4419 Q4604.87 40.2903 4604.87 46.9338 L4604.87 72.576 L4597.38 72.576 L4597.38 27.2059 L4604.87 27.2059 L4604.87 34.2544 Q4607.55 30.163 4611.15 28.1376 Q4614.8 26.1121 4619.54 26.1121 Q4627.36 26.1121 4631.37 30.9732 Q4635.38 35.7938 4635.38 45.1919 Z" fill="#000000" fill-rule="nonzero" fill-opacity="1" /><path clip-path="url(#clip400)" d="M4649.07 9.62495 L4655.55 9.62495 Q4661.63 19.1851 4664.63 28.3401 Q4667.66 37.4952 4667.66 46.5287 Q4667.66 55.6027 4664.63 64.7983 Q4661.63 73.9938 4655.55 83.5134 L4649.07 83.5134 Q4654.46 74.2369 4657.09 65.0818 Q4659.76 55.8863 4659.76 46.5287 Q4659.76 37.1711 4657.09 28.0566 Q4654.46 18.942 4649.07 9.62495 Z" fill="#000000" fill-rule="nonzero" fill-opacity="1" /><polyline clip-path="url(#clip402)" style="stroke:#009af9; stroke-linecap:round; stroke-linejoin:round; stroke-width:8; stroke-opacity:1; fill:none" points="510.037,2121.69 510.175,2121.69 511.558,2121.68 522.531,2120.53 542.923,2113.62 567.432,2097.1 600.599,2060.47 633.44,2008.07 668.244,1935.13 706.174,1835.58 747.049,1705.72 792.735,1534.85 839.671,1335.03 887.913,1111.04 941.72,852.195 990.965,624.354 1042.13,420.153 1098.65,267.329 1148.48,228.832 1203.09,325.25 1254.72,574.779 1303.26,958.241 1350.86,1463.57 1396.1,2032.84 1441.1,2636.69 1487.75,3231.97 1535.69,3720.56 1584.36,3990.67 1630.83,3961.91 1673.4,3660.61 1714.54,3134.91 1754.08,2466.07 1792.76,1740.98 1831.52,1051.77 1871.58,503.806 1911.44,239.627 1949.52,320.05 1986.27,717.901 2021.8,1355.8 2056.75,2131.27 2091.83,2924.46 2128.12,3599.88 2165.72,3981.6 2200.22,3949.78 2233.43,3556.1 2265.56,2891.59 2297.39,2072.65 2329.7,1238.26 2364.31,541.862 2406.53,229.125 2438.05,473.33 2470.12,1108.87 2500.16,1939.15 2530.49,2829.62 2561.63,3584.91 2598.36,4008.34 2628.4,3859.18 2657.6,3298.24 2685.52,2487.88 2713.39,1586.61 2741.89,783.184 2773.8,273.55 2804.37,328.926 2831.48,832.009 2858.19,1639.68 2884.17,2546.59 2910.68,3377.93 2939.15,3929.22 2969.09,3945.48 2994.16,3492.26 3019.18,2711.24 3043.28,1815.45 3067.85,967.087 3093.81,369.213 3124.23,279.293 3148.17,710.009 3172.45,1501.26 3195.47,2407.62 3218.87,3266.45 3243.07,3864.21 3271.07,3976.66 3294.6,3548.13 3317.42,2770.88 3339.24,1866.74 3360.95,1019.63 3383.04,417.3 3407.12,236.403 3430.53,594.857 3451.64,1298.27 3472.39,2184.05 3492.6,3040.7 3513.08,3705.07 3534.54,4011 3558.43,3783.26 3579.13,3145.14 3599.4,2271.02 3618.93,1387.19 3638.45,664.073 3658.3,265.907 3679.53,328.034 3701.57,914.624 3721.05,1746.42 3740.16,2655.96 3758.57,3420.94 3776.95,3905.53 3795.67,3997.05 3815.6,3619.61 3835.65,2838.56 3853.88,1949.34 3871.75,1110.26 3889.1,503.437 3906.48,234.007 3924.25,373.271 3943.24,955.255 3962.5,1855.75 3980.16,2755.45 3997.54,3503.78 4014.52,3939.4 4031.58,3982.61 4049,3603.84 4067.47,2827.73 4086.93,1810.11 4104.53,956.005 4121.71,392.18 4138.3,230.33 4154.78,483.55 4171.41,1105.98 4188.8,2003.03 4207.55,3000.28 4224.7,3698.15 4241.18,4005.6 4257.16,3889.45 4273.03,3390.05 4289.03,2604.84 4305.7,1671.87 4324.14,772.43 4341.83,284.162 4358.36,289.057 4374.7,738.909 4390.86,1516.76 4407.28,2457.9 4424.41,3350.22 4443.76,3948.88 4462.98,3912.88 4480.02,3352.69 4497.06,2448.04 4513.65,1473.03 4530.59,655.62 4548.33,241.748 4568.03,465.372 4585.72,1218.77 4603.12,2241.16 4620.19,3214.57 4637.46,3870.11 4655.12,3984.89 4672.97,3487.39 4690.43,2555.23 4707.89,1479.87 4725.81,592.254 4744.57,227.648 4762.74,560.185 4780.18,1413.38 4797.43,2495.73 4814.88,3466.78 4833.35,3993.67 4853.85,3739.06 4871.53,2888.36 4889.11,1765.98 4906.18,790.593 4923.47,262.104 4940.89,389.419 4957.97,1120.64 4974.53,2169.04 4990.96,3198.14 5007.58,3881.81 5024.33,3971.41 5040.55,3448.23 5056.34,2517.86 5072,1469.66 5087.94,608.468 5104.88,228.626 5122.39,561.563 5138.13,1393.51 5153.85,2460.24 5169.37,3411.21 5185.53,3967.17 5203.77,3830.17 5221.07,3001.33 5236.84,1925.73 5252.62,912.158 5268.47,303.816 5285.75,352.122 5303.59,1158.9 5318.96,2214.05 5334.48,3249.65 5349.71,3899.19 5365.94,3948.44 5386.5,3053.83 5401.25,2020.73 5416.84,967.066 5431.52,340.316 5447.01,288.975 5463.53,943.338 5478.71,1974.66 5493.21,3014.7 5507.41,3764.48 5521.71,4014.01 5536.83,3639.26 5552.44,2698.94 5566.6,1646.19 5580.64,744.454 5594.48,266.333 5608.81,357.526 5624.68,1116.52 5640.08,2240.1 5653.96,3229.69 5667.81,3878.06 5681.53,3986.81 5696.04,3485.24 5714.55,2207.58 5728.4,1174.86 5742.61,426.158 5756.08,236.088 5770.05,640.48 5785.2,1619.37 5801.02,2842.33 5814.31,3657.09 5827.82,4012.4 5840.95,3791.94 5854.7,3031.06 5870.28,1826.79 5884.32,829.995 5897.49,292.1 5910.37,304.729 5923.21,848.376 5936.68,1816.81 5952.06,3024.73 5965.33,3780.61 5978.36,4012.65 5991.04,3680.19 6003.91,2876.01 6017.48,1784.9 6034.1,636.108 6047.03,238.109 6060.33,438.123 6073.04,1151.12 6086.23,2199.21 6100.43,3291.86 6116.6,3981.28 6129.35,3885.51 6142.65,3203.5 6155.39,2200.33 6168.83,1119.91 6184.07,331.42 6198.26,313.88 6211.33,928.996 6224.35,1940.97 6237.35,3014.88 6251.13,3821.4 6268.49,3913.67 6281.73,3251.37 6295.35,2157.31 6308.34,1092.84 6321.84,361.853 6336.52,309.278 6351.95,1105.74 6365.22,2207.77 6378.84,3305.33 6392.29,3945.71 6406.66,3870.46 6423.89,2813.81 6438.58,1541.14 6453.15,534.833 6467.55,236.648 6482.48,802.252 6498.71,2110.63 6515.77,3481.62 6531.22,4014.44 6546.99,3555.68 6562.7,2329.51 6579.06,942.895 6596.42,231.912 6614.9,830.217 6631.56,2221.29 6647.76,3526.8 6663.59,4014.83 6679.83,3412.99 6698.34,1835.79 6714.39,597.205 6729.54,238.396 6744.36,849.346 6759.62,2148.32 6776.98,3570.53 6791.64,4015.18 6806.1,3517.83 6820.23,2360.85 6835.05,1034.59 6852.12,238.448 6866.35,564.054 6880.67,1658.32 6894.73,2962.16 6909.74,3897.74 6928.39,3698.29 6942.45,2628.73 6957.39,1234.47 6971.87,340.415 6987.9,433.935 7005.22,1719.4 7020.06,3106.27 7035.55,3966.54 7051.09,3714.12 7068.35,2325.09 7086.38,729.051 7102.96,240.284 7120.14,1114.45 7137.42,2754.25 7154.81,3919.32 7171.88,3711.38 7189.73,2230.16 7207.86,639.344 7223.73,253.926 7239.61,1112.08 7255.6,2658.43 7273.46,3911.86 7288.67,3802.57 7303.86,2642.93 7318.99,1160.17 7335.8,244.859 7351.92,714.268 7366.68,2045.15 7381.73,3445.65 7397.46,4012.76 7415.59,3077.67 7425.3,2121.69 "/>
<path clip-path="url(#clip400)" d="M6577.2 351.528 L7388.42 351.528 L7388.42 247.848 L6577.2 247.848  Z" fill="#ffffff" fill-rule="evenodd" fill-opacity="1"/>
<polyline clip-path="url(#clip400)" style="stroke:#000000; stroke-linecap:round; stroke-linejoin:round; stroke-width:4; stroke-opacity:1; fill:none" points="6577.2,351.528 7388.42,351.528 7388.42,247.848 6577.2,247.848 6577.2,351.528 "/>
<polyline clip-path="url(#clip400)" style="stroke:#009af9; stroke-linecap:round; stroke-linejoin:round; stroke-width:8; stroke-opacity:1; fill:none" points="6658.65,299.688 7147.33,299.688 "/>
<path clip-path="url(#clip400)" d="M7253.43 291.042 L7244.05 303.658 L7253.91 316.968 L7248.89 316.968 L7241.35 306.783 L7233.8 316.968 L7228.78 316.968 L7238.85 303.403 L7229.63 291.042 L7234.66 291.042 L7241.53 300.278 L7248.41 291.042 L7253.43 291.042 M7243.8 281.042 L7248.5 281.042 L7248.5 285.718 L7243.8 285.718 L7243.8 281.042 M7234.75 281.042 L7239.45 281.042 L7239.45 285.718 L7234.75 285.718 L7234.75 281.042 Z" fill="#000000" fill-rule="nonzero" fill-opacity="1" /><path clip-path="url(#clip400)" d="M7270.16 280.996 Q7267.06 286.32 7265.56 291.529 Q7264.05 296.737 7264.05 302.084 Q7264.05 307.431 7265.56 312.686 Q7267.09 317.917 7270.16 323.218 L7266.46 323.218 Q7262.99 317.778 7261.25 312.524 Q7259.54 307.269 7259.54 302.084 Q7259.54 296.922 7261.25 291.691 Q7262.97 286.459 7266.46 280.996 L7270.16 280.996 Z" fill="#000000" fill-rule="nonzero" fill-opacity="1" /><path clip-path="url(#clip400)" d="M7282.64 283.681 L7282.64 291.042 L7291.41 291.042 L7291.41 294.353 L7282.64 294.353 L7282.64 308.427 Q7282.64 311.598 7283.5 312.501 Q7284.38 313.403 7287.04 313.403 L7291.41 313.403 L7291.41 316.968 L7287.04 316.968 Q7282.11 316.968 7280.23 315.14 Q7278.36 313.288 7278.36 308.427 L7278.36 294.353 L7275.23 294.353 L7275.23 291.042 L7278.36 291.042 L7278.36 283.681 L7282.64 283.681 Z" fill="#000000" fill-rule="nonzero" fill-opacity="1" /><path clip-path="url(#clip400)" d="M7296.35 280.996 L7300.05 280.996 Q7303.52 286.459 7305.23 291.691 Q7306.97 296.922 7306.97 302.084 Q7306.97 307.269 7305.23 312.524 Q7303.52 317.778 7300.05 323.218 L7296.35 323.218 Q7299.42 317.917 7300.93 312.686 Q7302.46 307.431 7302.46 302.084 Q7302.46 296.737 7300.93 291.529 Q7299.42 286.32 7296.35 280.996 Z" fill="#000000" fill-rule="nonzero" fill-opacity="1" /></svg>
