<?xml version="1.0" encoding="utf-8"?>
<svg xmlns="http://www.w3.org/2000/svg" xmlns:xlink="http://www.w3.org/1999/xlink" width="1920" height="1080" viewBox="0 0 7680 4320">
<defs>
  <clipPath id="clip460">
    <rect x="0" y="0" width="7680" height="4320"/>
  </clipPath>
</defs>
<path clip-path="url(#clip460)" d="M0 4320 L7680 4320 L7680 0 L0 0  Z" fill="#ffffff" fill-rule="evenodd" fill-opacity="1"/>
<defs>
  <clipPath id="clip461">
    <rect x="1536" y="0" width="5377" height="4320"/>
  </clipPath>
</defs>
<path clip-path="url(#clip460)" d="M303.065 4128.8 L7632.76 4128.8 L7632.76 114.022 L303.065 114.022  Z" fill="#ffffff" fill-rule="evenodd" fill-opacity="1"/>
<defs>
  <clipPath id="clip462">
    <rect x="303" y="114" width="7331" height="4016"/>
  </clipPath>
</defs>
<polyline clip-path="url(#clip462)" style="stroke:#000000; stroke-linecap:round; stroke-linejoin:round; stroke-width:2; stroke-opacity:0.1; fill:none" points="510.509,4128.8 510.509,114.022 "/>
<polyline clip-path="url(#clip462)" style="stroke:#000000; stroke-linecap:round; stroke-linejoin:round; stroke-width:2; stroke-opacity:0.1; fill:none" points="1893.47,4128.8 1893.47,114.022 "/>
<polyline clip-path="url(#clip462)" style="stroke:#000000; stroke-linecap:round; stroke-linejoin:round; stroke-width:2; stroke-opacity:0.1; fill:none" points="3276.43,4128.8 3276.43,114.022 "/>
<polyline clip-path="url(#clip462)" style="stroke:#000000; stroke-linecap:round; stroke-linejoin:round; stroke-width:2; stroke-opacity:0.1; fill:none" points="4659.39,4128.8 4659.39,114.022 "/>
<polyline clip-path="url(#clip462)" style="stroke:#000000; stroke-linecap:round; stroke-linejoin:round; stroke-width:2; stroke-opacity:0.1; fill:none" points="6042.35,4128.8 6042.35,114.022 "/>
<polyline clip-path="url(#clip462)" style="stroke:#000000; stroke-linecap:round; stroke-linejoin:round; stroke-width:2; stroke-opacity:0.1; fill:none" points="7425.31,4128.8 7425.31,114.022 "/>
<polyline clip-path="url(#clip462)" style="stroke:#000000; stroke-linecap:round; stroke-linejoin:round; stroke-width:2; stroke-opacity:0.1; fill:none" points="303.065,4011.95 7632.76,4011.95 "/>
<polyline clip-path="url(#clip462)" style="stroke:#000000; stroke-linecap:round; stroke-linejoin:round; stroke-width:2; stroke-opacity:0.1; fill:none" points="303.065,3119.39 7632.76,3119.39 "/>
<polyline clip-path="url(#clip462)" style="stroke:#000000; stroke-linecap:round; stroke-linejoin:round; stroke-width:2; stroke-opacity:0.1; fill:none" points="303.065,2226.84 7632.76,2226.84 "/>
<polyline clip-path="url(#clip462)" style="stroke:#000000; stroke-linecap:round; stroke-linejoin:round; stroke-width:2; stroke-opacity:0.1; fill:none" points="303.065,1334.29 7632.76,1334.29 "/>
<polyline clip-path="url(#clip462)" style="stroke:#000000; stroke-linecap:round; stroke-linejoin:round; stroke-width:2; stroke-opacity:0.1; fill:none" points="303.065,441.734 7632.76,441.734 "/>
<polyline clip-path="url(#clip460)" style="stroke:#000000; stroke-linecap:round; stroke-linejoin:round; stroke-width:4; stroke-opacity:1; fill:none" points="303.065,4128.8 7632.76,4128.8 "/>
<polyline clip-path="url(#clip460)" style="stroke:#000000; stroke-linecap:round; stroke-linejoin:round; stroke-width:4; stroke-opacity:1; fill:none" points="510.509,4128.8 510.509,4109.91 "/>
<polyline clip-path="url(#clip460)" style="stroke:#000000; stroke-linecap:round; stroke-linejoin:round; stroke-width:4; stroke-opacity:1; fill:none" points="1893.47,4128.8 1893.47,4109.91 "/>
<polyline clip-path="url(#clip460)" style="stroke:#000000; stroke-linecap:round; stroke-linejoin:round; stroke-width:4; stroke-opacity:1; fill:none" points="3276.43,4128.8 3276.43,4109.91 "/>
<polyline clip-path="url(#clip460)" style="stroke:#000000; stroke-linecap:round; stroke-linejoin:round; stroke-width:4; stroke-opacity:1; fill:none" points="4659.39,4128.8 4659.39,4109.91 "/>
<polyline clip-path="url(#clip460)" style="stroke:#000000; stroke-linecap:round; stroke-linejoin:round; stroke-width:4; stroke-opacity:1; fill:none" points="6042.35,4128.8 6042.35,4109.91 "/>
<polyline clip-path="url(#clip460)" style="stroke:#000000; stroke-linecap:round; stroke-linejoin:round; stroke-width:4; stroke-opacity:1; fill:none" points="7425.31,4128.8 7425.31,4109.91 "/>
<path clip-path="url(#clip460)" d="M510.509 4201.96 Q506.898 4201.96 505.069 4205.53 Q503.264 4209.07 503.264 4216.2 Q503.264 4223.31 505.069 4226.87 Q506.898 4230.41 510.509 4230.41 Q514.143 4230.41 515.949 4226.87 Q517.778 4223.31 517.778 4216.2 Q517.778 4209.07 515.949 4205.53 Q514.143 4201.96 510.509 4201.96 M510.509 4198.26 Q516.319 4198.26 519.375 4202.87 Q522.454 4207.45 522.454 4216.2 Q522.454 4224.93 519.375 4229.53 Q516.319 4234.12 510.509 4234.12 Q504.699 4234.12 501.62 4229.53 Q498.565 4224.93 498.565 4216.2 Q498.565 4207.45 501.62 4202.87 Q504.699 4198.26 510.509 4198.26 Z" fill="#000000" fill-rule="nonzero" fill-opacity="1" /><path clip-path="url(#clip460)" d="M1883.85 4229.51 L1891.49 4229.51 L1891.49 4203.14 L1883.18 4204.81 L1883.18 4200.55 L1891.44 4198.88 L1896.12 4198.88 L1896.12 4229.51 L1903.76 4229.51 L1903.76 4233.44 L1883.85 4233.44 L1883.85 4229.51 Z" fill="#000000" fill-rule="nonzero" fill-opacity="1" /><path clip-path="url(#clip460)" d="M3271.08 4229.51 L3287.4 4229.51 L3287.4 4233.44 L3265.46 4233.44 L3265.46 4229.51 Q3268.12 4226.76 3272.7 4222.13 Q3277.31 4217.47 3278.49 4216.13 Q3280.74 4213.61 3281.62 4211.87 Q3282.52 4210.11 3282.52 4208.42 Q3282.52 4205.67 3280.57 4203.93 Q3278.65 4202.2 3275.55 4202.2 Q3273.35 4202.2 3270.9 4202.96 Q3268.47 4203.72 3265.69 4205.27 L3265.69 4200.55 Q3268.51 4199.42 3270.97 4198.84 Q3273.42 4198.26 3275.46 4198.26 Q3280.83 4198.26 3284.02 4200.95 Q3287.22 4203.63 3287.22 4208.12 Q3287.22 4210.25 3286.41 4212.17 Q3285.62 4214.07 3283.51 4216.66 Q3282.93 4217.33 3279.83 4220.55 Q3276.73 4223.75 3271.08 4229.51 Z" fill="#000000" fill-rule="nonzero" fill-opacity="1" /><path clip-path="url(#clip460)" d="M4663.64 4214.81 Q4666.99 4215.53 4668.87 4217.8 Q4670.77 4220.07 4670.77 4223.4 Q4670.77 4228.51 4667.25 4231.32 Q4663.73 4234.12 4657.25 4234.12 Q4655.07 4234.12 4652.76 4233.68 Q4650.47 4233.26 4648.01 4232.4 L4648.01 4227.89 Q4649.96 4229.02 4652.27 4229.6 Q4654.59 4230.18 4657.11 4230.18 Q4661.51 4230.18 4663.8 4228.44 Q4666.12 4226.71 4666.12 4223.4 Q4666.12 4220.34 4663.96 4218.63 Q4661.83 4216.89 4658.01 4216.89 L4653.99 4216.89 L4653.99 4213.05 L4658.2 4213.05 Q4661.65 4213.05 4663.48 4211.69 Q4665.31 4210.3 4665.31 4207.7 Q4665.31 4205.04 4663.41 4203.63 Q4661.53 4202.2 4658.01 4202.2 Q4656.09 4202.2 4653.89 4202.61 Q4651.69 4203.03 4649.06 4203.91 L4649.06 4199.74 Q4651.72 4199 4654.03 4198.63 Q4656.37 4198.26 4658.43 4198.26 Q4663.75 4198.26 4666.86 4200.69 Q4669.96 4203.1 4669.96 4207.22 Q4669.96 4210.09 4668.31 4212.08 Q4666.67 4214.05 4663.64 4214.81 Z" fill="#000000" fill-rule="nonzero" fill-opacity="1" /><path clip-path="url(#clip460)" d="M6045.36 4202.96 L6033.56 4221.41 L6045.36 4221.41 L6045.36 4202.96 M6044.13 4198.88 L6050.01 4198.88 L6050.01 4221.41 L6054.94 4221.41 L6054.94 4225.3 L6050.01 4225.3 L6050.01 4233.44 L6045.36 4233.44 L6045.36 4225.3 L6029.76 4225.3 L6029.76 4220.78 L6044.13 4198.88 Z" fill="#000000" fill-rule="nonzero" fill-opacity="1" /><path clip-path="url(#clip460)" d="M7415.59 4198.88 L7433.95 4198.88 L7433.95 4202.82 L7419.87 4202.82 L7419.87 4211.29 Q7420.89 4210.94 7421.91 4210.78 Q7422.93 4210.6 7423.95 4210.6 Q7429.73 4210.6 7433.11 4213.77 Q7436.49 4216.94 7436.49 4222.36 Q7436.49 4227.94 7433.02 4231.04 Q7429.55 4234.12 7423.23 4234.12 Q7421.05 4234.12 7418.78 4233.75 Q7416.54 4233.38 7414.13 4232.63 L7414.13 4227.94 Q7416.21 4229.07 7418.44 4229.63 Q7420.66 4230.18 7423.14 4230.18 Q7427.14 4230.18 7429.48 4228.07 Q7431.82 4225.97 7431.82 4222.36 Q7431.82 4218.75 7429.48 4216.64 Q7427.14 4214.53 7423.14 4214.53 Q7421.26 4214.53 7419.39 4214.95 Q7417.53 4215.37 7415.59 4216.25 L7415.59 4198.88 Z" fill="#000000" fill-rule="nonzero" fill-opacity="1" /><path clip-path="url(#clip460)" d="M3797.45 4305.35 L3837.65 4305.35 L3837.65 4310.76 L3820.78 4310.76 L3820.78 4352.87 L3814.32 4352.87 L3814.32 4310.76 L3797.45 4310.76 L3797.45 4305.35 Z" fill="#000000" fill-rule="nonzero" fill-opacity="1" /><path clip-path="url(#clip460)" d="M3841.6 4317.22 L3847.46 4317.22 L3847.46 4352.87 L3841.6 4352.87 L3841.6 4317.22 M3841.6 4303.34 L3847.46 4303.34 L3847.46 4310.76 L3841.6 4310.76 L3841.6 4303.34 Z" fill="#000000" fill-rule="nonzero" fill-opacity="1" /><path clip-path="url(#clip460)" d="M3890.2 4333.58 L3890.2 4336.45 L3863.27 4336.45 Q3863.66 4342.49 3866.9 4345.68 Q3870.18 4348.83 3876.01 4348.83 Q3879.38 4348.83 3882.53 4348 Q3885.71 4347.17 3888.83 4345.52 L3888.83 4351.05 Q3885.68 4352.39 3882.37 4353.09 Q3879.06 4353.79 3875.66 4353.79 Q3867.13 4353.79 3862.13 4348.83 Q3857.16 4343.86 3857.16 4335.39 Q3857.16 4326.64 3861.87 4321.52 Q3866.62 4316.36 3874.64 4316.36 Q3881.83 4316.36 3886 4321.01 Q3890.2 4325.62 3890.2 4333.58 M3884.34 4331.86 Q3884.28 4327.06 3881.64 4324.19 Q3879.03 4321.33 3874.7 4321.33 Q3869.8 4321.33 3866.84 4324.1 Q3863.91 4326.86 3863.47 4331.89 L3884.34 4331.86 Z" fill="#000000" fill-rule="nonzero" fill-opacity="1" /><path clip-path="url(#clip460)" d="M3927.57 4324.06 Q3929.76 4320.12 3932.82 4318.24 Q3935.88 4316.36 3940.01 4316.36 Q3945.58 4316.36 3948.61 4320.28 Q3951.63 4324.16 3951.63 4331.35 L3951.63 4352.87 L3945.74 4352.87 L3945.74 4331.54 Q3945.74 4326.42 3943.93 4323.94 Q3942.11 4321.45 3938.39 4321.45 Q3933.84 4321.45 3931.2 4324.48 Q3928.55 4327.5 3928.55 4332.72 L3928.55 4352.87 L3922.67 4352.87 L3922.67 4331.54 Q3922.67 4326.39 3920.85 4323.94 Q3919.04 4321.45 3915.25 4321.45 Q3910.76 4321.45 3908.12 4324.51 Q3905.48 4327.53 3905.48 4332.72 L3905.48 4352.87 L3899.59 4352.87 L3899.59 4317.22 L3905.48 4317.22 L3905.48 4322.76 Q3907.48 4319.48 3910.28 4317.92 Q3913.09 4316.36 3916.94 4316.36 Q3920.82 4316.36 3923.53 4318.33 Q3926.26 4320.31 3927.57 4324.06 Z" fill="#000000" fill-rule="nonzero" fill-opacity="1" /><path clip-path="url(#clip460)" d="M3968.98 4347.52 L3968.98 4366.43 L3963.09 4366.43 L3963.09 4317.22 L3968.98 4317.22 L3968.98 4322.63 Q3970.82 4319.45 3973.62 4317.92 Q3976.46 4316.36 3980.37 4316.36 Q3986.86 4316.36 3990.91 4321.52 Q3994.98 4326.67 3994.98 4335.08 Q3994.98 4343.48 3990.91 4348.64 Q3986.86 4353.79 3980.37 4353.79 Q3976.46 4353.79 3973.62 4352.26 Q3970.82 4350.7 3968.98 4347.52 M3988.9 4335.08 Q3988.9 4328.62 3986.23 4324.96 Q3983.59 4321.26 3978.94 4321.26 Q3974.29 4321.26 3971.62 4324.96 Q3968.98 4328.62 3968.98 4335.08 Q3968.98 4341.54 3971.62 4345.23 Q3974.29 4348.89 3978.94 4348.89 Q3983.59 4348.89 3986.23 4345.23 Q3988.9 4341.54 3988.9 4335.08 Z" fill="#000000" fill-rule="nonzero" fill-opacity="1" /><path clip-path="url(#clip460)" d="M4018.5 4321.33 Q4013.79 4321.33 4011.05 4325.02 Q4008.32 4328.68 4008.32 4335.08 Q4008.32 4341.47 4011.02 4345.17 Q4013.76 4348.83 4018.5 4348.83 Q4023.18 4348.83 4025.92 4345.13 Q4028.66 4341.44 4028.66 4335.08 Q4028.66 4328.74 4025.92 4325.05 Q4023.18 4321.33 4018.5 4321.33 M4018.5 4316.36 Q4026.14 4316.36 4030.5 4321.33 Q4034.86 4326.29 4034.86 4335.08 Q4034.86 4343.83 4030.5 4348.83 Q4026.14 4353.79 4018.5 4353.79 Q4010.83 4353.79 4006.47 4348.83 Q4002.14 4343.83 4002.14 4335.08 Q4002.14 4326.29 4006.47 4321.33 Q4010.83 4316.36 4018.5 4316.36 Z" fill="#000000" fill-rule="nonzero" fill-opacity="1" /><path clip-path="url(#clip460)" d="M4079.36 4303.41 Q4075.09 4310.73 4073.02 4317.89 Q4070.96 4325.05 4070.96 4332.4 Q4070.96 4339.76 4073.02 4346.98 Q4075.12 4354.17 4079.36 4361.46 L4074.27 4361.46 Q4069.49 4353.98 4067.1 4346.76 Q4064.75 4339.53 4064.75 4332.4 Q4064.75 4325.31 4067.1 4318.11 Q4069.46 4310.92 4074.27 4303.41 L4079.36 4303.41 Z" fill="#000000" fill-rule="nonzero" fill-opacity="1" /><path clip-path="url(#clip460)" d="M4113.45 4318.27 L4113.45 4323.81 Q4110.96 4322.54 4108.29 4321.9 Q4105.62 4321.26 4102.75 4321.26 Q4098.39 4321.26 4096.2 4322.6 Q4094.03 4323.94 4094.03 4326.61 Q4094.03 4328.65 4095.59 4329.82 Q4097.15 4330.97 4101.86 4332.02 L4103.87 4332.47 Q4110.1 4333.8 4112.71 4336.25 Q4115.36 4338.67 4115.36 4343.03 Q4115.36 4348 4111.41 4350.9 Q4107.49 4353.79 4100.62 4353.79 Q4097.76 4353.79 4094.64 4353.22 Q4091.55 4352.68 4088.11 4351.56 L4088.11 4345.52 Q4091.36 4347.2 4094.51 4348.06 Q4097.66 4348.89 4100.75 4348.89 Q4104.88 4348.89 4107.11 4347.49 Q4109.34 4346.06 4109.34 4343.48 Q4109.34 4341.09 4107.72 4339.82 Q4106.13 4338.55 4100.68 4337.37 L4098.65 4336.89 Q4093.2 4335.75 4090.78 4333.39 Q4088.37 4331 4088.37 4326.86 Q4088.37 4321.84 4091.93 4319.1 Q4095.5 4316.36 4102.05 4316.36 Q4105.3 4316.36 4108.16 4316.84 Q4111.03 4317.32 4113.45 4318.27 Z" fill="#000000" fill-rule="nonzero" fill-opacity="1" /><path clip-path="url(#clip460)" d="M4123.76 4303.41 L4128.85 4303.41 Q4133.63 4310.92 4135.98 4318.11 Q4138.37 4325.31 4138.37 4332.4 Q4138.37 4339.53 4135.98 4346.76 Q4133.63 4353.98 4128.85 4361.46 L4123.76 4361.46 Q4127.99 4354.17 4130.06 4346.98 Q4132.16 4339.76 4132.16 4332.4 Q4132.16 4325.05 4130.06 4317.89 Q4127.99 4310.73 4123.76 4303.41 Z" fill="#000000" fill-rule="nonzero" fill-opacity="1" /><polyline clip-path="url(#clip460)" style="stroke:#000000; stroke-linecap:round; stroke-linejoin:round; stroke-width:4; stroke-opacity:1; fill:none" points="303.065,4128.8 303.065,114.022 "/>
<polyline clip-path="url(#clip460)" style="stroke:#000000; stroke-linecap:round; stroke-linejoin:round; stroke-width:4; stroke-opacity:1; fill:none" points="303.065,4011.95 321.963,4011.95 "/>
<polyline clip-path="url(#clip460)" style="stroke:#000000; stroke-linecap:round; stroke-linejoin:round; stroke-width:4; stroke-opacity:1; fill:none" points="303.065,3119.39 321.963,3119.39 "/>
<polyline clip-path="url(#clip460)" style="stroke:#000000; stroke-linecap:round; stroke-linejoin:round; stroke-width:4; stroke-opacity:1; fill:none" points="303.065,2226.84 321.963,2226.84 "/>
<polyline clip-path="url(#clip460)" style="stroke:#000000; stroke-linecap:round; stroke-linejoin:round; stroke-width:4; stroke-opacity:1; fill:none" points="303.065,1334.29 321.963,1334.29 "/>
<polyline clip-path="url(#clip460)" style="stroke:#000000; stroke-linecap:round; stroke-linejoin:round; stroke-width:4; stroke-opacity:1; fill:none" points="303.065,441.734 321.963,441.734 "/>
<path clip-path="url(#clip460)" d="M80.4352 4012.4 L110.111 4012.4 L110.111 4016.33 L80.4352 4016.33 L80.4352 4012.4 Z" fill="#000000" fill-rule="nonzero" fill-opacity="1" /><path clip-path="url(#clip460)" d="M130.203 3997.75 Q126.592 3997.75 124.764 4001.31 Q122.958 4004.85 122.958 4011.98 Q122.958 4019.09 124.764 4022.65 Q126.592 4026.2 130.203 4026.2 Q133.838 4026.2 135.643 4022.65 Q137.472 4019.09 137.472 4011.98 Q137.472 4004.85 135.643 4001.31 Q133.838 3997.75 130.203 3997.75 M130.203 3994.04 Q136.014 3994.04 139.069 3998.65 Q142.148 4003.23 142.148 4011.98 Q142.148 4020.71 139.069 4025.32 Q136.014 4029.9 130.203 4029.9 Q124.393 4029.9 121.315 4025.32 Q118.259 4020.71 118.259 4011.98 Q118.259 4003.23 121.315 3998.65 Q124.393 3994.04 130.203 3994.04 Z" fill="#000000" fill-rule="nonzero" fill-opacity="1" /><path clip-path="url(#clip460)" d="M150.365 4023.35 L155.25 4023.35 L155.25 4029.23 L150.365 4029.23 L150.365 4023.35 Z" fill="#000000" fill-rule="nonzero" fill-opacity="1" /><path clip-path="url(#clip460)" d="M178.282 3998.74 L166.476 4017.19 L178.282 4017.19 L178.282 3998.74 M177.055 3994.67 L182.935 3994.67 L182.935 4017.19 L187.865 4017.19 L187.865 4021.08 L182.935 4021.08 L182.935 4029.23 L178.282 4029.23 L178.282 4021.08 L162.68 4021.08 L162.68 4016.57 L177.055 3994.67 Z" fill="#000000" fill-rule="nonzero" fill-opacity="1" /><path clip-path="url(#clip460)" d="M82.5185 3119.85 L112.194 3119.85 L112.194 3123.78 L82.5185 3123.78 L82.5185 3119.85 Z" fill="#000000" fill-rule="nonzero" fill-opacity="1" /><path clip-path="url(#clip460)" d="M132.287 3105.19 Q128.676 3105.19 126.847 3108.76 Q125.041 3112.3 125.041 3119.43 Q125.041 3126.54 126.847 3130.1 Q128.676 3133.64 132.287 3133.64 Q135.921 3133.64 137.727 3130.1 Q139.555 3126.54 139.555 3119.43 Q139.555 3112.3 137.727 3108.76 Q135.921 3105.19 132.287 3105.19 M132.287 3101.49 Q138.097 3101.49 141.152 3106.1 Q144.231 3110.68 144.231 3119.43 Q144.231 3128.16 141.152 3132.76 Q138.097 3137.35 132.287 3137.35 Q126.477 3137.35 123.398 3132.76 Q120.342 3128.16 120.342 3119.43 Q120.342 3110.68 123.398 3106.1 Q126.477 3101.49 132.287 3101.49 Z" fill="#000000" fill-rule="nonzero" fill-opacity="1" /><path clip-path="url(#clip460)" d="M152.449 3130.79 L157.333 3130.79 L157.333 3136.67 L152.449 3136.67 L152.449 3130.79 Z" fill="#000000" fill-rule="nonzero" fill-opacity="1" /><path clip-path="url(#clip460)" d="M171.546 3132.74 L187.865 3132.74 L187.865 3136.67 L165.921 3136.67 L165.921 3132.74 Q168.583 3129.98 173.166 3125.36 Q177.773 3120.7 178.953 3119.36 Q181.199 3116.84 182.078 3115.1 Q182.981 3113.34 182.981 3111.65 Q182.981 3108.9 181.036 3107.16 Q179.115 3105.42 176.013 3105.42 Q173.814 3105.42 171.361 3106.19 Q168.93 3106.95 166.152 3108.5 L166.152 3103.78 Q168.976 3102.65 171.43 3102.07 Q173.884 3101.49 175.921 3101.49 Q181.291 3101.49 184.486 3104.17 Q187.68 3106.86 187.68 3111.35 Q187.68 3113.48 186.87 3115.4 Q186.083 3117.3 183.976 3119.89 Q183.398 3120.56 180.296 3123.78 Q177.194 3126.98 171.546 3132.74 Z" fill="#000000" fill-rule="nonzero" fill-opacity="1" /><path clip-path="url(#clip460)" d="M130.69 2212.64 Q127.078 2212.64 125.25 2216.2 Q123.444 2219.75 123.444 2226.88 Q123.444 2233.98 125.25 2237.55 Q127.078 2241.09 130.69 2241.09 Q134.324 2241.09 136.129 2237.55 Q137.958 2233.98 137.958 2226.88 Q137.958 2219.75 136.129 2216.2 Q134.324 2212.64 130.69 2212.64 M130.69 2208.94 Q136.5 2208.94 139.555 2213.54 Q142.634 2218.13 142.634 2226.88 Q142.634 2235.6 139.555 2240.21 Q136.5 2244.79 130.69 2244.79 Q124.879 2244.79 121.801 2240.21 Q118.745 2235.6 118.745 2226.88 Q118.745 2218.13 121.801 2213.54 Q124.879 2208.94 130.69 2208.94 Z" fill="#000000" fill-rule="nonzero" fill-opacity="1" /><path clip-path="url(#clip460)" d="M150.851 2238.24 L155.736 2238.24 L155.736 2244.12 L150.851 2244.12 L150.851 2238.24 Z" fill="#000000" fill-rule="nonzero" fill-opacity="1" /><path clip-path="url(#clip460)" d="M175.921 2212.64 Q172.31 2212.64 170.481 2216.2 Q168.675 2219.75 168.675 2226.88 Q168.675 2233.98 170.481 2237.55 Q172.31 2241.09 175.921 2241.09 Q179.555 2241.09 181.361 2237.55 Q183.189 2233.98 183.189 2226.88 Q183.189 2219.75 181.361 2216.2 Q179.555 2212.64 175.921 2212.64 M175.921 2208.94 Q181.731 2208.94 184.786 2213.54 Q187.865 2218.13 187.865 2226.88 Q187.865 2235.6 184.786 2240.21 Q181.731 2244.79 175.921 2244.79 Q170.111 2244.79 167.032 2240.21 Q163.976 2235.6 163.976 2226.88 Q163.976 2218.13 167.032 2213.54 Q170.111 2208.94 175.921 2208.94 Z" fill="#000000" fill-rule="nonzero" fill-opacity="1" /><path clip-path="url(#clip460)" d="M132.287 1320.09 Q128.676 1320.09 126.847 1323.65 Q125.041 1327.19 125.041 1334.32 Q125.041 1341.43 126.847 1344.99 Q128.676 1348.54 132.287 1348.54 Q135.921 1348.54 137.727 1344.99 Q139.555 1341.43 139.555 1334.32 Q139.555 1327.19 137.727 1323.65 Q135.921 1320.09 132.287 1320.09 M132.287 1316.38 Q138.097 1316.38 141.152 1320.99 Q144.231 1325.57 144.231 1334.32 Q144.231 1343.05 141.152 1347.66 Q138.097 1352.24 132.287 1352.24 Q126.477 1352.24 123.398 1347.66 Q120.342 1343.05 120.342 1334.32 Q120.342 1325.57 123.398 1320.99 Q126.477 1316.38 132.287 1316.38 Z" fill="#000000" fill-rule="nonzero" fill-opacity="1" /><path clip-path="url(#clip460)" d="M152.449 1345.69 L157.333 1345.69 L157.333 1351.57 L152.449 1351.57 L152.449 1345.69 Z" fill="#000000" fill-rule="nonzero" fill-opacity="1" /><path clip-path="url(#clip460)" d="M171.546 1347.63 L187.865 1347.63 L187.865 1351.57 L165.921 1351.57 L165.921 1347.63 Q168.583 1344.88 173.166 1340.25 Q177.773 1335.6 178.953 1334.25 Q181.199 1331.73 182.078 1329.99 Q182.981 1328.23 182.981 1326.54 Q182.981 1323.79 181.036 1322.05 Q179.115 1320.32 176.013 1320.32 Q173.814 1320.32 171.361 1321.08 Q168.93 1321.85 166.152 1323.4 L166.152 1318.67 Q168.976 1317.54 171.43 1316.96 Q173.884 1316.38 175.921 1316.38 Q181.291 1316.38 184.486 1319.07 Q187.68 1321.75 187.68 1326.24 Q187.68 1328.37 186.87 1330.29 Q186.083 1332.19 183.976 1334.79 Q183.398 1335.46 180.296 1338.67 Q177.194 1341.87 171.546 1347.63 Z" fill="#000000" fill-rule="nonzero" fill-opacity="1" /><path clip-path="url(#clip460)" d="M130.203 427.533 Q126.592 427.533 124.764 431.097 Q122.958 434.639 122.958 441.769 Q122.958 448.875 124.764 452.44 Q126.592 455.982 130.203 455.982 Q133.838 455.982 135.643 452.44 Q137.472 448.875 137.472 441.769 Q137.472 434.639 135.643 431.097 Q133.838 427.533 130.203 427.533 M130.203 423.829 Q136.014 423.829 139.069 428.435 Q142.148 433.019 142.148 441.769 Q142.148 450.496 139.069 455.102 Q136.014 459.685 130.203 459.685 Q124.393 459.685 121.315 455.102 Q118.259 450.496 118.259 441.769 Q118.259 433.019 121.315 428.435 Q124.393 423.829 130.203 423.829 Z" fill="#000000" fill-rule="nonzero" fill-opacity="1" /><path clip-path="url(#clip460)" d="M150.365 453.134 L155.25 453.134 L155.25 459.014 L150.365 459.014 L150.365 453.134 Z" fill="#000000" fill-rule="nonzero" fill-opacity="1" /><path clip-path="url(#clip460)" d="M178.282 428.528 L166.476 446.977 L178.282 446.977 L178.282 428.528 M177.055 424.454 L182.935 424.454 L182.935 446.977 L187.865 446.977 L187.865 450.866 L182.935 450.866 L182.935 459.014 L178.282 459.014 L178.282 450.866 L162.68 450.866 L162.68 446.352 L177.055 424.454 Z" fill="#000000" fill-rule="nonzero" fill-opacity="1" /><path clip-path="url(#clip460)" d="M-49.0208 2352.85 L-96.5408 2371 L-96.5408 2364.28 L-56.5324 2349.23 L-96.5408 2334.14 L-96.5408 2327.46 L-49.0208 2345.57 L-49.0208 2352.85 Z" fill="#000000" fill-rule="nonzero" fill-opacity="1" /><path clip-path="url(#clip460)" d="M-68.3089 2295.34 L-65.4444 2295.34 L-65.4444 2322.27 Q-59.3969 2321.89 -56.2141 2318.64 Q-53.0631 2315.36 -53.0631 2309.54 Q-53.0631 2306.16 -53.8906 2303.01 Q-54.7181 2299.83 -56.3732 2296.71 L-50.8351 2296.71 Q-49.4983 2299.86 -48.798 2303.17 Q-48.0978 2306.48 -48.0978 2309.89 Q-48.0978 2318.42 -53.0631 2323.41 Q-58.0283 2328.38 -66.4947 2328.38 Q-75.2476 2328.38 -80.3719 2323.67 Q-85.5282 2318.93 -85.5282 2310.9 Q-85.5282 2303.71 -80.8812 2299.54 Q-76.2661 2295.34 -68.3089 2295.34 M-70.0277 2301.2 Q-74.8338 2301.26 -77.6984 2303.9 Q-80.5629 2306.51 -80.5629 2310.84 Q-80.5629 2315.74 -77.7938 2318.7 Q-75.0248 2321.63 -69.9958 2322.08 L-70.0277 2301.2 Z" fill="#000000" fill-rule="nonzero" fill-opacity="1" /><path clip-path="url(#clip460)" d="M-98.546 2285.73 L-98.546 2279.87 L-49.0208 2279.87 L-49.0208 2285.73 L-98.546 2285.73 Z" fill="#000000" fill-rule="nonzero" fill-opacity="1" /><path clip-path="url(#clip460)" d="M-80.5629 2253.8 Q-80.5629 2258.51 -76.8708 2261.25 Q-73.2105 2263.99 -66.813 2263.99 Q-60.4155 2263.99 -56.7233 2261.28 Q-53.0631 2258.55 -53.0631 2253.8 Q-53.0631 2249.13 -56.7552 2246.39 Q-60.4473 2243.65 -66.813 2243.65 Q-73.1469 2243.65 -76.839 2246.39 Q-80.5629 2249.13 -80.5629 2253.8 M-85.5282 2253.8 Q-85.5282 2246.17 -80.5629 2241.8 Q-75.5977 2237.44 -66.813 2237.44 Q-58.0601 2237.44 -53.0631 2241.8 Q-48.0978 2246.17 -48.0978 2253.8 Q-48.0978 2261.47 -53.0631 2265.84 Q-58.0601 2270.16 -66.813 2270.16 Q-75.5977 2270.16 -80.5629 2265.84 Q-85.5282 2261.47 -85.5282 2253.8 Z" fill="#000000" fill-rule="nonzero" fill-opacity="1" /><path clip-path="url(#clip460)" d="M-83.3002 2202.08 L-77.8257 2202.08 Q-79.1943 2204.57 -79.8627 2207.08 Q-80.5629 2209.56 -80.5629 2212.11 Q-80.5629 2217.81 -76.9345 2220.96 Q-73.3378 2224.11 -66.813 2224.11 Q-60.2881 2224.11 -56.6597 2220.96 Q-53.0631 2217.81 -53.0631 2212.11 Q-53.0631 2209.56 -53.7315 2207.08 Q-54.4317 2204.57 -55.8003 2202.08 L-50.3895 2202.08 Q-49.2436 2204.53 -48.6707 2207.18 Q-48.0978 2209.79 -48.0978 2212.75 Q-48.0978 2220.8 -53.1586 2225.54 Q-58.2193 2230.28 -66.813 2230.28 Q-75.534 2230.28 -80.5311 2225.51 Q-85.5282 2220.7 -85.5282 2212.36 Q-85.5282 2209.66 -84.9553 2207.08 Q-84.4142 2204.5 -83.3002 2202.08 Z" fill="#000000" fill-rule="nonzero" fill-opacity="1" /><path clip-path="url(#clip460)" d="M-84.6688 2191.9 L-84.6688 2186.04 L-49.0208 2186.04 L-49.0208 2191.9 L-84.6688 2191.9 M-98.546 2191.9 L-98.546 2186.04 L-91.13 2186.04 L-91.13 2191.9 L-98.546 2191.9 Z" fill="#000000" fill-rule="nonzero" fill-opacity="1" /><path clip-path="url(#clip460)" d="M-79.2579 2150.33 L-98.546 2150.33 L-98.546 2144.47 L-49.0208 2144.47 L-49.0208 2150.33 L-54.368 2150.33 Q-51.1852 2152.18 -49.6256 2155.01 Q-48.0978 2157.81 -48.0978 2161.76 Q-48.0978 2168.22 -53.254 2172.29 Q-58.4103 2176.33 -66.813 2176.33 Q-75.2157 2176.33 -80.3719 2172.29 Q-85.5282 2168.22 -85.5282 2161.76 Q-85.5282 2157.81 -83.9686 2155.01 Q-82.4408 2152.18 -79.2579 2150.33 M-66.813 2170.29 Q-60.3518 2170.29 -56.6597 2167.64 Q-52.9994 2164.97 -52.9994 2160.32 Q-52.9994 2155.68 -56.6597 2153 Q-60.3518 2150.33 -66.813 2150.33 Q-73.2742 2150.33 -76.9345 2153 Q-80.6266 2155.68 -80.6266 2160.32 Q-80.6266 2164.97 -76.9345 2167.64 Q-73.2742 2170.29 -66.813 2170.29 Z" fill="#000000" fill-rule="nonzero" fill-opacity="1" /><path clip-path="url(#clip460)" d="M-66.9403 2116.21 Q-66.9403 2123.31 -65.3171 2126.04 Q-63.6938 2128.78 -59.7789 2128.78 Q-56.6597 2128.78 -54.8136 2126.74 Q-52.9994 2124.68 -52.9994 2121.14 Q-52.9994 2116.27 -56.4369 2113.34 Q-59.9062 2110.38 -65.6353 2110.38 L-66.9403 2110.38 L-66.9403 2116.21 M-69.3593 2104.53 L-49.0208 2104.53 L-49.0208 2110.38 L-54.4317 2110.38 Q-51.1852 2112.39 -49.6256 2115.38 Q-48.0978 2118.37 -48.0978 2122.7 Q-48.0978 2128.18 -51.1534 2131.42 Q-54.2407 2134.64 -59.3969 2134.64 Q-65.4125 2134.64 -68.4681 2130.63 Q-71.5236 2126.59 -71.5236 2118.6 L-71.5236 2110.38 L-72.0965 2110.38 Q-76.1388 2110.38 -78.3349 2113.06 Q-80.5629 2115.7 -80.5629 2120.51 Q-80.5629 2123.56 -79.8309 2126.46 Q-79.0988 2129.35 -77.6347 2132.03 L-83.0455 2132.03 Q-84.2869 2128.81 -84.8916 2125.79 Q-85.5282 2122.77 -85.5282 2119.9 Q-85.5282 2112.17 -81.5178 2108.35 Q-77.5074 2104.53 -69.3593 2104.53 Z" fill="#000000" fill-rule="nonzero" fill-opacity="1" /><path clip-path="url(#clip460)" d="M-79.2579 2069.01 L-98.546 2069.01 L-98.546 2063.15 L-49.0208 2063.15 L-49.0208 2069.01 L-54.368 2069.01 Q-51.1852 2070.85 -49.6256 2073.69 Q-48.0978 2076.49 -48.0978 2080.43 Q-48.0978 2086.9 -53.254 2090.97 Q-58.4103 2095.01 -66.813 2095.01 Q-75.2157 2095.01 -80.3719 2090.97 Q-85.5282 2086.9 -85.5282 2080.43 Q-85.5282 2076.49 -83.9686 2073.69 Q-82.4408 2070.85 -79.2579 2069.01 M-66.813 2088.96 Q-60.3518 2088.96 -56.6597 2086.32 Q-52.9994 2083.65 -52.9994 2079 Q-52.9994 2074.35 -56.6597 2071.68 Q-60.3518 2069.01 -66.813 2069.01 Q-73.2742 2069.01 -76.9345 2071.68 Q-80.6266 2074.35 -80.6266 2079 Q-80.6266 2083.65 -76.9345 2086.32 Q-73.2742 2088.96 -66.813 2088.96 Z" fill="#000000" fill-rule="nonzero" fill-opacity="1" /><path clip-path="url(#clip460)" d="M-98.4824 2016.3 Q-91.1618 2020.56 -84.0004 2022.63 Q-76.839 2024.7 -69.4866 2024.7 Q-62.1342 2024.7 -54.9091 2022.63 Q-47.7159 2020.53 -40.4271 2016.3 L-40.4271 2021.39 Q-47.9068 2026.17 -55.1319 2028.55 Q-62.357 2030.91 -69.4866 2030.91 Q-76.5844 2030.91 -83.7776 2028.55 Q-90.9708 2026.2 -98.4824 2021.39 L-98.4824 2016.3 Z" fill="#000000" fill-rule="nonzero" fill-opacity="1" /><path clip-path="url(#clip460)" d="M-77.8257 1977.18 Q-81.7724 1974.99 -83.6503 1971.93 Q-85.5282 1968.88 -85.5282 1964.74 Q-85.5282 1959.17 -81.6133 1956.14 Q-77.7302 1953.12 -70.5369 1953.12 L-49.0208 1953.12 L-49.0208 1959.01 L-70.346 1959.01 Q-75.4704 1959.01 -77.953 1960.82 Q-80.4356 1962.64 -80.4356 1966.36 Q-80.4356 1970.91 -77.4119 1973.55 Q-74.3882 1976.2 -69.1683 1976.2 L-49.0208 1976.2 L-49.0208 1982.08 L-70.346 1982.08 Q-75.5022 1982.08 -77.953 1983.9 Q-80.4356 1985.71 -80.4356 1989.5 Q-80.4356 1993.99 -77.3801 1996.63 Q-74.3564 1999.27 -69.1683 1999.27 L-49.0208 1999.27 L-49.0208 2005.16 L-84.6688 2005.16 L-84.6688 1999.27 L-79.1306 1999.27 Q-82.409 1997.27 -83.9686 1994.47 Q-85.5282 1991.66 -85.5282 1987.81 Q-85.5282 1983.93 -83.5548 1981.22 Q-81.5814 1978.49 -77.8257 1977.18 Z" fill="#000000" fill-rule="nonzero" fill-opacity="1" /><path clip-path="url(#clip460)" d="M-96.5408 1931.03 L-96.5408 1925.62 L-42.9734 1942.17 L-42.9734 1947.58 L-96.5408 1931.03 Z" fill="#000000" fill-rule="nonzero" fill-opacity="1" /><path clip-path="url(#clip460)" d="M-83.6185 1896.75 L-78.0803 1896.75 Q-79.3534 1899.23 -79.99 1901.91 Q-80.6266 1904.58 -80.6266 1907.45 Q-80.6266 1911.81 -79.2898 1914 Q-77.953 1916.17 -75.2794 1916.17 Q-73.2424 1916.17 -72.0647 1914.61 Q-70.9189 1913.05 -69.8685 1908.34 L-69.4229 1906.33 Q-68.0861 1900.09 -65.6353 1897.48 Q-63.2164 1894.84 -58.8559 1894.84 Q-53.8906 1894.84 -50.9942 1898.79 Q-48.0978 1902.7 -48.0978 1909.58 Q-48.0978 1912.44 -48.6707 1915.56 Q-49.2118 1918.65 -50.3258 1922.09 L-56.3732 1922.09 Q-54.6863 1918.84 -53.827 1915.69 Q-52.9994 1912.54 -52.9994 1909.45 Q-52.9994 1905.31 -54.3999 1903.09 Q-55.8321 1900.86 -58.4103 1900.86 Q-60.7974 1900.86 -62.0705 1902.48 Q-63.3437 1904.07 -64.5213 1909.52 L-64.9988 1911.55 Q-66.1446 1916.99 -68.4999 1919.41 Q-70.887 1921.83 -75.0248 1921.83 Q-80.0537 1921.83 -82.7909 1918.27 Q-85.5282 1914.7 -85.5282 1908.15 Q-85.5282 1904.9 -85.0507 1902.04 Q-84.5733 1899.17 -83.6185 1896.75 Z" fill="#000000" fill-rule="nonzero" fill-opacity="1" /><path clip-path="url(#clip460)" d="M-98.4824 1886.44 L-98.4824 1881.35 Q-90.9708 1876.57 -83.7776 1874.22 Q-76.5844 1871.83 -69.4866 1871.83 Q-62.357 1871.83 -55.1319 1874.22 Q-47.9068 1876.57 -40.4271 1881.35 L-40.4271 1886.44 Q-47.7159 1882.21 -54.9091 1880.14 Q-62.1342 1878.04 -69.4866 1878.04 Q-76.839 1878.04 -84.0004 1880.14 Q-91.1618 1882.21 -98.4824 1886.44 Z" fill="#000000" fill-rule="nonzero" fill-opacity="1" /><path clip-path="url(#clip460)" d="M3290.09 72.576 L3267 12.096 L3275.55 12.096 L3294.71 63.0159 L3313.91 12.096 L3322.42 12.096 L3299.37 72.576 L3290.09 72.576 Z" fill="#000000" fill-rule="nonzero" fill-opacity="1" /><path clip-path="url(#clip460)" d="M3363.29 48.0275 L3363.29 51.6733 L3329.02 51.6733 Q3329.51 59.3701 3333.64 63.421 Q3337.81 67.4314 3345.23 67.4314 Q3349.52 67.4314 3353.53 66.3781 Q3357.58 65.3249 3361.55 63.2184 L3361.55 70.267 Q3357.54 71.9684 3353.33 72.8596 Q3349.11 73.7508 3344.78 73.7508 Q3333.92 73.7508 3327.56 67.4314 Q3321.24 61.1119 3321.24 50.3365 Q3321.24 39.1965 3327.24 32.6746 Q3333.28 26.1121 3343.48 26.1121 Q3352.64 26.1121 3357.95 32.0264 Q3363.29 37.9003 3363.29 48.0275 M3355.84 45.84 Q3355.76 39.7232 3352.4 36.0774 Q3349.07 32.4315 3343.56 32.4315 Q3337.33 32.4315 3333.56 35.9558 Q3329.83 39.4801 3329.27 45.8805 L3355.84 45.84 Z" fill="#000000" fill-rule="nonzero" fill-opacity="1" /><path clip-path="url(#clip460)" d="M3375.53 9.54393 L3382.98 9.54393 L3382.98 72.576 L3375.53 72.576 L3375.53 9.54393 Z" fill="#000000" fill-rule="nonzero" fill-opacity="1" /><path clip-path="url(#clip460)" d="M3416.16 32.4315 Q3410.16 32.4315 3406.68 37.1306 Q3403.19 41.7891 3403.19 49.9314 Q3403.19 58.0738 3406.64 62.7728 Q3410.12 67.4314 3416.16 67.4314 Q3422.11 67.4314 3425.6 62.7323 Q3429.08 58.0333 3429.08 49.9314 Q3429.08 41.8701 3425.6 37.1711 Q3422.11 32.4315 3416.16 32.4315 M3416.16 26.1121 Q3425.88 26.1121 3431.43 32.4315 Q3436.98 38.7509 3436.98 49.9314 Q3436.98 61.0714 3431.43 67.4314 Q3425.88 73.7508 3416.16 73.7508 Q3406.39 73.7508 3400.84 67.4314 Q3395.34 61.0714 3395.34 49.9314 Q3395.34 38.7509 3400.84 32.4315 Q3406.39 26.1121 3416.16 26.1121 Z" fill="#000000" fill-rule="nonzero" fill-opacity="1" /><path clip-path="url(#clip460)" d="M3481.98 28.9478 L3481.98 35.9153 Q3478.82 34.1734 3475.62 33.3227 Q3472.46 32.4315 3469.22 32.4315 Q3461.97 32.4315 3457.96 37.0496 Q3453.95 41.6271 3453.95 49.9314 Q3453.95 58.2358 3457.96 62.8538 Q3461.97 67.4314 3469.22 67.4314 Q3472.46 67.4314 3475.62 66.5807 Q3478.82 65.6895 3481.98 63.9476 L3481.98 70.8341 Q3478.87 72.2924 3475.5 73.0216 Q3472.18 73.7508 3468.41 73.7508 Q3458.16 73.7508 3452.13 67.3098 Q3446.09 60.8689 3446.09 49.9314 Q3446.09 38.832 3452.17 32.472 Q3458.29 26.1121 3468.9 26.1121 Q3472.34 26.1121 3475.62 26.8413 Q3478.91 27.5299 3481.98 28.9478 Z" fill="#000000" fill-rule="nonzero" fill-opacity="1" /><path clip-path="url(#clip460)" d="M3494.95 27.2059 L3502.4 27.2059 L3502.4 72.576 L3494.95 72.576 L3494.95 27.2059 M3494.95 9.54393 L3502.4 9.54393 L3502.4 18.9825 L3494.95 18.9825 L3494.95 9.54393 Z" fill="#000000" fill-rule="nonzero" fill-opacity="1" /><path clip-path="url(#clip460)" d="M3547.85 34.0924 L3547.85 9.54393 L3555.31 9.54393 L3555.31 72.576 L3547.85 72.576 L3547.85 65.7705 Q3545.5 69.8214 3541.9 71.8063 Q3538.33 73.7508 3533.31 73.7508 Q3525.09 73.7508 3519.9 67.1883 Q3514.76 60.6258 3514.76 49.9314 Q3514.76 39.2371 3519.9 32.6746 Q3525.09 26.1121 3533.31 26.1121 Q3538.33 26.1121 3541.9 28.0971 Q3545.5 30.0415 3547.85 34.0924 M3522.45 49.9314 Q3522.45 58.1548 3525.82 62.8538 Q3529.22 67.5124 3535.13 67.5124 Q3541.05 67.5124 3544.45 62.8538 Q3547.85 58.1548 3547.85 49.9314 Q3547.85 41.7081 3544.45 37.0496 Q3541.05 32.3505 3535.13 32.3505 Q3529.22 32.3505 3525.82 37.0496 Q3522.45 41.7081 3522.45 49.9314 Z" fill="#000000" fill-rule="nonzero" fill-opacity="1" /><path clip-path="url(#clip460)" d="M3591.28 49.7694 Q3582.24 49.7694 3578.76 51.8354 Q3575.28 53.9013 3575.28 58.8839 Q3575.28 62.8538 3577.87 65.2034 Q3580.5 67.5124 3585 67.5124 Q3591.2 67.5124 3594.92 63.1374 Q3598.69 58.7219 3598.69 51.4303 L3598.69 49.7694 L3591.28 49.7694 M3606.14 46.6907 L3606.14 72.576 L3598.69 72.576 L3598.69 65.6895 Q3596.14 69.8214 3592.33 71.8063 Q3588.52 73.7508 3583.01 73.7508 Q3576.05 73.7508 3571.91 69.8619 Q3567.82 65.9325 3567.82 59.3701 Q3567.82 51.7138 3572.93 47.825 Q3578.07 43.9361 3588.24 43.9361 L3598.69 43.9361 L3598.69 43.2069 Q3598.69 38.0623 3595.29 35.2672 Q3591.93 32.4315 3585.81 32.4315 Q3581.92 32.4315 3578.23 33.3632 Q3574.55 34.295 3571.14 36.1584 L3571.14 29.2718 Q3575.24 27.692 3579.08 26.9223 Q3582.93 26.1121 3586.58 26.1121 Q3596.42 26.1121 3601.28 31.2163 Q3606.14 36.3204 3606.14 46.6907 Z" fill="#000000" fill-rule="nonzero" fill-opacity="1" /><path clip-path="url(#clip460)" d="M3651.35 34.0924 L3651.35 9.54393 L3658.81 9.54393 L3658.81 72.576 L3651.35 72.576 L3651.35 65.7705 Q3649 69.8214 3645.4 71.8063 Q3641.83 73.7508 3636.81 73.7508 Q3628.59 73.7508 3623.4 67.1883 Q3618.26 60.6258 3618.26 49.9314 Q3618.26 39.2371 3623.4 32.6746 Q3628.59 26.1121 3636.81 26.1121 Q3641.83 26.1121 3645.4 28.0971 Q3649 30.0415 3651.35 34.0924 M3625.95 49.9314 Q3625.95 58.1548 3629.32 62.8538 Q3632.72 67.5124 3638.63 67.5124 Q3644.55 67.5124 3647.95 62.8538 Q3651.35 58.1548 3651.35 49.9314 Q3651.35 41.7081 3647.95 37.0496 Q3644.55 32.3505 3638.63 32.3505 Q3632.72 32.3505 3629.32 37.0496 Q3625.95 41.7081 3625.95 49.9314 Z" fill="#000000" fill-rule="nonzero" fill-opacity="1" /><path clip-path="url(#clip460)" d="M3712.97 48.0275 L3712.97 51.6733 L3678.7 51.6733 Q3679.18 59.3701 3683.31 63.421 Q3687.49 67.4314 3694.9 67.4314 Q3699.19 67.4314 3703.2 66.3781 Q3707.26 65.3249 3711.22 63.2184 L3711.22 70.267 Q3707.21 71.9684 3703 72.8596 Q3698.79 73.7508 3694.45 73.7508 Q3683.6 73.7508 3677.24 67.4314 Q3670.92 61.1119 3670.92 50.3365 Q3670.92 39.1965 3676.91 32.6746 Q3682.95 26.1121 3693.16 26.1121 Q3702.31 26.1121 3707.62 32.0264 Q3712.97 37.9003 3712.97 48.0275 M3705.51 45.84 Q3705.43 39.7232 3702.07 36.0774 Q3698.75 32.4315 3693.24 32.4315 Q3687 32.4315 3683.23 35.9558 Q3679.51 39.4801 3678.94 45.8805 L3705.51 45.84 Z" fill="#000000" fill-rule="nonzero" fill-opacity="1" /><path clip-path="url(#clip460)" d="M3754.12 28.5427 L3754.12 35.5912 Q3750.96 33.9709 3747.56 33.1607 Q3744.16 32.3505 3740.51 32.3505 Q3734.96 32.3505 3732.17 34.0519 Q3729.41 35.7533 3729.41 39.156 Q3729.41 41.7486 3731.4 43.2475 Q3733.38 44.7058 3739.38 46.0426 L3741.93 46.6097 Q3749.87 48.3111 3753.19 51.4303 Q3756.55 54.509 3756.55 60.0587 Q3756.55 66.3781 3751.53 70.0644 Q3746.55 73.7508 3737.8 73.7508 Q3734.15 73.7508 3730.18 73.0216 Q3726.25 72.3329 3721.88 70.9151 L3721.88 63.2184 Q3726.01 65.3654 3730.02 66.4591 Q3734.03 67.5124 3737.96 67.5124 Q3743.23 67.5124 3746.06 65.73 Q3748.9 63.9071 3748.9 60.6258 Q3748.9 57.5877 3746.83 55.9673 Q3744.81 54.3469 3737.88 52.8481 L3735.29 52.2405 Q3728.36 50.7821 3725.28 47.7845 Q3722.2 44.7463 3722.2 39.4801 Q3722.2 33.0797 3726.74 29.5959 Q3731.28 26.1121 3739.62 26.1121 Q3743.75 26.1121 3747.4 26.7198 Q3751.05 27.3274 3754.12 28.5427 Z" fill="#000000" fill-rule="nonzero" fill-opacity="1" /><path clip-path="url(#clip460)" d="M3823.8 44.2197 Q3826.43 45.1109 3828.9 48.0275 Q3831.42 50.9442 3833.93 56.0483 L3842.23 72.576 L3833.44 72.576 L3825.7 57.061 Q3822.71 50.9847 3819.87 48.9997 Q3817.08 47.0148 3812.21 47.0148 L3803.3 47.0148 L3803.3 72.576 L3795.12 72.576 L3795.12 12.096 L3813.59 12.096 Q3823.96 12.096 3829.07 16.4305 Q3834.17 20.7649 3834.17 29.5149 Q3834.17 35.2267 3831.5 38.994 Q3828.86 42.7613 3823.8 44.2197 M3803.3 18.8205 L3803.3 40.2903 L3813.59 40.2903 Q3819.51 40.2903 3822.5 37.5762 Q3825.54 34.8216 3825.54 29.5149 Q3825.54 24.2082 3822.5 21.5346 Q3819.51 18.8205 3813.59 18.8205 L3803.3 18.8205 Z" fill="#000000" fill-rule="nonzero" fill-opacity="1" /><path clip-path="url(#clip460)" d="M3887.52 48.0275 L3887.52 51.6733 L3853.25 51.6733 Q3853.74 59.3701 3857.87 63.421 Q3862.04 67.4314 3869.45 67.4314 Q3873.75 67.4314 3877.76 66.3781 Q3881.81 65.3249 3885.78 63.2184 L3885.78 70.267 Q3881.77 71.9684 3877.56 72.8596 Q3873.34 73.7508 3869.01 73.7508 Q3858.15 73.7508 3851.79 67.4314 Q3845.47 61.1119 3845.47 50.3365 Q3845.47 39.1965 3851.47 32.6746 Q3857.5 26.1121 3867.71 26.1121 Q3876.87 26.1121 3882.17 32.0264 Q3887.52 37.9003 3887.52 48.0275 M3880.07 45.84 Q3879.99 39.7232 3876.62 36.0774 Q3873.3 32.4315 3867.79 32.4315 Q3861.55 32.4315 3857.79 35.9558 Q3854.06 39.4801 3853.49 45.8805 L3880.07 45.84 Z" fill="#000000" fill-rule="nonzero" fill-opacity="1" /><path clip-path="url(#clip460)" d="M3899.75 9.54393 L3907.21 9.54393 L3907.21 72.576 L3899.75 72.576 L3899.75 9.54393 Z" fill="#000000" fill-rule="nonzero" fill-opacity="1" /><path clip-path="url(#clip460)" d="M3943.42 49.7694 Q3934.39 49.7694 3930.91 51.8354 Q3927.42 53.9013 3927.42 58.8839 Q3927.42 62.8538 3930.01 65.2034 Q3932.65 67.5124 3937.14 67.5124 Q3943.34 67.5124 3947.07 63.1374 Q3950.84 58.7219 3950.84 51.4303 L3950.84 49.7694 L3943.42 49.7694 M3958.29 46.6907 L3958.29 72.576 L3950.84 72.576 L3950.84 65.6895 Q3948.28 69.8214 3944.48 71.8063 Q3940.67 73.7508 3935.16 73.7508 Q3928.19 73.7508 3924.06 69.8619 Q3919.97 65.9325 3919.97 59.3701 Q3919.97 51.7138 3925.07 47.825 Q3930.22 43.9361 3940.38 43.9361 L3950.84 43.9361 L3950.84 43.2069 Q3950.84 38.0623 3947.43 35.2672 Q3944.07 32.4315 3937.95 32.4315 Q3934.07 32.4315 3930.38 33.3632 Q3926.69 34.295 3923.29 36.1584 L3923.29 29.2718 Q3927.38 27.692 3931.23 26.9223 Q3935.08 26.1121 3938.72 26.1121 Q3948.57 26.1121 3953.43 31.2163 Q3958.29 36.3204 3958.29 46.6907 Z" fill="#000000" fill-rule="nonzero" fill-opacity="1" /><path clip-path="url(#clip460)" d="M3981.02 14.324 L3981.02 27.2059 L3996.37 27.2059 L3996.37 32.9987 L3981.02 32.9987 L3981.02 57.6282 Q3981.02 63.1779 3982.51 64.7578 Q3984.05 66.3376 3988.71 66.3376 L3996.37 66.3376 L3996.37 72.576 L3988.71 72.576 Q3980.08 72.576 3976.8 69.3758 Q3973.52 66.1351 3973.52 57.6282 L3973.52 32.9987 L3968.05 32.9987 L3968.05 27.2059 L3973.52 27.2059 L3973.52 14.324 L3981.02 14.324 Z" fill="#000000" fill-rule="nonzero" fill-opacity="1" /><path clip-path="url(#clip460)" d="M4006.17 27.2059 L4013.62 27.2059 L4013.62 72.576 L4006.17 72.576 L4006.17 27.2059 M4006.17 9.54393 L4013.62 9.54393 L4013.62 18.9825 L4006.17 18.9825 L4006.17 9.54393 Z" fill="#000000" fill-rule="nonzero" fill-opacity="1" /><path clip-path="url(#clip460)" d="M4023.87 27.2059 L4031.77 27.2059 L4045.95 65.2844 L4060.13 27.2059 L4068.03 27.2059 L4051.01 72.576 L4040.89 72.576 L4023.87 27.2059 Z" fill="#000000" fill-rule="nonzero" fill-opacity="1" /><path clip-path="url(#clip460)" d="M4098.94 49.7694 Q4089.9 49.7694 4086.42 51.8354 Q4082.94 53.9013 4082.94 58.8839 Q4082.94 62.8538 4085.53 65.2034 Q4088.16 67.5124 4092.66 67.5124 Q4098.86 67.5124 4102.58 63.1374 Q4106.35 58.7219 4106.35 51.4303 L4106.35 49.7694 L4098.94 49.7694 M4113.8 46.6907 L4113.8 72.576 L4106.35 72.576 L4106.35 65.6895 Q4103.8 69.8214 4099.99 71.8063 Q4096.18 73.7508 4090.67 73.7508 Q4083.71 73.7508 4079.57 69.8619 Q4075.48 65.9325 4075.48 59.3701 Q4075.48 51.7138 4080.59 47.825 Q4085.73 43.9361 4095.9 43.9361 L4106.35 43.9361 L4106.35 43.2069 Q4106.35 38.0623 4102.95 35.2672 Q4099.59 32.4315 4093.47 32.4315 Q4089.58 32.4315 4085.89 33.3632 Q4082.21 34.295 4078.8 36.1584 L4078.8 29.2718 Q4082.9 27.692 4086.74 26.9223 Q4090.59 26.1121 4094.24 26.1121 Q4104.08 26.1121 4108.94 31.2163 Q4113.8 36.3204 4113.8 46.6907 Z" fill="#000000" fill-rule="nonzero" fill-opacity="1" /><path clip-path="url(#clip460)" d="M4158.08 28.5427 L4158.08 35.5912 Q4154.92 33.9709 4151.52 33.1607 Q4148.11 32.3505 4144.47 32.3505 Q4138.92 32.3505 4136.12 34.0519 Q4133.37 35.7533 4133.37 39.156 Q4133.37 41.7486 4135.35 43.2475 Q4137.34 44.7058 4143.33 46.0426 L4145.89 46.6097 Q4153.83 48.3111 4157.15 51.4303 Q4160.51 54.509 4160.51 60.0587 Q4160.51 66.3781 4155.49 70.0644 Q4150.51 73.7508 4141.76 73.7508 Q4138.11 73.7508 4134.14 73.0216 Q4130.21 72.3329 4125.84 70.9151 L4125.84 63.2184 Q4129.97 65.3654 4133.98 66.4591 Q4137.99 67.5124 4141.92 67.5124 Q4147.18 67.5124 4150.02 65.73 Q4152.85 63.9071 4152.85 60.6258 Q4152.85 57.5877 4150.79 55.9673 Q4148.76 54.3469 4141.84 52.8481 L4139.24 52.2405 Q4132.32 50.7821 4129.24 47.7845 Q4126.16 44.7463 4126.16 39.4801 Q4126.16 33.0797 4130.7 29.5959 Q4135.23 26.1121 4143.58 26.1121 Q4147.71 26.1121 4151.36 26.7198 Q4155 27.3274 4158.08 28.5427 Z" fill="#000000" fill-rule="nonzero" fill-opacity="1" /><path clip-path="url(#clip460)" d="M4228.61 34.0924 L4228.61 9.54393 L4236.06 9.54393 L4236.06 72.576 L4228.61 72.576 L4228.61 65.7705 Q4226.26 69.8214 4222.65 71.8063 Q4219.09 73.7508 4214.06 73.7508 Q4205.84 73.7508 4200.66 67.1883 Q4195.51 60.6258 4195.51 49.9314 Q4195.51 39.2371 4200.66 32.6746 Q4205.84 26.1121 4214.06 26.1121 Q4219.09 26.1121 4222.65 28.0971 Q4226.26 30.0415 4228.61 34.0924 M4203.21 49.9314 Q4203.21 58.1548 4206.57 62.8538 Q4209.97 67.5124 4215.89 67.5124 Q4221.8 67.5124 4225.2 62.8538 Q4228.61 58.1548 4228.61 49.9314 Q4228.61 41.7081 4225.2 37.0496 Q4221.8 32.3505 4215.89 32.3505 Q4209.97 32.3505 4206.57 37.0496 Q4203.21 41.7081 4203.21 49.9314 Z" fill="#000000" fill-rule="nonzero" fill-opacity="1" /><path clip-path="url(#clip460)" d="M4290.22 48.0275 L4290.22 51.6733 L4255.95 51.6733 Q4256.44 59.3701 4260.57 63.421 Q4264.74 67.4314 4272.15 67.4314 Q4276.45 67.4314 4280.46 66.3781 Q4284.51 65.3249 4288.48 63.2184 L4288.48 70.267 Q4284.47 71.9684 4280.26 72.8596 Q4276.04 73.7508 4271.71 73.7508 Q4260.85 73.7508 4254.49 67.4314 Q4248.17 61.1119 4248.17 50.3365 Q4248.17 39.1965 4254.17 32.6746 Q4260.2 26.1121 4270.41 26.1121 Q4279.57 26.1121 4284.87 32.0264 Q4290.22 37.9003 4290.22 48.0275 M4282.77 45.84 Q4282.69 39.7232 4279.32 36.0774 Q4276 32.4315 4270.49 32.4315 Q4264.25 32.4315 4260.49 35.9558 Q4256.76 39.4801 4256.19 45.8805 L4282.77 45.84 Z" fill="#000000" fill-rule="nonzero" fill-opacity="1" /><path clip-path="url(#clip460)" d="M4328.83 9.54393 L4336.28 9.54393 L4336.28 72.576 L4328.83 72.576 L4328.83 9.54393 Z" fill="#000000" fill-rule="nonzero" fill-opacity="1" /><path clip-path="url(#clip460)" d="M4369.46 32.4315 Q4363.46 32.4315 4359.98 37.1306 Q4356.49 41.7891 4356.49 49.9314 Q4356.49 58.0738 4359.94 62.7728 Q4363.42 67.4314 4369.46 67.4314 Q4375.41 67.4314 4378.9 62.7323 Q4382.38 58.0333 4382.38 49.9314 Q4382.38 41.8701 4378.9 37.1711 Q4375.41 32.4315 4369.46 32.4315 M4369.46 26.1121 Q4379.18 26.1121 4384.73 32.4315 Q4390.28 38.7509 4390.28 49.9314 Q4390.28 61.0714 4384.73 67.4314 Q4379.18 73.7508 4369.46 73.7508 Q4359.69 73.7508 4354.14 67.4314 Q4348.63 61.0714 4348.63 49.9314 Q4348.63 38.7509 4354.14 32.4315 Q4359.69 26.1121 4369.46 26.1121 Z" fill="#000000" fill-rule="nonzero" fill-opacity="1" /><path clip-path="url(#clip460)" d="M4431.56 28.5427 L4431.56 35.5912 Q4428.4 33.9709 4424.99 33.1607 Q4421.59 32.3505 4417.95 32.3505 Q4412.4 32.3505 4409.6 34.0519 Q4406.85 35.7533 4406.85 39.156 Q4406.85 41.7486 4408.83 43.2475 Q4410.82 44.7058 4416.81 46.0426 L4419.36 46.6097 Q4427.3 48.3111 4430.63 51.4303 Q4433.99 54.509 4433.99 60.0587 Q4433.99 66.3781 4428.96 70.0644 Q4423.98 73.7508 4415.23 73.7508 Q4411.59 73.7508 4407.62 73.0216 Q4403.69 72.3329 4399.31 70.9151 L4399.31 63.2184 Q4403.44 65.3654 4407.45 66.4591 Q4411.46 67.5124 4415.39 67.5124 Q4420.66 67.5124 4423.5 65.73 Q4426.33 63.9071 4426.33 60.6258 Q4426.33 57.5877 4424.27 55.9673 Q4422.24 54.3469 4415.31 52.8481 L4412.72 52.2405 Q4405.79 50.7821 4402.71 47.7845 Q4399.64 44.7463 4399.64 39.4801 Q4399.64 33.0797 4404.17 29.5959 Q4408.71 26.1121 4417.05 26.1121 Q4421.19 26.1121 4424.83 26.7198 Q4428.48 27.3274 4431.56 28.5427 Z" fill="#000000" fill-rule="nonzero" fill-opacity="1" /><path clip-path="url(#clip460)" d="M4480.73 18.8205 L4480.73 41.5461 L4491.02 41.5461 Q4496.74 41.5461 4499.86 38.5889 Q4502.97 35.6318 4502.97 30.163 Q4502.97 24.7348 4499.86 21.7777 Q4496.74 18.8205 4491.02 18.8205 L4480.73 18.8205 M4472.55 12.096 L4491.02 12.096 Q4501.19 12.096 4506.38 16.714 Q4511.6 21.2916 4511.6 30.163 Q4511.6 39.1155 4506.38 43.6931 Q4501.19 48.2706 4491.02 48.2706 L4480.73 48.2706 L4480.73 72.576 L4472.55 72.576 L4472.55 12.096 Z" fill="#000000" fill-rule="nonzero" fill-opacity="1" /><path clip-path="url(#clip460)" d="M4520.43 27.2059 L4527.89 27.2059 L4527.89 72.576 L4520.43 72.576 L4520.43 27.2059 M4520.43 9.54393 L4527.89 9.54393 L4527.89 18.9825 L4520.43 18.9825 L4520.43 9.54393 Z" fill="#000000" fill-rule="nonzero" fill-opacity="1" /><path clip-path="url(#clip460)" d="M4572.41 28.5427 L4572.41 35.5912 Q4569.25 33.9709 4565.84 33.1607 Q4562.44 32.3505 4558.8 32.3505 Q4553.25 32.3505 4550.45 34.0519 Q4547.7 35.7533 4547.7 39.156 Q4547.7 41.7486 4549.68 43.2475 Q4551.67 44.7058 4557.66 46.0426 L4560.21 46.6097 Q4568.15 48.3111 4571.47 51.4303 Q4574.84 54.509 4574.84 60.0587 Q4574.84 66.3781 4569.81 70.0644 Q4564.83 73.7508 4556.08 73.7508 Q4552.44 73.7508 4548.47 73.0216 Q4544.54 72.3329 4540.16 70.9151 L4540.16 63.2184 Q4544.29 65.3654 4548.3 66.4591 Q4552.31 67.5124 4556.24 67.5124 Q4561.51 67.5124 4564.35 65.73 Q4567.18 63.9071 4567.18 60.6258 Q4567.18 57.5877 4565.12 55.9673 Q4563.09 54.3469 4556.16 52.8481 L4553.57 52.2405 Q4546.64 50.7821 4543.56 47.7845 Q4540.49 44.7463 4540.49 39.4801 Q4540.49 33.0797 4545.02 29.5959 Q4549.56 26.1121 4557.9 26.1121 Q4562.04 26.1121 4565.68 26.7198 Q4569.33 27.3274 4572.41 28.5427 Z" fill="#000000" fill-rule="nonzero" fill-opacity="1" /><path clip-path="url(#clip460)" d="M4604.29 32.4315 Q4598.29 32.4315 4594.81 37.1306 Q4591.32 41.7891 4591.32 49.9314 Q4591.32 58.0738 4594.77 62.7728 Q4598.25 67.4314 4604.29 67.4314 Q4610.24 67.4314 4613.73 62.7323 Q4617.21 58.0333 4617.21 49.9314 Q4617.21 41.8701 4613.73 37.1711 Q4610.24 32.4315 4604.29 32.4315 M4604.29 26.1121 Q4614.01 26.1121 4619.56 32.4315 Q4625.11 38.7509 4625.11 49.9314 Q4625.11 61.0714 4619.56 67.4314 Q4614.01 73.7508 4604.29 73.7508 Q4594.52 73.7508 4588.97 67.4314 Q4583.47 61.0714 4583.47 49.9314 Q4583.47 38.7509 4588.97 32.4315 Q4594.52 26.1121 4604.29 26.1121 Z" fill="#000000" fill-rule="nonzero" fill-opacity="1" /><path clip-path="url(#clip460)" d="M4666.39 28.5427 L4666.39 35.5912 Q4663.23 33.9709 4659.83 33.1607 Q4656.42 32.3505 4652.78 32.3505 Q4647.23 32.3505 4644.43 34.0519 Q4641.68 35.7533 4641.68 39.156 Q4641.68 41.7486 4643.66 43.2475 Q4645.65 44.7058 4651.64 46.0426 L4654.19 46.6097 Q4662.13 48.3111 4665.46 51.4303 Q4668.82 54.509 4668.82 60.0587 Q4668.82 66.3781 4663.8 70.0644 Q4658.81 73.7508 4650.06 73.7508 Q4646.42 73.7508 4642.45 73.0216 Q4638.52 72.3329 4634.14 70.9151 L4634.14 63.2184 Q4638.27 65.3654 4642.28 66.4591 Q4646.3 67.5124 4650.22 67.5124 Q4655.49 67.5124 4658.33 65.73 Q4661.16 63.9071 4661.16 60.6258 Q4661.16 57.5877 4659.1 55.9673 Q4657.07 54.3469 4650.14 52.8481 L4647.55 52.2405 Q4640.62 50.7821 4637.55 47.7845 Q4634.47 44.7463 4634.47 39.4801 Q4634.47 33.0797 4639 29.5959 Q4643.54 26.1121 4651.89 26.1121 Q4656.02 26.1121 4659.66 26.7198 Q4663.31 27.3274 4666.39 28.5427 Z" fill="#000000" fill-rule="nonzero" fill-opacity="1" /><polyline clip-path="url(#clip462)" style="stroke:#009af9; stroke-linecap:round; stroke-linejoin:round; stroke-width:8; stroke-opacity:1; fill:none" points="510.509,2226.84 510.648,2226.84 512.03,2226.84 523.003,2226.85 543.393,2226.99 567.901,2227.59 601.066,2229.49 633.904,2232.76 668.706,2237.67 706.633,2244.64 747.505,2254.07 793.189,2267.05 840.122,2282.99 888.36,2301.31 942.164,2321.31 991.405,2335.48 1042.57,2342.87 1099.08,2339.59 1148.91,2323.9 1203.51,2289.61 1255.15,2239 1303.68,2175.98 1351.28,2103.04 1396.51,2028.82 1441.51,1956.77 1488.15,1892.39 1536.1,1848.48 1584.76,1840.25 1631.22,1877.45 1673.8,1955.66 1714.93,2071.28 1754.47,2214.33 1793.14,2374.8 1831.91,2542.16 1871.96,2703.61 1911.82,2831.61 1949.9,2904.33 1986.64,2914.54 2022.17,2861.18 2057.12,2748.05 2092.2,2581.31 2128.48,2368.1 2166.08,2127.02 2200.58,1912.09 2233.79,1731.95 2265.92,1598.49 2297.74,1516.15 2330.05,1487.85 2364.66,1517.31 2406.88,1623.36 2438.39,1738.18 2470.47,1872.75 2500.5,2005.4 2530.83,2139.28 2561.97,2272.83 2598.69,2423.54 2628.73,2540.73 2657.93,2647.85 2685.85,2740.57 2713.71,2818.24 2742.22,2875.01 2774.12,2901.84 2804.69,2883.84 2831.79,2830.14 2858.51,2745.36 2884.48,2638.93 2910.99,2515.12 2939.47,2376.63 2969.4,2236.81 2994.47,2130.02 3019.49,2033.98 3043.58,1949.43 3068.16,1867.57 3094.11,1782.11 3124.53,1681.97 3148.47,1607.26 3172.75,1543.67 3195.77,1504.85 3219.16,1497.4 3243.36,1532.48 3271.35,1631.65 3294.89,1758.22 3317.7,1906.07 3339.53,2055.07 3361.23,2194.29 3383.32,2312.12 3407.4,2402.24 3430.81,2450.33 3451.92,2468.43 3472.66,2476.55 3492.87,2490.51 3513.36,2525.01 3534.82,2593.36 3558.7,2709.43 3579.4,2833.08 3599.66,2955.26 3619.19,3051.67 3638.71,3105.07 3658.57,3097.39 3679.79,3010.19 3701.83,2838.75 3721.31,2638.15 3740.42,2423.91 3758.82,2230.06 3777.2,2074.67 3795.93,1975.42 3815.86,1944.72 3835.9,1984.52 3854.13,2061.31 3872,2145.86 3889.35,2207.98 3906.73,2224.83 3924.5,2176.82 3943.49,2046.15 3962.74,1842.36 3980.4,1619.37 3997.78,1401.61 4014.76,1226.28 4031.82,1119.34 4049.23,1104.66 4067.7,1202.2 4087.16,1416.83 4104.77,1677.32 4121.94,1950.46 4138.54,2191.31 4155.01,2373.32 4171.64,2475.2 4189.03,2484.34 4207.78,2394.87 4224.92,2253.76 4241.4,2104.05 4257.38,1984.1 4273.25,1921.85 4289.26,1938.74 4305.92,2049.9 4324.36,2272.06 4342.04,2549.56 4358.57,2823.57 4374.92,3066.17 4391.08,3242.8 4407.5,3333.42 4424.62,3323.05 4443.97,3195.49 4463.19,2985.49 4480.23,2773.79 4497.27,2578.17 4513.86,2431.95 4530.8,2344.15 4548.53,2319.89 4568.23,2356.07 4585.93,2417.26 4603.32,2475.51 4620.39,2509.12 4637.66,2506.13 4655.31,2460.86 4673.17,2376.48 4690.63,2266 4708.09,2138.16 4726,1997.58 4744.76,1846.79 4762.93,1702.65 4780.36,1572.74 4797.62,1462.26 4815.07,1382.2 4833.53,1348.09 4854.03,1385.75 4871.71,1482.84 4889.29,1625.23 4906.36,1783.26 4923.65,1932.65 4941.07,2042.35 4958.14,2090.05 4974.71,2075.53 4991.14,2013.51 5007.75,1927.38 5024.51,1849.17 5040.72,1811.55 5056.51,1830.46 5072.17,1909.75 5088.1,2045.31 5105.05,2229.48 5122.56,2432.3 5138.3,2599.49 5154.01,2735.07 5169.53,2831.32 5185.7,2893.71 5203.93,2928.23 5221.23,2938.11 5237,2934.2 5252.78,2918.24 5268.63,2886.18 5285.9,2827.86 5303.74,2742.04 5319.12,2655.48 5334.63,2571.29 5349.86,2509 5366.09,2481.53 5386.65,2515.24 5401.4,2577.52 5416.99,2655.06 5431.66,2712.56 5447.15,2729.13 5463.67,2674.97 5478.85,2555.77 5493.35,2392.21 5507.55,2207.4 5521.85,2024.13 5536.97,1861.32 5552.58,1746.85 5566.74,1693.88 5580.77,1679.75 5594.62,1686.35 5608.94,1694.78 5624.81,1687.24 5640.21,1656.74 5654.1,1617.32 5667.94,1582.45 5681.66,1569.56 5696.16,1593.59 5714.68,1684.11 5728.52,1780.38 5742.73,1878.16 5756.21,1944.14 5770.17,1963.71 5785.33,1919.06 5801.14,1812.69 5814.43,1704.36 5827.94,1611.35 5841.06,1568.77 5854.82,1598.16 5870.39,1730.67 5884.43,1923.44 5897.6,2135.78 5910.49,2338.04 5923.33,2502.83 5936.8,2613.74 5952.17,2655.82 5965.44,2634.92 5978.47,2590.51 5991.15,2553.6 6004.02,2546.82 6017.58,2586.91 6034.21,2695.04 6047.14,2799.1 6060.44,2891.78 6073.15,2940.19 6086.33,2932.07 6100.53,2857.12 6116.7,2718 6129.45,2605.32 6142.75,2522.11 6155.49,2499.42 6168.93,2544.76 6184.17,2666.03 6198.36,2806.41 6211.43,2916.49 6224.44,2973 6237.45,2956.21 6251.22,2857.02 6268.58,2645.74 6281.82,2461.86 6295.44,2291.9 6308.42,2171.54 6321.92,2097.87 6336.6,2066.13 6352.04,2056.79 6365.3,2041.09 6378.92,2000.27 6392.37,1932.89 6406.74,1843.71 6423.97,1745.88 6438.66,1697.19 6453.23,1690.92 6467.62,1718.11 6482.56,1759.65 6498.78,1790.37 6515.84,1784.35 6531.29,1746.31 6547.06,1694.79 6562.77,1654.57 6579.13,1640.27 6596.49,1652.67 6614.96,1673.87 6631.62,1681.68 6647.83,1681.65 6663.65,1696.85 6679.89,1758.82 6698.4,1909.41 6714.45,2095.68 6729.6,2280.63 6744.42,2427.1 6759.67,2509.95 6777.04,2514.5 6791.7,2471.83 6806.16,2430.04 6820.29,2424.66 6835.1,2474.48 6852.17,2588.32 6866.4,2693.47 6880.72,2770.79 6894.78,2796.94 6909.79,2771.61 6928.44,2705.9 6942.5,2674.36 6957.44,2687.03 6971.91,2746.05 6987.95,2837.3 7005.26,2913.17 7020.1,2924.1 7035.59,2874.65 7051.13,2782.53 7068.39,2670.18 7086.42,2574.19 7102.99,2503.81 7120.18,2422.67 7137.45,2310.17 7154.84,2173.06 7171.91,2053.36 7189.76,1988.77 7207.89,1997.76 7223.75,2035.04 7239.64,2050.42 7255.63,2007.62 7273.48,1891.33 7288.69,1773.14 7303.89,1684.02 7319.01,1651.73 7335.82,1675.58 7351.94,1715.8 7366.7,1725.59 7381.75,1689.25 7397.48,1615.43 7415.6,1540.52 7425.31,1527.52 "/>
<polyline clip-path="url(#clip462)" style="stroke:#e26f46; stroke-linecap:round; stroke-linejoin:round; stroke-width:8; stroke-opacity:1; fill:none" points="510.509,2226.84 510.648,2226.84 512.03,2226.84 523.003,2226.85 543.393,2226.99 567.901,2227.64 601.066,2229.94 633.904,2234.47 668.706,2242.13 706.633,2253.9 747.505,2270.5 793.189,2293.9 840.122,2322.86 888.36,2355.71 942.164,2391.46 991.405,2418.18 1042.57,2434.21 1099.08,2431.43 1148.91,2405.93 1203.51,2347.73 1255.15,2260.25 1303.68,2150.26 1351.28,2021.35 1396.51,1887.56 1441.51,1754.9 1488.15,1633.59 1536.1,1546.56 1584.76,1521.03 1631.22,1576.56 1673.8,1707.72 1714.93,1909.34 1754.47,2165.25 1793.14,2458.79 1831.91,2771.57 1871.96,3080.38 1911.82,3333.13 1949.9,3486.5 1986.64,3524.18 2022.17,3440.83 2057.12,3240.57 2092.2,2932.49 2128.48,2528.02 2166.08,2061.31 2200.58,1638.55 2233.79,1280.33 2265.92,1013.8 2297.74,851.172 2330.05,801.036 2364.66,873.032 2406.88,1107.49 2438.39,1353.56 2470.47,1632.81 2500.5,1895.72 2530.83,2144.86 2561.97,2374.02 2598.69,2609.65 2628.73,2781.5 2657.93,2937.98 2685.85,3081.05 2713.71,3215.16 2742.22,3334.19 2774.12,3426.69 2804.69,3452.09 2831.79,3406.45 2858.51,3290.92 2884.48,3112.63 2910.99,2874.11 2939.47,2575.55 2969.4,2246.51 2994.47,1984.14 3019.49,1752.18 3043.58,1566.54 3068.16,1417.74 3094.11,1300.59 3124.53,1203 3148.47,1146.5 3172.75,1102.67 3195.77,1075.02 3219.16,1067.51 3243.36,1092.84 3271.35,1180.42 3294.89,1311.77 3317.7,1490.08 3339.53,1700.22 3361.23,1934.02 3383.32,2178.93 3407.4,2430.79 3430.81,2640.73 3451.92,2791.24 3472.66,2903.2 3492.87,2984.87 3513.36,3051.51 3534.82,3118.05 3558.7,3202.27 3579.4,3288.06 3599.66,3377.66 3619.19,3456.04 3638.71,3508.6 3658.57,3515.92 3679.79,3453.68 3701.83,3302.32 3721.31,3099.79 3740.42,2854.62 3758.82,2598.22 3777.2,2348.29 3795.93,2125.65 3815.86,1946.12 3835.9,1835.44 3854.13,1790.19 3872,1780.22 3889.35,1780.47 3906.73,1766.03 3924.5,1713.67 3943.49,1599.55 3962.74,1421.13 3980.4,1216.83 3997.78,1004.6 4014.76,818.517 4031.82,685.538 4049.23,634.062 4067.7,691.563 4087.16,876.922 4104.77,1133.75 4121.94,1431.06 4138.54,1723.09 4155.01,1980.45 4171.64,2176.93 4189.03,2295.55 4207.78,2323.96 4224.92,2280.93 4241.4,2211.18 4257.38,2153.66 4273.25,2140.03 4289.26,2195.9 4305.92,2341.69 4324.36,2600.55 4342.04,2915.09 4358.57,3225.61 4374.92,3503.93 4391.08,3712.02 4407.5,3826.95 4424.62,3830.78 4443.97,3704.77 4463.19,3484.13 4480.23,3257.72 4497.27,3047.14 4513.86,2888.73 4530.8,2790.49 4548.53,2752.9 4568.23,2761.41 4585.93,2775.95 4603.32,2761.28 4620.39,2696.14 4637.66,2571.5 4655.31,2392.28 4673.17,2180.56 4690.63,1971.13 4708.09,1782.3 4726,1622.18 4744.76,1489 4762.93,1379.55 4780.36,1276.49 4797.62,1167 4815.07,1051.06 4833.53,940.185 4854.03,866.88 4871.71,875.174 4889.29,962.929 4906.36,1117.39 4923.65,1317.59 4941.07,1524.1 4958.14,1690.21 4974.71,1788.86 4991.14,1817.51 5007.75,1790.14 5024.51,1738.93 5040.72,1709.07 5056.51,1736.09 5072.17,1841.14 5088.1,2032.69 5105.05,2310.85 5122.56,2635.07 5138.3,2911.48 5154.01,3134.45 5169.53,3279.94 5185.7,3348.54 5203.93,3345.6 5221.23,3303.42 5237,3266.98 5252.78,3255.02 5268.63,3273.38 5285.9,3314.5 5303.74,3348.53 5319.12,3343.68 5334.63,3291 5349.86,3192.59 5366.09,3053.56 5386.65,2873.55 5401.4,2774.23 5416.99,2713.63 5431.66,2696.27 5447.15,2700.37 5463.67,2693.64 5478.85,2641.4 5493.35,2527.25 5507.55,2348.46 5521.85,2112.67 5536.97,1831.36 5552.58,1549.41 5566.74,1338.49 5580.77,1195.95 5594.62,1128.9 5608.94,1128.47 5624.81,1182.33 5640.21,1250.89 5654.1,1296.2 5667.94,1308.06 5681.66,1283.31 5696.16,1227.96 5714.68,1148.6 5728.52,1111.9 5742.73,1113.69 5756.21,1157.71 5770.17,1240.54 5785.33,1354.73 5801.14,1473.58 5814.43,1555.28 5827.94,1613.77 5841.06,1649.82 5854.82,1678.22 5870.39,1722.59 5884.43,1795.82 5897.6,1905.89 5910.49,2054.63 5923.33,2236.16 5936.8,2446.7 5952.17,2684.95 5965.44,2865.83 5978.47,3005.53 5991.15,3099.03 6004.02,3152.52 6017.58,3172.37 6034.21,3165.95 6047.14,3153.9 6060.44,3146.99 6073.15,3151.45 6086.33,3168.93 6100.53,3199.41 6116.7,3240.69 6129.45,3271.09 6142.75,3294.7 6155.49,3305.19 6168.93,3299.85 6184.17,3270.45 6198.36,3219.66 6211.43,3153.95 6224.44,3073.37 6237.45,2982.31 6251.22,2880.52 6268.58,2753.4 6281.82,2660.79 6295.44,2567.9 6308.42,2475.96 6321.92,2368.77 6336.6,2229.75 6352.04,2054.08 6365.3,1884.18 6378.92,1705.36 6392.37,1543.51 6406.74,1408.84 6423.97,1321.74 6438.66,1313.42 6453.23,1347.46 6467.62,1393.11 6482.56,1419.17 6498.78,1394.02 6515.84,1302.27 6531.29,1185.74 6547.06,1075.98 6562.77,1016.7 6579.13,1032.58 6596.49,1129.2 6614.96,1278.18 6631.62,1405.16 6647.83,1495.47 6663.65,1554.74 6679.89,1611.64 6698.4,1713.83 6714.45,1856.85 6729.6,2034.26 6744.42,2226.45 6759.67,2415.56 6777.04,2592.02 6791.7,2701.26 6806.16,2780.66 6820.29,2843.74 6835.1,2906.09 6852.17,2978.29 6866.4,3034.39 6880.72,3080.56 6894.78,3113.8 6909.79,3141.8 6928.44,3184.83 6942.5,3235.21 6957.44,3305.08 6971.91,3373.89 6987.95,3422.16 7005.26,3407.52 7020.1,3329.68 7035.59,3199.37 7051.13,3051.77 7068.39,2911.06 7086.42,2813.12 7102.99,2750.66 7120.18,2670.43 7137.45,2535.09 7154.84,2338.06 7171.91,2119.5 7189.76,1919.62 7207.89,1785.76 7223.75,1722.67 7239.64,1681.01 7255.63,1628.49 7273.48,1538.5 7288.69,1444.51 7303.89,1355.36 7319.01,1287.02 7335.82,1235.97 7351.94,1195.81 7366.7,1151.73 7381.75,1098.43 7397.48,1051.88 7415.6,1048.87 7425.31,1081.24 "/>
<polyline clip-path="url(#clip462)" style="stroke:#3da44d; stroke-linecap:round; stroke-linejoin:round; stroke-width:8; stroke-opacity:1; fill:none" points="510.509,2226.84 510.648,2226.84 512.03,2226.84 523.003,2226.85 543.393,2226.99 567.901,2227.64 601.066,2229.99 633.904,2234.79 668.706,2243.47 706.633,2258 747.505,2280.02 793.189,2311.94 840.122,2350.88 888.36,2394.35 942.164,2441.92 991.405,2478.69 1042.57,2502.67 1099.08,2502.5 1148.91,2470.99 1203.51,2395.89 1255.15,2282.57 1303.68,2139.21 1351.28,1969.13 1396.51,1790.17 1441.51,1610.18 1488.15,1442.64 1536.1,1318.47 1584.76,1274.31 1631.22,1337.29 1673.8,1502.27 1714.93,1764.2 1754.47,2103.61 1793.14,2499.31 1831.91,2927.28 1871.96,3356.87 1911.82,3716.5 1949.9,3944.29 1986.64,4015.18 2022.17,3918.89 2057.12,3658.29 2092.2,3243.04 2128.48,2686.22 2166.08,2033.15 2200.58,1433.81 2233.79,920.687 2265.92,535.719 2297.74,299.618 2330.05,227.648 2364.66,336.357 2406.88,686.887 2438.39,1052.6 2470.47,1462.75 2500.5,1840.5 2530.83,2185.72 2561.97,2485.79 2598.69,2769.95 2628.73,2962.09 2657.93,3133.56 2685.85,3297.31 2713.71,3465.84 2742.22,3636.7 2774.12,3801.04 2804.69,3893.53 2831.79,3888.4 2858.51,3779.39 2884.48,3564.41 2910.99,3239.92 2939.47,2799.09 2969.4,2283.25 2994.47,1857.36 3019.49,1478.23 3043.58,1184.09 3068.16,970.866 3094.11,840.799 3124.53,789.936 3148.47,798.386 3172.75,823.359 3195.77,844.711 3219.16,856.8 3243.36,864.648 3271.35,892.507 3294.89,960.732 3317.7,1090.92 3339.53,1288.74 3361.23,1559.24 3383.32,1899.49 3407.4,2317.15 3430.81,2729.93 3451.92,3071.48 3472.66,3350.46 3492.87,3551.05 3513.36,3676.41 3534.82,3730.01 3558.7,3719.01 3579.4,3676.21 3599.66,3628.5 3619.19,3592.96 3638.71,3574.48 3658.57,3569.73 3679.79,3565.23 3701.83,3535.03 3721.31,3462.79 3740.42,3333.13 3758.82,3145.77 3777.2,2899.37 3795.93,2599.22 3815.86,2248.07 3835.9,1892.61 3854.13,1594.22 3872,1344.66 3889.35,1154.28 3906.73,1018.28 3924.5,931.346 3943.49,883.819 3962.74,864.727 3980.4,856.084 3997.78,843.874 4014.76,822.75 4031.82,793.012 4049.23,760.558 4067.7,736.647 4087.16,740.736 4104.77,784.622 4121.94,872.947 4138.54,1003.5 4155.01,1174.37 4171.64,1381.27 4189.03,1623.42 4207.78,1898.58 4224.92,2149.96 4241.4,2382.03 4257.38,2592.37 4273.25,2784.12 4289.26,2959.18 4305.92,3121.97 4324.36,3279.19 4342.04,3407.34 4358.57,3506.41 4374.92,3583.96 4391.08,3640.44 4407.5,3678.25 4424.62,3699.24 4443.97,3705.49 4463.19,3699.47 4480.23,3687.32 4497.27,3668.37 4513.86,3639 4530.8,3589.71 4548.53,3505.63 4568.23,3359.17 4585.93,3172.05 4603.32,2937.83 4620.39,2669.29 4637.66,2376.41 4655.31,2079.34 4673.17,1806.56 4690.63,1586.22 4708.09,1421.29 4726,1306.69 4744.76,1229.83 4762.93,1173.69 4780.36,1114.67 4797.62,1036.91 4815.07,935.052 4833.53,811.053 4854.03,679.751 4871.71,598.485 4889.29,567.691 4906.36,595.352 4923.65,680.467 4941.07,814.195 4958.14,976.76 4974.71,1150 4991.14,1327.24 5007.75,1507.81 5024.51,1692.76 5040.72,1878.44 5056.51,2068.81 5072.17,2266.29 5088.1,2471 5105.05,2682.08 5122.56,2878.86 5138.3,3026.87 5154.01,3143.55 5169.53,3231.48 5185.7,3304.28 5203.93,3381.14 5221.23,3465.37 5237,3558.58 5252.78,3664.18 5268.63,3770.13 5285.9,3863.6 5303.74,3910.11 5319.12,3894.38 5334.63,3822.24 5349.86,3702.71 5366.09,3537.85 5386.65,3305.09 5401.4,3140.45 5416.99,2977.58 5431.66,2834.45 5447.15,2687.44 5463.67,2524.62 5478.85,2361.9 5493.35,2193.46 5507.55,2020.61 5521.85,1847.74 5536.97,1677.88 5552.58,1526.91 5566.74,1415.09 5580.77,1324.46 5594.62,1246.56 5608.94,1166.5 5624.81,1065.99 5640.21,950.51 5654.1,834.882 5667.94,719.68 5681.66,620.739 5696.16,550.054 5714.68,531.475 5728.52,574.886 5742.73,663.575 5756.21,775.93 5770.17,904.903 5785.33,1042.15 5801.14,1170.82 5814.43,1267.6 5827.94,1362.95 5841.06,1462.86 5854.82,1585.83 5870.39,1754.87 5884.43,1932.23 5897.6,2110.45 5910.49,2283.21 5923.33,2441.19 5936.8,2582.06 5952.17,2708.29 5965.44,2794.24 5978.47,2870.53 5991.15,2950.72 6004.02,3049.78 6017.58,3179.69 6034.21,3369.13 6047.14,3524.47 6060.44,3671.53 6073.15,3782.56 6086.33,3854.02 6100.53,3875.98 6116.7,3840.7 6129.45,3783.84 6142.75,3715.45 6155.49,3654.55 6168.93,3602.27 6184.17,3554.54 6198.36,3507.38 6211.43,3445.97 6224.44,3355.77 6237.45,3231.91 6251.22,3068.66 6268.58,2838.67 6281.82,2667.51 6295.44,2512.84 6308.42,2392.2 6321.92,2291.35 6336.6,2195.1 6352.04,2084.95 6365.3,1966.16 6378.92,1814.31 6392.37,1639.7 6406.74,1442.22 6423.97,1221.63 6438.66,1070.55 6453.23,962.415 6467.62,890.306 6482.56,836.314 6498.78,782.494 6515.84,721.356 6531.29,670.36 6547.06,643.231 6562.77,661.822 6579.13,738.54 6596.49,870.814 6614.96,1031.99 6631.62,1162.14 6647.83,1263.09 6663.65,1348.53 6679.89,1448.68 6698.4,1609.1 6714.45,1794.87 6729.6,1994.68 6744.42,2188.51 6759.67,2364.08 6777.04,2524.7 6791.7,2639.54 6806.16,2756 6820.29,2891.12 6835.1,3062.34 6852.17,3281.86 6866.4,3454.89 6880.72,3591.86 6894.78,3674.19 6909.79,3705.92 6928.44,3694.54 6942.5,3678.79 6957.44,3675.18 6971.91,3685.03 6987.95,3692.32 7005.26,3662.61 7020.1,3588.17 7035.59,3466.16 7051.13,3321.42 7068.39,3169.77 7086.42,3043.44 7102.99,2944.81 7120.18,2825.3 7137.45,2656.12 7154.84,2433.65 7171.91,2194.66 7189.76,1967.43 7207.89,1785.17 7223.75,1654.3 7239.64,1521.07 7255.63,1361.85 7273.48,1156.75 7288.69,987.969 7303.89,859.507 7319.01,791.834 7335.82,781.403 7351.94,802.711 7366.7,816.388 7381.75,808.805 7397.48,787.283 7415.6,784.666 7425.31,808.435 "/>
<path clip-path="url(#clip460)" d="M6425.42 455.208 L7388.43 455.208 L7388.43 247.848 L6425.42 247.848  Z" fill="#ffffff" fill-rule="evenodd" fill-opacity="1"/>
<polyline clip-path="url(#clip460)" style="stroke:#000000; stroke-linecap:round; stroke-linejoin:round; stroke-width:4; stroke-opacity:1; fill:none" points="6425.42,455.208 7388.43,455.208 7388.43,247.848 6425.42,247.848 6425.42,455.208 "/>
<polyline clip-path="url(#clip460)" style="stroke:#009af9; stroke-linecap:round; stroke-linejoin:round; stroke-width:8; stroke-opacity:1; fill:none" points="6506.86,299.688 6995.51,299.688 "/>
<path clip-path="url(#clip460)" d="M7081.62 286.251 L7081.62 299.237 L7087.5 299.237 Q7090.77 299.237 7092.55 297.547 Q7094.33 295.857 7094.33 292.732 Q7094.33 289.63 7092.55 287.941 Q7090.77 286.251 7087.5 286.251 L7081.62 286.251 M7076.95 282.408 L7087.5 282.408 Q7093.31 282.408 7096.28 285.047 Q7099.26 287.663 7099.26 292.732 Q7099.26 297.848 7096.28 300.464 Q7093.31 303.079 7087.5 303.079 L7081.62 303.079 L7081.62 316.968 L7076.95 316.968 L7076.95 282.408 Z" fill="#000000" fill-rule="nonzero" fill-opacity="1" /><path clip-path="url(#clip460)" d="M7104.31 291.042 L7108.57 291.042 L7108.57 316.968 L7104.31 316.968 L7104.31 291.042 M7104.31 280.95 L7108.57 280.95 L7108.57 286.343 L7104.31 286.343 L7104.31 280.95 Z" fill="#000000" fill-rule="nonzero" fill-opacity="1" /><path clip-path="url(#clip460)" d="M7134.01 291.806 L7134.01 295.834 Q7132.2 294.908 7130.26 294.445 Q7128.31 293.982 7126.23 293.982 Q7123.06 293.982 7121.46 294.954 Q7119.89 295.927 7119.89 297.871 Q7119.89 299.353 7121.02 300.209 Q7122.15 301.042 7125.58 301.806 L7127.04 302.13 Q7131.58 303.103 7133.47 304.885 Q7135.4 306.644 7135.4 309.815 Q7135.4 313.427 7132.53 315.533 Q7129.68 317.64 7124.68 317.64 Q7122.59 317.64 7120.33 317.223 Q7118.08 316.829 7115.58 316.019 L7115.58 311.621 Q7117.94 312.848 7120.23 313.473 Q7122.53 314.075 7124.77 314.075 Q7127.78 314.075 7129.4 313.056 Q7131.02 312.015 7131.02 310.14 Q7131.02 308.403 7129.84 307.478 Q7128.68 306.552 7124.72 305.695 L7123.24 305.348 Q7119.28 304.515 7117.53 302.802 Q7115.77 301.066 7115.77 298.056 Q7115.77 294.399 7118.36 292.408 Q7120.95 290.417 7125.72 290.417 Q7128.08 290.417 7130.16 290.765 Q7132.25 291.112 7134.01 291.806 Z" fill="#000000" fill-rule="nonzero" fill-opacity="1" /><path clip-path="url(#clip460)" d="M7152.22 294.029 Q7148.8 294.029 7146.81 296.714 Q7144.82 299.376 7144.82 304.028 Q7144.82 308.681 7146.78 311.366 Q7148.78 314.028 7152.22 314.028 Q7155.63 314.028 7157.62 311.343 Q7159.61 308.658 7159.61 304.028 Q7159.61 299.422 7157.62 296.737 Q7155.63 294.029 7152.22 294.029 M7152.22 290.417 Q7157.78 290.417 7160.95 294.029 Q7164.12 297.64 7164.12 304.028 Q7164.12 310.394 7160.95 314.028 Q7157.78 317.64 7152.22 317.64 Q7146.65 317.64 7143.47 314.028 Q7140.33 310.394 7140.33 304.028 Q7140.33 297.64 7143.47 294.029 Q7146.65 290.417 7152.22 290.417 Z" fill="#000000" fill-rule="nonzero" fill-opacity="1" /><path clip-path="url(#clip460)" d="M7187.66 313.033 L7195.3 313.033 L7195.3 286.667 L7186.99 288.334 L7186.99 284.075 L7195.26 282.408 L7199.93 282.408 L7199.93 313.033 L7207.57 313.033 L7207.57 316.968 L7187.66 316.968 L7187.66 313.033 Z" fill="#000000" fill-rule="nonzero" fill-opacity="1" /><path clip-path="url(#clip460)" d="M7241.71 280.996 Q7238.61 286.32 7237.11 291.529 Q7235.6 296.737 7235.6 302.084 Q7235.6 307.431 7237.11 312.686 Q7238.64 317.917 7241.71 323.218 L7238.01 323.218 Q7234.54 317.778 7232.8 312.524 Q7231.09 307.269 7231.09 302.084 Q7231.09 296.922 7232.8 291.691 Q7234.52 286.459 7238.01 280.996 L7241.71 280.996 Z" fill="#000000" fill-rule="nonzero" fill-opacity="1" /><path clip-path="url(#clip460)" d="M7257.46 280.95 L7261.71 280.95 L7261.71 286.343 L7257.46 286.343 L7257.46 280.95 M7259.63 290.417 L7259.63 290.417 M7271.53 291.042 L7262.15 303.658 L7272.02 316.968 L7266.99 316.968 L7259.45 306.783 L7251.9 316.968 L7246.88 316.968 L7256.95 303.403 L7247.73 291.042 L7252.76 291.042 L7259.63 300.278 L7266.51 291.042 L7271.53 291.042 Z" fill="#000000" fill-rule="nonzero" fill-opacity="1" /><path clip-path="url(#clip460)" d="M7277.18 314.422 L7281.9 314.422 L7281.9 300.278 L7276.74 301.228 L7276.74 298.542 L7282.06 297.64 L7285.23 297.64 L7285.23 314.422 L7289.98 314.422 L7289.98 316.968 L7277.18 316.968 L7277.18 314.422 Z" fill="#000000" fill-rule="nonzero" fill-opacity="1" /><path clip-path="url(#clip460)" d="M7296.37 280.996 L7300.07 280.996 Q7303.54 286.459 7305.26 291.691 Q7306.99 296.922 7306.99 302.084 Q7306.99 307.269 7305.26 312.524 Q7303.54 317.778 7300.07 323.218 L7296.37 323.218 Q7299.45 317.917 7300.95 312.686 Q7302.48 307.431 7302.48 302.084 Q7302.48 296.737 7300.95 291.529 Q7299.45 286.32 7296.37 280.996 Z" fill="#000000" fill-rule="nonzero" fill-opacity="1" /><polyline clip-path="url(#clip460)" style="stroke:#e26f46; stroke-linecap:round; stroke-linejoin:round; stroke-width:8; stroke-opacity:1; fill:none" points="6506.86,351.528 6995.51,351.528 "/>
<path clip-path="url(#clip460)" d="M7081.62 338.091 L7081.62 351.077 L7087.5 351.077 Q7090.77 351.077 7092.55 349.387 Q7094.33 347.697 7094.33 344.572 Q7094.33 341.47 7092.55 339.781 Q7090.77 338.091 7087.5 338.091 L7081.62 338.091 M7076.95 334.248 L7087.5 334.248 Q7093.31 334.248 7096.28 336.887 Q7099.26 339.503 7099.26 344.572 Q7099.26 349.688 7096.28 352.304 Q7093.31 354.919 7087.5 354.919 L7081.62 354.919 L7081.62 368.808 L7076.95 368.808 L7076.95 334.248 Z" fill="#000000" fill-rule="nonzero" fill-opacity="1" /><path clip-path="url(#clip460)" d="M7104.31 342.882 L7108.57 342.882 L7108.57 368.808 L7104.31 368.808 L7104.31 342.882 M7104.31 332.79 L7108.57 332.79 L7108.57 338.183 L7104.31 338.183 L7104.31 332.79 Z" fill="#000000" fill-rule="nonzero" fill-opacity="1" /><path clip-path="url(#clip460)" d="M7134.01 343.646 L7134.01 347.674 Q7132.2 346.748 7130.26 346.285 Q7128.31 345.822 7126.23 345.822 Q7123.06 345.822 7121.46 346.794 Q7119.89 347.767 7119.89 349.711 Q7119.89 351.193 7121.02 352.049 Q7122.15 352.882 7125.58 353.646 L7127.04 353.97 Q7131.58 354.943 7133.47 356.725 Q7135.4 358.484 7135.4 361.655 Q7135.4 365.267 7132.53 367.373 Q7129.68 369.48 7124.68 369.48 Q7122.59 369.48 7120.33 369.063 Q7118.08 368.669 7115.58 367.859 L7115.58 363.461 Q7117.94 364.688 7120.23 365.313 Q7122.53 365.915 7124.77 365.915 Q7127.78 365.915 7129.4 364.896 Q7131.02 363.855 7131.02 361.98 Q7131.02 360.243 7129.84 359.318 Q7128.68 358.392 7124.72 357.535 L7123.24 357.188 Q7119.28 356.355 7117.53 354.642 Q7115.77 352.906 7115.77 349.896 Q7115.77 346.239 7118.36 344.248 Q7120.95 342.257 7125.72 342.257 Q7128.08 342.257 7130.16 342.605 Q7132.25 342.952 7134.01 343.646 Z" fill="#000000" fill-rule="nonzero" fill-opacity="1" /><path clip-path="url(#clip460)" d="M7152.22 345.869 Q7148.8 345.869 7146.81 348.554 Q7144.82 351.216 7144.82 355.868 Q7144.82 360.521 7146.78 363.206 Q7148.78 365.868 7152.22 365.868 Q7155.63 365.868 7157.62 363.183 Q7159.61 360.498 7159.61 355.868 Q7159.61 351.262 7157.62 348.577 Q7155.63 345.869 7152.22 345.869 M7152.22 342.257 Q7157.78 342.257 7160.95 345.869 Q7164.12 349.48 7164.12 355.868 Q7164.12 362.234 7160.95 365.868 Q7157.78 369.48 7152.22 369.48 Q7146.65 369.48 7143.47 365.868 Q7140.33 362.234 7140.33 355.868 Q7140.33 349.48 7143.47 345.869 Q7146.65 342.257 7152.22 342.257 Z" fill="#000000" fill-rule="nonzero" fill-opacity="1" /><path clip-path="url(#clip460)" d="M7190.88 364.873 L7207.2 364.873 L7207.2 368.808 L7185.26 368.808 L7185.26 364.873 Q7187.92 362.118 7192.5 357.489 Q7197.11 352.836 7198.29 351.493 Q7200.53 348.97 7201.41 347.234 Q7202.32 345.475 7202.32 343.785 Q7202.32 341.031 7200.37 339.294 Q7198.45 337.558 7195.35 337.558 Q7193.15 337.558 7190.7 338.322 Q7188.27 339.086 7185.49 340.637 L7185.49 335.915 Q7188.31 334.781 7190.77 334.202 Q7193.22 333.623 7195.26 333.623 Q7200.63 333.623 7203.82 336.308 Q7207.02 338.994 7207.02 343.484 Q7207.02 345.614 7206.21 347.535 Q7205.42 349.433 7203.31 352.026 Q7202.73 352.697 7199.63 355.915 Q7196.53 359.109 7190.88 364.873 Z" fill="#000000" fill-rule="nonzero" fill-opacity="1" /><path clip-path="url(#clip460)" d="M7241.71 332.836 Q7238.61 338.16 7237.11 343.369 Q7235.6 348.577 7235.6 353.924 Q7235.6 359.271 7237.11 364.526 Q7238.64 369.757 7241.71 375.058 L7238.01 375.058 Q7234.54 369.618 7232.8 364.364 Q7231.09 359.109 7231.09 353.924 Q7231.09 348.762 7232.8 343.531 Q7234.52 338.299 7238.01 332.836 L7241.71 332.836 Z" fill="#000000" fill-rule="nonzero" fill-opacity="1" /><path clip-path="url(#clip460)" d="M7257.46 332.79 L7261.71 332.79 L7261.71 338.183 L7257.46 338.183 L7257.46 332.79 M7259.63 342.257 L7259.63 342.257 M7271.53 342.882 L7262.15 355.498 L7272.02 368.808 L7266.99 368.808 L7259.45 358.623 L7251.9 368.808 L7246.88 368.808 L7256.95 355.243 L7247.73 342.882 L7252.76 342.882 L7259.63 352.118 L7266.51 342.882 L7271.53 342.882 Z" fill="#000000" fill-rule="nonzero" fill-opacity="1" /><path clip-path="url(#clip460)" d="M7279.77 366.169 L7289.58 366.169 L7289.58 368.808 L7275.74 368.808 L7275.74 366.262 Q7276.53 365.544 7277.99 364.248 Q7285.95 357.188 7285.95 355.012 Q7285.95 353.484 7284.75 352.558 Q7283.54 351.609 7281.58 351.609 Q7280.37 351.609 7278.96 352.026 Q7277.55 352.419 7275.88 353.23 L7275.88 350.382 Q7277.66 349.734 7279.19 349.41 Q7280.74 349.086 7282.06 349.086 Q7285.42 349.086 7287.43 350.614 Q7289.45 352.142 7289.45 354.642 Q7289.45 357.859 7281.78 364.433 Q7280.49 365.544 7279.77 366.169 Z" fill="#000000" fill-rule="nonzero" fill-opacity="1" /><path clip-path="url(#clip460)" d="M7296.37 332.836 L7300.07 332.836 Q7303.54 338.299 7305.26 343.531 Q7306.99 348.762 7306.99 353.924 Q7306.99 359.109 7305.26 364.364 Q7303.54 369.618 7300.07 375.058 L7296.37 375.058 Q7299.45 369.757 7300.95 364.526 Q7302.48 359.271 7302.48 353.924 Q7302.48 348.577 7300.95 343.369 Q7299.45 338.16 7296.37 332.836 Z" fill="#000000" fill-rule="nonzero" fill-opacity="1" /><polyline clip-path="url(#clip460)" style="stroke:#3da44d; stroke-linecap:round; stroke-linejoin:round; stroke-width:8; stroke-opacity:1; fill:none" points="6506.86,403.368 6995.51,403.368 "/>
<path clip-path="url(#clip460)" d="M7081.62 389.931 L7081.62 402.917 L7087.5 402.917 Q7090.77 402.917 7092.55 401.227 Q7094.33 399.537 7094.33 396.412 Q7094.33 393.31 7092.55 391.621 Q7090.77 389.931 7087.5 389.931 L7081.62 389.931 M7076.95 386.088 L7087.5 386.088 Q7093.31 386.088 7096.28 388.727 Q7099.26 391.343 7099.26 396.412 Q7099.26 401.528 7096.28 404.144 Q7093.31 406.759 7087.5 406.759 L7081.62 406.759 L7081.62 420.648 L7076.95 420.648 L7076.95 386.088 Z" fill="#000000" fill-rule="nonzero" fill-opacity="1" /><path clip-path="url(#clip460)" d="M7104.31 394.722 L7108.57 394.722 L7108.57 420.648 L7104.31 420.648 L7104.31 394.722 M7104.31 384.63 L7108.57 384.63 L7108.57 390.023 L7104.31 390.023 L7104.31 384.63 Z" fill="#000000" fill-rule="nonzero" fill-opacity="1" /><path clip-path="url(#clip460)" d="M7134.01 395.486 L7134.01 399.514 Q7132.2 398.588 7130.26 398.125 Q7128.31 397.662 7126.23 397.662 Q7123.06 397.662 7121.46 398.634 Q7119.89 399.607 7119.89 401.551 Q7119.89 403.033 7121.02 403.889 Q7122.15 404.722 7125.58 405.486 L7127.04 405.81 Q7131.58 406.783 7133.47 408.565 Q7135.4 410.324 7135.4 413.495 Q7135.4 417.107 7132.53 419.213 Q7129.68 421.32 7124.68 421.32 Q7122.59 421.32 7120.33 420.903 Q7118.08 420.509 7115.58 419.699 L7115.58 415.301 Q7117.94 416.528 7120.23 417.153 Q7122.53 417.755 7124.77 417.755 Q7127.78 417.755 7129.4 416.736 Q7131.02 415.695 7131.02 413.82 Q7131.02 412.083 7129.84 411.158 Q7128.68 410.232 7124.72 409.375 L7123.24 409.028 Q7119.28 408.195 7117.53 406.482 Q7115.77 404.746 7115.77 401.736 Q7115.77 398.079 7118.36 396.088 Q7120.95 394.097 7125.72 394.097 Q7128.08 394.097 7130.16 394.445 Q7132.25 394.792 7134.01 395.486 Z" fill="#000000" fill-rule="nonzero" fill-opacity="1" /><path clip-path="url(#clip460)" d="M7152.22 397.709 Q7148.8 397.709 7146.81 400.394 Q7144.82 403.056 7144.82 407.708 Q7144.82 412.361 7146.78 415.046 Q7148.78 417.708 7152.22 417.708 Q7155.63 417.708 7157.62 415.023 Q7159.61 412.338 7159.61 407.708 Q7159.61 403.102 7157.62 400.417 Q7155.63 397.709 7152.22 397.709 M7152.22 394.097 Q7157.78 394.097 7160.95 397.709 Q7164.12 401.32 7164.12 407.708 Q7164.12 414.074 7160.95 417.708 Q7157.78 421.32 7152.22 421.32 Q7146.65 421.32 7143.47 417.708 Q7140.33 414.074 7140.33 407.708 Q7140.33 401.32 7143.47 397.709 Q7146.65 394.097 7152.22 394.097 Z" fill="#000000" fill-rule="nonzero" fill-opacity="1" /><path clip-path="url(#clip460)" d="M7201.02 402.014 Q7204.38 402.732 7206.25 405 Q7208.15 407.269 7208.15 410.602 Q7208.15 415.718 7204.63 418.519 Q7201.11 421.32 7194.63 421.32 Q7192.46 421.32 7190.14 420.88 Q7187.85 420.463 7185.4 419.607 L7185.4 415.093 Q7187.34 416.227 7189.65 416.806 Q7191.97 417.384 7194.49 417.384 Q7198.89 417.384 7201.18 415.648 Q7203.5 413.912 7203.5 410.602 Q7203.5 407.546 7201.34 405.833 Q7199.21 404.097 7195.4 404.097 L7191.37 404.097 L7191.37 400.255 L7195.58 400.255 Q7199.03 400.255 7200.86 398.889 Q7202.69 397.5 7202.69 394.908 Q7202.69 392.246 7200.79 390.834 Q7198.91 389.398 7195.4 389.398 Q7193.47 389.398 7191.27 389.815 Q7189.08 390.232 7186.44 391.111 L7186.44 386.945 Q7189.1 386.204 7191.41 385.834 Q7193.75 385.463 7195.81 385.463 Q7201.14 385.463 7204.24 387.894 Q7207.34 390.301 7207.34 394.422 Q7207.34 397.292 7205.7 399.283 Q7204.05 401.25 7201.02 402.014 Z" fill="#000000" fill-rule="nonzero" fill-opacity="1" /><path clip-path="url(#clip460)" d="M7241.71 384.676 Q7238.61 390 7237.11 395.209 Q7235.6 400.417 7235.6 405.764 Q7235.6 411.111 7237.11 416.366 Q7238.64 421.597 7241.71 426.898 L7238.01 426.898 Q7234.54 421.458 7232.8 416.204 Q7231.09 410.949 7231.09 405.764 Q7231.09 400.602 7232.8 395.371 Q7234.52 390.139 7238.01 384.676 L7241.71 384.676 Z" fill="#000000" fill-rule="nonzero" fill-opacity="1" /><path clip-path="url(#clip460)" d="M7257.46 384.63 L7261.71 384.63 L7261.71 390.023 L7257.46 390.023 L7257.46 384.63 M7259.63 394.097 L7259.63 394.097 M7271.53 394.722 L7262.15 407.338 L7272.02 420.648 L7266.99 420.648 L7259.45 410.463 L7251.9 420.648 L7246.88 420.648 L7256.95 407.083 L7247.73 394.722 L7252.76 394.722 L7259.63 403.958 L7266.51 394.722 L7271.53 394.722 Z" fill="#000000" fill-rule="nonzero" fill-opacity="1" /><path clip-path="url(#clip460)" d="M7285.7 410.185 Q7287.83 410.602 7288.98 411.875 Q7290.16 413.125 7290.16 415.023 Q7290.16 417.894 7287.96 419.445 Q7285.77 420.995 7281.67 420.995 Q7280.35 420.995 7278.89 420.741 Q7277.45 420.509 7275.83 420.046 L7275.83 417.245 Q7277.04 417.87 7278.4 418.171 Q7279.79 418.472 7281.34 418.472 Q7283.87 418.472 7285.26 417.57 Q7286.64 416.644 7286.64 415.023 Q7286.64 413.31 7285.35 412.431 Q7284.08 411.551 7281.58 411.551 L7279.58 411.551 L7279.58 409.051 L7281.76 409.051 Q7283.94 409.051 7285.05 408.333 Q7286.18 407.593 7286.18 406.204 Q7286.18 404.861 7285.02 404.167 Q7283.87 403.449 7281.67 403.449 Q7280.74 403.449 7279.56 403.658 Q7278.38 403.866 7276.51 404.398 L7276.51 401.736 Q7278.2 401.343 7279.68 401.134 Q7281.16 400.926 7282.43 400.926 Q7285.77 400.926 7287.71 402.292 Q7289.68 403.658 7289.68 405.949 Q7289.68 407.546 7288.64 408.658 Q7287.59 409.769 7285.7 410.185 Z" fill="#000000" fill-rule="nonzero" fill-opacity="1" /><path clip-path="url(#clip460)" d="M7296.37 384.676 L7300.07 384.676 Q7303.54 390.139 7305.26 395.371 Q7306.99 400.602 7306.99 405.764 Q7306.99 410.949 7305.26 416.204 Q7303.54 421.458 7300.07 426.898 L7296.37 426.898 Q7299.45 421.597 7300.95 416.366 Q7302.48 411.111 7302.48 405.764 Q7302.48 400.417 7300.95 395.209 Q7299.45 390 7296.37 384.676 Z" fill="#000000" fill-rule="nonzero" fill-opacity="1" /></svg>
